<?xml version="1.0" encoding="UTF-8"?>
<svg id="Layer_2" data-name="Layer 2" xmlns="http://www.w3.org/2000/svg" viewBox="0 0 499.52 131.1">
  <defs>
    <style>
      .cls-1 {
        fill: #b3b3b3;
      }

      .cls-2 {
        fill: #404040;
      }

      .cls-3 {
        fill: #034ea2;
      }

      .cls-4 {
        fill: #fff200;
      }
    </style>
  </defs>
  <g id="EN">
    <g>
      <path class="cls-2" d="M282.44,66.29c0-.49.23-.76.76-.76h13.98c.46,0,.72.27.72.72v2.36c0,.46-.19.68-.76.68h-10.37v6.54h9.19c.49,0,.76.23.76.68v2.36c0,.46-.19.68-.76.68h-9.19v7.48h10.64c.46,0,.68.23.68.72v2.32c0,.49-.19.68-.72.68h-14.17c-.53,0-.76-.23-.76-.68v-23.79Z"/>
      <path class="cls-2" d="M317.25,90.76h-2.7c-.57,0-.72-.27-.72-.72v-1.18l-.08-.04c-1.48,1.03-4.07,2.28-6.38,2.28-5.13,0-5.62-3.04-5.62-7.03v-11.17c0-.46.19-.76.72-.76h2.77c.49,0,.68.27.68.76v10.68c0,2.28.46,3.72,2.77,3.72,1.63,0,4.14-1.22,5.13-1.71v-12.69c0-.46.15-.76.72-.76h2.7c.53,0,.72.27.72.76v17.14c0,.49-.19.72-.72.72Z"/>
      <path class="cls-2" d="M326.9,90.04c0,.46-.19.72-.72.72h-2.74c-.53,0-.72-.23-.72-.72v-17.14c0-.49.19-.76.72-.76h2.7c.57,0,.76.3.76.76v1.67l.08.08c1.14-1.06,3.84-2.36,5.62-2.7.49-.11.84,0,.91.65l.27,2.55c.04.53.08.76-.72.91-2.13.42-4.83,1.18-6.16,1.75v12.23Z"/>
      <path class="cls-2" d="M343.62,91.07c-7.64,0-8.13-5.58-8.13-9.92,0-3.57.8-9.38,8.13-9.38s8.4,4.9,8.4,9.38-.53,9.92-8.4,9.92ZM343.66,75.41c-3.23,0-3.95,2.05-3.95,6s.72,6,3.91,6c3.46,0,4.14-1.94,4.14-6s-.65-6-4.1-6Z"/>
      <path class="cls-2" d="M364.59,91.1c-1.25,0-3-.23-4.75-.84l-.04.04v6.69c0,.42-.11.76-.72.76h-2.7c-.61,0-.72-.27-.72-.76v-24.09c0-.49.19-.76.72-.76h2.7c.53,0,.68.3.68.76v1.14l.11.08c1.37-.95,3.8-2.28,6-2.28,4.98,0,6.27,3.76,6.27,9.5,0,6.19-1.56,9.76-7.56,9.76ZM364.9,75.64c-1.56,0-3.95,1.1-5.09,1.71v9.5c1.71.49,3.08.65,4.37.65,2.74,0,3.69-1.41,3.69-6.19s-.95-5.66-2.96-5.66Z"/>
      <path class="cls-2" d="M379.45,82.59c.11,3.84,1.48,4.9,4.6,4.9,1.37,0,3.5-.27,4.94-.42.68-.08.91-.08,1.03.65l.23,1.25c.11.57.04.87-.65,1.18-1.48.57-4.25.95-6.12.95-7.26,0-8.32-4.63-8.32-9.57,0-3.69.68-9.76,8.09-9.76,6.8,0,8.02,4.41,8.13,8.51.04,1.37-.34,2.32-1.86,2.32h-10.07ZM379.49,79.74h7.52c0-2.32-.61-4.56-3.76-4.56-2.81,0-3.57,1.71-3.76,4.56Z"/>
      <path class="cls-2" d="M406.58,88.6c-1.9,1.44-4.45,2.47-6.99,2.47-4.03,0-5.21-2.2-5.21-5.39-.04-4.45,2.36-6.35,7.14-6.35h4.86v-.99c0-2.28-.84-3.08-3.95-3.08-1.25,0-3.65.19-5.17.34-.76.11-.95.08-1.06-.46l-.34-1.41c-.08-.49.04-.8.87-1.14,1.63-.57,4.64-.84,6.42-.84,6.57,0,7.37,2.7,7.37,6.95v7.33c0,1.56.19,1.6,1.37,1.75.57.04.72.15.72.57v1.6c0,.42-.27.68-.91.8-.61.11-1.22.19-1.79.19-1.79,0-2.89-.53-3.27-2.32l-.08-.04ZM406.35,82.29h-4.64c-1.9,0-3.12.68-3.12,3.19,0,1.67.57,2.2,2.36,2.2,1.63,0,3.95-.95,5.4-1.79v-3.61Z"/>
      <path class="cls-2" d="M430.71,90.76h-2.74c-.49,0-.72-.23-.72-.72l.04-10.68c0-2.24-.53-3.72-2.74-3.72-1.52,0-4.18,1.22-5.21,1.71v12.69c0,.46-.19.72-.72.72h-2.7c-.53,0-.72-.23-.72-.72v-17.14c0-.49.19-.76.72-.76h2.7c.53,0,.72.27.72.76v1.14s.08.04.11.04c1.41-.99,4.07-2.28,6.38-2.28,5.13,0,5.58,3.38,5.58,7.22v11.02c0,.46-.15.72-.72.72Z"/>
      <path class="cls-2" d="M292.64,105.27c1.86,0,4.94.27,6.95,1.1.61.27.84.57.72,1.18l-.34,1.56c-.12.46-.3.65-.99.57-1.86-.23-4.14-.49-6.12-.49-5.17,0-5.93,4.18-5.93,9.12s.95,8.89,5.93,8.89c2.2,0,4.07-.23,6.12-.49.72-.08.87.11,1.03.61l.3,1.44c.15.61-.04.95-.65,1.22-1.86.8-5.17,1.14-7.03,1.14-8.47,0-10.26-6.27-10.26-12.73s1.6-13.11,10.26-13.11Z"/>
      <path class="cls-2" d="M311.18,131.07c-7.64,0-8.13-5.58-8.13-9.92,0-3.57.8-9.38,8.13-9.38s8.4,4.9,8.4,9.38-.53,9.92-8.4,9.92ZM311.22,115.41c-3.23,0-3.95,2.05-3.95,6s.72,6,3.91,6c3.46,0,4.14-1.94,4.14-6s-.65-6-4.1-6Z"/>
      <path class="cls-2" d="M349.82,130.76h-2.74c-.53,0-.72-.23-.72-.72v-10.79c0-2.81-.68-3.61-2.58-3.61-1.41,0-3.69,1.1-4.86,1.71,0,.38.04,1.06.04,1.94v10.75c0,.46-.15.72-.72.72h-2.77c-.49,0-.65-.23-.65-.72v-10.98c0-2.32-.61-3.42-2.51-3.42-1.33,0-3.46.95-4.9,1.71v12.69c0,.46-.19.72-.72.72h-2.73c-.49,0-.68-.23-.68-.72v-17.14c0-.49.19-.76.68-.76h2.7c.57,0,.76.3.76.76v1.1l.04.04c1.48-1.03,3.57-2.17,5.66-2.24,2.2,0,4.03.46,5.21,2.66,1.9-1.41,4.26-2.66,6.69-2.66,5.01,0,5.51,3.27,5.51,7.07v11.17c0,.46-.15.72-.68.72Z"/>
      <path class="cls-2" d="M381.14,130.76h-2.74c-.53,0-.72-.23-.72-.72v-10.79c0-2.81-.68-3.61-2.58-3.61-1.41,0-3.68,1.1-4.86,1.71,0,.38.04,1.06.04,1.94v10.75c0,.46-.15.72-.72.72h-2.77c-.49,0-.65-.23-.65-.72v-10.98c0-2.32-.61-3.42-2.51-3.42-1.33,0-3.46.95-4.9,1.71v12.69c0,.46-.19.72-.72.72h-2.74c-.49,0-.68-.23-.68-.72v-17.14c0-.49.19-.76.68-.76h2.7c.57,0,.76.3.76.76v1.1l.04.04c1.48-1.03,3.57-2.17,5.66-2.24,2.2,0,4.03.46,5.21,2.66,1.9-1.41,4.25-2.66,6.69-2.66,5.02,0,5.51,3.27,5.51,7.07v11.17c0,.46-.15.72-.68.72Z"/>
      <path class="cls-2" d="M388.59,109.41c-1.98,0-2.24-1.1-2.24-2.2,0-1.22.42-2.17,2.24-2.17s2.24.87,2.24,2.17c0,1.18-.34,2.2-2.24,2.2ZM390.6,130.04c0,.42-.15.72-.68.72h-2.7c-.53,0-.76-.23-.76-.72v-17.17c0-.53.23-.72.76-.72h2.7c.53,0,.68.3.68.72v17.17Z"/>
      <path class="cls-2" d="M401.54,131.07c-1.9,0-4.45-.27-5.89-.84-.76-.3-.91-.65-.8-1.25l.27-1.25c.11-.61.38-.65.99-.57,1.67.27,4.1.46,5.4.46,2.43,0,3.42-.65,3.42-2.17,0-1.75-.65-2.13-3.04-2.47-3.72-.53-6.99-1.33-6.99-5.47,0-3.76,2.89-5.74,7.14-5.74,1.56,0,4.18.23,5.78.84.65.27.91.57.8,1.14l-.3,1.37c-.11.53-.34.61-1.03.53-1.63-.19-3.76-.42-5.17-.42-2.43,0-3,.68-3,2.13s.91,1.67,3.23,2.05c3.61.53,6.88,1.25,6.88,5.78s-3.76,5.89-7.67,5.89Z"/>
      <path class="cls-2" d="M418.99,131.07c-1.9,0-4.45-.27-5.89-.84-.76-.3-.91-.65-.8-1.25l.27-1.25c.11-.61.38-.65.99-.57,1.67.27,4.1.46,5.4.46,2.43,0,3.42-.65,3.42-2.17,0-1.75-.65-2.13-3.04-2.47-3.72-.53-6.99-1.33-6.99-5.47,0-3.76,2.89-5.74,7.14-5.74,1.56,0,4.18.23,5.78.84.65.27.91.57.8,1.14l-.3,1.37c-.11.53-.34.61-1.03.53-1.63-.19-3.76-.42-5.17-.42-2.43,0-3,.68-3,2.13s.91,1.67,3.23,2.05c3.61.53,6.88,1.25,6.88,5.78s-3.76,5.89-7.67,5.89Z"/>
      <path class="cls-2" d="M432.86,109.41c-1.98,0-2.24-1.1-2.24-2.2,0-1.22.42-2.17,2.24-2.17s2.24.87,2.24,2.17c0,1.18-.34,2.2-2.24,2.2ZM434.87,130.04c0,.42-.15.72-.68.72h-2.7c-.53,0-.76-.23-.76-.72v-17.17c0-.53.23-.72.76-.72h2.7c.53,0,.68.3.68.72v17.17Z"/>
      <path class="cls-2" d="M447.33,131.07c-7.64,0-8.13-5.58-8.13-9.92,0-3.57.8-9.38,8.13-9.38s8.4,4.9,8.4,9.38-.53,9.92-8.4,9.92ZM447.37,115.41c-3.23,0-3.95,2.05-3.95,6s.72,6,3.91,6c3.46,0,4.14-1.94,4.14-6s-.65-6-4.1-6Z"/>
      <path class="cls-2" d="M474.81,130.76h-2.74c-.49,0-.72-.23-.72-.72l.04-10.68c0-2.24-.53-3.72-2.74-3.72-1.52,0-4.18,1.22-5.21,1.71v12.69c0,.46-.19.72-.72.72h-2.7c-.53,0-.72-.23-.72-.72v-17.14c0-.49.19-.76.72-.76h2.7c.53,0,.72.27.72.76v1.14s.08.04.11.04c1.41-.99,4.07-2.28,6.38-2.28,5.13,0,5.58,3.38,5.58,7.22v11.02c0,.46-.15.72-.72.72Z"/>
    </g>
    <polygon class="cls-3" points="499.52 130.76 499.52 54.39 493 54.39 493 130.76 499.52 130.76 499.52 130.76"/>
    <g>
      <path class="cls-1" d="M0,48.33s78.51-10.24,80.73-10.6c3.4-.56,6.42-1.21,9.23-2,6.35-1.75,12.2-4.43,17.37-7.95,4.96-3.35,9.58-8.23,14.15-13.58,2.91-3.4,5.96-7.84,8.81-12.13V0c-3.38,5.04-6.71,9.39-10.14,13.22-4.54,5.09-9.3,9.26-14.16,12.38-5.01,3.25-10.65,5.68-16.76,7.21-2.74.7-5.67,1.26-8.97,1.72-2.17.31-4.41.54-6.58.77-.87.09-73.69,7.88-73.69,7.88v5.14Z"/>
      <path class="cls-1" d="M105.28,35.06c-4.91,2.85-10.59,4.93-16.87,6.19-2.68.55-5.6.99-8.94,1.35-1.96.21-3.93.39-5.9.56-1.07.09-2.13.19-3.19.28-24.06,2.17-47.99,4.49-70.38,6.68v5.13c22.56-2.74,46.66-5.65,70.71-8.39,1.07-.13,2.14-.25,3.21-.36,1.97-.22,3.94-.44,5.92-.7,3.42-.46,6.42-.99,9.15-1.61,6.52-1.47,12.42-3.79,17.51-6.9,5.06-3.06,9.53-7.35,14.34-12.59,2.99-3.26,6.33-7.86,9.44-12.19v-1.88c-3.67,5.02-7.16,9.24-10.6,12.83-4.69,4.9-9.54,8.8-14.4,11.59Z"/>
      <path class="cls-1" d="M119.02,33.81c-4.79,4.43-9.79,7.91-14.87,10.35-4.96,2.41-10.51,4.1-16.98,5.18-2.67.44-5.57.81-8.86,1.11L0,56.92v5.12l69.62-7.44,9.01-.95c3.39-.39,6.35-.84,9.05-1.35,6.69-1.27,12.44-3.18,17.55-5.81,5.23-2.67,10.46-7.1,15.31-11.79,3.26-3.15,6.4-7.21,9.76-11.48v-1.71c-3.88,4.85-7.57,8.9-11.27,12.31Z"/>
      <path class="cls-1" d="M100.09,60.4c-4.56,2.57-7.97,4.05-14.48,4.74-3.94.43-7.98.63-11.89.83-1.89.1-3.79.19-5.68.31-11.83.68-23.45,1.44-35.31,2.22L0,70.71v5.12l33.05-3.06c10.68-.97,23.09-2.08,35.21-3.07l8.81-.69c3.44-.27,6.26-.55,8.87-.89,6.7-.87,12.42-2.23,17.49-4.17,5.46-2.06,10.61-5.25,15.77-9.01,4.65-3.39,11.08-10.06,11.09-10.15v-1.81c-4.21,4.14-6.63,6.46-11.23,9.51-5.5,3.65-14.89,5.6-18.97,7.9Z"/>
      <path class="cls-1" d="M101.75,70.13c-4.94,1.46-10.5,2.45-17,3.02-2.63.23-5.47.41-8.68.54l-8.76.39c-21.77,1.02-43.43,2.16-67.31,3.43v5.11c22.81-1.78,45.16-3.51,67.5-5.11l8.73-.6c3.37-.22,6.17-.47,8.8-.76,6.66-.75,12.36-1.91,17.42-3.54,5.61-1.79,11.07-4.38,16.24-7.71,3.82-2.45,7.64-5.37,11.6-8.85v-.09c-4.37,3.76-8.53,4.59-12.67,7.11-5.08,3.1-10.42,5.48-15.87,7.08Z"/>
      <path class="cls-1" d="M100.94,78.61c-4.98,1.17-10.37,1.93-16.97,2.37-2.55.17-5.29.3-8.62.41l-8.68.31c-21.86.83-44.03,1.79-66.67,2.78v5.1c22.5-1.55,44.58-3.05,66.84-4.46l8.66-.52c3.39-.19,6.16-.39,8.7-.63,6.73-.62,12.23-1.54,17.32-2.86,5.71-1.48,11.26-3.66,16.5-6.46,4.05-2.16,8.09-4.76,12.27-7.89v-2.18c-4.52,3.29-8.86,5.98-13.21,8.16-5.14,2.59-10.57,4.57-16.14,5.87Z"/>
      <path class="cls-1" d="M100.2,86.93c-4.99.92-10.37,1.51-16.93,1.85-2.47.13-5.1.22-8.56.3L0,91.12v5.1l66.26-3.48,8.58-.44c3.35-.16,6.09-.32,8.62-.52,6.64-.51,12.11-1.25,17.2-2.32,5.78-1.21,11.39-2.97,16.67-5.24,4.25-1.82,8.52-4.04,12.95-6.73v-2.05c-4.74,2.78-9.25,5.01-13.73,6.79-5.21,2.09-10.71,3.67-16.36,4.7Z"/>
      <path class="cls-1" d="M99.62,95.28c-9.17,1.23-18.61,1.37-27.73,1.51-2.09.03-4.19.06-6.27.11L0,98.09v5.09l65.72-2.85c2.08-.1,4.17-.18,6.26-.26,9.19-.37,18.7-.75,27.99-2.24,5.88-.93,11.54-2.32,16.83-4.11,4.38-1.48,8.91-3.39,13.5-5.64v-1.95c-4.82,2.27-9.57,4.15-14.13,5.56-5.22,1.62-10.79,2.84-16.55,3.6Z"/>
      <path class="cls-1" d="M99.09,103.69c-8.59.71-17.38.72-25.89.72-2.65,0-5.29,0-7.94.02-21.73.1-43.3.28-65.27.47v5.1c20.93-.72,43.14-1.46,65.35-2.13,2.64-.09,5.27-.16,7.91-.22,8.55-.22,17.39-.44,26.07-1.39,6.06-.65,11.58-1.62,16.87-2.93,4.61-1.14,9.34-2.66,14.1-4.49v-1.87c-4.91,1.78-9.8,3.22-14.56,4.28-5.23,1.16-10.68,1.97-16.64,2.46Z"/>
      <path class="cls-1" d="M98.76,111.98c-3.58.14-7.45.21-11.85.21-1.66,0-3.32,0-4.98-.03l-16.91-.21c-11.54-.09-23.03-.11-33.82-.12l-31.21.03v5.09l31.28-.83c10.74-.27,22.27-.54,33.77-.75l16.89-.22c4.63-.07,10.75-.21,16.95-.62,6.07-.4,11.6-1.01,16.89-1.86,4.77-.77,9.63-1.8,14.51-3.05v-1.81c-5,1.16-9.98,2.09-14.8,2.74-5.27.71-10.74,1.17-16.73,1.41Z"/>
      <path class="cls-1" d="M81.74,119.99l-16.85-.18c-21.5-.3-42.98-.7-64.88-1.11v5.1c20.91-.14,43.06-.3,64.9-.55l16.86-.25c5.68-.1,11.25-.2,16.87-.39,11.58-.37,21.96-1.2,31.66-2.49v-1.77c-9.73,1.05-20.13,1.61-31.72,1.69-5.61.05-11.22,0-16.84-.04Z"/>
      <polygon class="cls-1" points="130.29 128.99 0 125.67 0 130.76 130.29 130.76 130.29 128.99"/>
    </g>
    <path class="cls-1" d="M118.56,43.43c-4.95,4.01-8.77,6.85-14.83,9.28-5.27,2.11-10.94,2.98-17.42,3.87-4.17.59-8.52,1.46-12.68,1.74-1.71.12-3.42.23-5.13.36L0,63.71v5.11l68.79-6.72,8.92-.84c3.31-.31,6.24-.68,8.98-1.13,6.67-1.08,12.41-2.73,17.56-5.03,5.34-2.37,10.75-6.26,15.77-10.52,3.42-2.89,6.71-6.53,10.28-10.51v-1.83c-4.33,4.51-7.91,8.11-11.73,11.19Z"/>
    <path class="cls-1" d="M185.74,0s23.45,37.35,27.74,44.19c4.29,6.85,9.19,12.26,26.54,15.94,17.35,3.68,24.9,5.42,24.9,5.42v1.33s-11.02-2.35-25.21-5.52c-14.18-3.17-19.98-4.23-26.45-13.23-5.38-7.49-27.52-39.31-27.52-39.31V0Z"/>
    <path class="cls-1" d="M185.74,42.65s21.35,22.37,27.52,28.79c6.55,6.81,14.93,9.33,26.56,11.41,11.1,1.98,25.09,4.27,25.09,4.27v1.26s-13.14-2.15-25.09-4.2c-11.72-2.01-19.92-3.13-26.63-9.31-6.01-5.54-27.45-25.64-27.45-25.64v-6.58Z"/>
    <path class="cls-1" d="M185.74,52.73s20.3,18.85,27.52,25.29c6.64,5.93,12.02,7.77,26.63,10.36,14.61,2.59,25.02,4.2,25.02,4.2v1.33s-13.21-2.17-25.09-4.06c-11.88-1.89-19.45-2.64-26.56-8.4-8.2-6.65-27.52-22.56-27.52-22.56v-6.16Z"/>
    <path class="cls-1" d="M185.74,63.47s23.19,18.4,27.52,21.62c4.33,3.22,10.07,6.97,26.7,9.38,16.5,2.38,24.95,3.57,24.95,3.57v1.4s-14.96-2.17-24.95-3.43c-9.99-1.26-17.66-1.79-26.63-7.77-8.73-5.81-27.59-19.09-27.59-19.09v-5.67Z"/>
    <path class="cls-1" d="M185.74,73.8s23.26,15.49,27.66,17.94c4.4,2.45,9.58,6.44,26.56,8.61,16.99,2.17,24.95,3.15,24.95,3.15v1.33s-14.05-1.54-25.02-2.73c-10.97-1.19-18.45-2.8-26.63-7.28-8.18-4.48-27.52-15.78-27.52-15.78v-5.23Z"/>
    <path class="cls-1" d="M185.74,84.13s20.56,11.18,27.52,14.68c7.76,3.9,14.47,5.76,26.63,7.21,11.94,1.42,25.02,2.8,25.02,2.8v1.26s-12.1-1.3-25.02-2.52c-12.81-1.21-17.38-1.77-26.63-5.88-8.27-3.67-27.52-12.64-27.52-12.64v-4.9Z"/>
    <path class="cls-1" d="M185.74,94.6s16.25,6.96,27.66,11.49c11.23,4.46,19.8,4.83,26.63,5.6,3.01.34,24.88,2.59,24.88,2.59v1.26s-13.07-1.05-24.95-2.1c-11.88-1.05-17.01-1.49-26.63-4.69-9.74-3.23-27.59-9.46-27.59-9.46v-4.69Z"/>
    <path class="cls-1" d="M185.74,105.27s16.4,5.08,27.59,8.02c11.18,2.94,21.46,4.13,26.63,4.48,5.17.35,24.96,1.96,24.96,1.96v1.19s-11.25-.77-25.03-1.75c-11.14-.79-20.08-1.63-26.63-3.08-7.26-1.6-27.52-6.42-27.52-6.42v-4.41Z"/>
    <path class="cls-1" d="M185.74,115.77s13.41,2.31,27.59,4.66c10.62,1.76,25.02,2.87,26.56,2.94,1.54.07,25.02,1.68,25.02,1.68v1.26s-15.03-.78-25.02-1.33c-10.41-.58-20.75-1.21-26.63-1.82-13.16-1.37-27.52-3.19-27.52-3.19v-4.2Z"/>
    <path class="cls-1" d="M185.74,126.64s21.16.79,27.59.94c6.43.14,51.58,1.96,51.58,1.96v1.23h-79.17v-4.12Z"/>
    <path class="cls-1" d="M239.89,65.91c-19.15-4.13-23.48-11.13-26.7-15.47-3.22-4.34-27.45-39.75-27.45-39.75v7.99c.96,1.25,21.69,28.4,27.52,35.89,6.56,8.44,16.85,10.36,26.63,12.46,9.78,2.1,25.03,5.03,25.03,5.03v-1.12s-20.08-3.96-25.03-5.03Z"/>
    <path class="cls-1" d="M239.89,71.51c-15.73-3.08-22.09-8.05-26.7-14.07-4.61-6.02-27.45-36.11-27.45-36.11v7.57c.96,1.13,21.84,25.91,27.45,32.33,6.54,7.49,15.66,9.45,26.7,11.48,11.04,2.03,25.02,4.69,25.02,4.69v-1.12s-15.96-2.98-25.02-4.76Z"/>
    <path class="cls-1" d="M239.89,77.32c-16.35-3.17-19.71-5.79-26.63-13.37-4.35-4.77-26.58-31.01-27.52-32.12v6.99s20.77,22.15,27.45,28.7c8.76,8.59,16.98,9.24,26.7,10.99,9.72,1.75,25.02,4.55,25.02,4.55v-1.19s-18.48-3.28-25.02-4.55Z"/>
    <polygon class="cls-3" points="168.31 130.76 168.31 54.4 54.16 54.4 54.16 130.76 168.31 130.76 168.31 130.76"/>
    <g>
      <polygon class="cls-4" points="112.47 65.25 116.44 65.25 113.24 67.75 114.48 71.7 111.29 69.27 108.11 71.7 109.36 67.75 106.14 65.25 110.09 65.25 111.29 61.39 112.47 65.25 112.47 65.25"/>
      <polygon class="cls-4" points="112.61 116.18 116.59 116.18 113.38 118.58 114.63 122.38 111.44 120.04 108.25 122.38 109.51 118.58 106.27 116.18 110.24 116.18 111.44 112.46 112.61 116.18 112.61 116.18"/>
      <polygon class="cls-4" points="125.2 112.8 129.18 112.8 125.98 115.2 127.23 119.01 124.04 116.66 120.85 119.01 122.1 115.2 118.87 112.8 122.84 112.8 124.04 109.09 125.2 112.8 125.2 112.8"/>
      <polygon class="cls-4" points="125.2 68.65 129.18 68.65 125.98 71.05 127.23 74.86 124.04 72.51 120.85 74.86 122.1 71.05 118.87 68.65 122.84 68.65 124.04 64.94 125.2 68.65 125.2 68.65"/>
      <polygon class="cls-4" points="134.56 78 138.53 78 135.33 80.4 136.57 84.21 133.38 81.86 130.2 84.21 131.46 80.4 128.22 78 132.18 78 133.38 74.29 134.56 78 134.56 78"/>
      <polygon class="cls-4" points="134.56 103.58 138.53 103.58 135.33 105.99 136.57 109.79 133.38 107.44 130.2 109.79 131.46 105.99 128.22 103.58 132.18 103.58 133.38 99.87 134.56 103.58 134.56 103.58"/>
      <polygon class="cls-4" points="138.06 90.6 142.04 90.6 138.84 93 140.08 96.8 136.89 94.45 133.7 96.8 134.96 93 131.73 90.6 135.69 90.6 136.89 86.89 138.06 90.6 138.06 90.6"/>
      <polygon class="cls-4" points="99.63 68.68 103.6 68.68 100.4 71.08 101.64 74.89 98.45 72.54 95.26 74.89 96.52 71.08 93.29 68.68 97.25 68.68 98.45 64.97 99.63 68.68 99.63 68.68"/>
      <polygon class="cls-4" points="90.53 78.03 94.51 78.03 91.31 80.43 92.55 84.24 89.36 81.89 86.18 84.24 87.43 80.43 84.2 78.03 88.16 78.03 89.36 74.32 90.53 78.03 90.53 78.03"/>
      <polygon class="cls-4" points="87.16 90.63 91.13 90.63 87.93 93.03 89.17 96.84 85.99 94.49 82.8 96.84 84.05 93.03 80.83 90.63 84.79 90.63 85.99 86.92 87.16 90.63 87.16 90.63"/>
      <polygon class="cls-4" points="90.53 103.61 94.51 103.61 91.31 106.02 92.55 109.82 89.36 107.48 86.18 109.82 87.43 106.02 84.2 103.61 88.16 103.61 89.36 99.9 90.53 103.61 90.53 103.61"/>
      <polygon class="cls-4" points="99.76 112.84 103.73 112.84 100.53 115.24 101.77 119.04 98.58 116.69 95.39 119.04 96.65 115.24 93.42 112.84 97.38 112.84 98.58 109.12 99.76 112.84 99.76 112.84"/>
    </g>
  </g>
</svg>