<?xml version="1.0" encoding="UTF-8"?> <svg xmlns="http://www.w3.org/2000/svg" xmlns:xlink="http://www.w3.org/1999/xlink" id="Logo" width="160.82" height="71.99" viewBox="0 0 160.82 71.99"><defs><clipPath id="clip-path"><rect id="Rectangle_10" data-name="Rectangle 10" width="160.82" height="71.99" fill="none"></rect></clipPath></defs><g id="Group_5" data-name="Group 5" clip-path="url(#clip-path)"><path id="Path_36" data-name="Path 36" d="M17.34,54.831V47.563a3.726,3.726,0,0,0-.6-2.349,2.379,2.379,0,0,0-1.957-.739,2.966,2.966,0,0,0-1.341.365,3.114,3.114,0,0,0-1.112.9v9.088H9.479V42.256h2.054l.525,1.174a4.2,4.2,0,0,1,3.434-1.408,4.485,4.485,0,0,1,3.439,1.343,5.27,5.27,0,0,1,1.262,3.752v7.714Z" transform="translate(-1.361 -6.065)" fill="#391b6f"></path><path id="Path_37" data-name="Path 37" d="M26.128,44.041H24.713v-2.36h1.415v-2.56l2.853-1.079v3.639h3.354v2.36H28.981v5.507a3.319,3.319,0,0,0,.41,1.907,1.672,1.672,0,0,0,1.438.559,3.462,3.462,0,0,0,1.917-.576v2.7a8.857,8.857,0,0,1-2.83.353,3.632,3.632,0,0,1-2.807-1.063,4.292,4.292,0,0,1-.981-3.023Z" transform="translate(-3.548 -5.49)" fill="#391b6f"></path><path id="Path_38" data-name="Path 38" d="M47.724,49.442H38.995a3.228,3.228,0,0,0,1,2.337,3.573,3.573,0,0,0,2.488.833,3.955,3.955,0,0,0,2.967-1.044L46.56,53.81a6.881,6.881,0,0,1-4.5,1.256,5.857,5.857,0,0,1-4.422-1.685,6.492,6.492,0,0,1-1.626-4.7A6.624,6.624,0,0,1,37.8,43.865a6.136,6.136,0,0,1,8.552-.212,5.676,5.676,0,0,1,1.608,4.158,8.428,8.428,0,0,1-.239,1.631M39.1,47.235h6a2.712,2.712,0,0,0-2.967-2.76q-2.442,0-3.035,2.76" transform="translate(-5.171 -6.065)" fill="#391b6f"></path><path id="Path_39" data-name="Path 39" d="M53.474,36.7l2.853-.7V50.133q0,2.326,1.346,2.771A2.332,2.332,0,0,1,55.414,54.2q-1.94,0-1.94-2.772Z" transform="translate(-7.677 -5.195)" fill="#391b6f"></path><path id="Path_40" data-name="Path 40" d="M61.794,36.7l2.853-.7V50.133q0,2.326,1.346,2.771A2.332,2.332,0,0,1,63.734,54.2q-1.94,0-1.94-2.772Z" transform="translate(-8.871 -5.195)" fill="#391b6f"></path><path id="Path_41" data-name="Path 41" d="M70.171,54.048V43.881H68.608V41.474h4.45V54.048ZM71.643,36.6a1.572,1.572,0,0,1,1.17.5,1.734,1.734,0,0,1,0,2.405,1.621,1.621,0,0,1-2.34,0,1.734,1.734,0,0,1,0-2.405,1.575,1.575,0,0,1,1.17-.5" transform="translate(-9.849 -5.282)" fill="#391b6f"></path><path id="Path_42" data-name="Path 42" d="M76.879,57.936l1.8-2.289a4.957,4.957,0,0,0,5.363,1.033,1.152,1.152,0,0,0,.8-1.033q0-1.115-1.769-1.115a12.55,12.55,0,0,0-1.426.117,12.722,12.722,0,0,1-1.426.116q-2.944,0-2.944-2.172a1.913,1.913,0,0,1,.491-1.221,3.016,3.016,0,0,1,1.141-.88,4.486,4.486,0,0,1-2.088-3.957,4.339,4.339,0,0,1,1.437-3.34A5.031,5.031,0,0,1,81.8,41.874a5.472,5.472,0,0,1,2.75.635l1.119-1.339,1.973,1.844-1.357,1.02a4.736,4.736,0,0,1,.707,2.607,4.673,4.673,0,0,1-1.272,3.435A4.333,4.333,0,0,1,82.5,51.362a7.8,7.8,0,0,1-.821-.059l-.468-.071a3.041,3.041,0,0,0-.611.253q-.531.252-.53.522,0,.47.787.47a6.646,6.646,0,0,0,1.186-.175,7.079,7.079,0,0,1,1.427-.177q4.164,0,4.164,3.441a3.39,3.39,0,0,1-1.666,2.988,7.194,7.194,0,0,1-4.016,1.086,8.255,8.255,0,0,1-5.078-1.7m2.853-11.388a2.6,2.6,0,0,0,.6,1.791,2.053,2.053,0,0,0,1.615.675,1.927,1.927,0,0,0,1.563-.657,2.744,2.744,0,0,0,.547-1.809,2.329,2.329,0,0,0-.588-1.609,1.95,1.95,0,0,0-1.523-.657,2.129,2.129,0,0,0-1.6.634,2.245,2.245,0,0,0-.616,1.632" transform="translate(-11.029 -5.942)" fill="#391b6f"></path><path id="Path_43" data-name="Path 43" d="M102.7,49.442H93.968a3.228,3.228,0,0,0,1,2.337,3.573,3.573,0,0,0,2.488.833,3.955,3.955,0,0,0,2.967-1.044l1.106,2.242a6.881,6.881,0,0,1-4.5,1.256,5.857,5.857,0,0,1-4.422-1.685,6.492,6.492,0,0,1-1.626-4.7,6.624,6.624,0,0,1,1.786-4.814,6.136,6.136,0,0,1,8.552-.212,5.676,5.676,0,0,1,1.608,4.158,8.426,8.426,0,0,1-.239,1.631m-8.626-2.207h6a2.712,2.712,0,0,0-2.967-2.76q-2.442,0-3.035,2.76" transform="translate(-13.063 -6.065)" fill="#391b6f"></path><path id="Path_44" data-name="Path 44" d="M115.736,54.831V47.563a3.726,3.726,0,0,0-.6-2.349,2.379,2.379,0,0,0-1.957-.739,2.966,2.966,0,0,0-1.341.365,3.114,3.114,0,0,0-1.112.9v9.088h-2.853V42.256h2.054l.525,1.174a4.2,4.2,0,0,1,3.434-1.408,4.485,4.485,0,0,1,3.439,1.343,5.27,5.27,0,0,1,1.262,3.752v7.714Z" transform="translate(-15.487 -6.065)" fill="#391b6f"></path><path id="Path_45" data-name="Path 45" d="M124.524,44.041h-1.415v-2.36h1.415v-2.56l2.853-1.079v3.639h3.354v2.36h-3.354v5.507a3.32,3.32,0,0,0,.41,1.907,1.672,1.672,0,0,0,1.438.559,3.462,3.462,0,0,0,1.917-.576v2.7a8.85,8.85,0,0,1-2.83.353,3.634,3.634,0,0,1-2.807-1.063,4.3,4.3,0,0,1-.981-3.023Z" transform="translate(-17.674 -5.49)" fill="#391b6f"></path><path id="Path_46" data-name="Path 46" d="M5.8,67.926V78.068H3.722V67.926H0v-1.9H9.688v1.9Z" transform="translate(0 -9.53)" fill="#391b6f"></path><path id="Path_47" data-name="Path 47" d="M15.543,71.7a2.055,2.055,0,0,0-1.174-.361,1.579,1.579,0,0,0-1.233.649,2.4,2.4,0,0,0-.54,1.586v5.013h-2v-8.8h2v.806a2.8,2.8,0,0,1,2.228-.97,3.123,3.123,0,0,1,1.566.32Z" transform="translate(-1.522 -10.048)" fill="#391b6f"></path><path id="Path_48" data-name="Path 48" d="M22.643,77.707a1.936,1.936,0,0,1-.947.751,3.5,3.5,0,0,1-1.409.292,3.134,3.134,0,0,1-2.173-.71,2.575,2.575,0,0,1-.79-2.019,2.856,2.856,0,0,1,1.113-2.392,5.077,5.077,0,0,1,3.167-.863,3.4,3.4,0,0,1,.831.123q0-1.552-1.908-1.552a4.126,4.126,0,0,0-1.885.386l-.432-1.594a5.476,5.476,0,0,1,2.452-.51,3.9,3.9,0,0,1,2.867.916q.911.916.91,3.472V75.89q0,1.758.687,2.211a1.094,1.094,0,0,1-.551.546,2.177,2.177,0,0,1-.7.1,1.091,1.091,0,0,1-.774-.329,1.667,1.667,0,0,1-.463-.715m-.192-3.264a4.158,4.158,0,0,0-.767-.107q-2.365,0-2.365,1.595,0,1.182,1.334,1.183a1.611,1.611,0,0,0,1.8-1.848Z" transform="translate(-2.487 -10.048)" fill="#391b6f"></path><path id="Path_49" data-name="Path 49" d="M33.463,78.587V73.5a2.61,2.61,0,0,0-.419-1.644,1.661,1.661,0,0,0-1.37-.518,2.077,2.077,0,0,0-.938.254,2.185,2.185,0,0,0-.779.633v6.362h-2v-8.8H29.4l.367.822a2.938,2.938,0,0,1,2.4-.986,3.144,3.144,0,0,1,2.409.94,3.7,3.7,0,0,1,.881,2.626v5.4Z" transform="translate(-4.014 -10.048)" fill="#391b6f"></path><path id="Path_50" data-name="Path 50" d="M38.423,78.02l.711-1.636a3.1,3.1,0,0,0,2.02.731q1.166,0,1.166-.854a1.061,1.061,0,0,0-.351-.821,5.341,5.341,0,0,0-1.366-.757q-2.213-.943-2.212-2.646a2.1,2.1,0,0,1,.846-1.779A3.5,3.5,0,0,1,41.4,69.62a5.313,5.313,0,0,1,2.509.617l-.576,1.593a2.668,2.668,0,0,0-1.821-.574q-1.047,0-1.047.855a.775.775,0,0,0,.343.608,7.016,7.016,0,0,0,1.47.727A3.76,3.76,0,0,1,43.9,74.551a2.517,2.517,0,0,1,.5,1.57,2.328,2.328,0,0,1-.884,1.927,3.744,3.744,0,0,1-2.4.7,5.268,5.268,0,0,1-1.37-.144,6.624,6.624,0,0,1-1.321-.587" transform="translate(-5.511 -10.048)" fill="#391b6f"></path><path id="Path_51" data-name="Path 51" d="M49.269,78.364v3.674h-2V69.783h2v.592a2.5,2.5,0,0,1,1.845-.756q4.09,0,4.09,4.634a4.593,4.593,0,0,1-1.13,3.329,4.1,4.1,0,0,1-3.087,1.167,3.8,3.8,0,0,1-1.717-.387m0-6.427v4.627a1.924,1.924,0,0,0,1.27.452,2.539,2.539,0,0,0,1.985-.678,4.221,4.221,0,0,0,0-4.34,2.622,2.622,0,0,0-1.981-.637,1.739,1.739,0,0,0-1.278.576" transform="translate(-6.787 -10.048)" fill="#391b6f"></path><path id="Path_52" data-name="Path 52" d="M57.741,74.164a4.742,4.742,0,0,1,1.13-3.28,4.259,4.259,0,0,1,6.011-.049,5.658,5.658,0,0,1-.021,6.673,4.277,4.277,0,0,1-6.038-.012,4.923,4.923,0,0,1-1.082-3.333m2.077,0q0,2.91,2.037,2.909a1.734,1.734,0,0,0,1.481-.756,3.627,3.627,0,0,0,.548-2.154q0-2.867-2.029-2.868a1.748,1.748,0,0,0-1.486.756,3.534,3.534,0,0,0-.551,2.113" transform="translate(-8.289 -10.048)" fill="#391b6f"></path><path id="Path_53" data-name="Path 53" d="M73.955,71.7a2.058,2.058,0,0,0-1.175-.361,1.579,1.579,0,0,0-1.233.649,2.4,2.4,0,0,0-.54,1.586v5.013h-2v-8.8h2v.806a2.8,2.8,0,0,1,2.228-.97,3.123,3.123,0,0,1,1.566.32Z" transform="translate(-9.907 -10.048)" fill="#391b6f"></path><path id="Path_54" data-name="Path 54" d="M78.314,71.034h-.99V69.382h.99V67.59l2-.756v2.548h2.348v1.651H80.31v3.856a2.322,2.322,0,0,0,.288,1.335,1.17,1.17,0,0,0,1.006.391,2.432,2.432,0,0,0,1.342-.4V78.1a6.191,6.191,0,0,1-1.981.246A2.542,2.542,0,0,1,79,77.605a3.009,3.009,0,0,1-.687-2.117Z" transform="translate(-11.101 -9.646)" fill="#391b6f"></path><path id="Path_55" data-name="Path 55" d="M89.794,77.368l.767-1.915a4.146,4.146,0,0,0,2.42.888q1.829,0,1.828-1.316a1.894,1.894,0,0,0-.431-1.175A5.513,5.513,0,0,0,92.6,72.6a8.513,8.513,0,0,1-1.813-1.144,3.054,3.054,0,0,1-.719-1.064,3.6,3.6,0,0,1-.252-1.364,3.025,3.025,0,0,1,1-2.318,3.6,3.6,0,0,1,2.551-.921,4.655,4.655,0,0,1,2.979.78l-.631,1.841A3.831,3.831,0,0,0,93.4,67.6a1.517,1.517,0,0,0-1.113.39,1.362,1.362,0,0,0-.4,1.015q0,1.036,2.228,2.153a7.286,7.286,0,0,1,1.694,1.09,3.345,3.345,0,0,1,.79,1.158,3.851,3.851,0,0,1,.271,1.477,3.01,3.01,0,0,1-1.122,2.407,4.513,4.513,0,0,1-3.008.945,5.241,5.241,0,0,1-2.955-.871" transform="translate(-12.891 -9.495)" fill="#391b6f"></path><path id="Path_56" data-name="Path 56" d="M103.109,80.028a2.792,2.792,0,0,1-1.37,1.459,4.982,4.982,0,0,1-2.448.579V80.25q2.307,0,2.308-1.193a7.507,7.507,0,0,0-.639-2.416l-2.676-6.83h2.069l2.332,6.081,2.1-6.081h2.069Z" transform="translate(-14.11 -10.076)" fill="#391b6f"></path><path id="Path_57" data-name="Path 57" d="M109.261,78.02l.711-1.636a3.108,3.108,0,0,0,2.02.731q1.168,0,1.166-.854a1.059,1.059,0,0,0-.351-.821,5.31,5.31,0,0,0-1.366-.757q-2.211-.943-2.212-2.646a2.1,2.1,0,0,1,.846-1.779,3.5,3.5,0,0,1,2.164-.637,5.308,5.308,0,0,1,2.509.617l-.576,1.593a2.664,2.664,0,0,0-1.821-.574q-1.046,0-1.047.855a.777.777,0,0,0,.343.608,7.039,7.039,0,0,0,1.47.727,3.754,3.754,0,0,1,1.621,1.106,2.507,2.507,0,0,1,.5,1.57,2.332,2.332,0,0,1-.882,1.927,3.751,3.751,0,0,1-2.4.7,5.266,5.266,0,0,1-1.369-.144,6.67,6.67,0,0,1-1.322-.587" transform="translate(-15.681 -10.048)" fill="#391b6f"></path><path id="Path_58" data-name="Path 58" d="M118.487,71.034h-.99V69.382h.99V67.59l2-.756v2.548h2.348v1.651h-2.348v3.856a2.322,2.322,0,0,0,.288,1.335,1.17,1.17,0,0,0,1.006.391,2.431,2.431,0,0,0,1.342-.4V78.1a6.2,6.2,0,0,1-1.981.246,2.538,2.538,0,0,1-1.965-.744,3,3,0,0,1-.687-2.117Z" transform="translate(-16.868 -9.646)" fill="#391b6f"></path><path id="Path_59" data-name="Path 59" d="M133.22,74.815h-6.11a2.259,2.259,0,0,0,.7,1.634,2.5,2.5,0,0,0,1.741.584,2.767,2.767,0,0,0,2.076-.731l.775,1.57a4.824,4.824,0,0,1-3.147.879,4.1,4.1,0,0,1-3.094-1.179,4.546,4.546,0,0,1-1.139-3.292,4.635,4.635,0,0,1,1.25-3.37,4.294,4.294,0,0,1,5.986-.149,3.971,3.971,0,0,1,1.126,2.909,5.871,5.871,0,0,1-.168,1.144m-6.038-1.546h4.2a1.9,1.9,0,0,0-2.076-1.931,2.077,2.077,0,0,0-2.125,1.931" transform="translate(-17.949 -10.048)" fill="#391b6f"></path><path id="Path_60" data-name="Path 60" d="M146.368,78.587V73.072q0-1.734-1.51-1.734a1.724,1.724,0,0,0-1.445.9v6.353h-2V72.751a1.377,1.377,0,0,0-.391-1.031,1.545,1.545,0,0,0-1.921-.095,1.921,1.921,0,0,0-.642.632v6.329h-2v-8.8h1.374l.408.774a2.738,2.738,0,0,1,2.148-.937,3.284,3.284,0,0,1,2.564.952A2.569,2.569,0,0,1,144,69.878a3.713,3.713,0,0,1,1.341-.258,2.906,2.906,0,0,1,2.224.842,3.237,3.237,0,0,1,.795,2.315v5.81Z" transform="translate(-19.591 -10.048)" fill="#391b6f"></path><path id="Path_61" data-name="Path 61" d="M152.067,78.02l.711-1.636a3.1,3.1,0,0,0,2.02.731q1.166,0,1.166-.854a1.061,1.061,0,0,0-.351-.821,5.34,5.34,0,0,0-1.366-.757q-2.213-.943-2.212-2.646a2.1,2.1,0,0,1,.846-1.779,3.5,3.5,0,0,1,2.164-.637,5.313,5.313,0,0,1,2.509.617l-.576,1.593a2.668,2.668,0,0,0-1.821-.574q-1.047,0-1.047.855a.774.774,0,0,0,.343.608,7.016,7.016,0,0,0,1.47.727,3.76,3.76,0,0,1,1.621,1.106,2.517,2.517,0,0,1,.5,1.57,2.328,2.328,0,0,1-.884,1.927,3.744,3.744,0,0,1-2.4.7,5.268,5.268,0,0,1-1.37-.144,6.622,6.622,0,0,1-1.321-.587" transform="translate(-21.826 -10.048)" fill="#391b6f"></path><path id="Path_62" data-name="Path 62" d="M168.332,78.515a4.748,4.748,0,0,1-3.342-1.1,4.11,4.11,0,0,1-1.2-3.157V65.685h2.661v8.454a1.9,1.9,0,0,0,.495,1.377,1.777,1.777,0,0,0,1.369.518,2.138,2.138,0,0,0,1.55-.516,1.845,1.845,0,0,0,.538-1.42V65.685h2.66v8.577a3.948,3.948,0,0,1-1.31,3.129,5.048,5.048,0,0,1-3.422,1.123m-3.957-12.246v7.985a3.511,3.511,0,0,0,1.012,2.729,4.192,4.192,0,0,0,2.944.949,4.488,4.488,0,0,0,3.039-.981,3.342,3.342,0,0,0,1.11-2.689V66.269h-1.492V74.1a2.429,2.429,0,0,1-.719,1.843,2.727,2.727,0,0,1-1.953.676,2.358,2.358,0,0,1-1.794-.7,2.49,2.49,0,0,1-.654-1.777v-7.87Z" transform="translate(-23.514 -9.48)" fill="#009193"></path><path id="Path_63" data-name="Path 63" d="M186.109,78.311h-3.18l-3.111-4.9-1,1.4v3.495h-2.661V65.686h2.661V70.8l3.533-5.117h3.076l-3.874,5.558Zm-2.858-.584h1.788l-4.185-6.495,3.458-4.963h-1.652l-4.423,6.407V66.27h-1.492V77.727h1.492v-3.1l1.608-2.263Z" transform="translate(-25.29 -9.48)" fill="#009193"></path><path id="Path_64" data-name="Path 64" d="M130.076,4.913a2.336,2.336,0,0,0-1.752,1.549L110.236,2.293a2.276,2.276,0,0,0-.039-.407,2.347,2.347,0,1,0-1.841,2.76,2.412,2.412,0,0,0,.4-.123l4.268,10.217L73.986,31.773a2.341,2.341,0,1,0,.248.762l40.274-8.669a2.341,2.341,0,1,0,3.907-2.3L129.243,9.169a2.346,2.346,0,1,0,.833-4.255m-21.015-.544a2.333,2.333,0,0,0,1.153-1.734l18.019,4.153a2.19,2.19,0,0,0,.12,1.265L113.336,14.6Zm4.1,10.682,2.537,6.076a2.331,2.331,0,0,0-1.259,2.41L74.16,32.2c-.012-.041-.023-.082-.037-.122Zm5,6.293a2.333,2.333,0,0,0-1.866-.433,2.195,2.195,0,0,0-.282.086l-2.541-6.082L128.5,8.356a2.339,2.339,0,0,0,.48.6Z" transform="translate(-9.988 0)" fill="#009193"></path><path id="Path_65" data-name="Path 65" d="M1.623,36.889H.1v2.888H1.623V54.09H4.589v-17.2Z" transform="translate(-0.014 -5.324)" fill="#391b6f"></path></g></svg> 