<?xml version="1.0" encoding="utf-8"?>
<!-- Generator: Adobe Illustrator 25.3.1, SVG Export Plug-In . SVG Version: 6.00 Build 0)  -->
<svg version="1.1" id="Layer_1" xmlns="http://www.w3.org/2000/svg" xmlns:xlink="http://www.w3.org/1999/xlink" x="0px" y="0px"
	 viewBox="0 0 99.2126 20.4962" enable-background="new 0 0 99.2126 20.4962" xml:space="preserve">
<g>
	<path fill="#FFFFFF" d="M29.4398,9.396l1.3146-4.0991l1.315,4.0991h1.1526l1.5908-5.7547h-1.1443l-1.0391,3.9772l-1.2822-3.9772
		h-1.1609l-1.2742,3.9608L27.857,3.6413h-1.185l1.5988,5.7547H29.4398z M38.5956,8.2514l-0.9008-0.2679
		c-0.1302,0.357-0.4061,0.6088-0.9094,0.6088c-0.5354,0-0.982-0.3814-1.0063-0.9091h2.857c0-0.0161,0.0163-0.1787,0.0163-0.333
		c0-1.2822-0.7385-2.0697-1.9723-2.0697c-1.0229,0-1.9642,0.828-1.9642,2.1024c0,1.3473,0.9659,2.1346,2.0615,2.1346
		C37.7596,9.5176,38.3926,8.9412,38.5956,8.2514z M36.6962,6.1573c0.6169,0,0.8767,0.3897,0.8928,0.7872h-1.7856
		C35.8278,6.5795,36.1361,6.1573,36.6962,6.1573z M45.2191,9.3553V8.4625c-0.0571,0.0163-0.203,0.0324-0.3329,0.0324
		c-0.3084,0-0.4707-0.1136-0.4707-0.4626v-1.672h0.8036V5.4025h-0.8036v-1.193h-0.9742v0.5598c0,0.3573-0.1944,0.6332-0.6166,0.6332
		h-0.2028v0.9579h0.7222V8.219c0,0.7712,0.487,1.2338,1.2664,1.2338C44.9269,9.4528,45.1216,9.396,45.2191,9.3553z M40.7389,8.6898
		c-0.4709,0-0.7064-0.2922-0.7308-0.6088l-0.9254,0.2028c0.0487,0.4546,0.4626,1.234,1.6642,1.234
		c1.0468,0,1.5501-0.6656,1.5501-1.3149c0-0.5845-0.3975-1.0634-1.1853-1.2257l-0.5678-0.1219
		c-0.2192-0.0404-0.3654-0.1623-0.3654-0.357c0-0.2271,0.2271-0.3978,0.5113-0.3978c0.4546,0,0.625,0.3005,0.6574,0.5357
		l0.901-0.2028c-0.0484-0.4302-0.4301-1.1526-1.5664-1.1526c-0.8604,0-1.4936,0.5925-1.4936,1.3066
		c0,0.5601,0.349,1.0227,1.1202,1.1933l0.5274,0.1216c0.3086,0.0651,0.4302,0.2111,0.4302,0.3897
		C41.266,8.5031,41.0957,8.6898,40.7389,8.6898z M52.4644,3.6368l-1.315,4.099l-1.3146-4.099h-1.1526l-1.5908,5.7547h1.1443
		l1.0387-3.9769l1.2826,3.9769h1.1606l1.2745-3.9608l1.0551,3.9608h1.185L53.633,3.6368H52.4644z M56.3604,4.753
		c0.3734,0,0.6653-0.3003,0.6653-0.6573c0-0.3734-0.2919-0.6737-0.6653-0.6737c-0.3651,0-0.6656,0.3003-0.6656,0.6737
		C55.6948,4.4528,55.9953,4.753,56.3604,4.753z M55.8247,9.3961h1.0794V5.4026h-1.0794V9.3961z M60.7434,8.9333
		c0,0.1867,0.0244,0.3814,0.0405,0.4626h1.031c-0.0161-0.1623-0.0324-0.4546-0.0324-0.7224V3.5196H60.719v2.2805
		c-0.1135-0.2108-0.4382-0.495-1.1282-0.495c-1.1282,0-1.9154,0.9171-1.9154,2.0861c0,1.2094,0.8116,2.1021,1.9478,2.1021
		C60.159,9.4933,60.5648,9.2499,60.7434,8.9333z M59.7531,8.5274c-0.5681,0-0.9902-0.4221-0.9902-1.1363
		c0-0.7144,0.4382-1.1202,0.9902-1.1202c0.5518,0,0.9823,0.3978,0.9823,1.1119C60.7354,8.1053,60.3049,8.5274,59.7531,8.5274z
		 M62.8698,9.3958h1.0797V3.5195h-1.0797V9.3958z M34.7402,13.1464c-1.1687,0-1.9966,0.8847-1.9966,2.0698
		c0,1.193,0.8279,2.0777,1.9966,2.0777s1.9966-0.8847,1.9966-2.0777C36.7368,14.0311,35.9089,13.1464,34.7402,13.1464z
		 M34.7402,16.6122c-0.6493,0-1.2174-0.4869-1.2174-1.396c0-0.9011,0.5681-1.3881,1.2174-1.3881s1.2174,0.487,1.2174,1.3881
		C35.9576,16.1253,35.3895,16.6122,34.7402,16.6122z M49.2369,17.1723h0.7548v-3.904h-0.7548V17.1723z M42.0211,13.1544
		c-0.4952,0-0.9986,0.1787-1.3069,0.7387c-0.211-0.5033-0.6819-0.7387-1.1689-0.7387c-0.4546,0-0.9413,0.203-1.1847,0.6332v-0.5194
		h-0.7308v3.9041h0.7549v-2.354c0-0.5842,0.3653-0.9902,0.9091-0.9902c0.5845,0,0.8279,0.3897,0.8279,0.893v2.4512h0.7626v-2.362
		c0-0.5598,0.3657-0.9822,0.9014-0.9822c0.5761,0,0.8274,0.3817,0.8274,0.893v2.4512h0.7551v-2.5326
		C43.3682,13.6172,42.7026,13.1544,42.0211,13.1544z M49.6103,11.239c-0.3003,0-0.5435,0.2434-0.5435,0.552
		c0,0.3003,0.2432,0.5438,0.5435,0.5438c0.3083,0,0.552-0.2435,0.552-0.5438C50.1623,11.4824,49.9186,11.239,49.6103,11.239z
		 M81.7176,8.2029c0-0.5845-0.3978-1.0634-1.1853-1.2257l-0.5681-0.1219c-0.2191-0.0404-0.3651-0.1623-0.3651-0.357
		c0-0.2271,0.2271-0.3978,0.5113-0.3978c0.4546,0,0.6249,0.3005,0.6574,0.5357l0.9008-0.2028
		c-0.0483-0.4302-0.4299-1.1526-1.5662-1.1526c-0.8604,0-1.4936,0.5925-1.4936,1.3066c0,0.5601,0.349,1.0227,1.1199,1.1933
		l0.5277,0.1216c0.3086,0.0651,0.4302,0.2111,0.4302,0.3897c0,0.2111-0.1704,0.3978-0.5274,0.3978
		c-0.4709,0-0.7061-0.2922-0.7305-0.6088l-0.9254,0.2028c0.0487,0.4546,0.4626,1.234,1.6639,1.234
		C81.2143,9.5178,81.7176,8.8522,81.7176,8.2029z M29.7968,16.5634c-1.0471,0-2.0454-0.7712-2.0454-2.2725
		c0-1.5016,0.9983-2.2648,2.0454-2.2648c0.9415,0,1.5747,0.4873,1.7938,1.3557l0.7385-0.2598
		c-0.2922-1.1119-1.2174-1.826-2.5323-1.826c-1.4285,0-2.857,1.0711-2.857,2.9949s1.3714,3.0032,2.857,3.0032
		c1.3229,0,2.2321-0.7711,2.5404-1.8506l-0.7059-0.2598C31.3959,15.9709,30.7788,16.5634,29.7968,16.5634z M46.5504,13.1544
		c-0.6493,0-1.1039,0.3169-1.2909,0.6656v-2.524H44.505v5.8763h0.7545v-0.5681c0.2438,0.4221,0.6903,0.6736,1.2665,0.6736
		c1.1606,0,1.8182-0.9171,1.8182-2.0778C48.3442,14.0635,47.7354,13.1544,46.5504,13.1544z M46.4124,16.5961
		c-0.6739,0-1.1609-0.552-1.1609-1.3961c0-0.8443,0.487-1.3719,1.1609-1.3719c0.7061,0,1.1526,0.5276,1.1526,1.3719
		C47.565,16.0441,47.1105,16.5961,46.4124,16.5961z M63.4823,11.2959h-0.7551v2.5243c-0.13-0.3166-0.5031-0.6576-1.1931-0.6576
		c-1.1041,0-1.8509,0.9415-1.8509,2.0454c0,1.1609,0.7064,2.0697,1.8509,2.0697c0.6086,0,1.0227-0.3246,1.2094-0.698v0.0651
		c0,0.2354,0.0244,0.4382,0.0404,0.5274h0.7388c-0.008-0.0648-0.0404-0.349-0.0404-0.7224V11.2959z M61.607,16.6043
		c-0.7305,0-1.1446-0.5928-1.1446-1.3963c0-0.8034,0.4548-1.3717,1.1526-1.3717c0.6983,0,1.1205,0.552,1.1205,1.3556
		C62.7355,15.9955,62.305,16.6043,61.607,16.6043z M70.3702,7.0988c0-0.4623,0.2758-0.8277,0.7467-0.8277
		c0.5194,0,0.7385,0.349,0.7385,0.7953v2.3296h1.0795V6.8797c0-0.8764-0.4546-1.5828-1.4448-1.5828
		c-0.4302,0-0.9091,0.187-1.1524,0.6008V5.4024h-1.0473v3.9935h1.0798V7.0988z M53.1574,13.1544
		c-0.4546,0-0.9172,0.1867-1.2014,0.6737v-0.5599h-0.7468v3.9041h0.7631v-2.2565c0-0.5925,0.3084-1.0714,0.9092-1.0714
		c0.6814,0,0.9088,0.4385,0.9088,0.9822v2.3457h0.7631v-2.4756C54.5534,13.8281,54.0906,13.1544,53.1574,13.1544z M67.3019,8.9171
		c0,0.1543,0.0161,0.3734,0.0405,0.4789h0.9903c-0.0244-0.1379-0.0485-0.4222-0.0485-0.6332V6.7986
		c0-0.8036-0.4709-1.518-1.7371-1.518c-1.0714,0-1.6476,0.69-1.7124,1.3149l0.9576,0.203c0.0324-0.349,0.2922-0.6493,0.7628-0.6493
		c0.4549,0,0.6737,0.2354,0.6737,0.5194c0,0.1379-0.0729,0.2515-0.3003,0.2842l-0.9819,0.146
		c-0.6657,0.0975-1.1931,0.4953-1.1931,1.2094c0,0.6249,0.5191,1.2014,1.3715,1.2014C66.7177,9.5096,67.0992,9.2337,67.3019,8.9171z
		 M65.8327,8.2434c0-0.3086,0.2194-0.4626,0.4953-0.5033l0.9008-0.1379v0.1787c0,0.7061-0.4219,0.9252-0.8764,0.9252
		C66.0033,8.706,65.8327,8.4789,65.8327,8.2434z M57.2404,13.1465c-0.9823,0-1.867,0.836-1.867,2.0617
		c0,1.3229,0.9172,2.0858,1.9642,2.0858c0.9091,0,1.5343-0.5438,1.7532-1.2338l-0.6574-0.2271
		c-0.1462,0.4382-0.4628,0.7872-1.0958,0.7872c-0.6573,0-1.1606-0.4869-1.1767-1.185h2.9379
		c0.0083-0.0487,0.0163-0.146,0.0163-0.2435C59.1151,13.9741,58.4415,13.1465,57.2404,13.1465z M56.185,14.8184
		c0.0324-0.5033,0.4222-0.9983,1.0634-0.9983c0.6898,0,1.0551,0.4382,1.0712,0.9983H56.185z M76.7174,8.9333
		c0,0.1867,0.0244,0.3814,0.0404,0.4626h1.031c-0.016-0.1623-0.0324-0.4546-0.0324-0.7224V3.5196H76.693v2.2805
		c-0.1135-0.2108-0.4382-0.495-1.1282-0.495c-1.1282,0-1.9155,0.9171-1.9155,2.0861c0,1.2094,0.8117,2.1021,1.9479,2.1021
		C76.1329,9.4933,76.5387,9.2499,76.7174,8.9333z M75.7271,8.5274c-0.5678,0-0.99-0.4221-0.99-1.1363
		c0-0.7144,0.4382-1.1202,0.99-1.1202c0.5518,0,0.9823,0.3978,0.9823,1.1119C76.7094,8.1053,76.2789,8.5274,75.7271,8.5274z
		 M67.979,11.4177l-2.2889,5.7547h0.8521l0.6088-1.6071h2.5487l0.6249,1.6071h0.8604l-2.2889-5.7547H67.979z M67.4352,14.8265
		l0.982-2.5811l0.9983,2.5811H67.4352z M80.8931,13.1544c-0.4463,0-0.9008,0.1543-1.185,0.5681V11.296h-0.7632v5.8763h0.7632
		v-2.2972c0.0163-0.5761,0.3246-1.0307,0.9091-1.0307c0.6814,0,0.9088,0.4385,0.9088,0.9822v2.3457h0.7632v-2.4756
		C82.2892,13.8281,81.8263,13.1544,80.8931,13.1544z M85.0975,13.1464c-1.1687,0-1.9966,0.8847-1.9966,2.0698
		c0,1.193,0.8279,2.0777,1.9966,2.0777c1.1689,0,1.9966-0.8847,1.9966-2.0777C87.0941,14.0311,86.2664,13.1464,85.0975,13.1464z
		 M85.0975,16.6122c-0.6493,0-1.2174-0.4869-1.2174-1.396c0-0.9011,0.5681-1.3881,1.2174-1.3881
		c0.6495,0,1.2177,0.487,1.2177,1.3881C86.3152,16.1253,85.747,16.6122,85.0975,16.6122z M77.1673,12.0344h-0.6977v0.633
		c0,0.341-0.1787,0.6008-0.6008,0.6008h-0.2111v0.6897h0.7468v2.1429c0,0.7061,0.4221,1.1121,1.0875,1.1121
		c0.2598,0,0.4546-0.0487,0.5194-0.0731v-0.6493c-0.0648,0.0164-0.2025,0.0324-0.3003,0.0324c-0.3975,0-0.5438-0.1784-0.5438-0.5357
		v-2.0293h0.8441v-0.6897h-0.8441V12.0344z M88.7339,13.95v-0.6819h-0.7468v3.9043h0.7631v-1.9562
		c0-0.8604,0.4299-1.2013,1.0715-1.2013c0.1052,0,0.2191,0.008,0.3326,0.0243v-0.8116c-0.0404-0.008-0.1459-0.0244-0.2515-0.0244
		C89.5051,13.2032,89.0181,13.3495,88.7339,13.95z M91.2582,11.239c-0.3,0-0.5435,0.2434-0.5435,0.552
		c0,0.3003,0.2435,0.5438,0.5435,0.5438c0.3083,0,0.5521-0.2435,0.5521-0.5438C91.8103,11.4824,91.5665,11.239,91.2582,11.239z
		 M90.8848,17.1723h0.7548v-3.904h-0.7548V17.1723z M93.88,12.0344h-0.6978v0.633c0,0.341-0.1786,0.6008-0.601,0.6008h-0.2111
		v0.6897h0.7468v2.1429c0,0.7061,0.4221,1.1121,1.0878,1.1121c0.2598,0,0.4545-0.0487,0.5193-0.0731v-0.6493
		c-0.0648,0.0164-0.2027,0.0324-0.3002,0.0324c-0.3978,0-0.5438-0.1784-0.5438-0.5357v-2.0293h0.844v-0.6897H93.88V12.0344z
		 M74.9269,13.2681H74.164v2.354c0,0.5925-0.3083,0.9983-0.9254,0.9983c-0.641,0-0.8842-0.4709-0.8842-1.0064v-2.3459h-0.7632
		v2.4595c0,0.8847,0.5518,1.5664,1.461,1.5664c0.4542,0,0.9415-0.1866,1.1525-0.5925c0,0.1624,0.0161,0.3815,0.0325,0.4707h0.7304
		c-0.0161-0.138-0.0407-0.4139-0.0407-0.7224V13.2681z M98.3929,13.2683l-1.1689,2.6946l-1.2177-2.6946h-0.8764l1.6803,3.4738
		l-0.974,2.0617h0.836l2.5404-5.5355H98.3929z"/>
	<path opacity="0.5" fill="#F9BE91" d="M7.3968,0C6.201-0.0006,5.0958,0.6367,4.4973,1.672L4.4927,1.6801v4.5953l6.8869-3.9711
		L7.3911,0.0044 M22.2521,8.5768l-0.0027-0.0047l-3.9829-2.2966v7.9498l3.9829-2.2966l0.0027-0.0047
		C22.8499,10.8883,22.8499,9.6124,22.2521,8.5768z M7.3911,20.4962 M4.4912,18.8286c0.5984,1.0353,1.7037,1.6726,2.8995,1.672
		l3.9858-2.3025l-6.8838-3.9693v4.5982"/>
	<path fill="#EE7622" d="M18.2618,1.672C17.6634,0.6367,16.5581-0.0006,15.3623,0L7.3911,0.0044l14.86,8.5686L18.2618,1.672z
		 M15.3623,20.5006c1.1958,0.0006,2.3011-0.6367,2.8995-1.672l3.9893-6.901l-14.86,8.5686L15.3623,20.5006z M0.507,11.9238
		l3.9857,6.9032V1.6736L0.507,8.5768C-0.0909,9.6124-0.0909,10.8882,0.507,11.9238z"/>
</g>
</svg>
