<?xml version="1.0" encoding="UTF-8"?>
<svg id="Layer_2" data-name="Layer 2" xmlns="http://www.w3.org/2000/svg" viewBox="0 0 1085.64 282.52">
  <defs>
    <style>
      .cls-1 {
        fill: #54565b;
      }

      .cls-2 {
        fill: #3c1053;
      }
    </style>
  </defs>
  <g id="Layer_1-2" data-name="Layer 1">
    <g>
      <g>
        <path class="cls-2" d="M43.65,232.95c-1.18,3.12-4.67,4.7-7.79,3.52-1.63-.61-2.91-1.9-3.52-3.52L1.21,149.82c-1.61-5.09-1.61-10.56,0-15.65l31.13-83.12c1.19-3.12,4.68-4.7,7.81-3.51,1.62.61,2.89,1.89,3.51,3.5l31.14,83.13c1.61,5.09,1.61,10.56,0,15.65l-31.14,83.13Z"/>
        <path class="cls-2" d="M95.89,92.47c-1.18,3.13-4.68,4.71-7.81,3.53-1.63-.61-2.91-1.9-3.53-3.53L53.42,9.35c-.14-.37-.25-.77-.36-1.18-.15-.56-.22-1.14-.21-1.71C52.85,2.89,55.74,0,59.3,0h61.83c3.56,0,6.45,2.89,6.46,6.46,0,.58-.06,1.15-.21,1.71-.12.41-.23.81-.36,1.18l-31.13,83.12Z"/>
        <path class="cls-2" d="M200.43,92.47c-1.18,3.13-4.68,4.71-7.81,3.53-1.63-.62-2.92-1.9-3.53-3.53l-31.13-83.12c-.14-.37-.24-.77-.36-1.18-.15-.56-.22-1.14-.21-1.71C157.38,2.89,160.27,0,163.84,0h61.83c3.56,0,6.45,2.89,6.46,6.46,0,.58-.06,1.16-.21,1.71-.12.41-.23.81-.36,1.18l-31.13,83.12Z"/>
        <path class="cls-2" d="M148.25,232.95c-1.18,3.12-4.67,4.7-7.79,3.52-1.63-.61-2.91-1.9-3.52-3.52l-31.13-83.12c-1.61-5.09-1.61-10.56,0-15.65l31.13-83.12c1.19-3.12,4.68-4.7,7.81-3.51,1.62.61,2.89,1.89,3.51,3.5l31.14,83.13c1.61,5.09,1.61,10.56,0,15.65l-31.14,83.13Z"/>
        <path class="cls-2" d="M252.85,232.95c-.89,2.35-3.15,3.9-5.66,3.9-2.52,0-4.77-1.55-5.65-3.91l-31.13-83.12c-1.61-5.09-1.61-10.56,0-15.65l31.13-83.12c1.18-3.12,4.68-4.7,7.8-3.51,1.62.61,2.9,1.89,3.51,3.51l31.14,83.13c1.61,5.09,1.61,10.56,0,15.65l-31.14,83.13Z"/>
        <path class="cls-2" d="M95.89,190.05c-1.18-3.13-4.68-4.71-7.81-3.53-1.63.61-2.91,1.9-3.53,3.53l-31.13,83.13c-.14.37-.25.77-.36,1.18-.91,3.49,1.18,7.05,4.67,7.96.52.13,1.05.21,1.58.21h61.83c3.56,0,6.45-2.89,6.46-6.46,0-.58-.06-1.15-.21-1.71-.12-.41-.23-.81-.36-1.18l-31.13-83.13Z"/>
        <path class="cls-2" d="M200.43,190.05c-1.18-3.13-4.68-4.71-7.81-3.53-1.63.62-2.91,1.9-3.53,3.53l-31.13,83.13c-.14.37-.24.77-.36,1.18-.91,3.49,1.18,7.05,4.67,7.96.52.13,1.05.21,1.58.21h61.83c3.6-.04,6.49-2.99,6.46-6.59,0-.53-.08-1.06-.21-1.58-.12-.41-.23-.81-.36-1.18l-31.13-83.13Z"/>
      </g>
      <path class="cls-1" d="M349.24,234.58l-22.03-79.29h16.33l14.54,54.57,17.56-54.57h16l17.67,54.8,14.32-54.8h15.77l-21.92,79.29h-15.88l-18.12-56.48-18.11,56.48h-16.11ZM492.05,210.2h-39.36c.34,7.27,6.49,12.53,13.87,12.53,6.93,0,10.74-3.47,12.53-8.39l12.41,3.69c-2.8,9.5-11.52,17.45-25.05,17.45-15.09,0-28.4-10.85-28.4-29.41,0-17.56,12.97-28.97,27.06-28.97,17,0,27.17,10.85,27.17,28.52,0,2.13-.23,4.37-.23,4.59ZM477.62,200.02c-.22-5.48-3.8-10.85-12.3-10.85-6.33-.24-11.74,4.53-12.3,10.85h24.6ZM582.75,233.24v-12.3c-1.51.31-3.05.46-4.59.45-4.25,0-6.48-1.56-6.48-6.37v-23.04h11.07v-13.2h-11.07v-16.44h-13.42v7.71c0,4.92-2.68,8.72-8.5,8.72h-2.79v13.2h9.95v25.61c0,10.63,6.71,17,17.45,17,2.86.1,5.7-.36,8.39-1.34ZM521.02,224.07c-6.49,0-9.73-4.03-10.07-8.39l-12.75,2.79c.67,6.26,6.37,17,22.93,17,14.42,0,21.36-9.17,21.36-18.12,0-8.05-5.48-14.65-16.33-16.89l-7.82-1.68c-3.02-.56-5.03-2.24-5.03-4.92,0-3.13,3.13-5.48,7.05-5.48,6.26,0,8.61,4.14,9.06,7.38l12.42-2.79c-.67-5.93-5.93-15.88-21.58-15.88-11.85,0-20.58,8.16-20.58,18,0,7.72,4.81,14.09,15.43,16.44l7.27,1.68c4.25.9,5.93,2.91,5.93,5.37,0,2.91-2.35,5.48-7.26,5.48ZM682.58,155.18l-18.12,56.48-18.11-56.48h-15.88l-21.92,79.29h15.77l14.31-54.79,17.67,54.79h15.99l17.56-54.57,14.54,54.57h16.33l-22.03-79.29h-16.1ZM736.26,170.5c5.06,0,9.17-4.11,9.17-9.17s-4.11-9.17-9.17-9.17-9.17,4.11-9.17,9.17,4.11,9.17,9.17,9.17ZM728.88,234.47h14.87v-55.02h-14.87v55.02ZM811.41,234.64h-14.21c-.36-2.11-.55-4.24-.56-6.37-2.46,4.36-8.05,7.72-15.43,7.72-15.66,0-26.84-12.3-26.84-28.96s10.85-28.74,26.39-28.74c9.51,0,13.98,3.92,15.54,6.82v-31.42h14.65v71.01c0,3.69.23,7.72.45,9.95h0ZM796.54,206.9c0-9.84-5.93-15.32-13.53-15.32s-13.64,5.59-13.64,15.43,5.82,15.66,13.64,15.66c7.6,0,13.53-5.82,13.53-15.77h0ZM825.95,234.56h14.88v-80.97h-14.88v80.97ZM1085.64,217.85c0-8.05-5.48-14.65-16.33-16.89l-7.83-1.68c-3.02-.56-5.03-2.24-5.03-4.92,0-3.13,3.13-5.48,7.05-5.48,6.26,0,8.61,4.14,9.06,7.38l12.41-2.79c-.66-5.93-5.92-15.88-21.58-15.88-11.85,0-20.58,8.16-20.58,18,0,7.72,4.81,14.09,15.43,16.44l7.27,1.68c4.25.9,5.93,2.91,5.93,5.37,0,2.91-2.35,5.48-7.27,5.48-6.49,0-9.73-4.03-10.06-8.39l-12.75,2.79c.67,6.26,6.37,17,22.93,17,14.43,0,21.36-9.17,21.36-18.12h0ZM929.29,202.87c0-6.37,3.8-11.4,10.29-11.4,7.16,0,10.18,4.81,10.18,10.96v32.1h14.87v-34.67c0-12.08-6.26-21.81-19.91-21.81-5.93,0-12.53,2.58-15.88,8.28v-6.82h-14.43v55.02h14.88v-31.65ZM901.22,234.7h-13.64c-.38-2.18-.57-4.39-.56-6.6-2.79,4.36-8.05,8.16-16.22,8.16-11.74,0-18.9-7.94-18.9-16.55,0-9.84,7.27-15.32,16.44-16.66l13.53-2.01c3.13-.45,4.14-2.02,4.14-3.92,0-3.91-3.02-7.16-9.28-7.16s-10.06,4.14-10.51,8.95l-13.19-2.8c.89-8.61,8.83-18.12,23.59-18.12,17.45,0,23.93,9.84,23.93,20.91v27.06c.02,2.92.24,5.84.67,8.72h0ZM886.01,209.98l-12.41,1.9c-3.8.56-6.82,2.68-6.82,6.93,0,3.24,2.35,6.37,7.16,6.37,6.26,0,12.08-3.02,12.08-12.75v-2.46ZM1031.51,234.75h-14.21c-.36-2.11-.55-4.24-.56-6.37-2.46,4.36-8.05,7.72-15.43,7.72-15.66,0-26.84-12.3-26.84-28.96s10.85-28.74,26.39-28.74c9.51,0,13.98,3.92,15.54,6.82v-31.42h14.65v71.01c0,3.69.22,7.72.45,9.95ZM1016.64,207.02c0-9.84-5.93-15.32-13.53-15.32s-13.64,5.59-13.64,15.43,5.82,15.66,13.64,15.66,13.53-5.82,13.53-15.77ZM391.95,58.41v-10.14h-63.76v10.14h26.42v68.89h10.92V58.41h26.42ZM423.94,73.13c-1.14-.21-2.3-.33-3.46-.34-5.46,0-12.15,2.01-16.05,10.26v-9.36h-10.26v53.61h10.48v-26.86c0-11.82,5.91-16.5,14.71-16.5,1.53,0,3.06.12,4.57.33v-11.15ZM430.62,112.92c0,8.47,7.02,16.05,17.95,16.05,9.59,0,14.94-5.13,17.28-8.92-.04,2.43.15,4.85.56,7.25h10.25c-.48-2.91-.7-5.86-.67-8.81v-26.86c0-10.48-6.24-19.62-22.29-19.62-11.59,0-20.84,7.13-21.96,17.39l10.03,2.34c.67-6.24,4.79-10.81,12.15-10.81,8.14,0,11.59,4.35,11.59,9.59,0,1.89-.89,3.57-4.12,4.01l-14.49,2.12c-9.25,1.34-16.27,6.69-16.27,16.27h0ZM450.01,120.16c-5.35,0-8.69-3.79-8.69-7.8,0-4.79,3.34-7.36,7.8-8.02l16.39-2.45v2.45c0,11.7-6.91,15.83-15.49,15.83h0ZM501.61,96.31c0-8.14,4.24-14.71,12.49-14.71,9.36,0,12.48,6.02,12.48,13.49v32.21h10.48v-34c0-11.93-6.35-21.18-19.17-21.18-6.79-.2-13.13,3.35-16.5,9.25v-7.69h-10.26v53.61h10.48v-30.99ZM547.64,113.36c.89,6.13,7.13,15.6,21.85,15.6,13.27,0,19.62-9.03,19.62-16.61s-5.13-13.82-14.82-15.94l-8.69-1.89c-4.12-.89-6.13-3.23-6.13-6.47,0-3.68,3.57-7.13,8.92-7.13,8.47,0,10.7,6.13,11.15,8.92l9.25-3.46c-1.11-4.79-5.68-14.38-20.4-14.38-10.48,0-19.06,7.8-19.06,16.94,0,7.58,5.02,13.26,13.38,15.05l9.14,2.01c4.46,1,6.91,3.57,6.91,6.91,0,3.79-3.23,7.13-9.14,7.13-7.58,0-11.82-4.46-12.48-10.03l-9.47,3.34ZM612.29,148.48v-28.42c2.9,4.79,9.14,8.69,17.39,8.69,15.72,0,24.97-12.37,24.97-28.31s-8.58-27.98-24.63-27.98c-8.69,0-15.05,4.24-17.95,9.59v-8.36h-10.14v74.79h10.37ZM643.94,100.43c0,11.04-6.13,18.95-15.83,18.95s-15.94-7.91-15.94-18.95,6.35-18.73,15.94-18.73c9.81,0,15.83,8.03,15.83,18.73h0ZM689.86,72.01c-16.05,0-27.42,12.15-27.42,28.42s11.37,28.53,27.42,28.53,27.42-12.15,27.42-28.53c0-16.27-11.37-28.42-27.42-28.42h0ZM689.86,119.61c-8.92,0-16.72-6.69-16.72-19.17s7.8-19.06,16.72-19.06,16.72,6.69,16.72,19.06-7.8,19.17-16.72,19.17h0ZM759.29,73.13c-1.14-.21-2.3-.33-3.46-.34-5.46,0-12.15,2.01-16.05,10.26v-9.36h-10.26v53.61h10.48v-26.86c0-11.82,5.91-16.5,14.71-16.5,1.53,0,3.06.12,4.57.33v-11.15ZM786.15,56.74h-9.59v8.69c0,4.68-2.45,8.25-8.25,8.25h-2.9v9.47h10.26v29.43c0,9.7,5.8,15.27,14.94,15.27,2.42.04,4.82-.3,7.13-1v-8.92c-1.36.28-2.74.43-4.12.45-5.46,0-7.47-2.45-7.47-7.36v-27.87h11.59v-9.47h-11.59v-16.94ZM864.28,83.16v-9.47h-12.93v-8.47c0-7.36,4.79-9.14,8.47-9.14,1.55-.07,3.1.15,4.57.67v-9.36c-.44-.33-2.67-1.11-6.24-1.11-9.7,0-17.61,6.47-17.61,18.39v9.03h-9.92v9.47h9.92v44.14h10.81v-44.14h12.93ZM895.15,72.01c-16.05,0-27.42,12.15-27.42,28.42s11.37,28.53,27.42,28.53,27.42-12.15,27.42-28.53c0-16.27-11.37-28.42-27.42-28.42ZM895.15,119.61c-8.92,0-16.72-6.69-16.72-19.17s7.8-19.06,16.72-19.06,16.72,6.69,16.72,19.06-7.8,19.17-16.72,19.17h0ZM964.59,73.13c-1.14-.21-2.3-.33-3.46-.34-5.46,0-12.15,2.01-16.05,10.26v-9.36h-10.26v53.61h10.48v-26.86c0-11.82,5.91-16.5,14.71-16.5,1.53,0,3.06.12,4.57.33v-11.15Z"/>
    </g>
  </g>
</svg>