<svg xmlns="http://www.w3.org/2000/svg" xmlns:xlink="http://www.w3.org/1999/xlink" zoomAndPan="magnify" viewBox="74.52 144.06 225.96 85.94" preserveAspectRatio="xMidYMid meet" version="1.0"><path fill="#db0032" d="M 286.59375 210.320312 C 288.859375 210.320312 289.917969 211.53125 289.917969 214.859375 L 282.660156 214.859375 C 282.863281 211.378906 284.273438 210.320312 286.59375 210.320312 M 292.589844 215.566406 C 292.589844 210.421875 290.421875 208.503906 286.59375 208.503906 C 283.015625 208.503906 279.839844 210.269531 279.839844 215.820312 C 279.839844 221.167969 282.710938 222.984375 287.199219 222.984375 C 289.0625 222.984375 291.027344 222.679688 292.035156 222.429688 L 292.035156 220.007812 C 291.078125 220.410156 289.113281 220.964844 287.246094 220.964844 C 284.375 220.964844 282.609375 219.703125 282.460938 216.625 L 292.539062 216.625 C 292.589844 216.324219 292.589844 215.871094 292.589844 215.566406 M 277.417969 208.554688 C 275.554688 208.554688 274.042969 209.511719 273.136719 210.472656 L 273.136719 208.757812 L 270.011719 208.757812 L 269.910156 209.109375 C 270.3125 209.664062 270.96875 210.625 270.96875 211.429688 L 270.96875 222.78125 L 273.488281 222.78125 L 273.488281 211.480469 C 274.292969 211.179688 275.300781 210.925781 276.511719 210.925781 C 277.46875 210.925781 278.074219 210.976562 278.578125 211.027344 L 278.78125 208.605469 C 278.476562 208.605469 277.871094 208.554688 277.417969 208.554688 M 260.785156 221.21875 C 257.914062 221.21875 256.550781 219.550781 256.550781 215.769531 C 256.550781 212.085938 257.914062 210.371094 260.785156 210.371094 C 263.660156 210.371094 264.917969 211.984375 264.917969 215.769531 C 264.917969 219.652344 263.710938 221.21875 260.785156 221.21875 M 260.785156 223.035156 C 265.324219 223.035156 267.640625 220.613281 267.640625 215.769531 C 267.640625 210.925781 265.324219 208.554688 260.785156 208.554688 C 256.199219 208.554688 253.832031 210.976562 253.832031 215.769531 C 253.832031 220.5625 256.199219 223.035156 260.785156 223.035156 M 245.765625 223.035156 C 247.378906 223.035156 249.796875 222.679688 251.511719 222.175781 L 251.160156 219.550781 C 249.597656 220.460938 247.632812 220.964844 245.765625 220.964844 C 241.027344 220.964844 239.113281 218.644531 239.113281 212.945312 C 239.113281 207.242188 241.078125 204.921875 245.765625 204.921875 C 247.632812 204.921875 249.597656 205.425781 251.160156 206.335938 L 251.511719 203.761719 C 249.847656 203.207031 247.429688 202.855469 245.765625 202.855469 C 239.363281 202.855469 236.089844 206.234375 236.089844 212.894531 C 236.089844 219.652344 239.363281 223.035156 245.765625 223.035156 M 221.117188 210.320312 C 223.386719 210.320312 224.445312 211.53125 224.445312 214.859375 L 217.1875 214.859375 C 217.390625 211.378906 218.800781 210.320312 221.117188 210.320312 M 227.117188 215.566406 C 227.117188 210.421875 224.949219 208.503906 221.117188 208.503906 C 217.539062 208.503906 214.363281 210.269531 214.363281 215.820312 C 214.363281 221.167969 217.238281 222.984375 221.722656 222.984375 C 223.589844 222.984375 225.554688 222.679688 226.5625 222.429688 L 226.5625 220.007812 C 225.605469 220.410156 223.640625 220.964844 221.773438 220.964844 C 218.902344 220.964844 217.136719 219.703125 216.984375 216.625 L 227.015625 216.625 C 227.117188 216.324219 227.117188 215.871094 227.117188 215.566406 M 206.503906 208.554688 C 204.988281 208.554688 203.175781 209.160156 201.765625 209.917969 L 201.765625 203.15625 L 198.234375 203.15625 L 198.136719 203.511719 C 198.539062 204.117188 199.195312 205.023438 199.195312 205.882812 L 199.195312 222.832031 L 201.714844 222.832031 L 201.714844 211.53125 C 202.871094 210.925781 204.535156 210.523438 205.746094 210.523438 C 207.914062 210.523438 208.667969 211.328125 208.667969 213.648438 L 208.667969 222.832031 L 211.191406 222.832031 L 211.191406 213.449219 C 211.191406 210.070312 209.726562 208.554688 206.503906 208.554688 M 196.070312 220.613281 C 194.960938 220.964844 194.152344 221.066406 193.296875 221.066406 C 191.632812 221.066406 190.828125 220.257812 190.828125 218.695312 L 190.828125 210.574219 L 195.867188 210.574219 L 195.867188 208.757812 L 190.828125 208.757812 L 190.828125 205.074219 L 188.355469 205.832031 L 188.355469 208.757812 L 186.089844 208.757812 L 186.089844 210.574219 L 188.355469 210.574219 L 188.355469 218.292969 C 188.355469 221.570312 189.769531 223.082031 192.84375 223.082031 C 194.003906 223.082031 195.011719 222.984375 196.117188 222.679688 Z M 168.042969 215.667969 C 168.042969 212.035156 169.355469 210.472656 172.429688 210.472656 C 173.386719 210.472656 174.496094 210.574219 175.554688 210.773438 L 175.554688 220.460938 C 174.496094 220.710938 173.386719 220.863281 172.429688 220.863281 C 169.355469 220.8125 168.042969 219.25 168.042969 215.667969 M 172.429688 208.554688 C 167.589844 208.554688 165.324219 210.824219 165.324219 215.667969 C 165.324219 220.511719 167.539062 222.78125 172.175781 222.78125 C 173.285156 222.78125 174.496094 222.527344 175.554688 222.074219 L 175.554688 223.386719 C 175.554688 225.960938 174.699219 226.816406 172.128906 226.816406 C 170.515625 226.816406 168.347656 226.261719 166.933594 225.503906 L 166.933594 227.976562 C 168.398438 228.378906 170.566406 228.632812 172.128906 228.632812 C 176.210938 228.632812 178.125 226.765625 178.125 222.78125 L 178.125 209.511719 C 176.261719 208.859375 174.292969 208.554688 172.429688 208.554688 M 157.410156 208.554688 C 155.796875 208.554688 153.832031 209.210938 152.417969 210.070312 L 152.417969 208.757812 L 149.242188 208.757812 L 149.144531 209.109375 C 149.546875 209.664062 150.203125 210.625 150.203125 211.429688 L 150.203125 222.78125 L 152.722656 222.78125 L 152.722656 211.480469 C 153.882812 210.875 155.542969 210.472656 156.703125 210.472656 C 158.871094 210.472656 159.628906 211.277344 159.628906 213.601562 L 159.628906 222.78125 L 162.148438 222.78125 L 162.148438 213.398438 C 162.148438 210.070312 160.683594 208.554688 157.410156 208.554688 M 145.867188 208.757812 L 142.390625 208.757812 L 142.289062 209.109375 C 142.691406 209.664062 143.347656 210.625 143.347656 211.429688 L 143.347656 222.78125 L 145.867188 222.78125 Z M 144.554688 206.636719 C 145.613281 206.636719 146.167969 206.082031 146.167969 205.074219 C 146.167969 204.066406 145.613281 203.511719 144.554688 203.511719 C 143.449219 203.511719 142.894531 204.066406 142.894531 205.074219 C 142.894531 206.082031 143.449219 206.636719 144.554688 206.636719 M 140.171875 220.613281 C 139.0625 220.964844 138.257812 221.066406 137.398438 221.066406 C 135.734375 221.066406 134.980469 220.257812 134.980469 218.695312 L 134.980469 210.574219 L 139.96875 210.574219 L 139.96875 208.757812 L 134.980469 208.757812 L 134.980469 205.074219 L 132.460938 205.832031 L 132.460938 218.242188 C 132.460938 221.519531 133.871094 223.035156 136.945312 223.035156 C 138.105469 223.035156 139.164062 222.933594 140.222656 222.628906 Z M 130.242188 208.757812 L 125.90625 208.757812 L 125.90625 206.738281 C 125.90625 205.378906 126.511719 204.820312 127.921875 204.820312 C 128.527344 204.820312 129.335938 204.972656 130.089844 205.175781 L 130.089844 203.308594 C 129.285156 203.105469 128.277344 202.957031 127.417969 202.957031 C 124.648438 202.957031 123.386719 204.316406 123.386719 207.292969 L 123.386719 208.808594 L 120.566406 208.808594 L 120.566406 210.625 L 123.386719 210.625 L 123.386719 222.882812 L 125.90625 222.882812 L 125.90625 210.625 L 130.242188 210.625 Z M 109.121094 218.796875 C 109.121094 217.132812 110.179688 216.527344 112.148438 216.171875 L 115.675781 215.515625 L 115.675781 220.359375 C 114.71875 220.710938 113.355469 221.167969 111.792969 221.167969 C 110.332031 221.167969 109.121094 220.460938 109.121094 218.796875 M 112.5 208.554688 C 110.886719 208.554688 108.617188 208.910156 107.207031 209.363281 L 107.207031 211.882812 C 108.617188 211.128906 110.785156 210.574219 112.398438 210.574219 C 114.96875 210.574219 115.675781 211.230469 115.675781 213.449219 L 115.675781 214.003906 L 111.59375 214.558594 C 108.617188 214.960938 106.402344 215.921875 106.402344 219.097656 C 106.402344 222.023438 108.46875 223.082031 110.785156 223.082031 C 113.207031 223.082031 114.769531 222.328125 115.878906 221.722656 L 116.28125 222.882812 L 118.195312 222.882812 L 118.195312 213.550781 C 118.195312 209.96875 116.53125 208.554688 112.5 208.554688 M 103.175781 208.554688 C 101.308594 208.554688 99.796875 209.511719 98.890625 210.472656 L 98.890625 208.757812 L 95.765625 208.757812 L 95.664062 209.109375 C 96.070312 209.664062 96.722656 210.625 96.722656 211.429688 L 96.722656 222.78125 L 99.242188 222.78125 L 99.242188 211.480469 C 100.050781 211.179688 101.058594 210.925781 102.269531 210.925781 C 103.226562 210.925781 103.832031 210.976562 104.335938 211.027344 L 104.535156 208.605469 C 104.183594 208.605469 103.578125 208.554688 103.175781 208.554688 M 87.753906 223.035156 C 89.363281 223.035156 91.785156 222.679688 93.496094 222.175781 L 93.144531 219.550781 C 91.582031 220.460938 89.617188 220.964844 87.753906 220.964844 C 83.015625 220.964844 81.097656 218.644531 81.097656 212.945312 C 81.097656 207.242188 83.066406 204.921875 87.753906 204.921875 C 89.617188 204.921875 91.582031 205.425781 93.144531 206.335938 L 93.496094 203.761719 C 91.835938 203.207031 89.414062 202.855469 87.753906 202.855469 C 81.351562 202.855469 78.074219 206.234375 78.074219 212.894531 C 78.074219 219.652344 81.351562 223.035156 87.753906 223.035156 M 92.1875 182.070312 C 90.878906 182.070312 89.917969 181.414062 90.371094 180.054688 L 99.496094 151.5 C 101.210938 151.347656 102.320312 151.347656 103.832031 151.347656 C 110.082031 151.347656 114.316406 152.609375 114.316406 157.855469 C 114.316406 162.851562 110.332031 174.402344 106.503906 178.085938 C 103.378906 181.0625 99.195312 182.070312 92.1875 182.070312 M 269.808594 182.828125 C 265.421875 182.828125 262.902344 181.011719 262.902344 176.320312 C 262.902344 170.46875 266.886719 158.613281 271.421875 154.125 C 273.738281 151.800781 276.511719 150.691406 280.242188 150.691406 C 284.628906 150.691406 286.792969 152.558594 286.792969 156.847656 C 286.792969 162.546875 282.308594 176.21875 277.570312 180.152344 C 275.402344 181.96875 272.933594 182.828125 269.808594 182.828125 M 213.960938 146.457031 L 206.90625 146.457031 L 197.984375 174.855469 L 187.449219 146.457031 L 174.09375 146.457031 L 175.957031 150.492188 L 164.316406 187.066406 L 171.371094 187.066406 L 180.898438 157.199219 L 192.1875 187.066406 L 200.855469 187.066406 Z M 167.894531 146.457031 L 135.179688 146.457031 L 137.046875 150.492188 L 125.402344 187.066406 L 156.300781 187.066406 L 157.863281 182.019531 L 139.566406 182.019531 C 138.257812 182.019531 137.246094 181.464844 137.703125 179.953125 L 141.429688 168.449219 L 155.089844 168.449219 L 156.652344 163.40625 L 142.992188 163.40625 L 146.824219 151.5 L 166.382812 151.5 Z M 87.851562 146.457031 L 89.769531 150.492188 L 78.125 187.066406 L 91.886719 187.066406 C 99.699219 187.066406 106.804688 185.804688 112.5 181.769531 C 119.507812 176.824219 124.195312 166.230469 124.195312 158.007812 C 124.195312 148.875 116.480469 146.457031 105.292969 146.457031 Z M 281.804688 145.648438 C 274.496094 145.648438 268.953125 147.515625 264.667969 150.640625 C 258.015625 155.535156 252.722656 168.046875 252.722656 176.472656 C 252.722656 184.84375 258.667969 187.921875 268.246094 187.921875 C 274.898438 187.921875 280.140625 186.308594 284.324219 183.433594 C 291.683594 178.4375 296.976562 165.625 296.976562 157.148438 C 296.925781 148.828125 291.179688 145.648438 281.804688 145.648438 M 239.414062 145.648438 C 233.769531 145.648438 228.226562 146.859375 224.292969 149.480469 C 221.070312 151.703125 218.902344 154.828125 218.902344 159.066406 C 218.902344 168.601562 234.878906 170.621094 234.878906 176.21875 C 234.878906 180.808594 230.34375 183.078125 224.746094 183.078125 C 218.953125 183.078125 214.164062 179.648438 212.753906 178.742188 L 210.433594 186.054688 C 213.054688 186.8125 218.09375 187.921875 224.34375 187.921875 C 235.179688 187.921875 245.664062 183.433594 245.664062 173.59375 C 245.664062 163.910156 229.839844 161.640625 229.839844 156.140625 C 229.839844 152.207031 233.71875 150.742188 238.304688 150.742188 C 243.449219 150.742188 246.824219 152.609375 249.042969 153.972656 L 251.308594 147.109375 C 248.992188 146.457031 244.152344 145.648438 239.414062 145.648438 " fill-opacity="1" fill-rule="nonzero"/></svg>