<?xml version="1.0" encoding="UTF-8"?>
<svg xmlns="http://www.w3.org/2000/svg" xmlns:xlink="http://www.w3.org/1999/xlink" version="1.1" viewBox="-2.05 4.91 141.06 95.68">
  <!-- Generator: Adobe Illustrator 29.0.0, SVG Export Plug-In . SVG Version: 2.1.0 Build 186)  -->
  <defs>
    <style>
      .st0 {
        fill: none;
      }

      .st1 {
        fill: url(#linear-gradient2);
      }

      .st2 {
        fill: url(#linear-gradient1);
      }

      .st3 {
        fill: url(#linear-gradient9);
      }

      .st4 {
        fill: url(#linear-gradient3);
      }

      .st5 {
        fill: url(#linear-gradient6);
      }

      .st6 {
        fill: url(#linear-gradient8);
      }

      .st7 {
        fill: url(#linear-gradient7);
      }

      .st8 {
        fill: url(#linear-gradient5);
      }

      .st9 {
        fill: url(#linear-gradient31);
      }

      .st10 {
        fill: url(#linear-gradient32);
      }

      .st11 {
        fill: url(#linear-gradient34);
      }

      .st12 {
        fill: url(#linear-gradient33);
      }

      .st13 {
        fill: url(#linear-gradient36);
      }

      .st14 {
        fill: url(#linear-gradient13);
      }

      .st15 {
        fill: url(#linear-gradient12);
      }

      .st16 {
        fill: url(#linear-gradient15);
      }

      .st17 {
        fill: url(#linear-gradient10);
      }

      .st18 {
        fill: url(#linear-gradient14);
      }

      .st19 {
        fill: url(#linear-gradient24);
      }

      .st20 {
        fill: url(#linear-gradient25);
      }

      .st21 {
        fill: url(#linear-gradient20);
      }

      .st22 {
        fill: url(#linear-gradient27);
      }

      .st23 {
        fill: url(#radial-gradient);
      }

      .st24 {
        fill: url(#linear-gradient);
      }

      .st25, .st26, .st27, .st28, .st29, .st30, .st31, .st32, .st33, .st34, .st35, .st36, .st37, .st38, .st39, .st40, .st41, .st42, .st43 {
        isolation: isolate;
      }

      .st26 {
        fill: url(#linear-gradient4);
      }

      .st26, .st27, .st28, .st29, .st30, .st31, .st42, .st43 {
        mix-blend-mode: multiply;
      }

      .st26, .st32, .st33, .st34, .st35, .st36, .st37, .st38, .st39, .st41, .st44, .st42, .st43 {
        opacity: .5;
      }

      .st27 {
        fill: url(#linear-gradient18);
      }

      .st28 {
        fill: url(#linear-gradient21);
      }

      .st29 {
        fill: url(#linear-gradient26);
      }

      .st30 {
        fill: url(#linear-gradient22);
      }

      .st31 {
        fill: url(#linear-gradient35);
      }

      .st32 {
        fill: url(#linear-gradient39);
      }

      .st32, .st33, .st34, .st35, .st36, .st37, .st38, .st39, .st41, .st44 {
        mix-blend-mode: overlay;
      }

      .st33 {
        fill: url(#linear-gradient37);
      }

      .st34 {
        fill: url(#linear-gradient30);
      }

      .st35 {
        fill: url(#linear-gradient23);
      }

      .st36 {
        fill: url(#linear-gradient29);
      }

      .st37 {
        fill: url(#linear-gradient11);
      }

      .st38 {
        fill: url(#linear-gradient16);
      }

      .st39 {
        fill: url(#linear-gradient19);
      }

      .st45 {
        fill: #fff;
      }

      .st40 {
        fill: url(#linear-gradient28);
        opacity: .3;
      }

      .st41 {
        fill: url(#radial-gradient1);
      }

      .st46 {
        fill: #f2f2f2;
      }

      .st47 {
        fill: url(#radial-gradient3);
      }

      .st48 {
        fill: url(#radial-gradient2);
      }

      .st49 {
        fill: url(#radial-gradient5);
      }

      .st50 {
        fill: url(#radial-gradient4);
      }

      .st42 {
        fill: url(#linear-gradient38);
      }

      .st43 {
        fill: url(#linear-gradient17);
      }

      .st51 {
        clip-path: url(#clippath);
      }
    </style>
    <clipPath id="clippath">
      <rect class="st0" x="-.5" y="0" width="141.1" height="99.2"/>
    </clipPath>
    <linearGradient id="linear-gradient" x1="3.3" y1="1754.2" x2="136.9" y2="1754.2" gradientTransform="translate(0 -1680.8)" gradientUnits="userSpaceOnUse">
      <stop offset="0" stop-color="#ababab"/>
      <stop offset="1" stop-color="#e6e6e6"/>
    </linearGradient>
    <radialGradient id="radial-gradient" cx="26.4" cy="1743.6" fx="26.4" fy="1743.6" r="0" gradientTransform="translate(35.6 -1680.8) scale(.9 1)" gradientUnits="userSpaceOnUse">
      <stop offset="0" stop-color="#fff"/>
      <stop offset="1" stop-color="#fff"/>
    </radialGradient>
    <linearGradient id="linear-gradient1" x1="-58.1" y1="1763.1" x2="-.5" y2="1763.1" gradientTransform="translate(36.2 -1680.8) scale(.6 1)" gradientUnits="userSpaceOnUse">
      <stop offset="0" stop-color="#f7f7f7"/>
      <stop offset="1" stop-color="#fff"/>
    </linearGradient>
    <linearGradient id="linear-gradient2" x1="-43.2" y1="1704.7" x2="26.7" y2="1704.7" gradientTransform="translate(36.2 -1680.8) scale(.6 1)" gradientUnits="userSpaceOnUse">
      <stop offset="0" stop-color="#fff"/>
      <stop offset="1" stop-color="#f7f7f7"/>
    </linearGradient>
    <linearGradient id="linear-gradient3" x1="-5.3" y1="1721.1" x2="-61.1" y2="1769.5" gradientTransform="translate(36.2 -1680.8) scale(.6 1)" gradientUnits="userSpaceOnUse">
      <stop offset="0" stop-color="#fff"/>
      <stop offset="1" stop-color="#fff"/>
    </linearGradient>
    <linearGradient id="linear-gradient4" x1="-60.5" y1="1714.4" x2="22.8" y2="1722" gradientTransform="translate(36.2 -1680.8) scale(.6 1)" gradientUnits="userSpaceOnUse">
      <stop offset="0" stop-color="#fff"/>
      <stop offset="1" stop-color="#dedede"/>
    </linearGradient>
    <linearGradient id="linear-gradient5" x1="-.5" y1="1754.3" x2="32.6" y2="1754.3" gradientTransform="translate(36.2 -1680.8) scale(.6 1)" gradientUnits="userSpaceOnUse">
      <stop offset="0" stop-color="#fff"/>
      <stop offset="1" stop-color="#e8e8e8"/>
    </linearGradient>
    <linearGradient id="linear-gradient6" x1="-34.6" y1="1758.4" x2="-15.7" y2="1758.4" gradientTransform="translate(36.2 -1680.8) scale(.6 1)" gradientUnits="userSpaceOnUse">
      <stop offset="0" stop-color="#fff"/>
      <stop offset="1" stop-color="#c6c6c6"/>
    </linearGradient>
    <linearGradient id="linear-gradient7" x1="-7" y1="1743.7" x2="-14.9" y2="1786.6" gradientTransform="translate(36.2 -1680.8) scale(.6 1)" gradientUnits="userSpaceOnUse">
      <stop offset="0" stop-color="#e8e8e8"/>
      <stop offset="1" stop-color="#fff"/>
    </linearGradient>
    <linearGradient id="linear-gradient8" x1="19.1" y1="1775.8" x2="20.6" y2="1790.5" gradientTransform="translate(36.2 -1680.8) scale(.6 1)" gradientUnits="userSpaceOnUse">
      <stop offset="0" stop-color="#dedede"/>
      <stop offset="1" stop-color="#adadad"/>
    </linearGradient>
    <linearGradient id="linear-gradient9" x1="34.9" y1="1744" x2="63" y2="1744" gradientTransform="translate(36.2 -1680.8) scale(.6 1)" gradientUnits="userSpaceOnUse">
      <stop offset="0" stop-color="#ababab"/>
      <stop offset=".6" stop-color="#fff"/>
    </linearGradient>
    <linearGradient id="linear-gradient10" x1="22.3" y1="1740.7" x2="48.9" y2="1794.5" xlink:href="#linear-gradient4"/>
    <linearGradient id="linear-gradient11" x1="17.7" y1="1706" x2="-49.8" y2="1764.6" gradientTransform="translate(36.2 -1680.8) scale(.6 1)" gradientUnits="userSpaceOnUse">
      <stop offset="0" stop-color="#fff"/>
      <stop offset="1" stop-color="#fff"/>
    </linearGradient>
    <radialGradient id="radial-gradient1" cx="-60.7" cy="1721" fx="-60.7" fy="1721" r="18.6" gradientTransform="translate(0 -1680.8)" xlink:href="#radial-gradient"/>
    <radialGradient id="radial-gradient2" cx="-64.2" cy="1727.4" fx="-64.2" fy="1727.4" r="21.7" gradientTransform="translate(0 -1680.8)" xlink:href="#radial-gradient"/>
    <linearGradient id="linear-gradient12" x1="-27.3" y1="1745.6" x2="-68.3" y2="1770.1" xlink:href="#linear-gradient6"/>
    <linearGradient id="linear-gradient13" x1="-12.7" y1="1703.6" x2="-40.4" y2="1720.1" gradientTransform="translate(36.2 -1680.8) scale(.6 1)" gradientUnits="userSpaceOnUse">
      <stop offset="0" stop-color="#fff"/>
      <stop offset="1" stop-color="#dbdbdb"/>
    </linearGradient>
    <linearGradient id="linear-gradient14" x1="-1.7" y1="1702.9" x2="-103" y2="1680" xlink:href="#linear-gradient6"/>
    <linearGradient id="linear-gradient15" x1="11.9" y1="1698.3" x2="3.3" y2="1708.9" xlink:href="#linear-gradient11"/>
    <linearGradient id="linear-gradient16" x1="12.9" y1="1699.4" x2="4.4" y2="1709.7" xlink:href="#linear-gradient11"/>
    <linearGradient id="linear-gradient17" x1="-.4" y1="1708.9" x2="9.4" y2="1708.9" gradientTransform="translate(36.2 -1680.8) scale(.6 1)" gradientUnits="userSpaceOnUse">
      <stop offset=".4" stop-color="#fff"/>
      <stop offset="1" stop-color="#999"/>
    </linearGradient>
    <linearGradient id="linear-gradient18" x1="-89.8" y1="1783.7" x2="-1.5" y2="1730.3" gradientTransform="translate(36.2 -1680.8) scale(.6 1)" gradientUnits="userSpaceOnUse">
      <stop offset="0" stop-color="#f0f0f0"/>
      <stop offset="1" stop-color="#fff"/>
    </linearGradient>
    <linearGradient id="linear-gradient19" x1="-3.6" y1="1732.4" x2="-57.3" y2="1788.9" xlink:href="#linear-gradient11"/>
    <linearGradient id="linear-gradient20" x1="-39.4" y1="1802.4" x2="-26" y2="1767.7" gradientTransform="translate(36.2 -1680.8) scale(.6 1)" gradientUnits="userSpaceOnUse">
      <stop offset="0" stop-color="#c6c6c6"/>
      <stop offset="1" stop-color="#fff"/>
    </linearGradient>
    <radialGradient id="radial-gradient3" cx="-76.7" cy="1763.1" fx="-76.7" fy="1763.1" r="23.7" gradientTransform="translate(0 -1680.8)" xlink:href="#radial-gradient"/>
    <linearGradient id="linear-gradient21" x1="-9.7" y1="1727" x2="-49.2" y2="1768.4" gradientTransform="translate(36.2 -1680.8) scale(.6 1)" gradientUnits="userSpaceOnUse">
      <stop offset="0" stop-color="#d9d9d9"/>
      <stop offset="1" stop-color="#fff"/>
    </linearGradient>
    <linearGradient id="linear-gradient22" x1="-25.8" y1="1764.4" x2="-19.5" y2="1756.2" xlink:href="#linear-gradient3"/>
    <linearGradient id="linear-gradient23" x1="-28.2" y1="1801" x2="12.6" y2="1747.8" xlink:href="#linear-gradient11"/>
    <linearGradient id="linear-gradient24" x1="-1.3" y1="1795.9" x2="2.9" y2="1737.8" xlink:href="#linear-gradient20"/>
    <linearGradient id="linear-gradient25" x1="-21.1" y1="1782.1" x2="8.8" y2="1743.3" xlink:href="#linear-gradient11"/>
    <linearGradient id="linear-gradient26" x1="17.2" y1="1756.7" x2="5.6" y2="1727.4" gradientTransform="translate(36.2 -1680.8) scale(.6 1)" gradientUnits="userSpaceOnUse">
      <stop offset="0" stop-color="#e0e0e0"/>
      <stop offset="1" stop-color="#fff"/>
    </linearGradient>
    <linearGradient id="linear-gradient27" x1="20.6" y1="1772.1" x2="35.2" y2="1781.6" xlink:href="#linear-gradient6"/>
    <linearGradient id="linear-gradient28" x1="19.4" y1="1778.6" x2="20.3" y2="1787.9" gradientTransform="translate(36.2 -1680.8) scale(.6 1)" gradientUnits="userSpaceOnUse">
      <stop offset="0" stop-color="#9e9e9e"/>
      <stop offset="1" stop-color="#fff"/>
    </linearGradient>
    <radialGradient id="radial-gradient4" cx="-40" cy="1776.3" fx="-40" fy="1776.3" r="23.1" gradientTransform="translate(0 -1680.8)" xlink:href="#radial-gradient"/>
    <linearGradient id="linear-gradient29" x1="19.1" y1="1788.3" x2="10.7" y2="1763" xlink:href="#linear-gradient3"/>
    <linearGradient id="linear-gradient30" x1="12.1" y1="1699.8" x2="59.9" y2="1829.2" xlink:href="#linear-gradient3"/>
    <linearGradient id="linear-gradient31" x1="45.5" y1="1806.7" x2="34.6" y2="1740.5" gradientTransform="translate(36.2 -1680.8) scale(.6 1)" gradientUnits="userSpaceOnUse">
      <stop offset="0" stop-color="#7b509b"/>
      <stop offset="1" stop-color="#bb6ba9"/>
    </linearGradient>
    <linearGradient id="linear-gradient32" x1="53.2" y1="1802.1" x2="42.9" y2="1739.7" xlink:href="#linear-gradient31"/>
    <linearGradient id="linear-gradient33" x1="39.8" y1="1804.3" x2="29.4" y2="1740.9" xlink:href="#linear-gradient20"/>
    <linearGradient id="linear-gradient34" x1="18.2" y1="1729.8" x2="40.8" y2="1791.1" xlink:href="#linear-gradient11"/>
    <linearGradient id="linear-gradient35" x1="-40.2" y1="1783.9" x2="3.6" y2="1726.9" xlink:href="#linear-gradient18"/>
    <linearGradient id="linear-gradient36" x1="56.3" y1="1739.7" x2="56.4" y2="1739.5" xlink:href="#linear-gradient31"/>
    <linearGradient id="linear-gradient37" x1="54.6" y1="1742.2" x2="61.4" y2="1733.2" xlink:href="#linear-gradient11"/>
    <linearGradient id="linear-gradient38" x1="38.4" y1="1750" x2="40.9" y2="1746.8" xlink:href="#linear-gradient6"/>
    <linearGradient id="linear-gradient39" x1="43.2" y1="1759.8" x2="55.9" y2="1743.3" gradientTransform="translate(36.2 -1680.8) scale(.6 1)" gradientUnits="userSpaceOnUse">
      <stop offset="0" stop-color="#b5b5b5"/>
      <stop offset="1" stop-color="#fff"/>
    </linearGradient>
    <radialGradient id="radial-gradient5" cx="-16.8" cy="1751.5" fx="-16.8" fy="1751.5" r="6.1" gradientTransform="translate(0 -1680.8)" gradientUnits="userSpaceOnUse">
      <stop offset="0" stop-color="#969696"/>
      <stop offset="1" stop-color="#fff"/>
    </radialGradient>
  </defs>
  <g class="st25">
    <g id="Layer_1">
      <g class="st51">
        <g>
          <path class="st24" d="M70.1,6.3C33.3,6.3,3.3,36.4,3.3,73.4s10.9,42.1,27.6,54.3h0c6.7,4.9,14.1,8.5,22.1,10.6,5.6,1.5,11.3,2.2,17.1,2.2s12.8-.9,18.9-2.7c7.2-2.1,14.1-5.6,20.2-10.1h.1c16.7-12.2,27.6-32,27.6-54.3,0-37-30-67.1-66.8-67.1h0ZM70.1,11.2c33.7,0,61.2,27.3,61.9,61-2.9.6-5.8.9-8.7,1.1-.4-9.8-3-19.2-7.6-27.6.3.4.7.8,1,1.2,3.5,4.4,5.7,8.1,5.7,8.1l4.2-2.6c0-.2-2.4-3.9-6-8.6-3.3-4.2-6.9-7.2-7.9-8-1.1-2.8-2.9-5.7-5.4-8.2-5.2-5.2-11.6-7.4-15.9-5.9-9.5-4.9-20.1-7.8-29.4-7.8s-2.4,0-3.5.1c0-.6,0-1.2,0-1.8,3.8-.8,7.8-1.2,11.8-1.2h0ZM75.9,43.6l10.1-11.6-11.8-11.3-3.4,3.6,4.8,4.6c-1.3,0-2.6-.1-3.8-.1-3.6,0-7.2.3-10.7.9-1.1-3.4-1.8-7-2.3-10.7,1,0,2.1,0,3.1,0,8,0,17.1,2.3,25.5,6.3-1,2-1.1,4.5-.3,7.3.6,2.1,1.6,4.2,3,6.2l-13.3,16.6c-6-5.9-10.7-13.1-13.9-21,2.9-.5,5.9-.7,9-.7s4.1.1,6.1.3l-5.6,6.4,3.7,3.2h0s0,0,0,0ZM93.2,42.5c1.9,1.9,4.1,3.4,6.2,4.4,2.1,6.8,3.3,14.2,3.3,20s0,2.6-.1,3.9c-8.3-2.5-15.9-6.6-22.3-12.1l13-16.2h0,0ZM92.1,26.9c.5-.5,1.2-.7,2.2-.7,2.5,0,6.2,1.7,9.5,5,2.3,2.3,3.9,5,4.6,7.4.6,1.9.4,3.5-.4,4.3s-2.4.9-4.3.4c-2.4-.7-5.1-2.4-7.4-4.7-2.3-2.3-3.9-5-4.6-7.4-.5-1.9-.4-3.5.4-4.3h0ZM77.2,62.5c7.2,6.1,15.6,10.6,24.9,13.3-1.2,8.6-4.2,16.8-8.6,24-10.4-4.1-20.5-9.7-29.8-16.7-.6-.5-1.2-1-1.8-1.5l15.3-19.1s0,0,0,0ZM106.9,76.9c3.7.8,7.6,1.2,11.5,1.3-.4,9.5-3.1,18.6-7.9,26.7-4.1-.9-8.2-2-12.3-3.4,4.4-7.4,7.4-15.8,8.7-24.6h0ZM107.4,72c.1-1.7.2-3.4.2-5.2,0-5.4-1-12-2.6-18.4.3,0,.6,0,.8,0,1.9,0,3.6-.6,4.9-1.6,4.6,8,7.3,17,7.7,26.4-3.7-.1-7.4-.5-11-1.3h0ZM73.6,59.2l-15.5,19.3c-3.7-3.1-7.1-6.4-10.4-9.9l10.4.8.4-4.9-19.2-1.5.6,18.9,4.9-.2-.3-9.4c3.3,3.5,6.8,6.8,10.5,10l-19,23.7c-9.1-7.5-15.9-17.4-19.6-28.8,2.2-9.3,6.8-17.7,12.9-24.7,1.5,2.4,3,4.8,4.7,7.1l4-2.9c-1.8-2.6-3.5-5.2-5.1-7.8,6.9-6.5,15.5-11.3,25-13.7,3.5,9.1,8.9,17.2,15.7,23.8h0s0,0,0,0ZM53.4,13.5c0,.4,0,.7,0,1.1-2.5.3-5,.9-7.5,1.5,2.4-1,4.9-1.9,7.5-2.6ZM53.9,19.5c.5,3.9,1.3,7.6,2.4,11.2-9.8,2.5-18.6,7.4-25.8,14-2.1-3.9-3.9-8-5.5-12,8.3-7.1,18.2-11.7,28.9-13.2ZM14.2,46.6c1.8-3.9,4.1-7.5,6.7-10.9,1.7,4.2,3.6,8.4,5.9,12.6-5.4,5.7-9.7,12.5-12.6,19.9-.5-3.3-.8-6.8-.8-10.3s.3-7.6,1-11.3h-.1s0,0,0,0ZM10,88.3c-1.2-4.8-1.8-9.8-1.8-14.9s.2-5.9.6-8.8c.4,4.4,1.3,8.8,2.5,12.9-.8,3.5-1.2,7.1-1.4,10.7ZM105.7,124.3c-.2.1-.4.3-.6.4-.2.1-.4.3-.6.4-.3.2-.5.4-.8.5-.1,0-.2.1-.4.2-.3.2-.6.4-.9.6,0,0-.1,0-.2.1-.3.2-.7.4-1,.6,0,0,0,0,0,0-4.3,2.5-8.8,4.5-13.5,5.9-5.6,1.7-11.5,2.5-17.5,2.5s-10.7-.7-15.9-2.1c-7.9-2.1-15.3-5.8-21.9-10.9-9.3-7.2-16.5-17-20.5-28.3l-3-7.2,1.3,3.3c0-1,1-12.6,1.3-11.6.9,2.4,3.5,7.9,3.5,8.1,4.2,8.9,10.4,16.8,18,23.1l-2.8,3.4,3.8,3.1,2.8-3.5c6.6,4.6,14.1,8.2,22.3,10.2l1.2-4.8c-7.5-1.9-14.3-5.1-20.4-9.3l18.9-23.6c.7.5,1.3,1.1,2,1.6,9.3,7.1,19.5,12.8,30,17-4.5,6.2-10.2,11.6-16.8,15.6l.3-11.7h-4.9c0-.1-.5,18.4-.5,18.4l18,.4v-4.9c.1,0-7-.2-7-.2,6.1-4.3,11.4-9.7,15.6-15.8,4,1.4,8.1,2.6,12.2,3.6-.2.3-.4.6-.7,1l3.9,3c.7-.9,1.4-1.9,2-2.8,2.1.4,4.2.7,6.2.9-3.8,5-8.4,9.3-13.5,12.9h0s0,0,0,0ZM122.3,106.7c-2.2-.2-4.5-.5-6.7-.9,4.7-8.5,7.3-17.9,7.7-27.7,2.9-.1,5.8-.5,8.6-1-.6,10.8-4.1,20.9-9.6,29.5h0Z"/>
          <path class="st45" d="M75.2,53.5s-1.1.9-1.7,3-2.4,2.1-2.4,2.1h0c0,0,0,.2.2.4h0c.4.9,1.3,3.2,1.5,5.8.3,3.1-.2,6.4-3.8,7.7-1.8.7-3.7.5-5.3,0,5.7,14.2,5.1,36.1,5.1,36.1h-7.9c-.7-4.8-1.9-9-3.9-12.4,0,.9.1,1.8.2,2.8,0,1.8,0,3.5,0,5-.2,2.7-.4,4.6-.4,4.6h-8.2c0-8.8-6.1-18.3-9.6-23.1,0,.4,0,.8,0,1.2v5.9c0,.2,0,.4,0,.5h0c0,.2,0,.4,0,.6h0c0,.2,0,.4,0,.5h0c0,.2,0,.4,0,.5h0c0,.2,0,.4,0,.5h0c0,.2,0,.3,0,.5h0c0,2.5-.2,4.8-.3,6.7h0c0,.1,0,.2,0,.4h0c0,.1,0,.2,0,.4h0c0,.1,0,.2,0,.3h0c0,.1,0,.2,0,.3h0c0,.1,0,.2,0,.3h0c0,.1,0,.2,0,.3h0c0,.2,0,.2,0,.3h0c0,.2,0,.2,0,.2,0,0,0,.1,0,.2h0c-.2,2.2-.3,3.5-.3,3.5h-9c0-9.9-1-17.6-2.5-23.6-.8,0-1.6-.1-2.3-.2-3-.4-5.4-1.2-7.3-2.2,0,0-.2,0-.3-.2-.6-.3-1.2-.7-1.8-1.1,0,.2-.2.4-.2.7s0,.2-.1.3c0,.1,0,.2-.1.3,0,.1,0,.3-.1.4,0,0,0,.2,0,.3,0,.1,0,.3-.1.4,0,0,0,.2,0,.2,0,.1,0,.3-.1.4,0,0,0,.2,0,.2,0,.2,0,.3-.1.4,0,0,0,.1,0,.2,0,.1,0,.3-.2.5,0,0,0,.1,0,.2,0,.2,0,.3-.1.5v.2c-.1.2-.2.3-.2.5,0,0,0,.1,0,.2,0,.2,0,.3-.2.5h0c0,.3,0,.5-.2.6,0,0,0,0,0,.1,0,.2,0,.3-.2.5,0,0,0,0,0,.1,0,.2,0,.3-.2.5,0,0,0,0,0,.1,0,.2,0,.4-.2.5,0,0,0,0,0,0,0,.2,0,.4-.2.5,0,0,0,0,0,0,0,.2,0,.4-.1.5,0,0,0,0,0,0,0,.2,0,.4-.1.5,0,0,0,0,0,0,0,.2,0,.4-.1.6h0c0,.2,0,.4-.1.6h0c0,.2,0,.4-.1.6h0c-2.1,8.3-2.8,14.2-2.9,14.6h0s-7.5,0-7.5,0c0,0-.9-10.1,0-23.7,0-1,.1-2.1.2-3.1h0c0-.4,0-.7,0-1h0c.1-1.4.3-2.8.4-4.3.7-6,1.7-12.3,3.4-18.5,2-7.7,4.9-15.3,8.9-22,.8-1.4,1.7-2.7,2.7-4,0,0-3.5-2.9-5.5-7.3-2.2-4.8-2.5-11.4,5.6-17.7h0s0,.1-.1.2h0s0,0,0,0c-.3.5-.9,1.8-1.4,3.4h0c0,0,0,.2,0,.2h0c0,.1,0,.2,0,.3h0c0,.1,0,.2,0,.3h0c0,.1,0,.2,0,.3h0c0,.1,0,.2,0,.3h0c0,.1,0,.2,0,.3h0c0,.1,0,.2,0,.3h0c0,.2,0,.2,0,.3h0c0,.2,0,.2,0,.3h0c0,.2,0,.2,0,.3h0c0,.2,0,.2,0,.3h0v1.8h0c0,.2,0,.2,0,.3h0c0,.2,0,.2,0,.3,0,0,0,0,0,.1,0,0,0,.1,0,.2,0,0,0,0,0,.1s0,.1,0,.2c0,0,0,0,0,.1,0,0,0,.1,0,.2,0,0,0,0,0,.1,0,0,0,.1,0,.2,0,0,0,0,0,.1,0,0,0,.1,0,.2,0,0,0,0,0,.1,0,0,0,.1,0,.2s0,0,0,.1c0,0,0,.1,0,.2,0,0,0,0,0,.1,0,0,0,.1,0,.2,0,0,0,0,0,.1s0,.1,0,.2c0,0,0,0,0,.1,0,0,0,.1,0,.2,0,0,0,0,0,.1,0,0,0,0,0,.2,0,0,0,0,0,.1,0,0,0,0,.1.2,0,0,0,0,0,.1,0,0,0,0,.1.2,0,0,0,0,.1.1,0,0,0,0,.1.1h.1c0,.1,0,.2.1.3h.1c0,.1,0,.2.2.2,0,0,0,0,.1.1,0,0,0,0,.2.1,0,0,0,0,.2.1,0,0,.1,0,.2.1s.1,0,.2.1c0,0,.1,0,.2.1s.1,0,.2.1c0,0,.1,0,.2.1,0,0,.2,0,.2.1,0,0,0,0,.2,0,.1,0,.2.1.4.2,7,3.5,11.6-.6,17.3,4,.4-.2.8-.3,1.3-.6,2.8-1.4,6.6-4.4,4.5-10,.1.2,6.8,9.3.3,14.7-.3.3-.7.5-1.1.8,1.5,1.3,3.2,2.3,4.9,3,.7.3,1.3.5,2,.7,1.5.4,3.2.8,4.9.9h0c.1.3,3.9,9.4-4.6,13.8-1.4.7-2.9,1.5-4.7,2.4,0,0,0,0,0,0,2.4,2.6,5.8,5.1,13.2,10.7h0c0,0,.5.4,1.1.9h0c.8.6,2.1,1.5,3.4,2.3,2.4,1.4,5.3,2.6,7.2,1.9,3.4-1.2,2.6-5.5,1.6-8.4-.6-1.7-.1-3.7,1.2-4.7,1.7-1.4,4.1-.9,4.1-.9h-.1c0,0,0,0,0,0Z"/>
          <path class="st23" d="M58,62.8s0,0,0,0h0s0,0,0,0Z"/>
          <path class="st46" d="M41.9,30c-.3.3-.7.5-1.1.8-.6-.5-1.2-1-1.8-1.6s-.8-.8-1.2-1.3c-.7-.8-1.4-1.5-2.1-2,.4-.2.8-.3,1.3-.6,2.8-1.4,6.6-4.4,4.5-10,.1.2,6.8,9.3.3,14.7h0Z"/>
          <path class="st2" d="M35.7,56.1h0c-5.6,3.6-11.5,8.2-15.8,14.2-1.7,2.3-3.1,4.9-4.2,7.7-.4,1.1-.8,2.1-1.2,3.2-5.2,14.6-6.7,27.2-6.7,27.2H.3s-.9-10.1,0-23.7c.2-2.7.4-5.5.8-8.4,7.7-9,19.1-18.2,34.7-20.1h0Z"/>
          <path class="st1" d="M52.6,35.5h0c-.2.2-15.2,14.5-36.6-3.7,0,0-3.5-2.9-5.5-7.3-2.2-4.8-2.5-11.4,5.6-17.7h0c-.3.6-6,10.9,2.4,15.2,7,3.5,11.6-.6,17.3,4,.7.5,1.3,1.2,2.1,2,.9,1.1,1.9,2,3,2.9,1.5,1.3,3.2,2.3,4.9,3,.7.3,1.3.5,2,.7,1.5.4,3.2.8,4.9.9h0Z"/>
          <path class="st4" d="M48,49.3c-1.4.7-2.9,1.5-4.7,2.4h0c-.2,0-.3.2-.4.2-.2.1-.5.3-.8.4-.3.2-.7.4-1.1.6-.3.2-.6.3-.9.5-1.4.8-2.9,1.7-4.4,2.6-15.6,1.9-27,11.2-34.7,20.1.7-6,1.7-12.3,3.4-18.5,2-7.7,4.9-15.3,8.9-22,.8-1.4,1.7-2.7,2.7-4,9.4,7.9,17.5,9.7,23.7,9.1.1,0,.2,0,.3,0,.8,0,1.6-.2,2.3-.4.1,0,.2,0,.4,0s.2,0,.4,0,.2,0,.4,0c.3,0,.5-.1.8-.2,0,0,.2,0,.3,0,.2,0,.3,0,.4-.1,0,0,.2,0,.2,0,.1,0,.2,0,.3-.1.2,0,.4-.2.6-.2,0,0,.2,0,.3-.1,0,0,.2,0,.3-.1.3-.1.6-.2.9-.4,0,0,.2,0,.2-.1,0,0,.2,0,.3-.1,0,0,.2,0,.2-.1.9-.5,1.7-.9,2.3-1.4,0,0,.1,0,.2-.1,0,0,.1,0,.2-.1.1,0,.2-.2.3-.2,0,0,0,0,.1,0,.1,0,.3-.2.4-.3,0,0,0,0,.1,0,.4-.3.6-.5.7-.6h0c.1.3,3.9,9.4-4.6,13.8h0,0Z"/>
          <path class="st26" d="M52.6,35.5h0c-.2.3-8.9,13.3-26.4,7.7-5.3-1.7-9.5-4.4-12.9-7.3.8-1.4,1.7-2.7,2.7-4,9.4,7.9,17.5,9.7,23.7,9.1.1,0,.2,0,.3,0,.8,0,1.6-.2,2.3-.4.1,0,.2,0,.4,0s.2,0,.4,0,.2,0,.4,0c.3,0,.5-.1.8-.2,0,0,.2,0,.3,0,.2,0,.3,0,.4-.1,0,0,.2,0,.2,0,.1,0,.2,0,.3-.1.2,0,.4-.2.6-.2,0,0,.2,0,.3-.1,0,0,.2,0,.3-.1.3-.1.6-.2.9-.4,0,0,.2,0,.2-.1,0,0,.2,0,.3-.1,0,0,.2,0,.2-.1.9-.5,1.7-.9,2.3-1.4,0,0,.1,0,.2-.1s.1,0,.2-.1c.1,0,.2-.2.3-.2,0,0,0,0,.1,0,.1,0,.3-.2.4-.3,0,0,0,0,.1,0,.4-.3.6-.5.7-.6h0Z"/>
          <path class="st8" d="M56.3,95.2c-3.5-5.3-9.1-8.6-17.4-9.8,0,0,0,0-.1,0v-.2h0c0-1,0-1.9,0-2.9,0-.8,0-1.6,0-2.5,0-.4,0-.7,0-1.1,0-.4,0-.9,0-1.3,0-.7,0-1.4-.1-2.1h0c0-.6,0-1.1-.1-1.6,0-.8-.1-1.6-.2-2.5,0-.5,0-1-.2-1.5-.2-2-.5-4-.8-6,0-.3,0-.6-.1-.8,0-.3,0-.6-.1-.9,0-.3,0-.5-.1-.8-.1-.8-.3-1.7-.4-2.5,0-.5-.2-.9-.3-1.4h0c0-.4-.1-.7-.2-1.1,0,0,0,0,0,0,2.7-1.7,5.3-3.2,7.7-4.4,0,0,0,0,0,0-.5.7-4.1,6.4-.3,17.4,2.9,8.4,8.6,18.3,11.6,23.3.7,1.2,1.3,2.1,1.6,2.6h0Z"/>
          <path class="st5" d="M26.2,84.9c-.8,0-1.6-.1-2.3-.2-3-.4-5.4-1.2-7.3-2.2,0,0-.2,0-.3-.2-.6-.3-1.2-.7-1.8-1.1.4-1.1.8-2.1,1.2-3.2,1.1-2.8,2.5-5.4,4.2-7.7.2.3.5.7.7,1,0,.2.2.3.3.5,0,0,0,.2.2.2,0,.2.2.3.3.5,0,0,0,0,0,.1,0,0,0,0,0,.1,0,0,0,0,0,0,0,0,0,0,0,.1,0,.1.1.2.2.4.2.4.4.8.6,1.2,0,0,0,.1,0,.2,0,0,0,.1,0,.2,0,.1.1.3.2.4.1.2.2.4.3.7,0,0,0,.2,0,.2,0,.1,0,.2.1.3,0,0,0,.2.1.3.2.3.3.7.4,1.1,0,.2.2.5.3.7,0,0,0,.2,0,.2.2.4.3.9.5,1.4,0,.1,0,.3.1.4,0,.3.2.6.3.9,0,.1,0,.3.1.4h0c0,.2,0,.3.1.4,0,.2,0,.3.1.5v.3c.2.5.4,1.1.5,1.6h0Z"/>
          <path class="st7" d="M37.8,108.5h-9c0-9.9-1-17.6-2.5-23.6-.1-.6-.3-1.1-.4-1.6v-.3c-.1-.2-.2-.3-.2-.5v-.4h-.1c0-.2,0-.3-.1-.4,0-.3-.2-.6-.3-.9,0-.1,0-.3-.1-.4-.2-.5-.3-.9-.5-1.4,0,0,0-.2,0-.2,0-.2-.2-.5-.3-.7-.2-.4-.3-.7-.4-1.1,0,0,0-.2-.1-.3,0-.1,0-.2-.1-.3,0,0,0-.2,0-.2-.1-.2-.2-.5-.3-.7,0-.1-.1-.3-.2-.4,0,0,0-.1,0-.2s0-.1,0-.2c-.2-.4-.4-.8-.6-1.2,0-.1-.1-.2-.2-.4,0,0,0,0,0-.1,0,0,0,0,0,0,0,0,0,0,0-.1,0,0,0,0,0-.1,0-.2-.2-.3-.3-.5,0,0,0-.2-.2-.2,0-.2-.2-.3-.3-.5-.2-.4-.5-.7-.7-1,4.3-6,10.2-10.6,15.8-14.2h0s0,0,0,0c0,.4.2.7.2,1.1h0c0,.5.2.9.3,1.4.2.8.3,1.7.4,2.5,0,.3,0,.5.1.8,0,.3,0,.6.1.9,0,.3,0,.6.1.8.3,2,.6,4,.8,6,0,.5,0,1,.2,1.5,0,.8.2,1.6.2,2.5,0,.5,0,1,.1,1.5h0c0,.8,0,1.5.1,2.1,0,.4,0,.9,0,1.3,0,.4,0,.7,0,1.1,0,.8,0,1.7,0,2.5,0,1,0,2,0,2.9h0v.2c.2,13.4-1,23.1-1,23.1h0s0,0,0,0Z"/>
          <path class="st6" d="M56.9,103.8c-.2,2.7-.4,4.6-.4,4.6h-8.2c0-8.8-6.1-18.3-9.6-23.1,0,0,0,0,.1,0,4.4.6,8,1.8,10.9,3.6,2.7,1.6,4.8,3.7,6.4,6.2h0s0,0,0,0c.1.2.2.4.3.5h0c0,0,0,0,0,0,0,0,.1.2.2.3,0,.9.1,1.8.2,2.8,0,1.8,0,3.5,0,5h0Z"/>
          <path class="st3" d="M75.2,53.5s-1.1.9-1.7,3-2.4,2.1-2.4,2.1h0c0,0,0,.2.2.4h0c.4.9,1.3,3.2,1.5,5.8.3,3.1-.2,6.4-3.8,7.7-1.8.7-3.7.5-5.3,0h0c-.3-.8-.7-1.7-1.1-2.4-1.3-2.7-2.9-5-4.9-6.7.8.6,2.1,1.5,3.4,2.3,2.4,1.4,5.3,2.6,7.2,1.9,3.4-1.2,2.6-5.5,1.6-8.4-.6-1.7-.1-3.7,1.2-4.7,1.7-1.4,4.1-.9,4.1-.9Z"/>
          <path class="st17" d="M68.7,108.5h-7.9c-.7-4.8-1.9-9-3.9-12.4,0,0-.1-.2-.2-.3h0s0,0,0,0c-.1-.2-.2-.4-.3-.5,0,0,0,0,0,0h0c-1.9-3-9.7-15.6-13.2-25.9-3.9-11.3,0-17,.3-17.4h0s0,0,0,0c2.4,2.6,5.8,5.1,13.2,10.7h0c0,0,.5.4,1.1.9h0c2.5,2.2,4.4,5.4,5.9,9.1h0c5.7,14.2,5.1,36.1,5.1,36.1h0Z"/>
          <path class="st37" d="M48,49.3c-1.4.7-2.9,1.5-4.7,2.4h0c-.2,0-.3.2-.4.2-.2.1-.5.3-.8.4-.3.2-.7.4-1.1.6-.3.2-.6.3-.9.5-1.4.8-2.9,1.7-4.4,2.6-15.6,1.9-27,11.2-34.7,20.1.7-6,1.7-12.3,3.4-18.5,14.2-7.7,31.9-5.5,39.8-8.3,10.7-3.7,8.6-13.7,8.5-14,.1.3,3.9,9.4-4.6,13.8h0Z"/>
          <path class="st41" d="M52.6,35.5c-.6.6-1.3,1.2-2,1.7-.7.5-1.4.9-2.2,1.3-1.5.8-3.1,1.4-4.7,1.9-1.6.5-3.2.7-4.9.8s-3.3,0-4.9-.2l-1.2-.2c0,0-.2,0-.3,0h-.3c0,0-.6-.2-.6-.2l-.6-.2c-.2,0-.4-.1-.6-.2l-1.2-.4-1.2-.4-.6-.2-.6-.3-1.2-.5c-.4-.2-.8-.4-1.1-.6-.8-.4-1.5-.8-2.2-1.3-.4-.2-.7-.5-1.1-.7l-1.1-.7c-.2-.1-.3-.3-.5-.4l-.5-.4-1-.8c-.7-.6-1.3-1.1-2-1.7l1,.8,1,.8,1.1.7.5.4c.2.1.3.2.5.4l1.1.7c.4.2.7.5,1.1.7.7.4,1.5.8,2.2,1.2.4.2.8.4,1.1.6l1.2.5.6.2.6.2,1.2.4c1.6.5,3.2.9,4.8,1.1,3.2.5,6.5.3,9.7-.5,1.6-.4,3.2-1,4.7-1.7,1.5-.7,3-1.6,4.3-2.8h0Z"/>
          <g class="st44">
            <path class="st48" d="M4.4,57.8l.8-.4c.3-.2.5-.3.8-.4.5-.3,1.1-.5,1.7-.8l.8-.4.8-.3c.6-.2,1.1-.4,1.7-.6,2.3-.8,4.6-1.4,6.9-1.9.6-.1,1.2-.2,1.8-.3.6,0,1.2-.2,1.8-.3.6,0,1.2-.2,1.8-.3.6,0,1.2-.2,1.8-.2,2.4-.3,4.7-.5,7.1-.7,2.4-.2,4.7-.4,7.1-.7,1.2-.2,2.3-.3,3.5-.6.6-.1,1.1-.3,1.7-.5.3-.1.6-.2.8-.3.3-.1.6-.2.8-.4,1.1-.5,2.1-1.2,3.1-2l.3-.3.3-.3.2-.2.2-.2.3-.4c.4-.5.8-1.1,1.1-1.6.6-1.2,1.1-2.5,1.2-3.9,0-.7.2-1.4.1-2.1,0-.7,0-1.4-.2-2.1.2.7.2,1.4.2,2.1,0,.7,0,1.4,0,2.1-.2,1.4-.6,2.8-1.2,4-.3.6-.7,1.2-1.1,1.7l-.3.4-.2.2-.2.2-.3.4-.3.3c-.9.9-2,1.6-3.1,2.1s-2.2,1-3.4,1.3-2.3.5-3.5.7c-2.4.3-4.7.5-7.1.7-4.7.4-9.4.8-14.1,1.7-2.3.4-4.7,1-6.9,1.8-.6.2-1.1.4-1.7.6l-.8.3-.8.3c-1.1.4-2.2,1-3.3,1.5h0,0Z"/>
          </g>
          <path class="st15" d="M35.7,56.1c-15.6,1.9-27,11.2-34.7,20.1,2.2-2.9,4.6-5.6,7.2-8s5.4-4.5,8.4-6.2c3-1.8,6.1-3.2,9.3-4.2,3.2-1,6.5-1.6,9.8-1.7h0Z"/>
          <path class="st14" d="M45.7,33.8c-7.4,3.2-20,2.3-28.3-5.3-11-9.8-1.5-21.6-1.3-21.8-.1.2-6.2,10.8,2.4,15.2,7,3.5,11.6-.6,17.3,4,.7.5,1.3,1.2,2.1,2,.9,1.1,1.9,2,3,2.9,1.5,1.3,3.2,2.3,4.9,3Z"/>
          <path class="st18" d="M52.6,35.5h-.2c-.5,0-1,0-1.5,0-.6,0-1.1-.1-1.6-.2-.6,0-1.1-.2-1.6-.3s-1.1-.3-1.6-.5c-1.1-.4-2.1-.9-3.1-1.4s-2-1.2-2.9-2-1.8-1.6-2.6-2.5c-.8-.9-1.6-1.7-2.5-2.3-.1,0-.2-.2-.3-.2-.1,0-.2-.2-.3-.2-.2-.1-.5-.3-.7-.4-.2-.1-.5-.2-.7-.3-.2,0-.5-.2-.7-.3-1-.3-2-.4-3.1-.5-1.1,0-2.2,0-3.2,0-1.1,0-2.2,0-3.3-.3-.6,0-1.1-.2-1.7-.4-.6-.2-1.1-.4-1.6-.6-1.1-.5-2.1-1.1-3-1.9-.1,0-.2-.2-.3-.3l-.3-.3-.3-.4-.2-.2c0,0,0-.1-.1-.2l-.3-.4c0-.1-.2-.3-.2-.4v-.2c-.2,0-.2-.2-.2-.2,0-.2-.1-.3-.2-.5-.2-.6-.4-1.3-.5-2,0-.7,0-1.3,0-2,.1-1.3.4-2.6.9-3.8.4-1.2,1-2.3,1.6-3.3-.3.6-6,10.9,2.4,15.1,7,3.5,11.6-.6,17.3,4,.7.5,1.3,1.2,2.1,2,.9,1.1,1.9,2,3,2.9,1.5,1.3,3.2,2.3,4.9,3,.7.3,1.3.5,2,.7,1.5.4,3.2.8,4.9.9h0Z"/>
          <g class="st44">
            <path class="st16" d="M39,29.2c1-.7,1.9-1.6,2.6-2.6.3-.5.7-1.1.9-1.7.2-.6.4-1.2.5-1.9.2-1.3,0-2.7-.2-4-.1-.7-.3-1.3-.5-1.9-.2-.6-.4-1.2-.7-1.8.3.5.6,1.2.9,1.8.2.6.5,1.3.6,1.9s.3,1.3.3,2,0,1.4,0,2.1-.3,1.4-.5,2c-.3.6-.6,1.2-1,1.7-.8,1-1.8,1.8-2.8,2.4h0Z"/>
          </g>
          <path class="st38" d="M41.9,30c-.3.3-.7.5-1.1.8-.6-.5-1.2-1-1.8-1.6,7.6-4.7,2.7-13.7,2.6-13.9.1.2,6.8,9.3.3,14.7Z"/>
          <path class="st43" d="M41.9,30c-.3.3-.7.5-1.1.8-1.1-.9-2-1.8-3-2.9-.7-.8-1.4-1.5-2.1-2,.4-.2.8-.3,1.3-.6.5.5,1,1,1.6,1.6.9,1,1.8,1.9,2.8,2.8.1.1.3.2.4.3h0Z"/>
          <path class="st27" d="M35.7,56.1h0s0,0,0,0c-1.2.5-21.8,9.2-35.4,28.5,0-1.4.2-2.8.3-4.2.1-1.4.3-2.8.4-4.3,7.7-9,19.1-18.2,34.7-20.1h0Z"/>
          <path class="st39" d="M35.7,56.1c-5.6,3.6-11.5,8.2-15.8,14.2-1.7,2.3-3.1,4.9-4.2,7.7-.4,1.1-.8,2.1-1.2,3.2-5.1,14.3-6.7,26.8-6.7,27.2H.3c9.5-47.4,35.4-52.3,35.4-52.3h0Z"/>
          <path class="st21" d="M35.7,56.1c-5.6,3.6-11.5,8.2-15.8,14.2-1.7,2.3-3.1,4.9-4.2,7.7-.4,1.1-.8,2.2-1.1,3.2-4.9,14.5-6.7,26.8-6.8,27.2,0-.7.1-1.3.2-2,0-.7.2-1.3.3-2,.2-1.3.4-2.7.6-4,.1-.7.2-1.3.4-2,.1-.7.3-1.3.4-2,.1-.7.3-1.3.4-2s.3-1.3.5-2c.6-2.6,1.3-5.2,2.1-7.7.2-.6.4-1.3.6-1.9l.6-1.9c.2-.6.5-1.2.7-1.9l.3-.9.2-.5.2-.5c.5-1.2,1.1-2.4,1.7-3.6s1.3-2.3,2.1-3.3c.4-.5.8-1,1.2-1.5.2-.2.4-.5.6-.7s.4-.5.6-.7c.8-1,1.7-1.9,2.6-2.7,1.8-1.7,3.7-3.3,5.6-4.7,2-1.4,4-2.7,6.1-3.8h0,0Z"/>
          <g class="st44">
            <path class="st47" d="M.3,108.5l.9-4.3,1-4.2.6-2.1.3-1c0-.4.2-.7.3-1l.7-2.1.3-1c.1-.3.2-.7.4-1l.7-2,.2-.5.2-.5.4-1,.4-1c.1-.3.3-.7.4-1l.9-1.9.2-.5c0-.2.2-.3.2-.5l.5-.9.5-.9c.2-.3.3-.6.5-.9l1-1.8.2-.5.3-.4.5-.9.5-.9c0-.2.2-.3.3-.4l.3-.4.6-.9.3-.4.2-.2.2-.2,1.2-1.7c0-.1.2-.3.3-.4l.3-.4.6-.8c1.7-2.1,3.6-4.1,5.6-5.8l.4-.3c.1-.1.2-.2.4-.3l.8-.6c.5-.4,1-.8,1.6-1.2.3-.2.5-.4.8-.6.3-.2.5-.4.8-.6l.8-.5c.1,0,.3-.2.4-.3l.4-.2c1.1-.7,2.3-1.2,3.4-1.7s2.4-.9,3.6-1.2c-1.2.3-2.4.8-3.6,1.3-1.2.5-2.3,1.1-3.4,1.8l-.4.2c-.1,0-.3.2-.4.3l-.8.5c-.3.2-.5.4-.8.6-.3.2-.5.4-.8.6-.5.4-1.1.8-1.5,1.2l-.8.6c-.1,0-.2.2-.4.3l-.4.3c-3.9,3.6-7.4,7.8-10.2,12.6-2.9,4.7-5.3,9.9-7.2,15.3-.1.3-.3.7-.4,1l-.3,1-.7,2c-.1.3-.2.7-.3,1l-.3,1-.6,2.1-1.1,4.2-1,4.2H.3s0,0,0,0Z"/>
          </g>
          <path class="st28" d="M35.7,56.1h0c-.3,0-18.8,3-35.1,24.4.1-1.4.3-2.8.4-4.3,7.7-9,19.1-18.2,34.7-20.1h0Z"/>
          <path class="st30" d="M26.2,84.9c-.8,0-1.6-.1-2.3-.2-1.3-6.7-4-14.2-4-14.3.2.3.5.7.7,1,0,.2.2.3.3.5,0,0,0,.2.2.2,0,.2.2.3.3.5,0,0,.1.2.2.3,0,0,0,0,0,0,0,0,0,0,0,.1,0,.1.1.2.2.4.2.4.4.8.6,1.2,0,0,0,.1,0,.2,0,0,0,.1,0,.2,0,.1.1.3.2.4.1.2.2.4.3.7,0,0,0,.2,0,.2,0,.1,0,.2.1.3,0,0,0,.2.1.3.2.3.3.7.4,1.1.1.3.3.7.4,1,.2.4.3.9.5,1.4,0,.1,0,.3.1.4,0,.3.2.6.3.9,0,.1,0,.3.1.4h0c0,.2,0,.3.1.4,0,.2,0,.3.1.5,0,0,0,.2,0,.3.2.5.3,1.1.4,1.6h0Z"/>
          <path class="st35" d="M37.8,108.4h-9s6.2-16.7,6.9-52.3h0c1.8,9,2.7,18.1,2.9,26.1,0,1,0,2,0,3h0v.2c.2,13.1-.9,22.7-1,23.1h0Z"/>
          <path class="st19" d="M38.2,95.3c0-2.2,0-4.4,0-6.6,0-1.1,0-2.2,0-3.3v-3.3c-.2-4.4-.5-8.7-.9-13.1-.4-4.3-.9-8.7-1.6-13h0c0,0,0,0,0,0,1.8,9,2.7,18,2.9,26,0,1,0,2,0,3h0v.2c.2,13.1-.9,22.7-1,23.1.2-4.4.4-8.7.4-13.1h0Z"/>
          <g class="st44">
            <path class="st20" d="M28.8,108.5c.7-2.1,1.2-4.2,1.7-6.3l.2-.8.2-.8.3-1.6.6-3.2.6-3.2c.2-1.1.3-2.2.5-3.3v-.8c.1,0,.2-.8.2-.8l.2-1.6.2-1.6c0-.6.1-1.1.2-1.6l.4-3.3.3-3.3.2-1.7c0-.6,0-1.1.1-1.7l.3-3.3v-.8c0,0,.1-.8.1-.8v-1.7c0,0,.3-3.3.3-3.3.1-2.2.2-4.4.3-6.6h0c0,0,0,0,0,0h0v1.7s0,1.7,0,1.7c0,1.1,0,2.2,0,3.3v3.3c-.1,0-.2,1.7-.2,1.7v.8s0,.8,0,.8l-.2,3.3c0,.6,0,1.1-.1,1.7l-.2,1.7-.3,3.3-.4,3.3c0,.6-.1,1.1-.2,1.7l-.2,1.6-.2,1.6v.8c-.1,0-.2.8-.2.8-.2,1.1-.3,2.2-.5,3.3l-.6,3.2-.3,1.6c-.1.5-.2,1.1-.3,1.6l-.4,1.6-.2.8-.2.8c-.1.5-.3,1.1-.4,1.6l-.4,1.6c-.2.5-.3,1-.5,1.6l-.3.8c0,.2-.2.5-.3.8h0s0,0,0,0Z"/>
          </g>
          <path class="st29" d="M56.3,95.2c-1.7-2.5-3.8-4.6-6.4-6.2-4-6.9-8.1-13.5-9.2-19.8-2-11.4,2.4-17,2.8-17.5-.3.5-4.2,6.1-.3,17.5,3.6,10.3,11.4,23,13.2,25.9h0Z"/>
          <path class="st22" d="M56.3,95.2c-3.5-5.3-9.1-8.6-17.4-9.8,0,0,0,0-.1,0,1.7,0,3.4.1,5,.5,1.7.4,3.3.9,4.9,1.7,1.6.8,3.1,1.8,4.4,3.1.6.6,1.2,1.2,1.7,1.9.6.8,1.2,1.7,1.6,2.6h0Z"/>
          <path class="st40" d="M57,98.8c-5.8-9.3-18.3-13.5-18.3-13.5,0,0,0,0,.1,0,4.4.6,8,1.8,10.9,3.6,2.7,1.6,4.8,3.7,6.4,6.2h0s0,0,0,0c.1.2.2.4.3.5h0c0,0,0,0,0,0,0,0,.1.2.2.3,0,.9.1,1.8.2,2.8h0Z"/>
          <g class="st44">
            <path class="st50" d="M38.7,85.3c2,.9,3.8,2.3,5.4,3.8,1.6,1.6,3.1,3.4,4.3,5.4l.2.4c0,.1.2.2.2.4l.4.8c.1.3.3.5.4.8,0,.1.1.3.2.4l.2.4c.5,1.1.9,2.2,1.3,3.4.2.6.4,1.2.5,1.8s.2.6.2.9l.2.9v.4c.1.1.1.3.2.5l.2.9c0,.6.2,1.2.2,1.9h0v-.9c-.1,0-.2-.5-.2-.5v-.2s0-.2,0-.2l-.2-.9c0-.1,0-.3,0-.4v-.4c-.1,0-.3-.9-.3-.9,0-.3-.2-.6-.2-.9-.2-.6-.3-1.2-.5-1.8-.4-1.1-.8-2.3-1.3-3.4l-.2-.4c0-.1-.1-.3-.2-.4-.1-.3-.3-.5-.4-.8l-.4-.8c-.1-.3-.3-.5-.4-.8-.6-1-1.3-2-2-2.9-.7-.9-1.5-1.8-2.3-2.6-.8-.8-1.6-1.5-2.5-2.2-.9-.7-1.8-1.3-2.8-1.8h0Z"/>
          </g>
          <path class="st36" d="M52.9,108.5h-4.6c0-8.8-6.1-18.3-9.6-23.1,0,0,12.2,5.5,14.2,23.1h0Z"/>
          <path class="st34" d="M68.7,108.5h-4.4c-.2-11-2-21.8-7.3-27.9-13.4-15.4-13.7-28.8-13.7-28.8h0c2.4,2.6,5.8,5.1,13.2,10.7h0c0,0,.5.4,1.1.9h0c2.5,2.2,4.4,5.4,5.9,9.1h0c5.7,14.2,5.1,36.1,5.1,36.1h0Z"/>
          <path class="st9" d="M58,62.8h0s0,0,0,0h0Z"/>
          <polygon class="st10" points="64.2 72.4 64.2 72.1 64.2 72.2 64.2 72.4"/>
          <path class="st12" d="M68.7,108.5c0-3.1-.2-6.1-.5-9.2-.1-1.5-.2-3.1-.4-4.6-.2-1.5-.3-3-.5-4.5-.2-1.5-.4-3-.7-4.5-.3-1.5-.6-3-.9-4.4-.3-1.5-.7-2.9-1.1-4.3s-.9-2.8-1.4-4.2h0s0,0,0,0c-.3-.8-.7-1.7-1.1-2.5-.4-.8-.8-1.6-1.3-2.4-.9-1.5-2-2.9-3.3-4h0l-.5-.4-.3-.2h-.1c0-.1,0-.2,0-.2h0s0,0,0,0h0s0,0,0,0l-3.3-2.6c-1.1-.9-2.2-1.8-3.3-2.7-1.1-.9-2.2-1.8-3.2-2.8-.5-.5-1.1-1-1.6-1.5-.5-.5-1-1.1-1.5-1.6h0,0c2.4,2.6,5.8,5.1,13.2,10.7h0c0,0,.5.4,1.1.9h0c2.5,2.2,4.4,5.4,5.9,9.1h0c5.7,14.2,5.1,36.1,5.1,36.1h0s0,0,0,0Z"/>
          <g class="st44">
            <path class="st11" d="M64.3,108.5v-1s0-1,0-1c0-.7,0-1.3-.1-2,0-1.3-.2-2.6-.4-3.9-.3-2.6-.7-5.2-1.3-7.8-.6-2.5-1.4-5-2.5-7.3-.5-1.1-1.2-2.2-1.9-3.2,0-.1-.2-.2-.3-.4l-.3-.4c-.2-.2-.4-.5-.6-.7l-1.2-1.4c-3.2-3.8-6-8-8.2-12.7-.6-1.2-1.1-2.3-1.5-3.6-.5-1.2-.9-2.4-1.3-3.7-.4-1.3-.7-2.5-.9-3.8-.2-1.3-.4-2.6-.5-3.9h0,0c0,.7.1,1.3.2,2,0,.7.2,1.3.4,1.9.3,1.3.6,2.5,1,3.8.4,1.2.8,2.4,1.3,3.6.5,1.2,1,2.3,1.6,3.5,1.1,2.3,2.4,4.4,3.8,6.5,1.4,2.1,2.8,4.1,4.4,5.9l1.2,1.4c.2.2.4.5.6.7l.3.4c0,.1.2.3.3.4.7,1,1.4,2.2,1.9,3.3,1.1,2.4,1.9,4.9,2.5,7.4.6,2.6,1,5.2,1.2,7.8.1,1.3.2,2.6.3,4,0,.7,0,1.3,0,2v1s0,1,0,1h0s0,0,0,0Z"/>
          </g>
          <path class="st31" d="M43.4,51.7s0,0,0,0c-.5.3-3.5,2.3-7.4,5.5-4.5,3.7-10.2,9.1-14.5,15.4-2.1,3.1-3.8,6.3-4.9,9.8,0,0-.2,0-.3-.2-.6-.3-1.2-.7-1.8-1.1.4-1.1.8-2.1,1.2-3.2,1.1-2.8,2.5-5.4,4.2-7.7,4.3-6,10.2-10.6,15.8-14.2h0c2.7-1.7,5.3-3.2,7.7-4.4h0Z"/>
          <path class="st13" d="M71.1,58.6s0,.2.2.4c0-.1-.1-.2-.2-.4Z"/>
          <path class="st33" d="M75.2,53.5s-1.1.9-1.7,3-2.4,2.1-2.4,2.1c-1.3-3.8,4.1-5.1,4.1-5.1Z"/>
          <path class="st42" d="M63.6,72.4c-1.5-3.7-3.4-6.9-5.9-9.1.8.6,2.1,1.5,3.4,2.3.7,1.5,1.7,3.8,2.5,6.8h0Z"/>
          <path class="st32" d="M69,72.5c-1.8.7-3.7.5-5.3,0h0c-.3-.8-.7-1.7-1.1-2.4,3.3,1.2,10,2.6,10.2-5.2h0c.3,3.1-.2,6.4-3.8,7.7Z"/>
          <g class="st44">
            <path class="st49" d="M62.6,70c1.1.3,2.2.6,3.3.7.6,0,1.1,0,1.7,0,.6,0,1.1,0,1.6-.2.5-.2,1.1-.4,1.5-.7.5-.3.9-.8,1.2-1.3s.5-1.1.7-1.8c.2-.6.2-1.3.3-1.9,0,.7,0,1.3-.2,2-.1.7-.3,1.3-.7,1.8-.3.6-.7,1.1-1.2,1.4-.5.4-1,.6-1.6.8-1.1.3-2.2.3-3.4.1s-2.2-.5-3.2-.9h0Z"/>
          </g>
        </g>
      </g>
    </g>
  </g>
</svg>