<?xml version="1.0" encoding="UTF-8"?>
<svg xmlns="http://www.w3.org/2000/svg" xmlns:xlink="http://www.w3.org/1999/xlink" viewBox="46.29 48.06 165.78 151.61">
  <defs>
    <style>
      .cls-1 {
        fill: none;
      }

      .cls-2 {
        fill: url(#linear-gradient-40);
      }

      .cls-2, .cls-3, .cls-4, .cls-5, .cls-6, .cls-7, .cls-8, .cls-9, .cls-10, .cls-11, .cls-12, .cls-13, .cls-14, .cls-15, .cls-16, .cls-17, .cls-18, .cls-19, .cls-20, .cls-21, .cls-22, .cls-23 {
        isolation: isolate;
      }

      .cls-2, .cls-3, .cls-4, .cls-5, .cls-6, .cls-7, .cls-8, .cls-9, .cls-22 {
        mix-blend-mode: multiply;
      }

      .cls-2, .cls-3, .cls-4, .cls-14, .cls-15, .cls-16, .cls-17, .cls-18, .cls-19, .cls-20, .cls-21, .cls-24, .cls-22, .cls-23 {
        opacity: .5;
      }

      .cls-3 {
        fill: url(#linear-gradient-19);
      }

      .cls-4 {
        fill: url(#linear-gradient-30);
      }

      .cls-5 {
        fill: url(#linear-gradient-23);
      }

      .cls-6 {
        fill: url(#linear-gradient-28);
      }

      .cls-7 {
        fill: url(#linear-gradient-24);
      }

      .cls-8 {
        fill: url(#linear-gradient-20);
      }

      .cls-9 {
        fill: url(#linear-gradient-37);
      }

      .cls-10 {
        fill: #549a5b;
      }

      .cls-25 {
        fill: url(#radial-gradient-6);
      }

      .cls-26 {
        fill: url(#radial-gradient-5);
      }

      .cls-27 {
        fill: url(#radial-gradient-4);
      }

      .cls-28 {
        fill: url(#radial-gradient-3);
      }

      .cls-29 {
        fill: #58575c;
      }

      .cls-30 {
        fill: url(#linear-gradient-8);
      }

      .cls-31 {
        fill: url(#linear-gradient-7);
      }

      .cls-32 {
        fill: url(#linear-gradient-5);
      }

      .cls-33 {
        fill: url(#linear-gradient-9);
      }

      .cls-34 {
        fill: url(#linear-gradient-4);
      }

      .cls-35 {
        fill: url(#linear-gradient-3);
      }

      .cls-36 {
        fill: url(#linear-gradient-2);
      }

      .cls-37 {
        fill: url(#radial-gradient);
      }

      .cls-38 {
        fill: url(#linear-gradient);
      }

      .cls-39 {
        clip-path: url(#clippath-3);
      }

      .cls-40 {
        clip-path: url(#clippath-4);
      }

      .cls-41 {
        clip-path: url(#clippath-5);
      }

      .cls-12 {
        fill: #54b65b;
      }

      .cls-13 {
        fill: #54a55b;
      }

      .cls-42 {
        fill: #a4ff74;
      }

      .cls-14 {
        fill: url(#linear-gradient-39);
      }

      .cls-14, .cls-15, .cls-16, .cls-17, .cls-18, .cls-19, .cls-20, .cls-21, .cls-24, .cls-23 {
        mix-blend-mode: overlay;
      }

      .cls-15 {
        fill: url(#linear-gradient-32);
      }

      .cls-16 {
        fill: url(#linear-gradient-21);
      }

      .cls-17 {
        fill: url(#linear-gradient-25);
      }

      .cls-18 {
        fill: url(#linear-gradient-31);
      }

      .cls-19 {
        fill: url(#linear-gradient-18);
      }

      .cls-20 {
        fill: url(#linear-gradient-13);
      }

      .cls-21 {
        fill: url(#linear-gradient-41);
      }

      .cls-43 {
        fill: url(#linear-gradient-10);
      }

      .cls-44 {
        fill: url(#linear-gradient-11);
      }

      .cls-45 {
        fill: url(#linear-gradient-12);
      }

      .cls-46 {
        fill: url(#linear-gradient-14);
      }

      .cls-47 {
        fill: url(#linear-gradient-22);
      }

      .cls-48 {
        fill: url(#linear-gradient-33);
      }

      .cls-49 {
        fill: url(#linear-gradient-15);
      }

      .cls-50 {
        fill: url(#linear-gradient-16);
      }

      .cls-51 {
        fill: url(#linear-gradient-17);
      }

      .cls-52 {
        fill: url(#linear-gradient-35);
      }

      .cls-53 {
        fill: url(#linear-gradient-34);
      }

      .cls-54 {
        fill: url(#linear-gradient-36);
      }

      .cls-55 {
        fill: url(#linear-gradient-38);
      }

      .cls-56 {
        fill: url(#linear-gradient-27);
      }

      .cls-57 {
        fill: url(#linear-gradient-26);
      }

      .cls-58 {
        fill: url(#linear-gradient-29);
      }

      .cls-59 {
        fill: #040303;
      }

      .cls-60 {
        fill: #3b165b;
      }

      .cls-61 {
        fill: #67de74;
      }

      .cls-22 {
        fill: url(#linear-gradient-6);
      }

      .cls-62 {
        fill: #86ec74;
      }

      .cls-63 {
        clip-path: url(#clippath);
      }

      .cls-23 {
        fill: url(#radial-gradient-2);
      }
    </style>
    <clipPath id="clippath">
      <rect class="cls-1" x="47.17" y="43.29" width="140.12" height="99.17"/>
    </clipPath>
    <linearGradient id="linear-gradient" x1="50.34" y1="-448.43" x2="184.25" y2="-448.43" gradientTransform="translate(0 -332.62) scale(1 -1)" gradientUnits="userSpaceOnUse">
      <stop offset="0" stop-color="#3b165b"/>
      <stop offset=".8" stop-color="#763089"/>
    </linearGradient>
    <radialGradient id="radial-gradient" cx="47.37" cy="-437.54" fx="47.37" fy="-437.54" r=".02" gradientTransform="translate(64.93 -332.62) scale(.85 -1)" gradientUnits="userSpaceOnUse">
      <stop offset="0" stop-color="#fff"/>
      <stop offset=".98" stop-color="#fff"/>
    </radialGradient>
    <linearGradient id="linear-gradient-2" x1="-32.16" y1="-390.71" x2="-40.43" y2="-407.81" gradientTransform="translate(110.49 -332.62) scale(.62 -1)" gradientUnits="userSpaceOnUse">
      <stop offset="0" stop-color="#ffed00"/>
      <stop offset="1" stop-color="#e73f14"/>
    </linearGradient>
    <linearGradient id="linear-gradient-3" x1="-101.03" y1="-456.87" x2="-43.9" y2="-456.87" gradientTransform="translate(110.49 -332.62) scale(.62 -1)" gradientUnits="userSpaceOnUse">
      <stop offset="0" stop-color="#7b509b"/>
      <stop offset="1" stop-color="#bb6ba9"/>
    </linearGradient>
    <linearGradient id="linear-gradient-4" x1="-86.25" y1="-398.95" x2="-16.94" y2="-398.95" xlink:href="#linear-gradient-2"/>
    <linearGradient id="linear-gradient-5" x1="-48.66" y1="-415.23" x2="-103.92" y2="-463.2" gradientTransform="translate(110.49 -332.62) scale(.62 -1)" gradientUnits="userSpaceOnUse">
      <stop offset="0" stop-color="#f7a80c"/>
      <stop offset="1" stop-color="#e52412"/>
    </linearGradient>
    <linearGradient id="linear-gradient-6" x1="-103.32" y1="-408.55" x2="-20.77" y2="-416.07" xlink:href="#linear-gradient-5"/>
    <linearGradient id="linear-gradient-7" x1="-43.9" y1="-448.1" x2="-11.11" y2="-448.1" gradientTransform="translate(110.49 -332.62) scale(.62 -1)" gradientUnits="userSpaceOnUse">
      <stop offset="0" stop-color="#d00010"/>
      <stop offset="1" stop-color="#5d2283"/>
    </linearGradient>
    <linearGradient id="linear-gradient-8" x1="-77.72" y1="-452.21" x2="-58.99" y2="-452.21" gradientTransform="translate(110.49 -332.62) scale(.62 -1)" gradientUnits="userSpaceOnUse">
      <stop offset="0" stop-color="#c0137d"/>
      <stop offset="1" stop-color="#5d2283"/>
    </linearGradient>
    <linearGradient id="linear-gradient-9" x1="-50.4" y1="-437.6" x2="-58.2" y2="-480.09" xlink:href="#linear-gradient-3"/>
    <linearGradient id="linear-gradient-10" x1="-24.47" y1="-469.43" x2="-22.97" y2="-484" gradientTransform="translate(110.49 -332.62) scale(.62 -1)" gradientUnits="userSpaceOnUse">
      <stop offset="0" stop-color="#7b509b"/>
      <stop offset="1" stop-color="#245eaa"/>
    </linearGradient>
    <linearGradient id="linear-gradient-11" x1="-8.82" y1="-437.9" x2="19.03" y2="-437.9" gradientTransform="translate(110.49 -332.62) scale(.62 -1)" gradientUnits="userSpaceOnUse">
      <stop offset="0" stop-color="#3ab8eb"/>
      <stop offset="1" stop-color="#1566b1"/>
    </linearGradient>
    <linearGradient id="linear-gradient-12" x1="-21.31" y1="-434.69" x2="4.98" y2="-487.96" xlink:href="#linear-gradient-10"/>
    <linearGradient id="linear-gradient-13" x1="-25.81" y1="-400.23" x2="-92.77" y2="-458.35" gradientTransform="translate(110.49 -332.62) scale(.62 -1)" gradientUnits="userSpaceOnUse">
      <stop offset="0" stop-color="#fff"/>
      <stop offset=".98" stop-color="#fff"/>
    </linearGradient>
    <radialGradient id="radial-gradient-2" cx="-13.36" cy="-415.14" fx="-13.36" fy="-415.14" r="18.47" gradientTransform="translate(0 -332.62) scale(1 -1)" xlink:href="#radial-gradient"/>
    <radialGradient id="radial-gradient-3" cx="-16.83" cy="-421.5" fx="-16.83" fy="-421.5" r="21.54" gradientTransform="translate(0 -332.62) scale(1 -1)" xlink:href="#radial-gradient"/>
    <linearGradient id="linear-gradient-14" x1="-70.5" y1="-439.51" x2="-111.1" y2="-463.79" xlink:href="#linear-gradient-5"/>
    <linearGradient id="linear-gradient-15" x1="-55.98" y1="-397.83" x2="-83.43" y2="-414.24" xlink:href="#linear-gradient-2"/>
    <linearGradient id="linear-gradient-16" x1="-45.05" y1="-397.17" x2="-145.5" y2="-374.49" xlink:href="#linear-gradient-5"/>
    <linearGradient id="linear-gradient-17" x1="-31.61" y1="-392.63" x2="-40.17" y2="-403.09" xlink:href="#linear-gradient-13"/>
    <linearGradient id="linear-gradient-18" x1="-30.62" y1="-393.72" x2="-39" y2="-403.94" xlink:href="#linear-gradient-13"/>
    <linearGradient id="linear-gradient-19" x1="-43.81" y1="-403.11" x2="-34.04" y2="-403.11" xlink:href="#linear-gradient-5"/>
    <linearGradient id="linear-gradient-20" x1="-132.36" y1="-477.25" x2="-44.91" y2="-424.34" xlink:href="#linear-gradient-3"/>
    <linearGradient id="linear-gradient-21" x1="-46.92" y1="-426.41" x2="-100.2" y2="-482.4" xlink:href="#linear-gradient-13"/>
    <linearGradient id="linear-gradient-22" x1="-82.44" y1="-495.82" x2="-69.15" y2="-461.41" xlink:href="#linear-gradient-3"/>
    <radialGradient id="radial-gradient-4" cx="-29.25" cy="-456.89" fx="-29.25" fy="-456.89" r="23.47" gradientTransform="translate(0 -332.62) scale(1 -1)" xlink:href="#radial-gradient"/>
    <linearGradient id="linear-gradient-23" x1="-53.03" y1="-421.03" x2="-92.15" y2="-462.13" xlink:href="#linear-gradient-3"/>
    <linearGradient id="linear-gradient-24" x1="-68.95" y1="-458.1" x2="-62.74" y2="-450.02" xlink:href="#linear-gradient-3"/>
    <linearGradient id="linear-gradient-25" x1="-71.38" y1="-494.33" x2="-30.88" y2="-441.61" xlink:href="#linear-gradient-13"/>
    <linearGradient id="linear-gradient-26" x1="-44.67" y1="-489.3" x2="-40.53" y2="-431.81" xlink:href="#linear-gradient-3"/>
    <linearGradient id="linear-gradient-27" x1="-64.28" y1="-475.74" x2="-34.67" y2="-437.21" xlink:href="#linear-gradient-13"/>
    <linearGradient id="linear-gradient-28" x1="-26.39" y1="-450.46" x2="-37.82" y2="-421.47" xlink:href="#linear-gradient-3"/>
    <linearGradient id="linear-gradient-29" x1="-23.03" y1="-465.74" x2="-8.5" y2="-475.16" xlink:href="#linear-gradient-8"/>
    <linearGradient id="linear-gradient-30" x1="-24.21" y1="-472.15" x2="-23.26" y2="-481.39" xlink:href="#linear-gradient-10"/>
    <radialGradient id="radial-gradient-5" cx="7.12" cy="-469.96" fx="7.12" fy="-469.96" r="22.92" gradientTransform="translate(0 -332.62) scale(1 -1)" xlink:href="#radial-gradient"/>
    <linearGradient id="linear-gradient-31" x1="-24.45" y1="-481.83" x2="-32.76" y2="-456.78" xlink:href="#linear-gradient-13"/>
    <linearGradient id="linear-gradient-32" x1="-31.39" y1="-394.1" x2="15.94" y2="-522.36" xlink:href="#linear-gradient-13"/>
    <linearGradient id="linear-gradient-33" x1="1.64" y1="-500.07" x2="-9.12" y2="-434.48" xlink:href="#linear-gradient-3"/>
    <linearGradient id="linear-gradient-34" x1="9.28" y1="-495.45" x2="-.87" y2="-433.61" xlink:href="#linear-gradient-3"/>
    <linearGradient id="linear-gradient-35" x1="-3.93" y1="-497.65" x2="-14.24" y2="-434.83" xlink:href="#linear-gradient-3"/>
    <linearGradient id="linear-gradient-36" x1="-25.32" y1="-423.87" x2="-2.91" y2="-484.61" xlink:href="#linear-gradient-13"/>
    <linearGradient id="linear-gradient-37" x1="-83.23" y1="-477.4" x2="-39.88" y2="-420.97" xlink:href="#linear-gradient-3"/>
    <linearGradient id="linear-gradient-38" x1="12.39" y1="-433.6" x2="12.5" y2="-433.45" xlink:href="#linear-gradient-3"/>
    <linearGradient id="linear-gradient-39" x1="10.71" y1="-436.1" x2="17.51" y2="-427.24" xlink:href="#linear-gradient-13"/>
    <linearGradient id="linear-gradient-40" x1="-5.38" y1="-443.89" x2="-2.91" y2="-440.67" xlink:href="#linear-gradient-11"/>
    <linearGradient id="linear-gradient-41" x1="-.62" y1="-453.56" x2="11.95" y2="-437.2" xlink:href="#linear-gradient-13"/>
    <radialGradient id="radial-gradient-6" cx="30.11" cy="-445.34" fx="30.11" fy="-445.34" r="6.06" gradientTransform="translate(0 -332.62) scale(1 -1)" xlink:href="#radial-gradient"/>
    <clipPath id="clippath-3">
      <path class="cls-62" d="M72.46,142.45h4.31c-.08-3.8,5.69-7.9,8.99-9.96,0,0-11.43,2.36-13.3,9.95h0Z"/>
    </clipPath>
    <clipPath id="clippath-4">
      <path class="cls-61" d="M75.89,142.45h-1.54c.03-3.17-2.04-6.58-3.22-8.3,0,0,4.09,1.97,4.77,8.29h0Z"/>
    </clipPath>
    <clipPath id="clippath-5">
      <path class="cls-42" d="M75.45,142.45h-4.07c1.52-1.09,1.86-3.05-1.25-4.19,0,0,3.55-.02,5.32,4.19h0Z"/>
    </clipPath>
  </defs>
  <g class="cls-11">
    <g id="Layer_2" data-name="Layer 2">
      <g id="Layer_1-2" data-name="Layer 1">
        <g>
          <path class="cls-29" d="M47.17,195.98v-10.15h2v10.15h-2Z"/>
          <path class="cls-29" d="M55.48,187.7v8.28h-1.99v-8.28h-3.21v-1.87h8.41v1.87h-3.21Z"/>
          <path class="cls-29" d="M64.85,188.79c-.1-.56-.56-1.43-1.84-1.43-.96,0-1.59.62-1.59,1.28,0,.56.35,1,1.1,1.15l1.42.27c1.84.36,2.83,1.56,2.83,2.99,0,1.56-1.3,3.14-3.67,3.14-2.7,0-3.88-1.74-4.04-3.18l1.83-.49c.09,1,.78,1.9,2.22,1.9,1.06,0,1.65-.53,1.65-1.25,0-.59-.44-1.05-1.24-1.21l-1.42-.28c-1.62-.33-2.67-1.37-2.67-2.9,0-1.8,1.62-3.18,3.54-3.18,2.46,0,3.41,1.49,3.64,2.64l-1.78.55h0Z"/>
          <path class="cls-29" d="M82.76,185.83h2.02l-2.81,10.15h-2.03l-2.32-7.23-2.32,7.23h-2.06l-2.83-10.15h2.09l1.86,6.99,2.25-6.99h2.05l2.27,7.02s1.83-7.02,1.83-7.02Z"/>
          <path class="cls-29" d="M92,192.46c0,2.16-1.59,3.74-3.7,3.74s-3.7-1.58-3.7-3.74,1.59-3.74,3.7-3.74,3.7,1.56,3.7,3.74ZM90.09,192.46c0-1.33-.86-2-1.8-2s-1.8.68-1.8,2,.86,2,1.8,2,1.8-.68,1.8-2Z"/>
          <path class="cls-29" d="M97.51,190.83c-.22-.04-.4-.06-.57-.06-.97,0-1.81.47-1.81,1.99v3.23h-1.9v-7.04h1.84v1.05c.43-.93,1.4-1.1,2-1.1.16,0,.3,0,.44.03v1.92-.02Z"/>
          <path class="cls-29" d="M98.57,195.98v-10.37h1.9v10.37h-1.9Z"/>
          <path class="cls-29" d="M108.94,194.7c0,.47.03.99.06,1.28h-1.81c-.03-.15-.07-.49-.07-.81-.31.56-1.03.99-1.98.99-2,0-3.43-1.58-3.43-3.71s1.39-3.68,3.38-3.68c1.22,0,1.8.5,1.99.87v-4.02h1.87v9.09h0ZM105.36,194.45c.97,0,1.74-.75,1.74-2.02s-.76-1.96-1.74-1.96-1.75.72-1.75,1.98.75,2,1.75,2Z"/>
          <path class="cls-29" d="M113.5,190.92c0-3.24,2.45-5.3,5.17-5.3s4.26,1.72,4.66,3.36l-1.86.59c-.25-.97-1.03-2.05-2.8-2.05-1.52,0-3.12,1.09-3.12,3.39,0,2.17,1.52,3.35,3.15,3.35,1.74,0,2.58-1.13,2.85-2.08l1.84.56c-.38,1.56-1.84,3.45-4.7,3.45s-5.2-2.05-5.2-5.29h0Z"/>
          <path class="cls-29" d="M131.23,192.46c0,2.16-1.59,3.74-3.7,3.74s-3.7-1.58-3.7-3.74,1.59-3.74,3.7-3.74,3.7,1.56,3.7,3.74ZM129.33,192.46c0-1.33-.86-2-1.79-2s-1.8.68-1.8,2,.86,2,1.8,2,1.79-.68,1.79-2Z"/>
          <path class="cls-29" d="M134.35,195.98h-1.9v-7.04h1.84v.87c.43-.73,1.28-1.06,2.03-1.06,1.75,0,2.55,1.25,2.55,2.8v4.44h-1.9v-4.11c0-.78-.38-1.4-1.3-1.4-.83,0-1.31.65-1.31,1.46v4.05h0Z"/>
          <path class="cls-29" d="M141.75,195.91c.13.77.75,1.33,1.65,1.33,1.21,0,1.87-.6,1.87-1.96v-.52c-.28.46-.94.9-1.96.9-1.87,0-3.28-1.44-3.28-3.42,0-1.86,1.34-3.43,3.28-3.43,1.12,0,1.77.49,2,.96v-.83h1.83v6.29c0,1.93-1.05,3.7-3.7,3.7-1.93,0-3.23-1.21-3.42-2.55l1.72-.46h0ZM145.3,192.24c0-1.09-.75-1.78-1.66-1.78s-1.69.69-1.69,1.78.71,1.8,1.69,1.8,1.66-.7,1.66-1.8Z"/>
          <path class="cls-29" d="M153.09,190.83c-.22-.04-.4-.06-.57-.06-.97,0-1.81.47-1.81,1.99v3.23h-1.9v-7.04h1.84v1.05c.43-.93,1.4-1.1,2-1.1.16,0,.3,0,.44.03v1.92-.02Z"/>
          <path class="cls-29" d="M160.4,193.97c-.36,1.22-1.47,2.24-3.21,2.24-1.93,0-3.64-1.39-3.64-3.77,0-2.25,1.66-3.71,3.46-3.71,2.18,0,3.48,1.39,3.48,3.65,0,.27-.03.56-.03.59h-5.04c.04.93.83,1.61,1.78,1.61.89,0,1.37-.44,1.61-1.08l1.59.47h0ZM158.62,191.65c-.03-.71-.49-1.39-1.58-1.39-.99,0-1.53.75-1.58,1.39h3.16Z"/>
          <path class="cls-29" d="M162.74,193.66c.04.56.46,1.07,1.28,1.07.63,0,.93-.33.93-.71,0-.31-.22-.57-.76-.69l-.93-.22c-1.36-.3-1.98-1.12-1.98-2.11,0-1.27,1.12-2.31,2.64-2.31,2,0,2.68,1.28,2.77,2.03l-1.59.36c-.06-.41-.36-.94-1.16-.94-.5,0-.9.3-.9.71,0,.34.26.56.65.63l1,.22c1.39.28,2.09,1.13,2.09,2.17,0,1.15-.89,2.32-2.74,2.32-2.12,0-2.85-1.37-2.93-2.18l1.63-.35h0Z"/>
          <path class="cls-29" d="M169.06,193.66c.04.56.46,1.07,1.28,1.07.63,0,.93-.33.93-.71,0-.31-.22-.57-.76-.69l-.93-.22c-1.36-.3-1.98-1.12-1.98-2.11,0-1.27,1.12-2.31,2.64-2.31,2,0,2.68,1.28,2.77,2.03l-1.59.36c-.06-.41-.36-.94-1.16-.94-.5,0-.9.3-.9.71,0,.34.26.56.65.63l1,.22c1.39.28,2.09,1.13,2.09,2.17,0,1.15-.89,2.32-2.74,2.32-2.12,0-2.85-1.37-2.93-2.18l1.63-.35h0Z"/>
          <g class="cls-63">
            <g>
              <path class="cls-38" d="M117.29,48.86c-36.92,0-66.95,30.03-66.95,66.95,0,22.24,10.91,41.97,27.65,54.15h.03c6.76,4.9,14.18,8.45,22.1,10.56,5.58,1.48,11.35,2.24,17.17,2.24,6.44,0,12.8-.92,18.91-2.73,7.18-2.13,14.18-5.61,20.29-10.06h.11c16.74-12.18,27.65-31.91,27.65-54.15,0-36.92-30.03-66.95-66.95-66.95h0ZM117.29,53.75c33.82,0,61.38,27.19,62.03,60.86-2.88.56-5.8.93-8.75,1.07-.39-9.73-2.97-19.11-7.61-27.49.34.39.67.79,1.01,1.21,3.48,4.42,5.69,8.03,5.71,8.06l4.18-2.54c-.09-.16-2.37-3.89-6.05-8.55-3.32-4.21-6.96-7.2-7.91-7.95-1.06-2.84-2.96-5.71-5.45-8.2-5.21-5.21-11.6-7.42-15.97-5.9-9.5-4.92-20.15-7.74-29.48-7.74-1.19,0-2.37.04-3.55.11-.03-.59-.03-1.19-.05-1.79,3.85-.75,7.82-1.15,11.88-1.15h.01ZM123.06,86.12l10.1-11.56-11.8-11.23-3.38,3.54,4.77,4.54c-1.29-.08-2.57-.13-3.86-.13-3.65,0-7.22.34-10.7.94-1.07-3.43-1.84-7-2.3-10.65,1.04-.06,2.07-.09,3.12-.09,8.02,0,17.14,2.28,25.51,6.32-.99,1.97-1.12,4.48-.34,7.29.58,2.06,1.62,4.16,3.04,6.16l-13.37,16.6c-5.99-5.91-10.77-13.03-13.97-20.95,2.94-.47,5.95-.72,9.01-.72,2.03,0,4.06.12,6.07.33l-5.59,6.4,3.68,3.22h.01ZM140.48,84.99c1.93,1.86,4.07,3.36,6.24,4.4,2.06,6.77,3.29,14.11,3.29,19.92,0,1.31-.05,2.61-.13,3.91-8.33-2.46-15.93-6.62-22.41-12.09l13.01-16.14h0ZM139.29,69.44c.49-.49,1.25-.73,2.19-.73,2.48,0,6.22,1.67,9.52,4.98,2.27,2.27,3.96,4.97,4.64,7.4.55,1.95.4,3.52-.39,4.32-.79.79-2.36.94-4.31.39-2.43-.68-5.13-2.37-7.4-4.64-2.27-2.27-3.96-4.96-4.64-7.4-.54-1.95-.4-3.52.39-4.32h0ZM124.41,104.94c7.2,6.05,15.68,10.61,24.97,13.22-1.22,8.61-4.21,16.78-8.62,23.99-10.43-4.04-20.55-9.66-29.86-16.68-.63-.48-1.23-.99-1.85-1.48l15.36-19.06h0ZM154.14,119.33c3.74.76,7.6,1.18,11.54,1.29-.39,9.49-3.07,18.55-7.87,26.63-4.13-.88-8.26-2.02-12.35-3.4,4.39-7.42,7.37-15.76,8.68-24.52h0ZM154.7,114.45c.13-1.7.21-3.41.21-5.14,0-5.41-.98-12.01-2.66-18.36.28.02.57.06.84.06,1.92,0,3.59-.56,4.92-1.59,4.66,7.95,7.27,16.94,7.67,26.3-3.75-.11-7.43-.53-10.99-1.28h.01ZM120.78,101.65l-15.54,19.29c-3.68-3.11-7.14-6.41-10.38-9.87l10.46.83.39-4.88-19.3-1.53.64,18.85,4.89-.17-.32-9.39c3.3,3.49,6.83,6.83,10.56,9.97l-19.06,23.65c-9.1-7.45-15.93-17.39-19.62-28.68,2.26-9.29,6.79-17.69,12.97-24.59,1.47,2.39,3.04,4.74,4.71,7.06l3.97-2.86c-1.85-2.56-3.55-5.17-5.14-7.81,6.95-6.49,15.51-11.27,25.02-13.66,3.51,9.04,8.92,17.13,15.75,23.77v.02ZM100.55,56.07c.01.37.01.73.03,1.1-2.54.35-5.04.85-7.5,1.51,2.41-1.03,4.91-1.89,7.47-2.61ZM101.03,62.04c.48,3.84,1.27,7.59,2.38,11.2-9.77,2.53-18.61,7.39-25.89,13.94-2.12-3.94-3.95-7.95-5.48-12.01,8.29-7.11,18.3-11.63,29-13.13h0ZM61.28,89.12c1.85-3.87,4.1-7.52,6.68-10.9,1.67,4.24,3.65,8.42,5.93,12.51-5.4,5.72-9.71,12.45-12.64,19.89-.55-3.34-.85-6.76-.85-10.24,0-3.78.34-7.56,1.01-11.24l-.14-.03h0ZM57.04,130.66c-1.17-4.76-1.81-9.73-1.81-14.84,0-2.96.22-5.88.63-8.73.44,4.42,1.3,8.73,2.56,12.87-.76,3.47-1.23,7.04-1.38,10.7h0ZM152.93,166.57c-.19.14-.39.27-.59.4-.19.13-.39.27-.58.4-.27.18-.54.36-.81.53-.12.08-.23.15-.35.23-.31.2-.62.39-.93.58-.07.05-.15.09-.22.14-.34.21-.69.41-1.03.62-.02,0-.05.03-.07.04-4.28,2.49-8.86,4.47-13.53,5.86-5.66,1.68-11.56,2.53-17.53,2.53-5.39,0-10.74-.7-15.91-2.07-7.93-2.11-15.32-5.78-21.99-10.91-9.29-7.19-15.75-16.92-20.58-27.9l-2.03-4.72h0c-.06-1,2.91-6.78,2.91-7.8,0-1.33,2.31,4.72,2.33,4.74,4.24,8.9,10.39,16.75,18.01,22.99l-2.75,3.42,3.81,3.07,2.84-3.52c6.61,4.64,14.13,8.14,22.34,10.18l1.18-4.75c-7.5-1.86-14.39-5.05-20.44-9.26l18.97-23.55c.66.52,1.3,1.07,1.98,1.58,9.36,7.06,19.53,12.75,30.02,16.92-4.55,6.23-10.22,11.58-16.82,15.59l.34-11.68-4.89-.14-.54,18.44,18.03.41.11-4.89-7.16-.16c6.11-4.28,11.4-9.65,15.68-15.78,4.04,1.41,8.12,2.6,12.2,3.54-.23.31-.43.64-.66.96l3.9,2.95c.7-.93,1.36-1.87,2-2.83,2.09.38,4.17.69,6.26.94-3.83,4.96-8.39,9.31-13.51,12.92v-.02ZM169.65,149.06c-2.23-.21-4.47-.49-6.72-.85,4.7-8.45,7.32-17.84,7.69-27.64,2.89-.14,5.77-.46,8.6-.97-.65,10.79-4.08,20.84-9.57,29.46Z"/>
              <path class="cls-59" d="M122.17,95.69s-1.11.85-1.71,3.01-2.37,2.08-2.37,2.08h0c.02.05.07.18.16.38h0c.37.89,1.25,3.21,1.52,5.71.34,3.05-.22,6.37-3.73,7.63-1.84.66-3.64.51-5.3-.07,5.66,14.1,5.05,35.75,5.05,35.75h-7.88c-.64-4.8-1.89-8.89-3.9-12.26.08.91.13,1.83.15,2.72.05,1.78,0,3.49-.08,4.95-.15,2.69-.42,4.58-.42,4.58h-8.11c.08-8.75-6.01-18.18-9.49-22.91,0,.41.01.82.02,1.23v5.83c0,.18,0,.35-.01.53v.02c0,.17,0,.34-.01.51v.02c0,.17,0,.34-.01.51v.02c0,.17,0,.34-.01.51h0c0,.18-.01.35-.02.51h0c0,.17-.01.34-.02.5h0c-.08,2.52-.21,4.74-.33,6.6h0c0,.13-.02.24-.02.36h0c0,.13-.02.24-.02.36h0c0,.11-.02.22-.02.32v.03c0,.1-.02.2-.02.3v.03c0,.1-.01.19-.02.28v.04c0,.08-.01.16-.02.24v.08c0,.06-.01.13-.02.19v.11c0,.05,0,.09-.01.13,0,.06,0,.11-.01.17v.05c-.18,2.16-.33,3.38-.33,3.38h-8.93c0-9.85-1.01-17.47-2.49-23.36-.8-.05-1.57-.13-2.3-.23-2.94-.41-5.33-1.21-7.28-2.19-.1-.05-.2-.1-.3-.15-.64-.34-1.22-.69-1.77-1.06-.08.22-.16.45-.24.67-.04.11-.07.21-.11.32-.04.12-.08.23-.12.35-.05.13-.09.26-.14.4-.03.09-.06.18-.09.26-.05.14-.09.29-.14.43-.03.08-.05.15-.08.23-.05.14-.09.29-.14.43-.02.07-.05.15-.07.22-.05.15-.09.29-.14.44-.02.07-.05.14-.07.21-.05.15-.1.3-.14.46-.02.06-.04.13-.06.19-.05.15-.1.31-.14.46-.02.06-.04.12-.06.18-.05.16-.1.32-.14.47-.02.05-.03.11-.05.16-.05.16-.1.32-.14.48l-.05.15c-.05.16-.1.33-.15.49,0,.04-.03.09-.04.13-.05.17-.1.34-.15.5,0,.04-.02.08-.04.12-.05.17-.1.34-.14.51,0,.04-.02.07-.03.11-.05.17-.1.34-.15.52,0,.03-.02.06-.03.09-.05.18-.1.35-.14.52,0,.03-.02.06-.02.08-.05.18-.1.35-.14.53,0,.02,0,.05-.02.07-.05.18-.1.35-.14.53,0,.02,0,.04-.02.06-.05.18-.1.36-.14.54,0,0,0,.03,0,.04-.05.18-.1.37-.14.55v.02c-.05.19-.1.37-.14.56h0c-2.07,8.19-2.83,14.07-2.88,14.48v.03h-7.41s-.91-10.03-.05-23.53c.06-1.01.14-2.04.22-3.08v-.04c.03-.33.05-.66.08-1h0c.12-1.4.26-2.81.43-4.24.67-5.91,1.73-12.17,3.33-18.35,1.99-7.65,4.82-15.18,8.84-21.77.84-1.37,1.73-2.7,2.67-3.98,0,0-3.46-2.91-5.43-7.24-2.17-4.78-2.52-11.29,5.55-17.58h0s-.06.11-.11.22c0,0,0,0,0,.02,0,0,0,.02-.02.03-.28.53-.9,1.78-1.39,3.38h0c-.02.08-.05.16-.07.24v.02c-.02.08-.04.16-.07.24v.03c-.02.08-.04.15-.06.23,0,0,0,.03,0,.04-.02.07-.04.15-.05.22,0,.02,0,.04,0,.05-.02.07-.03.15-.05.22,0,.02,0,.04,0,.06-.02.07-.03.14-.04.22,0,.02,0,.05,0,.07,0,.07-.03.14-.04.22,0,.02,0,.05,0,.08,0,.07-.02.14-.04.21,0,.03,0,.05,0,.08,0,.07-.02.14-.03.21,0,.03,0,.06,0,.09,0,.07-.02.14-.02.21,0,.03,0,.06,0,.09,0,.07,0,.14-.02.21v.1c0,.07,0,.13,0,.2v1.33c0,.06,0,.13,0,.19,0,.04,0,.08,0,.12,0,.06,0,.12.02.19,0,.04,0,.08,0,.12,0,.06.02.12.03.18,0,.04,0,.08.02.12,0,.06.02.12.03.18,0,.04.02.08.02.13,0,.06.02.12.04.18,0,.04.02.08.03.13,0,.06.03.12.04.18,0,.04.02.08.04.13.02.06.03.12.05.18,0,.04.03.08.04.13.02.06.04.11.06.17.02.04.03.09.05.13.02.06.04.11.07.17.02.04.04.08.05.13.02.06.05.11.07.17.02.04.04.08.06.13.03.06.05.11.08.16.02.04.04.08.07.13s.06.11.09.16c.02.04.05.08.07.13.03.05.06.1.09.16.03.04.05.08.08.12.03.05.07.1.1.15.03.04.06.08.09.12.04.05.07.1.11.15.03.04.06.08.1.12.04.05.08.1.12.15.03.04.07.08.11.12.04.05.08.1.13.14.04.04.08.08.11.12.04.05.09.09.14.14l.12.12s.09.09.14.13c.04.04.09.08.13.11.05.04.1.09.15.13.05.04.1.07.14.11.05.04.11.08.16.12.05.04.11.07.16.11s.11.08.17.12c.06.04.12.08.18.12.05.03.11.07.16.1.07.04.14.09.22.13.05.03.1.06.15.08.12.07.25.14.38.2,6.92,3.51,11.53-.62,17.16,3.96.38-.14.83-.33,1.31-.57,2.76-1.36,6.57-4.34,4.47-9.87.11.15,6.73,9.25.29,14.53-.33.27-.7.54-1.1.78,1.51,1.24,3.15,2.26,4.88,3,.66.28,1.33.53,2.01.73,1.49.44,3.12.77,4.83.88h0c.12.27,3.9,9.3-4.55,13.72-1.34.7-2.91,1.5-4.61,2.4l.02.02c2.4,2.61,5.8,5.07,13.08,10.56h0c.05.04.45.38,1.1.86h0c.83.62,2.05,1.5,3.42,2.3,2.39,1.4,5.21,2.59,7.15,1.92,3.37-1.17,2.62-5.46,1.56-8.36-.62-1.68-.13-3.67,1.17-4.68,1.72-1.35,4.02-.89,4.02-.89l-.13.06Z"/>
              <path class="cls-37" d="M105.15,104.92s-.02-.01-.03-.02h0l.02.02h.01Z"/>
              <path class="cls-36" d="M89.19,72.43c-.33.27-.7.54-1.1.78-.6-.49-1.18-1.02-1.73-1.58-.41-.41-.81-.85-1.2-1.29-.7-.81-1.37-1.46-2.03-2,.38-.14.83-.33,1.31-.57,2.76-1.36,6.57-4.34,4.47-9.87.11.15,6.73,9.25.29,14.53h-.01Z"/>
              <path class="cls-35" d="M83.06,98.32h0c-5.57,3.53-11.41,8.1-15.68,14.06-1.67,2.33-3.09,4.88-4.17,7.66-.41,1.06-.8,2.11-1.17,3.15-5.13,14.45-6.66,26.99-6.66,26.99h-7.41s-.91-10.03-.05-23.53c.17-2.67.41-5.47.74-8.36,7.61-8.91,18.95-18.03,34.39-19.96h0Z"/>
              <path class="cls-34" d="M99.82,77.83h0c-.16.15-15.09,14.36-36.3-3.65,0,0-3.46-2.91-5.43-7.24-2.17-4.78-2.52-11.29,5.55-17.58h0v.02c-.33.59-5.98,10.79,2.35,15.01,6.92,3.51,11.53-.62,17.16,3.96.66.54,1.34,1.2,2.03,2,.91,1.06,1.89,2.02,2.93,2.87,1.51,1.24,3.15,2.26,4.88,3,.66.28,1.33.53,2.01.73,1.49.44,3.12.77,4.83.88h0Z"/>
              <path class="cls-32" d="M95.26,91.55c-1.34.7-2.91,1.5-4.61,2.4h0c-.15.08-.29.16-.44.24-.25.13-.5.27-.76.41-.35.19-.7.38-1.06.58-.31.17-.62.34-.94.52-1.42.8-2.9,1.67-4.39,2.62-15.44,1.93-26.78,11.05-34.39,19.96.67-5.91,1.73-12.17,3.33-18.35,1.99-7.65,4.82-15.18,8.84-21.77.84-1.37,1.73-2.7,2.67-3.98,9.27,7.88,17.35,9.6,23.51,9.02.11,0,.22-.02.33-.03.81-.09,1.58-.21,2.32-.37.12-.03.25-.05.37-.08s.24-.06.36-.09.24-.06.35-.09c.26-.07.51-.14.76-.21.09-.03.18-.05.26-.08.15-.05.29-.09.43-.14.07-.02.15-.05.22-.07.11-.04.21-.07.32-.11.21-.07.42-.15.62-.23.1-.04.2-.08.3-.12.1-.04.2-.08.29-.12.29-.12.58-.25.85-.38.09-.04.17-.08.25-.12.09-.04.17-.08.26-.13.09-.04.17-.09.25-.13.91-.47,1.69-.94,2.32-1.37.06-.04.11-.08.17-.11.05-.04.11-.07.16-.11.11-.07.2-.14.3-.21.05-.03.09-.07.14-.1.13-.1.26-.19.37-.28.04-.03.07-.06.11-.09.4-.32.63-.53.67-.58h0c.12.27,3.9,9.3-4.55,13.72v-.02Z"/>
              <path class="cls-22" d="M99.81,77.84h0c-.22.33-8.8,13.16-26.2,7.58-5.24-1.68-9.44-4.34-12.76-7.26.84-1.37,1.73-2.7,2.67-3.98,9.27,7.88,17.35,9.6,23.51,9.02.11,0,.22-.02.33-.03.81-.09,1.58-.21,2.32-.37.12-.02.25-.05.37-.08s.24-.06.36-.09.24-.06.35-.09c.26-.07.51-.14.76-.21.09-.03.18-.05.26-.08.15-.05.29-.09.43-.14.07-.02.15-.05.22-.07.11-.04.21-.07.32-.11.21-.07.42-.15.62-.23.1-.04.2-.08.3-.12.1-.04.2-.08.29-.12.29-.12.58-.25.85-.38.09-.04.17-.08.25-.12.09-.04.17-.08.26-.13.09-.04.17-.08.25-.13.91-.47,1.69-.94,2.32-1.37.06-.04.11-.08.17-.11.05-.04.11-.07.16-.11.11-.07.2-.14.3-.21.05-.03.09-.07.14-.1.13-.1.26-.19.37-.28.04-.03.07-.06.11-.09.4-.32.63-.53.67-.58h0Z"/>
              <path class="cls-31" d="M103.44,136.99c-3.51-5.28-9.06-8.57-17.23-9.71-.05,0-.09-.01-.14-.02v-.17h0c-.02-.96-.04-1.93-.08-2.93-.03-.8-.06-1.62-.1-2.44-.02-.36-.03-.72-.05-1.08-.02-.44-.05-.89-.08-1.33-.04-.68-.09-1.36-.14-2.05v-.07c-.04-.5-.08-1.01-.12-1.52-.07-.81-.14-1.62-.22-2.44-.05-.48-.1-.96-.15-1.45-.21-1.96-.46-3.95-.75-5.95-.04-.28-.08-.55-.12-.83-.05-.3-.09-.59-.14-.89-.04-.26-.08-.52-.13-.78-.14-.83-.28-1.67-.44-2.51-.08-.45-.17-.91-.26-1.36h0c-.07-.36-.14-.72-.22-1.08,0-.02,0-.04-.01-.06,2.66-1.68,5.26-3.12,7.59-4.36,0,0-.02.03-.05.07-.49.69-4.06,6.3-.3,17.25,2.86,8.32,8.48,18.1,11.51,23.09.71,1.17,1.27,2.07,1.63,2.63h0Z"/>
              <path class="cls-30" d="M73.69,126.81c-.8-.05-1.57-.13-2.3-.23-2.94-.41-5.33-1.21-7.28-2.19-.1-.05-.2-.1-.3-.15-.64-.34-1.22-.69-1.77-1.06.37-1.04.76-2.09,1.17-3.15,1.07-2.78,2.5-5.32,4.17-7.66.23.31.47.65.71,1,.1.15.2.31.31.47.05.08.1.16.15.24.1.16.2.33.3.5.03.04.05.09.08.14s.06.09.09.14c0,.01.02.03.03.04.03.04.05.09.08.14.07.12.14.24.21.36.21.37.42.75.62,1.16.04.07.07.13.1.2.04.07.07.14.1.21.07.13.13.26.19.39.11.22.21.45.32.68.04.07.07.15.1.22.05.1.1.21.14.32.04.1.08.19.13.29.15.35.3.71.45,1.08.1.24.19.48.29.73.03.08.06.17.09.25.16.44.33.89.49,1.36.05.14.09.28.14.42.09.28.18.57.28.86.04.14.09.28.13.43h0c.04.15.08.28.12.42.05.16.09.32.14.48l.09.31c.14.52.29,1.05.42,1.6h.01Z"/>
              <path class="cls-33" d="M85.11,150.17h-8.93c0-9.85-1.01-17.47-2.49-23.36-.14-.55-.28-1.08-.42-1.6l-.09-.31c-.05-.16-.09-.32-.14-.48-.04-.14-.08-.28-.12-.41h0c-.04-.15-.09-.3-.13-.44-.09-.29-.18-.58-.28-.86-.05-.14-.09-.28-.14-.42-.16-.47-.32-.92-.49-1.36-.03-.08-.06-.17-.09-.25-.1-.25-.19-.49-.29-.73-.15-.37-.3-.73-.45-1.08-.04-.1-.08-.19-.13-.29-.05-.11-.09-.21-.14-.32-.03-.08-.07-.15-.1-.22-.11-.23-.21-.46-.32-.68-.06-.13-.13-.26-.19-.39-.03-.07-.07-.14-.1-.21s-.07-.14-.1-.2c-.21-.4-.41-.79-.62-1.16-.07-.12-.14-.24-.21-.36-.03-.05-.05-.09-.08-.14,0-.01-.02-.03-.03-.04-.03-.05-.06-.1-.09-.14-.03-.05-.05-.09-.08-.14-.1-.17-.2-.34-.3-.5-.05-.08-.1-.16-.15-.24-.1-.16-.21-.32-.31-.47-.24-.36-.47-.69-.71-1,4.26-5.95,10.1-10.52,15.66-14.05h.01s0,.04.01.06c.07.36.15.72.22,1.08h0c.09.46.18.91.26,1.36.15.84.3,1.67.44,2.51.04.26.09.52.13.78.05.3.09.59.14.89.04.28.08.56.12.83.29,2,.54,3.99.75,5.95.05.48.1.97.15,1.45.08.82.15,1.63.22,2.44.04.51.08,1.02.12,1.52v.07c.05.69.09,1.37.14,2.05.03.45.05.89.08,1.33.02.36.04.72.05,1.08.04.82.07,1.64.1,2.44.03.99.06,1.97.08,2.92h0v.17c.23,13.28-.96,22.91-.96,22.91h0Z"/>
              <path class="cls-43" d="M104.09,145.59c-.15,2.69-.42,4.58-.42,4.58h-8.11c.08-8.75-6.01-18.18-9.49-22.91.05,0,.09.01.14.02,4.32.6,7.9,1.8,10.84,3.58,2.63,1.59,4.74,3.64,6.39,6.13h0s.03.04.04.06c.12.17.23.35.34.52,0,0,.02.02.02.03v.02h.01c.06.09.11.18.16.27.08.91.13,1.83.15,2.72.05,1.78,0,3.49-.08,4.95v.03Z"/>
              <path class="cls-44" d="M122.17,95.69s-1.11.85-1.71,3.01-2.37,2.08-2.37,2.08h0c.02.05.07.18.16.38h0c.37.89,1.25,3.21,1.52,5.71.34,3.05-.22,6.37-3.73,7.63-1.84.66-3.64.51-5.3-.07h0c-.33-.83-.69-1.64-1.07-2.41-1.31-2.67-2.89-4.96-4.81-6.61.83.62,2.05,1.5,3.42,2.3,2.39,1.4,5.21,2.59,7.15,1.92,3.37-1.17,2.62-5.46,1.56-8.36-.62-1.68-.13-3.67,1.17-4.68,1.72-1.35,4.02-.89,4.02-.89h0Z"/>
              <path class="cls-45" d="M115.79,150.17h-7.88c-.64-4.8-1.89-8.89-3.9-12.26-.05-.09-.11-.18-.16-.27h0s0,0-.01-.02c0,0-.01-.02-.02-.03-.11-.18-.22-.35-.34-.52-.01-.02-.03-.04-.04-.06h0c-1.88-2.96-9.61-15.46-13.14-25.71-3.86-11.23,0-16.84.33-17.29h0s.01-.03.01-.03l.02.02c2.4,2.61,5.8,5.07,13.08,10.56h0c.05.04.45.38,1.1.86h0c2.48,2.13,4.4,5.32,5.88,9.02h0c5.66,14.1,5.05,35.75,5.05,35.75l.02-.02Z"/>
              <path class="cls-20" d="M95.26,91.55c-1.34.7-2.91,1.5-4.61,2.4h0c-.15.08-.29.16-.44.24-.25.13-.5.27-.76.41-.35.19-.7.38-1.06.58-.31.17-.62.34-.94.52-1.42.8-2.9,1.67-4.39,2.62-15.44,1.93-26.78,11.05-34.39,19.96.67-5.91,1.73-12.17,3.33-18.35,14.04-7.61,31.57-5.48,39.4-8.19,10.62-3.67,8.47-13.62,8.41-13.9.12.27,3.9,9.3-4.55,13.72h0Z"/>
              <path class="cls-23" d="M99.82,77.83c-.63.61-1.31,1.14-2.01,1.63-.7.49-1.43.93-2.17,1.34-1.49.79-3.04,1.43-4.63,1.88-1.59.46-3.22.72-4.85.83-1.64.1-3.28.01-4.9-.21l-1.21-.21c-.1-.02-.2-.03-.3-.06l-.3-.07-.6-.14-.6-.14c-.2-.05-.4-.12-.6-.18l-1.19-.37-1.17-.44-.58-.22-.57-.26-1.14-.51c-.38-.19-.75-.39-1.12-.59-.75-.37-1.47-.83-2.2-1.27-.37-.21-.72-.46-1.07-.7l-1.06-.72c-.18-.12-.35-.25-.52-.38l-.51-.39-1.02-.79c-.66-.56-1.32-1.12-1.98-1.69l1.02.78,1.02.79,1.05.73.52.37c.18.12.35.25.53.36l1.07.68c.36.23.71.46,1.08.65.73.4,1.45.84,2.21,1.19.37.18.74.37,1.12.55l1.14.49.57.25.58.21,1.16.42c1.56.49,3.14.9,4.74,1.13,3.2.46,6.46.33,9.62-.49,1.58-.41,3.12-.98,4.62-1.71,1.49-.73,2.94-1.61,4.27-2.73h-.02Z"/>
              <g class="cls-24">
                <path class="cls-28" d="M52.01,99.92l.8-.44c.27-.14.53-.29.8-.42.54-.27,1.08-.54,1.63-.78l.83-.37.83-.34c.55-.23,1.12-.43,1.68-.64,2.25-.79,4.55-1.39,6.87-1.89.58-.13,1.16-.23,1.74-.35.58-.1,1.16-.21,1.74-.3.58-.09,1.17-.18,1.75-.26.58-.09,1.17-.16,1.75-.23,2.34-.29,4.68-.49,7.02-.7,2.34-.2,4.68-.38,7-.68,1.16-.15,2.32-.33,3.46-.61.57-.14,1.13-.3,1.69-.5.28-.1.56-.2.83-.31.27-.12.55-.23.82-.36,1.08-.51,2.11-1.16,3.03-1.99l.34-.31.33-.34.16-.17.15-.18.31-.36c.39-.51.75-1.04,1.06-1.62.61-1.16,1.04-2.46,1.23-3.82.1-.68.14-1.37.14-2.06s-.05-1.38-.18-2.06c.15.67.22,1.36.25,2.06.03.69,0,1.39-.08,2.08-.16,1.38-.56,2.73-1.16,3.94-.3.6-.67,1.16-1.06,1.69l-.31.38-.16.19-.17.18-.33.35-.35.33c-.94.87-1.98,1.56-3.07,2.1s-2.23.96-3.39,1.25c-1.16.29-2.33.49-3.49.65-2.34.32-4.68.51-7.02.71-4.68.39-9.35.82-13.98,1.71-2.31.45-4.61,1-6.86,1.74-.56.19-1.13.36-1.69.58l-.84.31-.83.34c-1.11.45-2.2.96-3.28,1.5h0Z"/>
              </g>
              <path class="cls-46" d="M83.06,98.32c-15.44,1.93-26.78,11.05-34.39,19.96,2.14-2.91,4.55-5.56,7.15-7.93,2.6-2.37,5.39-4.45,8.33-6.19,2.94-1.74,6.03-3.13,9.21-4.13,3.18-.99,6.44-1.58,9.7-1.71Z"/>
              <path class="cls-49" d="M92.97,76.22c-7.39,3.17-19.78,2.24-28.1-5.22-10.86-9.74-1.44-21.42-1.25-21.65-.13.23-6.15,10.73,2.34,15.03,6.92,3.51,11.53-.62,17.16,3.96.66.54,1.34,1.2,2.03,2,.91,1.06,1.89,2.02,2.93,2.87,1.51,1.24,3.15,2.26,4.88,3h.01Z"/>
              <path class="cls-50" d="M99.82,77.83h-.17c-.48,0-.97-.02-1.45-.06-.54-.05-1.08-.12-1.62-.21s-1.08-.21-1.61-.34-1.07-.29-1.59-.48c-1.05-.38-2.07-.85-3.07-1.42-.99-.57-1.94-1.24-2.85-1.98-.91-.74-1.77-1.57-2.57-2.46-.77-.87-1.57-1.65-2.45-2.29-.11-.09-.22-.16-.33-.23s-.22-.15-.34-.22c-.23-.13-.46-.28-.69-.39-.23-.13-.47-.23-.71-.34-.24-.09-.48-.19-.73-.26-.99-.32-2.02-.44-3.07-.48s-2.13,0-3.23-.02c-1.09-.01-2.21-.07-3.31-.26-.55-.1-1.1-.23-1.64-.39-.54-.17-1.08-.36-1.6-.59-1.04-.45-2.07-1.04-2.98-1.85-.12-.09-.22-.21-.33-.32l-.33-.33-.3-.37-.15-.18c-.05-.06-.09-.13-.14-.2l-.27-.4c-.09-.14-.16-.29-.24-.43l-.12-.22c-.04-.07-.07-.15-.1-.23-.06-.15-.13-.3-.19-.46-.22-.63-.37-1.29-.45-1.95-.07-.67-.08-1.34-.03-1.99.12-1.32.42-2.58.85-3.77.43-1.18.96-2.3,1.6-3.32-.33.59-5.98,10.79,2.35,15.01,6.92,3.51,11.53-.62,17.16,3.96.66.54,1.34,1.2,2.03,2,.91,1.06,1.89,2.02,2.93,2.87,1.51,1.24,3.15,2.26,4.88,3,.66.28,1.33.53,2.01.73,1.49.44,3.12.77,4.83.88h.02Z"/>
              <g class="cls-24">
                <path class="cls-51" d="M86.35,71.64c.97-.7,1.87-1.53,2.58-2.55.34-.52.65-1.07.88-1.67.23-.6.39-1.23.47-1.87.19-1.29.09-2.63-.17-3.92-.13-.64-.3-1.28-.51-1.9-.2-.62-.44-1.23-.71-1.83.34.54.62,1.14.87,1.75s.46,1.25.61,1.9c.16.65.27,1.33.32,2.01.05.68.03,1.38-.07,2.06s-.27,1.35-.52,1.97c-.26.62-.59,1.19-.97,1.71-.78,1.01-1.75,1.79-2.79,2.34h0Z"/>
              </g>
              <path class="cls-19" d="M89.19,72.43c-.33.27-.7.54-1.1.78-.6-.49-1.18-1.02-1.73-1.58,7.55-4.68,2.64-13.58,2.55-13.73.11.15,6.73,9.25.29,14.53h-.01Z"/>
              <path class="cls-3" d="M89.19,72.43c-.33.27-.7.54-1.1.78-1.04-.86-2.02-1.82-2.93-2.87-.7-.81-1.37-1.46-2.03-2,.38-.14.83-.33,1.31-.57.51.47,1.03,1,1.54,1.59.87,1.01,1.81,1.92,2.78,2.73.14.12.29.23.44.35h-.01Z"/>
              <path class="cls-8" d="M83.06,98.32h0s-.02.01-.05.02c-1.2.5-21.56,9.08-35.07,28.3.09-1.34.19-2.72.31-4.13.12-1.39.26-2.8.43-4.23,7.61-8.91,18.95-18.02,34.38-19.96h0Z"/>
              <path class="cls-16" d="M83.06,98.32c-5.57,3.53-11.41,8.1-15.68,14.06-1.67,2.33-3.09,4.88-4.17,7.66-.41,1.06-.8,2.11-1.17,3.15-5.05,14.22-6.61,26.6-6.65,26.98h-7.41c9.44-46.97,35.08-51.85,35.08-51.85Z"/>
              <path class="cls-47" d="M83.06,98.32c-5.57,3.53-11.41,8.1-15.68,14.06-1.67,2.33-3.09,4.88-4.17,7.66-.41,1.06-.8,2.11-1.17,3.15-5.05,14.22-6.61,26.6-6.65,26.98.05-.66.12-1.32.2-1.98.08-.66.16-1.33.26-1.99.18-1.32.4-2.64.62-3.95.12-.66.25-1.31.37-1.96.13-.65.26-1.3.39-1.96.13-.65.28-1.3.43-1.95.14-.65.3-1.29.46-1.94.62-2.58,1.34-5.13,2.12-7.65.19-.63.39-1.26.6-1.88l.63-1.87c.22-.62.45-1.23.68-1.85l.34-.92.17-.46.18-.46c.5-1.23,1.06-2.43,1.69-3.57.63-1.14,1.31-2.24,2.05-3.28.37-.52.76-1.02,1.14-1.53.19-.25.4-.49.59-.74.2-.25.4-.49.6-.72.81-.96,1.68-1.84,2.55-2.71,1.77-1.71,3.64-3.26,5.57-4.66,1.94-1.4,3.94-2.67,5.99-3.8l.04-.02Z"/>
              <g class="cls-24">
                <path class="cls-27" d="M47.99,150.17l.87-4.24,1.02-4.19.58-2.07.29-1.04c.1-.35.19-.69.31-1.03l.65-2.04.33-1.02c.11-.34.24-.67.36-1.01l.72-2.01.18-.5.2-.49.4-.98.4-.98c.14-.33.26-.66.41-.98l.87-1.93.22-.48c.07-.16.15-.32.23-.48l.47-.94.47-.94c.16-.31.31-.63.48-.93l1.01-1.83.25-.46.27-.44.54-.89.54-.89c.09-.15.19-.29.28-.43l.29-.43.57-.86.29-.43.14-.21.15-.21,1.21-1.65c.1-.14.21-.27.31-.4l.32-.4.63-.8c1.72-2.09,3.56-4.05,5.54-5.78l.37-.33c.12-.11.25-.22.37-.32l.76-.62c.5-.42,1.03-.8,1.55-1.19.26-.2.53-.38.79-.56.27-.18.53-.37.8-.55l.82-.51c.14-.08.27-.17.41-.25l.42-.24c1.11-.65,2.24-1.21,3.4-1.7s2.34-.92,3.55-1.17c-1.2.3-2.37.76-3.52,1.27-1.15.52-2.27,1.11-3.36,1.78l-.41.25c-.14.08-.27.17-.4.26l-.81.52c-.27.18-.53.37-.79.56-.26.19-.53.37-.78.57-.51.4-1.04.78-1.53,1.21l-.75.63c-.13.1-.25.21-.37.32l-.36.33c-3.9,3.52-7.32,7.76-10.16,12.48-2.9,4.68-5.22,9.83-7.17,15.16-.12.33-.25.66-.37,1l-.34,1.01-.67,2.03c-.12.34-.22.68-.32,1.02l-.3,1.03-.61,2.06-1.09,4.16-.96,4.21.03-.03Z"/>
              </g>
              <path class="cls-5" d="M83.06,98.32h0c-.31.05-18.69,2.97-34.81,24.19.12-1.39.26-2.8.43-4.23,7.61-8.91,18.95-18.02,34.38-19.96h0Z"/>
              <path class="cls-7" d="M73.69,126.81c-.8-.05-1.57-.13-2.3-.23-1.3-6.6-3.95-14.05-4-14.2.23.31.47.65.71,1,.1.15.2.31.31.47.05.08.1.16.15.24.1.16.2.33.3.5.06.09.11.18.17.28,0,.01.02.03.03.04.03.04.05.09.08.14.07.12.14.24.21.36.21.37.42.75.62,1.16.04.07.07.13.1.2.04.07.07.14.1.21.06.13.13.26.19.39.11.22.21.45.32.68.03.07.07.15.1.22.05.1.1.21.14.32.04.1.08.19.13.29.15.35.3.71.45,1.08.13.32.26.65.38.98.16.44.33.89.49,1.36.05.14.09.28.14.42.09.28.18.57.28.86.04.14.09.28.13.43h0c.04.15.08.28.12.42.05.16.09.32.14.48.03.1.06.21.09.31.14.52.29,1.05.42,1.6h0Z"/>
              <path class="cls-17" d="M85.11,150.16h0s-8.93,0-8.93,0c0,0,6.1-16.52,6.87-51.84l.03.06c1.83,8.89,2.64,17.86,2.91,25.78.03.99.06,1.97.08,2.92h0v.17c.23,13-.91,22.5-.96,22.9h0Z"/>
              <path class="cls-57" d="M85.53,137.17c.02-2.17.03-4.33,0-6.49,0-1.08-.03-2.16-.05-3.24l-.09-3.24c-.15-4.32-.41-8.63-.78-12.94-.39-4.3-.91-8.59-1.54-12.87l-.02-.06.03.06c1.83,8.89,2.64,17.86,2.91,25.78.03.99.06,1.97.08,2.92h0v.17c.23,13-.91,22.5-.96,22.9.24-4.34.37-8.66.43-12.99h-.01Z"/>
              <g class="cls-24">
                <path class="cls-56" d="M76.18,150.17c.65-2.06,1.19-4.16,1.66-6.28l.18-.79.17-.8.34-1.6.62-3.21.55-3.22c.17-1.08.33-2.16.5-3.24l.12-.81.11-.81.22-1.62.22-1.62c.07-.54.13-1.09.19-1.63l.38-3.26.31-3.27.16-1.63c.05-.55.09-1.09.13-1.64l.26-3.28.07-.82.05-.82.1-1.64.21-3.28c.12-2.19.2-4.38.33-6.58h0l.03.06-.03-.06h0l-.02,1.65-.03,1.65c-.02,1.1-.03,2.2-.06,3.3l-.13,3.29-.07,1.65-.04.82-.05.82-.22,3.29c-.04.55-.07,1.1-.12,1.64l-.15,1.64-.3,3.28-.37,3.27c-.07.54-.12,1.09-.19,1.63l-.22,1.63-.22,1.63-.11.81-.13.81c-.18,1.08-.35,2.16-.53,3.24l-.6,3.22-.33,1.6c-.11.53-.22,1.07-.34,1.6l-.37,1.59-.19.79-.2.79c-.14.52-.27,1.05-.42,1.57l-.44,1.56c-.16.52-.31,1.04-.48,1.55l-.26.77c-.09.25-.18.51-.28.76h-.01Z"/>
              </g>
              <path class="cls-6" d="M103.44,136.99c-1.66-2.49-3.77-4.54-6.39-6.13-3.95-6.84-8.03-13.4-9.13-19.57-2.02-11.33,2.38-16.89,2.73-17.3-.33.45-4.19,6.06-.33,17.29,3.52,10.26,11.26,22.75,13.14,25.71h-.02Z"/>
              <path class="cls-58" d="M103.44,136.99c-3.51-5.28-9.06-8.57-17.23-9.71-.05,0-.09-.01-.14-.02,1.66-.05,3.33.12,4.97.48s3.26.91,4.81,1.7c1.55.79,3.02,1.81,4.32,3.08.58.57,1.14,1.19,1.64,1.85.62.81,1.17,1.69,1.63,2.63h0Z"/>
              <path class="cls-4" d="M104.17,140.64c-5.76-9.18-18.11-13.38-18.11-13.38.05,0,.09.01.14.02,4.32.6,7.9,1.8,10.84,3.58,2.63,1.59,4.74,3.64,6.39,6.13h0s.03.04.04.06c.12.17.23.35.34.52,0,0,.02.02.02.03v.02h.01c.06.09.11.18.16.27.08.91.13,1.83.15,2.72l.02.03Z"/>
              <g class="cls-24">
                <path class="cls-26" d="M86.06,127.26c1.94.91,3.72,2.26,5.35,3.81,1.63,1.56,3.07,3.37,4.3,5.38l.23.38c.08.13.15.25.22.38l.43.78c.14.26.27.53.4.8.07.13.13.27.2.4l.18.41c.5,1.09.92,2.22,1.3,3.38.17.58.36,1.16.5,1.76.07.3.15.59.22.89l.19.9.09.45c.03.15.05.3.08.45l.15.91c.09.61.15,1.22.22,1.83h0s0,0,0,0l-.14-.91-.07-.45-.03-.23-.04-.23-.17-.9c-.03-.15-.06-.3-.09-.45l-.1-.44-.2-.89c-.07-.29-.16-.59-.24-.88-.15-.59-.34-1.16-.52-1.73-.4-1.13-.81-2.26-1.31-3.33l-.18-.41c-.06-.13-.13-.26-.2-.4-.13-.26-.26-.53-.4-.79l-.43-.77c-.14-.26-.3-.5-.45-.75-.61-.99-1.26-1.95-1.97-2.85-.71-.9-1.47-1.74-2.26-2.53s-1.63-1.53-2.5-2.19c-.87-.67-1.78-1.28-2.73-1.78h-.03Z"/>
              </g>
              <path class="cls-18" d="M100.11,150.17h-4.55c.08-8.75-6.01-18.18-9.49-22.91,0,0,12.06,5.44,14.04,22.9h0Z"/>
              <path class="cls-15" d="M115.79,150.17h-4.37c-.22-10.86-1.99-21.64-7.23-27.66-13.33-15.29-13.56-28.53-13.56-28.53h.04c2.4,2.6,5.8,5.06,13.08,10.55h0c.05.04.45.38,1.1.86h0c2.48,2.13,4.4,5.32,5.88,9.02h0c5.66,14.1,5.05,35.75,5.05,35.75h.01Z"/>
              <path class="cls-48" d="M105.13,104.91h0s.02,0,.03.01h-.03Z"/>
              <polygon class="cls-53" points="111.32 114.42 111.27 114.13 111.32 114.27 111.32 114.42"/>
              <path class="cls-52" d="M115.79,150.17c-.08-3.05-.24-6.08-.48-9.1-.11-1.51-.25-3.02-.41-4.52s-.33-3-.54-4.5c-.21-1.49-.43-2.98-.69-4.46-.26-1.48-.57-2.94-.89-4.4-.34-1.45-.71-2.89-1.13-4.31-.43-1.41-.9-2.8-1.43-4.16h0s0-.02-.01-.03c-.34-.84-.7-1.66-1.09-2.46-.4-.81-.83-1.6-1.29-2.35-.93-1.51-2.01-2.88-3.26-3.99h-.01l-.52-.42-.28-.22-.14-.11-.07-.06-.03-.03h-.02v-.02h-.01s-3.28-2.59-3.28-2.59c-1.1-.87-2.19-1.75-3.28-2.63-1.09-.89-2.17-1.8-3.23-2.74-.53-.48-1.04-.97-1.55-1.47-.5-.51-.99-1.04-1.46-1.6h-.04.04c2.4,2.61,5.8,5.07,13.08,10.56h0c.05.04.45.38,1.1.86h0c2.48,2.13,4.4,5.32,5.88,9.02h0c5.66,14.1,5.05,35.75,5.05,35.75v-.02Z"/>
              <g class="cls-24">
                <path class="cls-54" d="M111.43,150.17l-.04-.98-.05-.98c-.04-.65-.07-1.31-.12-1.96-.09-1.31-.21-2.61-.36-3.91-.29-2.6-.71-5.17-1.31-7.69-.61-2.51-1.4-4.96-2.48-7.23-.54-1.13-1.15-2.21-1.85-3.21-.09-.12-.17-.25-.26-.37l-.28-.36c-.18-.24-.38-.47-.57-.7l-1.18-1.39c-3.12-3.76-5.91-7.94-8.1-12.53-.55-1.14-1.05-2.33-1.52-3.52-.47-1.2-.89-2.42-1.26-3.66-.37-1.24-.68-2.51-.92-3.79-.25-1.28-.43-2.59-.47-3.9h.04-.04c.04.65.12,1.3.23,1.95.1.64.22,1.28.36,1.92.28,1.27.62,2.51,1.02,3.74.39,1.23.83,2.43,1.31,3.6.49,1.17,1,2.33,1.57,3.46,1.12,2.25,2.38,4.41,3.74,6.47,1.36,2.06,2.83,4.02,4.38,5.89l1.17,1.39c.2.24.4.47.58.72l.28.37c.09.13.18.26.27.38.71,1.03,1.35,2.13,1.89,3.3,1.08,2.32,1.88,4.82,2.44,7.37.57,2.55.95,5.15,1.19,7.77.12,1.31.2,2.62.26,3.93.03.66.05,1.31.07,1.97l.02.98v.98h0Z"/>
              </g>
              <path class="cls-9" d="M90.66,93.95s-.02.03-.05.07c-.51.33-3.48,2.29-7.31,5.44-4.49,3.69-10.15,9.01-14.36,15.25-2.05,3.04-3.76,6.29-4.82,9.68-.1-.05-.2-.1-.3-.15-.64-.34-1.22-.69-1.77-1.06.37-1.04.76-2.09,1.17-3.15,1.07-2.78,2.5-5.32,4.17-7.66,4.26-5.95,10.1-10.52,15.66-14.05h.01c2.66-1.68,5.26-3.12,7.59-4.36h0Z"/>
              <path class="cls-55" d="M118.09,100.79s.07.17.16.37c-.06-.11-.11-.23-.16-.37Z"/>
              <path class="cls-14" d="M122.17,95.69s-1.11.85-1.71,3.01-2.37,2.08-2.37,2.08c-1.26-3.74,4.09-5.09,4.09-5.09h0Z"/>
              <path class="cls-2" d="M110.74,114.42c-1.49-3.7-3.41-6.89-5.88-9.02.83.62,2.05,1.5,3.42,2.3.74,1.51,1.7,3.8,2.46,6.72Z"/>
              <path class="cls-21" d="M116.04,114.49c-1.84.66-3.64.51-5.3-.07h0c-.33-.83-.69-1.64-1.07-2.41,3.31,1.18,9.88,2.54,10.1-5.14h0c.34,3.05-.22,6.36-3.73,7.62Z"/>
              <g class="cls-24">
                <path class="cls-25" d="M109.67,112.01c1.07.32,2.15.58,3.24.71.55.06,1.09.1,1.64.07.54-.02,1.09-.09,1.61-.25.53-.15,1.04-.38,1.49-.72.46-.34.85-.79,1.16-1.31.31-.52.53-1.12.68-1.74.15-.62.22-1.27.27-1.92,0,.65-.05,1.31-.16,1.95-.13.64-.33,1.27-.64,1.83-.3.56-.72,1.04-1.19,1.41s-1.01.61-1.55.77c-1.1.31-2.23.29-3.33.12s-2.18-.5-3.22-.92h0Z"/>
              </g>
            </g>
          </g>
          <path class="cls-60" d="M55.36,152.4c4.32,0,6.76,2.54,6.76,5.98,0,2.29-1.38,4.13-3.23,4.76,2.16.53,3.91,2.5,3.91,5.26,0,3.6-2.69,6.2-6.86,6.2h-8.58v-22.2h8ZM54.7,161.58c1.97,0,3.16-1.1,3.16-2.79s-1.1-2.75-3.19-2.75h-3.04v5.54h3.07ZM55.14,171c2.1,0,3.35-1.1,3.35-2.88s-1.13-2.97-3.29-2.97h-3.57v5.86h3.51Z"/>
          <path class="cls-60" d="M67.35,151.56c1.44,0,2.57,1.16,2.57,2.6s-1.13,2.54-2.57,2.54-2.57-1.16-2.57-2.54,1.16-2.6,2.57-2.6ZM65.29,174.6v-15.4h4.16v15.4h-4.16Z"/>
          <path class="cls-60" d="M82.41,163.33c-.47-.09-.88-.12-1.25-.12-2.13,0-3.98,1.03-3.98,4.35v7.04h-4.16v-15.4h4.04v2.29c.94-2.04,3.07-2.41,4.38-2.41.34,0,.66.03.97.06v4.2h0Z"/>
          <path class="cls-60" d="M84.48,174.6v-15.4h3.98v1.88c.85-1.5,2.82-2.32,4.51-2.32,2.1,0,3.79.91,4.57,2.57,1.22-1.88,2.85-2.57,4.88-2.57,2.85,0,5.57,1.72,5.57,5.86v9.99h-4.04v-9.14c0-1.66-.81-2.91-2.72-2.91-1.78,0-2.85,1.38-2.85,3.04v9.02h-4.13v-9.14c0-1.66-.85-2.91-2.72-2.91s-2.88,1.35-2.88,3.04v9.02h-4.16v-.03Z"/>
          <path class="cls-60" d="M113.42,151.56c1.44,0,2.57,1.16,2.57,2.6s-1.13,2.54-2.57,2.54-2.57-1.16-2.57-2.54,1.16-2.6,2.57-2.6ZM111.35,174.6v-15.4h4.16v15.4s-4.16,0-4.16,0Z"/>
          <path class="cls-60" d="M123.25,174.6h-4.16v-15.4h4.04v1.91c.94-1.6,2.79-2.32,4.45-2.32,3.82,0,5.57,2.72,5.57,6.11v9.71h-4.16v-8.99c0-1.72-.85-3.07-2.85-3.07-1.82,0-2.88,1.41-2.88,3.19v8.86h0Z"/>
          <path class="cls-60" d="M139.16,174.44c.28,1.69,1.63,2.91,3.6,2.91,2.63,0,4.1-1.31,4.1-4.29v-1.13c-.63,1-2.07,1.97-4.29,1.97-4.1,0-7.17-3.16-7.17-7.48,0-4.07,2.94-7.51,7.17-7.51,2.44,0,3.85,1.06,4.38,2.1v-1.82h4.01v13.75c0,4.23-2.29,8.08-8.08,8.08-4.23,0-7.04-2.63-7.48-5.57l3.76-1h0ZM146.93,166.43c0-2.38-1.63-3.88-3.63-3.88s-3.69,1.5-3.69,3.88,1.53,3.91,3.69,3.91,3.63-1.53,3.63-3.91Z"/>
          <path class="cls-60" d="M158.49,174.6h-4.17v-22.67h4.17v8.55c1-1.19,2.69-1.69,4.16-1.69,3.91,0,5.73,2.72,5.73,6.11v9.71h-4.16v-8.99c0-1.72-.85-3.07-2.85-3.07-1.75,0-2.79,1.32-2.88,3.01v9.05h0Z"/>
          <path class="cls-60" d="M175.4,165.74l3.79-.56c.88-.12,1.16-.56,1.16-1.1,0-1.1-.85-2-2.6-2s-2.82,1.16-2.94,2.5l-3.7-.78c.25-2.41,2.47-5.07,6.61-5.07,4.88,0,6.7,2.76,6.7,5.86v7.58c0,.81.09,1.91.19,2.44h-3.82c-.09-.41-.16-1.25-.16-1.85-.78,1.22-2.25,2.29-4.54,2.29-3.29,0-5.29-2.22-5.29-4.63,0-2.76,2.04-4.29,4.6-4.67h0ZM180.34,168.37v-.69l-3.48.53c-1.06.16-1.91.75-1.91,1.94,0,.91.66,1.79,2,1.79,1.75,0,3.38-.85,3.38-3.57h0Z"/>
          <path class="cls-60" d="M187.74,174.6v-15.4h3.98v1.88c.85-1.5,2.82-2.32,4.51-2.32,2.1,0,3.79.91,4.57,2.57,1.22-1.88,2.85-2.57,4.88-2.57,2.85,0,5.57,1.72,5.57,5.86v9.99h-4.04v-9.14c0-1.66-.81-2.91-2.72-2.91-1.79,0-2.85,1.38-2.85,3.04v9.02h-4.13v-9.14c0-1.66-.85-2.91-2.72-2.91s-2.88,1.35-2.88,3.04v9.02h-4.17v-.03Z"/>
          <g>
            <g>
              <path class="cls-62" d="M72.46,142.45h4.31c-.08-3.8,5.69-7.9,8.99-9.96,0,0-11.43,2.36-13.3,9.95h0Z"/>
              <g class="cls-39">
                <path class="cls-12" d="M74.12,142.45h4.31c-.08-3.8,5.46-8.31,8.75-10.36,0,0-11.19,2.77-13.06,10.36h0Z"/>
              </g>
            </g>
            <g>
              <path class="cls-61" d="M75.89,142.45h-1.54c.03-3.17-2.04-6.58-3.22-8.3,0,0,4.09,1.97,4.77,8.29h0Z"/>
              <g class="cls-40">
                <path class="cls-13" d="M75.3,142.45h-1.54c.03-3.17-2.04-6.58-3.22-8.3,0,0,4.09,1.97,4.77,8.29h0Z"/>
              </g>
            </g>
            <g>
              <path class="cls-42" d="M75.45,142.45h-4.07c1.52-1.09,1.86-3.05-1.25-4.19,0,0,3.55-.02,5.32,4.19h0Z"/>
              <g class="cls-41">
                <path class="cls-10" d="M73.88,142.45h-4.07c.07-2.11,3.7-2.9.59-4.04,0,0,3.64.95,3.48,4.04h0Z"/>
              </g>
            </g>
          </g>
          <g>
            <path class="cls-29" d="M177,189.6c-.03-.14-.06-.4-.06-.63,0-1.76,1.32-3.35,3.64-3.35s3.6,1.48,3.6,3.21c0,1.33-.73,2.41-1.95,3.15l-1.98,1.22c-.43.29-.82.59-.96,1.06h4.95v1.73h-7.38c.01-1.76.62-3.15,2.41-4.24l1.66-1.03c.87-.54,1.25-1.12,1.25-1.85,0-.79-.53-1.5-1.63-1.5s-1.69.79-1.69,1.79c0,.19.03.37.06.55l-1.91-.1Z"/>
            <path class="cls-29" d="M186.51,187.29c.67-1,1.73-1.68,3.27-1.68,3.1,0,4.19,2.61,4.19,5.3s-1.09,5.29-4.19,5.29c-1.53,0-2.59-.67-3.27-1.68-.69-1.03-.89-2.29-.89-3.61s.2-2.59.89-3.63ZM189.78,194.46c1.88,0,2.21-2.06,2.21-3.54s-.33-3.54-2.21-3.54-2.18,2.08-2.18,3.54.3,3.54,2.18,3.54Z"/>
            <path class="cls-29" d="M195.36,189.6c-.03-.14-.06-.4-.06-.63,0-1.76,1.32-3.35,3.64-3.35s3.6,1.48,3.6,3.21c0,1.33-.73,2.41-1.95,3.15l-1.98,1.22c-.43.29-.82.59-.96,1.06h4.95v1.73h-7.38c.01-1.76.62-3.15,2.41-4.24l1.66-1.03c.87-.54,1.25-1.12,1.25-1.85,0-.79-.53-1.5-1.63-1.5s-1.69.79-1.69,1.79c0,.19.03.37.06.55l-1.91-.1Z"/>
            <path class="cls-29" d="M211.25,187.53c-.82.67-3.67,3.27-4.13,8.46h-2.05c.44-5.58,3.9-8.44,3.9-8.44h-5.35v-1.72h7.63v1.71Z"/>
          </g>
        </g>
      </g>
    </g>
  </g>
</svg>