<?xml version="1.0" encoding="UTF-8"?>
<svg id="Layer_1" xmlns="http://www.w3.org/2000/svg" xmlns:xlink="http://www.w3.org/1999/xlink" version="1.1" viewBox="-0.33 5 138.18 94.67">
  <!-- Generator: Adobe Illustrator 29.0.0, SVG Export Plug-In . SVG Version: 2.1.0 Build 186)  -->
  <defs>
    <style>
      .st0 {
        fill: none;
      }

      .st1 {
        fill: #549a5b;
      }

      .st1, .st2, .st3, .st4, .st5, .st6, .st7, .st8, .st9, .st10, .st11, .st12, .st13, .st14, .st15, .st16, .st17, .st18, .st19, .st20, .st21, .st22 {
        isolation: isolate;
      }

      .st23 {
        fill: url(#linear-gradient2);
      }

      .st24 {
        fill: url(#linear-gradient1);
      }

      .st25 {
        fill: url(#linear-gradient9);
      }

      .st26 {
        fill: url(#linear-gradient3);
      }

      .st27 {
        fill: url(#linear-gradient6);
      }

      .st28 {
        fill: url(#linear-gradient8);
      }

      .st29 {
        fill: url(#linear-gradient7);
      }

      .st30 {
        fill: url(#linear-gradient4);
      }

      .st31 {
        fill: url(#linear-gradient32);
      }

      .st32 {
        fill: url(#linear-gradient34);
      }

      .st33 {
        fill: url(#linear-gradient37);
      }

      .st34 {
        fill: url(#linear-gradient35);
      }

      .st35 {
        fill: url(#linear-gradient33);
      }

      .st36 {
        fill: url(#linear-gradient28);
      }

      .st37 {
        fill: url(#linear-gradient13);
      }

      .st38 {
        fill: url(#linear-gradient15);
      }

      .st39 {
        fill: url(#linear-gradient16);
      }

      .st40 {
        fill: url(#linear-gradient11);
      }

      .st41 {
        fill: url(#linear-gradient10);
      }

      .st42 {
        fill: url(#linear-gradient14);
      }

      .st43 {
        fill: url(#linear-gradient25);
      }

      .st44 {
        fill: url(#linear-gradient21);
      }

      .st45 {
        fill: url(#linear-gradient26);
      }

      .st46 {
        fill: url(#radial-gradient);
      }

      .st47 {
        fill: url(#linear-gradient);
      }

      .st3 {
        fill: url(#linear-gradient5);
      }

      .st3, .st4, .st5, .st6, .st7, .st8, .st20, .st21, .st22 {
        mix-blend-mode: multiply;
      }

      .st3, .st9, .st10, .st11, .st12, .st13, .st14, .st15, .st16, .st19, .st48, .st20, .st21, .st22 {
        opacity: .5;
      }

      .st4 {
        fill: url(#linear-gradient19);
      }

      .st5 {
        fill: url(#linear-gradient27);
      }

      .st6 {
        fill: url(#linear-gradient23);
      }

      .st7 {
        fill: url(#linear-gradient22);
      }

      .st8 {
        fill: url(#linear-gradient36);
      }

      .st9 {
        fill: url(#linear-gradient40);
      }

      .st9, .st10, .st11, .st12, .st13, .st14, .st15, .st16, .st19, .st48 {
        mix-blend-mode: overlay;
      }

      .st10 {
        fill: url(#linear-gradient31);
      }

      .st11 {
        fill: url(#linear-gradient30);
      }

      .st12 {
        fill: url(#linear-gradient38);
      }

      .st13 {
        fill: url(#linear-gradient24);
      }

      .st14 {
        fill: url(#linear-gradient20);
      }

      .st15 {
        fill: url(#linear-gradient17);
      }

      .st16 {
        fill: url(#linear-gradient12);
      }

      .st49 {
        clip-path: url(#clippath-1);
      }

      .st50 {
        clip-path: url(#clippath-3);
      }

      .st51 {
        clip-path: url(#clippath-2);
      }

      .st17 {
        fill: #54b65b;
      }

      .st18 {
        fill: #54a55b;
      }

      .st52 {
        fill: #a4ff74;
      }

      .st53 {
        fill: #040303;
      }

      .st19 {
        fill: url(#radial-gradient1);
      }

      .st54 {
        fill: url(#radial-gradient3);
      }

      .st55 {
        fill: url(#radial-gradient2);
      }

      .st56 {
        fill: url(#radial-gradient5);
      }

      .st57 {
        fill: url(#radial-gradient4);
      }

      .st58 {
        fill: #67de74;
      }

      .st20 {
        fill: url(#linear-gradient39);
      }

      .st21 {
        fill: url(#linear-gradient29);
      }

      .st22 {
        fill: url(#linear-gradient18);
      }

      .st59 {
        fill: #86ec74;
      }

      .st60 {
        clip-path: url(#clippath);
      }
    </style>
    <clipPath id="clippath">
      <rect class="st0" width="140.1" height="99.2"/>
    </clipPath>
    <linearGradient id="linear-gradient" x1="3.2" y1="1249.2" x2="137.1" y2="1249.2" gradientTransform="translate(0 -1176.7)" gradientUnits="userSpaceOnUse">
      <stop offset="0" stop-color="#3b165b"/>
      <stop offset=".8" stop-color="#763089"/>
    </linearGradient>
    <radialGradient id="radial-gradient" cx="80.7" cy="1238.3" fx="80.7" fy="1238.3" r="0" gradientTransform="translate(-10.5 -1176.7) scale(.9 1)" gradientUnits="userSpaceOnUse">
      <stop offset="0" stop-color="#fff"/>
      <stop offset="1" stop-color="#fff"/>
    </radialGradient>
    <linearGradient id="linear-gradient1" x1="200.2" y1="1191.5" x2="191.9" y2="1208.6" gradientTransform="translate(-80.7 -1176.7) scale(.6 1)" gradientUnits="userSpaceOnUse">
      <stop offset="0" stop-color="#ffed00"/>
      <stop offset="1" stop-color="#e73f14"/>
    </linearGradient>
    <linearGradient id="linear-gradient2" x1="131.3" y1="1257.7" x2="188.4" y2="1257.7" gradientTransform="translate(-80.7 -1176.7) scale(.6 1)" gradientUnits="userSpaceOnUse">
      <stop offset="0" stop-color="#7b509b"/>
      <stop offset="1" stop-color="#bb6ba9"/>
    </linearGradient>
    <linearGradient id="linear-gradient3" x1="146.1" y1="1199.7" x2="215.4" y2="1199.7" gradientTransform="translate(-80.7 -1176.7) scale(.6 1)" gradientUnits="userSpaceOnUse">
      <stop offset="0" stop-color="#ffed00"/>
      <stop offset="1" stop-color="#e73f14"/>
    </linearGradient>
    <linearGradient id="linear-gradient4" x1="183.7" y1="1216" x2="128.4" y2="1264" gradientTransform="translate(-80.7 -1176.7) scale(.6 1)" gradientUnits="userSpaceOnUse">
      <stop offset="0" stop-color="#f7a80c"/>
      <stop offset="1" stop-color="#e52412"/>
    </linearGradient>
    <linearGradient id="linear-gradient5" x1="129" y1="1209.3" x2="211.5" y2="1216.8" gradientTransform="translate(-80.7 -1176.7) scale(.6 1)" gradientUnits="userSpaceOnUse">
      <stop offset="0" stop-color="#f7a80c"/>
      <stop offset="1" stop-color="#e52412"/>
    </linearGradient>
    <linearGradient id="linear-gradient6" x1="188.4" y1="1248.9" x2="221.2" y2="1248.9" gradientTransform="translate(-80.7 -1176.7) scale(.6 1)" gradientUnits="userSpaceOnUse">
      <stop offset="0" stop-color="#d00010"/>
      <stop offset="1" stop-color="#5d2283"/>
    </linearGradient>
    <linearGradient id="linear-gradient7" x1="154.6" y1="1253" x2="173.3" y2="1253" gradientTransform="translate(-80.7 -1176.7) scale(.6 1)" gradientUnits="userSpaceOnUse">
      <stop offset="0" stop-color="#c0137d"/>
      <stop offset="1" stop-color="#5d2283"/>
    </linearGradient>
    <linearGradient id="linear-gradient8" x1="181.9" y1="1238.4" x2="174.1" y2="1280.9" gradientTransform="translate(-80.7 -1176.7) scale(.6 1)" gradientUnits="userSpaceOnUse">
      <stop offset="0" stop-color="#7b509b"/>
      <stop offset="1" stop-color="#bb6ba9"/>
    </linearGradient>
    <linearGradient id="linear-gradient9" x1="207.8" y1="1270.2" x2="209.3" y2="1284.8" gradientTransform="translate(-80.7 -1176.7) scale(.6 1)" gradientUnits="userSpaceOnUse">
      <stop offset="0" stop-color="#7b509b"/>
      <stop offset="1" stop-color="#245eaa"/>
    </linearGradient>
    <linearGradient id="linear-gradient10" x1="223.5" y1="1238.7" x2="251.3" y2="1238.7" gradientTransform="translate(-80.7 -1176.7) scale(.6 1)" gradientUnits="userSpaceOnUse">
      <stop offset="0" stop-color="#3ab8eb"/>
      <stop offset="1" stop-color="#1566b1"/>
    </linearGradient>
    <linearGradient id="linear-gradient11" x1="211" y1="1235.5" x2="237.3" y2="1288.7" gradientTransform="translate(-80.7 -1176.7) scale(.6 1)" gradientUnits="userSpaceOnUse">
      <stop offset="0" stop-color="#7b509b"/>
      <stop offset="1" stop-color="#245eaa"/>
    </linearGradient>
    <linearGradient id="linear-gradient12" x1="206.5" y1="1201" x2="139.5" y2="1259.1" gradientTransform="translate(-80.7 -1176.7) scale(.6 1)" gradientUnits="userSpaceOnUse">
      <stop offset="0" stop-color="#fff"/>
      <stop offset="1" stop-color="#fff"/>
    </linearGradient>
    <radialGradient id="radial-gradient1" cx="-60.5" cy="1215.9" fx="-60.5" fy="1215.9" r="18.5" gradientTransform="translate(0 -1176.7)" gradientUnits="userSpaceOnUse">
      <stop offset="0" stop-color="#fff"/>
      <stop offset="1" stop-color="#fff"/>
    </radialGradient>
    <radialGradient id="radial-gradient2" cx="-64" cy="1222.3" fx="-64" fy="1222.3" r="21.5" gradientTransform="translate(0 -1176.7)" gradientUnits="userSpaceOnUse">
      <stop offset="0" stop-color="#fff"/>
      <stop offset="1" stop-color="#fff"/>
    </radialGradient>
    <linearGradient id="linear-gradient13" x1="161.8" y1="1240.3" x2="121.2" y2="1264.6" gradientTransform="translate(-80.7 -1176.7) scale(.6 1)" gradientUnits="userSpaceOnUse">
      <stop offset="0" stop-color="#f7a80c"/>
      <stop offset="1" stop-color="#e52412"/>
    </linearGradient>
    <linearGradient id="linear-gradient14" x1="176.3" y1="1198.6" x2="148.9" y2="1215" gradientTransform="translate(-80.7 -1176.7) scale(.6 1)" gradientUnits="userSpaceOnUse">
      <stop offset="0" stop-color="#ffed00"/>
      <stop offset="1" stop-color="#e73f14"/>
    </linearGradient>
    <linearGradient id="linear-gradient15" x1="187.3" y1="1197.9" x2="86.8" y2="1175.3" gradientTransform="translate(-80.7 -1176.7) scale(.6 1)" gradientUnits="userSpaceOnUse">
      <stop offset="0" stop-color="#f7a80c"/>
      <stop offset="1" stop-color="#e52412"/>
    </linearGradient>
    <linearGradient id="linear-gradient16" x1="200.7" y1="1193.4" x2="192.1" y2="1203.9" gradientTransform="translate(-80.7 -1176.7) scale(.6 1)" gradientUnits="userSpaceOnUse">
      <stop offset="0" stop-color="#fff"/>
      <stop offset="1" stop-color="#fff"/>
    </linearGradient>
    <linearGradient id="linear-gradient17" x1="201.7" y1="1194.5" x2="193.3" y2="1204.7" gradientTransform="translate(-80.7 -1176.7) scale(.6 1)" gradientUnits="userSpaceOnUse">
      <stop offset="0" stop-color="#fff"/>
      <stop offset="1" stop-color="#fff"/>
    </linearGradient>
    <linearGradient id="linear-gradient18" x1="188.5" y1="1203.9" x2="198.3" y2="1203.9" gradientTransform="translate(-80.7 -1176.7) scale(.6 1)" gradientUnits="userSpaceOnUse">
      <stop offset="0" stop-color="#f7a80c"/>
      <stop offset="1" stop-color="#e52412"/>
    </linearGradient>
    <linearGradient id="linear-gradient19" x1="100" y1="1278" x2="187.4" y2="1225.1" gradientTransform="translate(-80.7 -1176.7) scale(.6 1)" gradientUnits="userSpaceOnUse">
      <stop offset="0" stop-color="#7b509b"/>
      <stop offset="1" stop-color="#bb6ba9"/>
    </linearGradient>
    <linearGradient id="linear-gradient20" x1="185.4" y1="1227.2" x2="132.1" y2="1283.2" gradientTransform="translate(-80.7 -1176.7) scale(.6 1)" gradientUnits="userSpaceOnUse">
      <stop offset="0" stop-color="#fff"/>
      <stop offset="1" stop-color="#fff"/>
    </linearGradient>
    <linearGradient id="linear-gradient21" x1="149.9" y1="1296.6" x2="163.2" y2="1262.2" gradientTransform="translate(-80.7 -1176.7) scale(.6 1)" gradientUnits="userSpaceOnUse">
      <stop offset="0" stop-color="#7b509b"/>
      <stop offset="1" stop-color="#bb6ba9"/>
    </linearGradient>
    <radialGradient id="radial-gradient3" cx="-76.4" cy="1257.7" fx="-76.4" fy="1257.7" r="23.5" gradientTransform="translate(0 -1176.7)" gradientUnits="userSpaceOnUse">
      <stop offset="0" stop-color="#fff"/>
      <stop offset="1" stop-color="#fff"/>
    </radialGradient>
    <linearGradient id="linear-gradient22" x1="179.3" y1="1221.8" x2="140.2" y2="1262.9" gradientTransform="translate(-80.7 -1176.7) scale(.6 1)" gradientUnits="userSpaceOnUse">
      <stop offset="0" stop-color="#7b509b"/>
      <stop offset="1" stop-color="#bb6ba9"/>
    </linearGradient>
    <linearGradient id="linear-gradient23" x1="163.4" y1="1258.9" x2="169.6" y2="1250.8" gradientTransform="translate(-80.7 -1176.7) scale(.6 1)" gradientUnits="userSpaceOnUse">
      <stop offset="0" stop-color="#7b509b"/>
      <stop offset="1" stop-color="#bb6ba9"/>
    </linearGradient>
    <linearGradient id="linear-gradient24" x1="160.9" y1="1295.1" x2="201.4" y2="1242.4" gradientTransform="translate(-80.7 -1176.7) scale(.6 1)" gradientUnits="userSpaceOnUse">
      <stop offset="0" stop-color="#fff"/>
      <stop offset="1" stop-color="#fff"/>
    </linearGradient>
    <linearGradient id="linear-gradient25" x1="187.6" y1="1290.1" x2="191.8" y2="1232.6" gradientTransform="translate(-80.7 -1176.7) scale(.6 1)" gradientUnits="userSpaceOnUse">
      <stop offset="0" stop-color="#7b509b"/>
      <stop offset="1" stop-color="#bb6ba9"/>
    </linearGradient>
    <linearGradient id="linear-gradient26" x1="168" y1="1276.5" x2="197.6" y2="1238" gradientTransform="translate(-80.7 -1176.7) scale(.6 1)" gradientUnits="userSpaceOnUse">
      <stop offset="0" stop-color="#fff"/>
      <stop offset="1" stop-color="#fff"/>
    </linearGradient>
    <linearGradient id="linear-gradient27" x1="205.9" y1="1251.2" x2="194.5" y2="1222.3" gradientTransform="translate(-80.7 -1176.7) scale(.6 1)" gradientUnits="userSpaceOnUse">
      <stop offset="0" stop-color="#7b509b"/>
      <stop offset="1" stop-color="#bb6ba9"/>
    </linearGradient>
    <linearGradient id="linear-gradient28" x1="209.3" y1="1266.5" x2="223.8" y2="1275.9" gradientTransform="translate(-80.7 -1176.7) scale(.6 1)" gradientUnits="userSpaceOnUse">
      <stop offset="0" stop-color="#c0137d"/>
      <stop offset="1" stop-color="#5d2283"/>
    </linearGradient>
    <linearGradient id="linear-gradient29" x1="208.1" y1="1272.9" x2="209.1" y2="1282.2" gradientTransform="translate(-80.7 -1176.7) scale(.6 1)" gradientUnits="userSpaceOnUse">
      <stop offset="0" stop-color="#7b509b"/>
      <stop offset="1" stop-color="#245eaa"/>
    </linearGradient>
    <radialGradient id="radial-gradient4" cx="-40.1" cy="1270.7" fx="-40.1" fy="1270.7" r="22.9" gradientTransform="translate(0 -1176.7)" gradientUnits="userSpaceOnUse">
      <stop offset="0" stop-color="#fff"/>
      <stop offset="1" stop-color="#fff"/>
    </radialGradient>
    <linearGradient id="linear-gradient30" x1="207.9" y1="1282.6" x2="199.6" y2="1257.6" gradientTransform="translate(-80.7 -1176.7) scale(.6 1)" gradientUnits="userSpaceOnUse">
      <stop offset="0" stop-color="#fff"/>
      <stop offset="1" stop-color="#fff"/>
    </linearGradient>
    <linearGradient id="linear-gradient31" x1="200.9" y1="1194.9" x2="248.3" y2="1323.1" gradientTransform="translate(-80.7 -1176.7) scale(.6 1)" gradientUnits="userSpaceOnUse">
      <stop offset="0" stop-color="#fff"/>
      <stop offset="1" stop-color="#fff"/>
    </linearGradient>
    <linearGradient id="linear-gradient32" x1="234" y1="1300.9" x2="223.2" y2="1235.3" gradientTransform="translate(-80.7 -1176.7) scale(.6 1)" gradientUnits="userSpaceOnUse">
      <stop offset="0" stop-color="#7b509b"/>
      <stop offset="1" stop-color="#bb6ba9"/>
    </linearGradient>
    <linearGradient id="linear-gradient33" x1="241.6" y1="1296.2" x2="231.4" y2="1234.4" gradientTransform="translate(-80.7 -1176.7) scale(.6 1)" gradientUnits="userSpaceOnUse">
      <stop offset="0" stop-color="#7b509b"/>
      <stop offset="1" stop-color="#bb6ba9"/>
    </linearGradient>
    <linearGradient id="linear-gradient34" x1="228.4" y1="1298.4" x2="218.1" y2="1235.6" gradientTransform="translate(-80.7 -1176.7) scale(.6 1)" gradientUnits="userSpaceOnUse">
      <stop offset="0" stop-color="#7b509b"/>
      <stop offset="1" stop-color="#bb6ba9"/>
    </linearGradient>
    <linearGradient id="linear-gradient35" x1="207" y1="1224.7" x2="229.4" y2="1285.4" gradientTransform="translate(-80.7 -1176.7) scale(.6 1)" gradientUnits="userSpaceOnUse">
      <stop offset="0" stop-color="#fff"/>
      <stop offset="1" stop-color="#fff"/>
    </linearGradient>
    <linearGradient id="linear-gradient36" x1="149.1" y1="1278.2" x2="192.4" y2="1221.8" gradientTransform="translate(-80.7 -1176.7) scale(.6 1)" gradientUnits="userSpaceOnUse">
      <stop offset="0" stop-color="#7b509b"/>
      <stop offset="1" stop-color="#bb6ba9"/>
    </linearGradient>
    <linearGradient id="linear-gradient37" x1="244.7" y1="1234.4" x2="244.8" y2="1234.2" gradientTransform="translate(-80.7 -1176.7) scale(.6 1)" gradientUnits="userSpaceOnUse">
      <stop offset="0" stop-color="#7b509b"/>
      <stop offset="1" stop-color="#bb6ba9"/>
    </linearGradient>
    <linearGradient id="linear-gradient38" x1="243" y1="1236.9" x2="249.8" y2="1228" gradientTransform="translate(-80.7 -1176.7) scale(.6 1)" gradientUnits="userSpaceOnUse">
      <stop offset="0" stop-color="#fff"/>
      <stop offset="1" stop-color="#fff"/>
    </linearGradient>
    <linearGradient id="linear-gradient39" x1="226.9" y1="1244.7" x2="229.4" y2="1241.4" gradientTransform="translate(-80.7 -1176.7) scale(.6 1)" gradientUnits="userSpaceOnUse">
      <stop offset="0" stop-color="#3ab8eb"/>
      <stop offset="1" stop-color="#1566b1"/>
    </linearGradient>
    <linearGradient id="linear-gradient40" x1="231.7" y1="1254.3" x2="244.3" y2="1238" gradientTransform="translate(-80.7 -1176.7) scale(.6 1)" gradientUnits="userSpaceOnUse">
      <stop offset="0" stop-color="#fff"/>
      <stop offset="1" stop-color="#fff"/>
    </linearGradient>
    <radialGradient id="radial-gradient5" cx="-17.1" cy="1246.1" fx="-17.1" fy="1246.1" r="6.1" gradientTransform="translate(0 -1176.7)" gradientUnits="userSpaceOnUse">
      <stop offset="0" stop-color="#fff"/>
      <stop offset="1" stop-color="#fff"/>
    </radialGradient>
    <clipPath id="clippath-1">
      <path class="st0" d="M25.3,99.2h4.3c0-3.8,5.7-7.9,9-10,0,0-11.4,2.4-13.3,10h0Z"/>
    </clipPath>
    <clipPath id="clippath-2">
      <path class="st0" d="M28.7,99.2h-1.5c0-3.2-2-6.6-3.2-8.3,0,0,4.1,2,4.8,8.3h0Z"/>
    </clipPath>
    <clipPath id="clippath-3">
      <path class="st0" d="M28.3,99.2h-4.1c1.5-1.1,1.9-3.1-1.2-4.2,0,0,3.5,0,5.3,4.2Z"/>
    </clipPath>
  </defs>
  <g class="st2">
    <g id="Layer_2">
      <g id="Layer_1-2">
        <g id="Layer_1-3">
          <g class="st60">
            <g>
              <path class="st47" d="M70.1,5.6C33.2,5.6,3.2,35.6,3.2,72.5s10.9,42,27.6,54.2h0c6.8,4.9,14.2,8.4,22.1,10.6,5.6,1.5,11.3,2.2,17.2,2.2s12.8-.9,18.9-2.7c7.2-2.1,14.2-5.6,20.3-10.1h.1c16.7-12.2,27.7-31.9,27.7-54.2,0-36.9-30-66.9-66.9-66.9h0ZM70.1,10.5c33.8,0,61.4,27.2,62,60.9-2.9.6-5.8.9-8.8,1.1-.4-9.7-3-19.1-7.6-27.5.3.4.7.8,1,1.2,3.5,4.4,5.7,8,5.7,8.1l4.2-2.5c0-.2-2.4-3.9-6.1-8.5-3.3-4.2-7-7.2-7.9-8-1.1-2.8-3-5.7-5.4-8.2-5.2-5.2-11.6-7.4-16-5.9-9.5-4.9-20.2-7.7-29.5-7.7s-2.4,0-3.5.1c0-.6,0-1.2,0-1.8,3.8-.8,7.8-1.1,11.9-1.1h0,0ZM75.9,42.8l10.1-11.6-11.8-11.2-3.4,3.5,4.8,4.5c-1.3,0-2.6-.1-3.9-.1-3.7,0-7.2.3-10.7.9-1.1-3.4-1.8-7-2.3-10.6,1,0,2.1,0,3.1,0,8,0,17.1,2.3,25.5,6.3-1,2-1.1,4.5-.3,7.3.6,2.1,1.6,4.2,3,6.2l-13.4,16.6c-6-5.9-10.8-13-14-21,2.9-.5,5.9-.7,9-.7s4.1.1,6.1.3l-5.6,6.4,3.7,3.2h0ZM93.3,41.7c1.9,1.9,4.1,3.4,6.2,4.4,2.1,6.8,3.3,14.1,3.3,19.9s0,2.6-.1,3.9c-8.3-2.5-15.9-6.6-22.4-12.1l13-16.1h0ZM92.1,26.1c.5-.5,1.2-.7,2.2-.7,2.5,0,6.2,1.7,9.5,5,2.3,2.3,4,5,4.6,7.4.6,2,.4,3.5-.4,4.3-.8.8-2.4.9-4.3.4-2.4-.7-5.1-2.4-7.4-4.6-2.3-2.3-4-5-4.6-7.4-.5-2-.4-3.5.4-4.3h0ZM77.2,61.7c7.2,6.1,15.7,10.6,25,13.2-1.2,8.6-4.2,16.8-8.6,24-10.4-4-20.5-9.7-29.9-16.7-.6-.5-1.2-1-1.8-1.5l15.4-19.1h0ZM107,76c3.7.8,7.6,1.2,11.5,1.3-.4,9.5-3.1,18.6-7.9,26.6-4.1-.9-8.3-2-12.3-3.4,4.4-7.4,7.4-15.8,8.7-24.5h0ZM107.5,71.2c.1-1.7.2-3.4.2-5.1,0-5.4-1-12-2.7-18.4.3,0,.6,0,.8,0,1.9,0,3.6-.6,4.9-1.6,4.7,8,7.3,16.9,7.7,26.3-3.8-.1-7.4-.5-11-1.3h0ZM73.6,58.4l-15.5,19.3c-3.7-3.1-7.1-6.4-10.4-9.9l10.5.8.4-4.9-19.3-1.5.6,18.9,4.9-.2-.3-9.4c3.3,3.5,6.8,6.8,10.6,10l-19.1,23.7c-9.1-7.4-15.9-17.4-19.6-28.7,2.3-9.3,6.8-17.7,13-24.6,1.5,2.4,3,4.7,4.7,7.1l4-2.9c-1.8-2.6-3.5-5.2-5.1-7.8,7-6.5,15.5-11.3,25-13.7,3.5,9,8.9,17.1,15.8,23.8,0,0,0,0,0,0ZM53.4,12.8c0,.4,0,.7,0,1.1-2.5.4-5,.9-7.5,1.5,2.4-1,4.9-1.9,7.5-2.6ZM53.9,18.8c.5,3.8,1.3,7.6,2.4,11.2-9.8,2.5-18.6,7.4-25.9,13.9-2.1-3.9-4-8-5.5-12,8.3-7.1,18.3-11.6,29-13.1h0ZM14.1,45.8c1.8-3.9,4.1-7.5,6.7-10.9,1.7,4.2,3.6,8.4,5.9,12.5-5.4,5.7-9.7,12.5-12.6,19.9-.6-3.3-.9-6.8-.9-10.2s.3-7.6,1-11.2h-.1s0,0,0,0ZM9.9,87.4c-1.2-4.8-1.8-9.7-1.8-14.8s.2-5.9.6-8.7c.4,4.4,1.3,8.7,2.6,12.9-.8,3.5-1.2,7-1.4,10.7h0ZM105.8,123.3c-.2.1-.4.3-.6.4-.2.1-.4.3-.6.4-.3.2-.5.4-.8.5-.1,0-.2.2-.3.2-.3.2-.6.4-.9.6,0,0-.2,0-.2.1-.3.2-.7.4-1,.6,0,0,0,0,0,0-4.3,2.5-8.9,4.5-13.5,5.9-5.7,1.7-11.6,2.5-17.5,2.5s-10.7-.7-15.9-2.1c-7.9-2.1-15.3-5.8-22-10.9-9.3-7.2-15.8-16.9-20.6-27.9l-2-4.7h0c0-1,2.9-6.8,2.9-7.8s2.3,4.7,2.3,4.7c4.2,8.9,10.4,16.8,18,23l-2.8,3.4,3.8,3.1,2.8-3.5c6.6,4.6,14.1,8.1,22.3,10.2l1.2-4.8c-7.5-1.9-14.4-5.1-20.4-9.3l19-23.5c.7.5,1.3,1.1,2,1.6,9.4,7.1,19.5,12.8,30,16.9-4.6,6.2-10.2,11.6-16.8,15.6l.3-11.7h-4.9c0-.1-.5,18.3-.5,18.3l18,.4v-4.9c.1,0-7.1-.2-7.1-.2,6.1-4.3,11.4-9.7,15.7-15.8,4,1.4,8.1,2.6,12.2,3.5-.2.3-.4.6-.7,1l3.9,2.9c.7-.9,1.4-1.9,2-2.8,2.1.4,4.2.7,6.3.9-3.8,5-8.4,9.3-13.5,12.9h0s0,0,0,0ZM122.5,105.8c-2.2-.2-4.5-.5-6.7-.8,4.7-8.4,7.3-17.8,7.7-27.6,2.9-.1,5.8-.5,8.6-1-.6,10.8-4.1,20.8-9.6,29.5Z"/>
              <path class="st53" d="M75,52.4s-1.1.8-1.7,3-2.4,2.1-2.4,2.1h0s0,.2.2.4h0c.4.9,1.2,3.2,1.5,5.7.3,3-.2,6.4-3.7,7.6-1.8.7-3.6.5-5.3,0,5.7,14.1,5,35.8,5,35.8h-7.9c-.6-4.8-1.9-8.9-3.9-12.3,0,.9.1,1.8.2,2.7,0,1.8,0,3.5,0,4.9-.2,2.7-.4,4.6-.4,4.6h-8.1c0-8.8-6-18.2-9.5-22.9,0,.4,0,.8,0,1.2v5.8c0,.2,0,.3,0,.5h0c0,.2,0,.4,0,.5h0c0,.2,0,.4,0,.5h0c0,.2,0,.4,0,.5h0c0,.2,0,.3,0,.5h0c0,.2,0,.3,0,.5h0c0,2.5-.2,4.7-.3,6.6h0c0,.1,0,.2,0,.4h0c0,.1,0,.2,0,.4h0c0,.1,0,.2,0,.3h0c0,.1,0,.2,0,.3h0c0,.1,0,.2,0,.3h0c0,.1,0,.2,0,.3h0c0,.1,0,.2,0,.3h0c0,.2,0,.2,0,.2,0,0,0,.1,0,.2h0c-.2,2.2-.3,3.4-.3,3.4h-8.9c0-9.8-1-17.5-2.5-23.4-.8,0-1.6-.1-2.3-.2-2.9-.4-5.3-1.2-7.3-2.2-.1,0-.2,0-.3-.2-.6-.3-1.2-.7-1.8-1.1,0,.2-.2.4-.2.7s0,.2-.1.3c0,.1,0,.2-.1.3,0,.1,0,.3-.1.4,0,0,0,.2,0,.3,0,.1,0,.3-.1.4,0,0,0,.2,0,.2,0,.1,0,.3-.1.4,0,0,0,.2,0,.2,0,.2,0,.3-.1.4,0,0,0,.1,0,.2,0,.2-.1.3-.1.5,0,0,0,.1,0,.2,0,.2-.1.3-.1.5,0,0,0,.1,0,.2,0,.2-.1.3-.1.5,0,0,0,.1,0,.2,0,.2-.1.3-.1.5v.2c-.1.2-.2.3-.2.5,0,0,0,0,0,.1,0,.2-.1.3-.1.5,0,0,0,0,0,.1,0,.2-.1.3-.1.5,0,0,0,0,0,.1,0,.2-.1.3-.1.5,0,0,0,0,0,0,0,.2-.1.3-.1.5,0,0,0,0,0,0,0,.2-.1.3-.1.5,0,0,0,0,0,0,0,.2-.1.3-.1.5,0,0,0,0,0,0,0,.2-.1.4-.1.5h0c0,.2-.1.4-.1.6h0c0,.2-.1.4-.1.6h0c-2.1,8.2-2.8,14.1-2.9,14.5h0s-7.4,0-7.4,0c0,0-.9-10,0-23.5,0-1,.1-2,.2-3.1h0c0-.4,0-.7,0-1h0c.1-1.4.3-2.8.4-4.2.7-5.9,1.7-12.2,3.3-18.3,2-7.7,4.8-15.2,8.8-21.8.8-1.4,1.7-2.7,2.7-4,0,0-3.5-2.9-5.4-7.2-2.2-4.8-2.5-11.3,5.6-17.6h0s0,.1-.1.2h0s0,0,0,0c-.3.5-.9,1.8-1.4,3.4h0c0,0,0,.2,0,.2h0c0,.1,0,.2,0,.3h0c0,.1,0,.2,0,.3h0c0,.1,0,.2,0,.3h0c0,.1,0,.2,0,.3h0c0,.1,0,.2,0,.3h0c0,.1,0,.2,0,.3h0c0,.1,0,.2,0,.3h0c0,.1,0,.2,0,.3h0c0,.2,0,.2,0,.3h0c0,.2,0,.2,0,.3h0v1.8h0c0,.2,0,.2,0,.3h0c0,.2,0,.2,0,.3,0,0,0,0,0,.1,0,0,0,.1,0,.2,0,0,0,0,0,.1s0,.1,0,.2c0,0,0,0,0,.1,0,0,0,.1,0,.2,0,0,0,0,0,.1,0,0,0,.1,0,.2,0,0,0,0,0,.1,0,0,0,.1,0,.2,0,0,0,0,0,.1,0,0,0,.1,0,.2s0,0,0,.1c0,0,0,.1,0,.2,0,0,0,0,0,.1,0,0,0,.1,0,.2,0,0,0,0,0,.1s0,.1,0,.2c0,0,0,0,0,.1,0,0,0,.1,0,.2,0,0,0,0,0,.1,0,0,0,.1.1.1,0,0,0,0,0,.1,0,0,0,.1.1.1,0,0,0,0,.1.1,0,0,0,.1.1.1,0,0,0,0,.1.1,0,0,0,.1.1.1,0,0,0,0,.1.1,0,0,0,0,.1.1h.1c0,.1,0,.2.1.2,0,0,0,0,.1.1,0,0,.1,0,.1.1,0,0,.1,0,.1.1,0,0,.1,0,.2.1s.1,0,.2.1.1,0,.2.1.1,0,.2.1c0,0,.1,0,.2.1,0,0,.1,0,.2.1,0,0,.1,0,.1,0,.1,0,.2.1.4.2,6.9,3.5,11.5-.6,17.2,4,.4-.1.8-.3,1.3-.6,2.8-1.4,6.6-4.3,4.5-9.9.1.1,6.7,9.3.3,14.5-.3.3-.7.5-1.1.8,1.5,1.2,3.2,2.3,4.9,3,.7.3,1.3.5,2,.7,1.5.4,3.1.8,4.8.9h0c.1.3,3.9,9.3-4.5,13.7-1.3.7-2.9,1.5-4.6,2.4h0c2.4,2.6,5.8,5.1,13.1,10.6h0s.5.4,1.1.9h0c.8.6,2,1.5,3.4,2.3,2.4,1.4,5.2,2.6,7.2,1.9,3.4-1.2,2.6-5.5,1.6-8.4-.6-1.7-.1-3.7,1.2-4.7,1.7-1.3,4-.9,4-.9h-.1c0,0,0,0,0,0Z"/>
              <path class="st46" d="M58,61.6s0,0,0,0h0s0,0,0,0Z"/>
              <path class="st24" d="M42,29.1c-.3.3-.7.5-1.1.8-.6-.5-1.2-1-1.7-1.6-.4-.4-.8-.9-1.2-1.3-.7-.8-1.4-1.5-2-2,.4-.1.8-.3,1.3-.6,2.8-1.4,6.6-4.3,4.5-9.9.1.1,6.7,9.3.3,14.5h0Z"/>
              <path class="st23" d="M35.9,55h0c-5.6,3.5-11.4,8.1-15.7,14.1-1.7,2.3-3.1,4.9-4.2,7.7-.4,1.1-.8,2.1-1.2,3.2-5.1,14.4-6.7,27-6.7,27H.8s-.9-10,0-23.5c.2-2.7.4-5.5.7-8.4,7.6-8.9,19-18,34.4-20h0Z"/>
              <path class="st26" d="M52.6,34.5h0c-.2.2-15.1,14.4-36.3-3.6,0,0-3.5-2.9-5.4-7.2-2.2-4.8-2.5-11.3,5.5-17.6h0c-.3.6-6,10.8,2.4,15,6.9,3.5,11.5-.6,17.2,4,.7.5,1.3,1.2,2,2,.9,1.1,1.9,2,2.9,2.9,1.5,1.2,3.2,2.3,4.9,3,.7.3,1.3.5,2,.7,1.5.4,3.1.8,4.8.9h0Z"/>
              <path class="st30" d="M48.1,48.3c-1.3.7-2.9,1.5-4.6,2.4h0c-.2,0-.3.2-.4.2-.2.1-.5.3-.8.4-.3.2-.7.4-1.1.6-.3.2-.6.3-.9.5-1.4.8-2.9,1.7-4.4,2.6-15.4,1.9-26.8,11-34.4,20,.7-5.9,1.7-12.2,3.3-18.3,2-7.7,4.8-15.2,8.8-21.8.8-1.4,1.7-2.7,2.7-4,9.3,7.9,17.3,9.6,23.5,9,.1,0,.2,0,.3,0,.8,0,1.6-.2,2.3-.4.1,0,.2,0,.4,0s.2,0,.4,0,.2,0,.3,0c.3,0,.5-.1.8-.2,0,0,.2,0,.3,0,.2,0,.3,0,.4-.1,0,0,.2,0,.2,0,.1,0,.2,0,.3-.1.2,0,.4-.2.6-.2,0,0,.2,0,.3-.1,0,0,.2,0,.3-.1.3-.1.6-.2.8-.4,0,0,.2,0,.2-.1,0,0,.2,0,.3-.1,0,0,.2,0,.2-.1.9-.5,1.7-.9,2.3-1.4,0,0,.1,0,.2-.1,0,0,.1,0,.2-.1.1,0,.2-.1.3-.2,0,0,0,0,.1,0,.1,0,.3-.2.4-.3,0,0,0,0,.1,0,.4-.3.6-.5.7-.6h0c.1.3,3.9,9.3-4.5,13.7h0s0,0,0,0Z"/>
              <path class="st3" d="M52.6,34.5h0c-.2.3-8.8,13.2-26.2,7.6-5.2-1.7-9.4-4.3-12.8-7.3.8-1.4,1.7-2.7,2.7-4,9.3,7.9,17.4,9.6,23.5,9,.1,0,.2,0,.3,0,.8,0,1.6-.2,2.3-.4.1,0,.2,0,.4,0s.2,0,.4,0,.2,0,.3,0c.3,0,.5-.1.8-.2,0,0,.2,0,.3,0,.2,0,.3,0,.4-.1,0,0,.2,0,.2,0,.1,0,.2,0,.3-.1.2,0,.4-.2.6-.2,0,0,.2,0,.3-.1,0,0,.2,0,.3-.1.3-.1.6-.2.8-.4,0,0,.2,0,.2-.1,0,0,.2,0,.3-.1,0,0,.2,0,.2-.1.9-.5,1.7-.9,2.3-1.4,0,0,.1,0,.2-.1,0,0,.1,0,.2-.1.1,0,.2-.1.3-.2,0,0,0,0,.1,0,.1,0,.3-.2.4-.3,0,0,0,0,.1,0,.4-.3.6-.5.7-.6h0Z"/>
              <path class="st27" d="M56.3,93.7c-3.5-5.3-9.1-8.6-17.2-9.7,0,0,0,0-.1,0v-.2h0c0-1,0-1.9,0-2.9,0-.8,0-1.6,0-2.4,0-.4,0-.7,0-1.1,0-.4,0-.9,0-1.3,0-.7,0-1.4-.1-2.1h0c0-.6,0-1.1-.1-1.6,0-.8-.1-1.6-.2-2.4,0-.5,0-1-.2-1.4-.2-2-.5-3.9-.8-6,0-.3,0-.5-.1-.8,0-.3,0-.6-.1-.9,0-.3,0-.5-.1-.8-.1-.8-.3-1.7-.4-2.5,0-.5-.2-.9-.3-1.4h0c0-.4-.1-.7-.2-1.1,0,0,0,0,0,0,2.7-1.7,5.3-3.1,7.6-4.4,0,0,0,0,0,0-.5.7-4.1,6.3-.3,17.2,2.9,8.3,8.5,18.1,11.5,23.1.7,1.2,1.3,2.1,1.6,2.6h0Z"/>
              <path class="st29" d="M26.5,83.5c-.8,0-1.6-.1-2.3-.2-2.9-.4-5.3-1.2-7.3-2.2-.1,0-.2,0-.3-.2-.6-.3-1.2-.7-1.8-1.1.4-1,.8-2.1,1.2-3.2,1.1-2.8,2.5-5.3,4.2-7.7.2.3.5.7.7,1,.1.2.2.3.3.5,0,0,.1.2.1.2.1.2.2.3.3.5,0,0,0,0,0,.1s0,0,0,.1c0,0,0,0,0,0,0,0,0,0,0,.1,0,.1.1.2.2.4.2.4.4.8.6,1.2,0,0,0,.1.1.2,0,0,0,.1.1.2,0,.1.1.3.2.4.1.2.2.4.3.7,0,0,0,.2.1.2,0,0,.1.2.1.3,0,0,0,.2.1.3.1.3.3.7.5,1.1.1.2.2.5.3.7,0,0,0,.2,0,.2.2.4.3.9.5,1.4,0,.1,0,.3.1.4,0,.3.2.6.3.9,0,.1,0,.3.1.4h0c0,.2,0,.3.1.4,0,.2,0,.3.1.5v.3c.2.5.4,1.1.5,1.6,0,0,0,0,0,0Z"/>
              <path class="st28" d="M37.9,106.9h-8.9c0-9.8-1-17.5-2.5-23.4-.1-.6-.3-1.1-.4-1.6v-.3c-.1-.2-.2-.3-.2-.5,0-.1,0-.3-.1-.4h0c0-.2,0-.3-.1-.4,0-.3-.2-.6-.3-.9,0-.1,0-.3-.1-.4-.2-.5-.3-.9-.5-1.4,0,0,0-.2,0-.2-.1-.2-.2-.5-.3-.7-.1-.4-.3-.7-.5-1.1,0,0,0-.2-.1-.3,0-.1,0-.2-.1-.3,0,0,0-.2-.1-.2-.1-.2-.2-.5-.3-.7,0-.1-.1-.3-.2-.4,0,0,0-.1-.1-.2s0-.1-.1-.2c-.2-.4-.4-.8-.6-1.2,0-.1-.1-.2-.2-.4,0,0,0,0,0-.1,0,0,0,0,0,0,0,0,0,0,0-.1,0,0,0,0,0-.1-.1-.2-.2-.3-.3-.5s-.1-.2-.1-.2c-.1-.2-.2-.3-.3-.5-.2-.4-.5-.7-.7-1,4.3-6,10.1-10.5,15.7-14h0s0,0,0,0c0,.4.2.7.2,1.1h0c0,.5.2.9.3,1.4.2.8.3,1.7.4,2.5,0,.3,0,.5.1.8,0,.3,0,.6.1.9,0,.3,0,.6.1.8.3,2,.5,4,.8,6,0,.5,0,1,.2,1.4,0,.8.2,1.6.2,2.4,0,.5,0,1,.1,1.5h0c0,.8,0,1.4.1,2.1,0,.4,0,.9,0,1.3,0,.4,0,.7,0,1.1,0,.8,0,1.6,0,2.4,0,1,0,2,0,2.9h0v.2c.2,13.3-1,22.9-1,22.9h0Z"/>
              <path class="st25" d="M56.9,102.3c-.2,2.7-.4,4.6-.4,4.6h-8.1c0-8.8-6-18.2-9.5-22.9,0,0,0,0,.1,0,4.3.6,7.9,1.8,10.8,3.6,2.6,1.6,4.7,3.6,6.4,6.1h0s0,0,0,0c.1.2.2.3.3.5,0,0,0,0,0,0h0s0,0,0,0c0,0,.1.2.2.3,0,.9.1,1.8.2,2.7,0,1.8,0,3.5,0,4.9h0s0,0,0,0Z"/>
              <path class="st41" d="M75,52.4s-1.1.8-1.7,3-2.4,2.1-2.4,2.1h0s0,.2.2.4h0c.4.9,1.2,3.2,1.5,5.7.3,3-.2,6.4-3.7,7.6-1.8.7-3.6.5-5.3,0h0c-.3-.8-.7-1.6-1.1-2.4-1.3-2.7-2.9-5-4.8-6.6.8.6,2,1.5,3.4,2.3,2.4,1.4,5.2,2.6,7.2,1.9,3.4-1.2,2.6-5.5,1.6-8.4-.6-1.7-.1-3.7,1.2-4.7,1.7-1.3,4-.9,4-.9h0Z"/>
              <path class="st40" d="M68.6,106.9h-7.9c-.6-4.8-1.9-8.9-3.9-12.3,0,0-.1-.2-.2-.3h0s0,0,0,0c-.1-.2-.2-.3-.3-.5,0,0,0,0,0,0h0c-1.9-3-9.6-15.5-13.1-25.7-3.9-11.2,0-16.8.3-17.3h0s0,0,0,0c2.4,2.6,5.8,5.1,13.1,10.6h0s.5.4,1.1.9h0c2.5,2.1,4.4,5.3,5.9,9h0c5.7,14.1,5,35.8,5,35.8h0s0,0,0,0Z"/>
              <path class="st16" d="M48.1,48.3c-1.3.7-2.9,1.5-4.6,2.4h0c-.2,0-.3.2-.4.2-.2.1-.5.3-.8.4-.3.2-.7.4-1.1.6-.3.2-.6.3-.9.5-1.4.8-2.9,1.7-4.4,2.6-15.4,1.9-26.8,11-34.4,20,.7-5.9,1.7-12.2,3.3-18.3,14-7.6,31.6-5.5,39.4-8.2,10.6-3.7,8.5-13.6,8.4-13.9.1.3,3.9,9.3-4.5,13.7h0Z"/>
              <path class="st19" d="M52.6,34.5c-.6.6-1.3,1.1-2,1.6-.7.5-1.4.9-2.2,1.3-1.5.8-3,1.4-4.6,1.9-1.6.5-3.2.7-4.8.8-1.6,0-3.3,0-4.9-.2l-1.2-.2c0,0-.2,0-.3,0h-.3c0,0-.6-.2-.6-.2h-.6c-.2-.2-.4-.3-.6-.3l-1.2-.4-1.2-.4-.6-.2-.6-.3-1.1-.5c-.4-.2-.8-.4-1.1-.6-.8-.4-1.5-.8-2.2-1.3-.4-.2-.7-.5-1.1-.7l-1.1-.7c-.2-.1-.4-.2-.5-.4l-.5-.4-1-.8c-.7-.6-1.3-1.1-2-1.7l1,.8,1,.8,1,.7.5.4c.2.1.4.2.5.4l1.1.7c.4.2.7.5,1.1.7.7.4,1.5.8,2.2,1.2.4.2.7.4,1.1.5l1.1.5.6.2.6.2,1.2.4c1.6.5,3.1.9,4.7,1.1,3.2.5,6.5.3,9.6-.5,1.6-.4,3.1-1,4.6-1.7,1.5-.7,2.9-1.6,4.3-2.7h0Z"/>
              <g class="st48">
                <path class="st55" d="M4.8,56.6l.8-.4c.3-.1.5-.3.8-.4.5-.3,1.1-.5,1.6-.8l.8-.4.8-.3c.6-.2,1.1-.4,1.7-.6,2.2-.8,4.6-1.4,6.9-1.9.6-.1,1.2-.2,1.7-.3.6,0,1.2-.2,1.7-.3s1.2-.2,1.8-.3c.6,0,1.2-.2,1.8-.2,2.3-.3,4.7-.5,7-.7,2.3-.2,4.7-.4,7-.7,1.2-.2,2.3-.3,3.5-.6s1.1-.3,1.7-.5c.3,0,.6-.2.8-.3.3-.1.5-.2.8-.4,1.1-.5,2.1-1.2,3-2l.3-.3.3-.3.2-.2.2-.2.3-.4c.4-.5.8-1,1.1-1.6.6-1.2,1-2.5,1.2-3.8,0-.7.1-1.4.1-2.1s0-1.4-.2-2.1c.2.7.2,1.4.2,2.1,0,.7,0,1.4,0,2.1-.2,1.4-.6,2.7-1.2,3.9-.3.6-.7,1.2-1.1,1.7l-.3.4-.2.2-.2.2-.3.3-.3.3c-.9.9-2,1.6-3.1,2.1s-2.2,1-3.4,1.2-2.3.5-3.5.7c-2.3.3-4.7.5-7,.7-4.7.4-9.4.8-14,1.7-2.3.5-4.6,1-6.9,1.7-.6.2-1.1.4-1.7.6l-.8.3-.8.3c-1.1.5-2.2,1-3.3,1.5h0Z"/>
              </g>
              <path class="st37" d="M35.9,55c-15.4,1.9-26.8,11.1-34.4,20,2.1-2.9,4.6-5.6,7.1-7.9,2.6-2.4,5.4-4.5,8.3-6.2,2.9-1.7,6-3.1,9.2-4.1,3.2-1,6.4-1.6,9.7-1.7Z"/>
              <path class="st42" d="M45.8,32.9c-7.4,3.2-19.8,2.2-28.1-5.2-10.9-9.7-1.4-21.4-1.2-21.6-.1.2-6.1,10.7,2.3,15,6.9,3.5,11.5-.6,17.2,4,.7.5,1.3,1.2,2,2,.9,1.1,1.9,2,2.9,2.9,1.5,1.2,3.2,2.3,4.9,3h0Z"/>
              <path class="st38" d="M52.6,34.5h-.2c-.5,0-1,0-1.5,0-.5,0-1.1-.1-1.6-.2s-1.1-.2-1.6-.3-1.1-.3-1.6-.5c-1-.4-2.1-.8-3.1-1.4-1-.6-1.9-1.2-2.8-2s-1.8-1.6-2.6-2.5c-.8-.9-1.6-1.6-2.5-2.3-.1,0-.2-.2-.3-.2s-.2-.1-.3-.2c-.2-.1-.5-.3-.7-.4-.2-.1-.5-.2-.7-.3-.2,0-.5-.2-.7-.3-1-.3-2-.4-3.1-.5s-2.1,0-3.2,0c-1.1,0-2.2,0-3.3-.3-.5-.1-1.1-.2-1.6-.4-.5-.2-1.1-.4-1.6-.6-1-.5-2.1-1-3-1.9-.1,0-.2-.2-.3-.3l-.3-.3-.3-.4v-.2c-.2,0-.2-.1-.3-.2l-.3-.4c0-.1-.2-.3-.2-.4v-.2c-.2,0-.2-.1-.2-.2,0-.1-.1-.3-.2-.5-.2-.6-.4-1.3-.4-1.9,0-.7,0-1.3,0-2,.1-1.3.4-2.6.9-3.8.4-1.2,1-2.3,1.6-3.3-.3.6-6,10.8,2.4,15,6.9,3.5,11.5-.6,17.2,4,.7.5,1.3,1.2,2,2,.9,1.1,1.9,2,2.9,2.9,1.5,1.2,3.2,2.3,4.9,3,.7.3,1.3.5,2,.7,1.5.4,3.1.8,4.8.9h0,0Z"/>
              <g class="st48">
                <path class="st39" d="M39.2,28.4c1-.7,1.9-1.5,2.6-2.5.3-.5.7-1.1.9-1.7s.4-1.2.5-1.9c.2-1.3,0-2.6-.2-3.9-.1-.6-.3-1.3-.5-1.9-.2-.6-.4-1.2-.7-1.8.3.5.6,1.1.9,1.8.2.6.5,1.2.6,1.9.2.6.3,1.3.3,2s0,1.4,0,2.1-.3,1.4-.5,2c-.3.6-.6,1.2-1,1.7-.8,1-1.8,1.8-2.8,2.3h0Z"/>
              </g>
              <path class="st15" d="M42,29.1c-.3.3-.7.5-1.1.8-.6-.5-1.2-1-1.7-1.6,7.5-4.7,2.6-13.6,2.5-13.7.1.1,6.7,9.2.3,14.5h0Z"/>
              <path class="st22" d="M42,29.1c-.3.3-.7.5-1.1.8-1-.9-2-1.8-2.9-2.9-.7-.8-1.4-1.5-2-2,.4-.1.8-.3,1.3-.6.5.5,1,1,1.5,1.6.9,1,1.8,1.9,2.8,2.7.1.1.3.2.4.4h0Z"/>
              <path class="st4" d="M35.9,55h0s0,0,0,0c-1.2.5-21.6,9.1-35.1,28.3,0-1.3.2-2.7.3-4.1.1-1.4.3-2.8.4-4.2,7.6-8.9,19-18,34.4-20h0Z"/>
              <path class="st14" d="M35.9,55c-5.6,3.5-11.4,8.1-15.7,14.1-1.7,2.3-3.1,4.9-4.2,7.7-.4,1.1-.8,2.1-1.2,3.2-5.1,14.2-6.6,26.6-6.6,27H.8c9.4-47,35.1-51.8,35.1-51.9Z"/>
              <path class="st44" d="M35.9,55c-5.6,3.5-11.4,8.1-15.7,14.1-1.7,2.3-3.1,4.9-4.2,7.7-.4,1.1-.8,2.1-1.2,3.2-5.1,14.2-6.6,26.6-6.6,27,0-.7.1-1.3.2-2s.2-1.3.3-2c.2-1.3.4-2.6.6-3.9.1-.7.2-1.3.4-2,.1-.7.3-1.3.4-2,.1-.7.3-1.3.4-1.9.1-.7.3-1.3.5-1.9.6-2.6,1.3-5.1,2.1-7.7.2-.6.4-1.3.6-1.9l.6-1.9c.2-.6.4-1.2.7-1.8l.3-.9.2-.5.2-.5c.5-1.2,1.1-2.4,1.7-3.6s1.3-2.2,2-3.3c.4-.5.8-1,1.1-1.5.2-.2.4-.5.6-.7.2-.2.4-.5.6-.7.8-1,1.7-1.8,2.5-2.7,1.8-1.7,3.6-3.3,5.6-4.7,1.9-1.4,3.9-2.7,6-3.8h0Z"/>
              <g class="st48">
                <path class="st54" d="M.8,106.9l.9-4.2,1-4.2.6-2.1.3-1c0-.3.2-.7.3-1l.7-2,.3-1c.1-.3.2-.7.4-1l.7-2,.2-.5.2-.5.4-1,.4-1c.1-.3.3-.7.4-1l.9-1.9.2-.5c0-.2.1-.3.2-.5l.5-.9.5-.9c.2-.3.3-.6.5-.9l1-1.8.2-.5.3-.4.5-.9.5-.9c0-.2.2-.3.3-.4l.3-.4.6-.9.3-.4v-.2c.1,0,.3-.2.3-.2l1.2-1.7c.1-.1.2-.3.3-.4l.3-.4.6-.8c1.7-2.1,3.6-4.1,5.5-5.8l.4-.3c.1-.1.2-.2.4-.3l.8-.6c.5-.4,1-.8,1.5-1.2.3-.2.5-.4.8-.6.3-.2.5-.4.8-.5l.8-.5c.1,0,.3-.2.4-.2l.4-.2c1.1-.7,2.2-1.2,3.4-1.7,1.2-.5,2.3-.9,3.5-1.2-1.2.3-2.4.8-3.5,1.3-1.1.5-2.3,1.1-3.4,1.8l-.4.2c-.1,0-.3.2-.4.3l-.8.5c-.3.2-.5.4-.8.6-.3.2-.5.4-.8.6-.5.4-1,.8-1.5,1.2l-.8.6c-.1,0-.2.2-.4.3l-.4.3c-3.9,3.5-7.3,7.8-10.2,12.5-2.9,4.7-5.2,9.8-7.2,15.2-.1.3-.2.7-.4,1l-.3,1-.7,2c-.1.3-.2.7-.3,1l-.3,1-.6,2.1-1.1,4.2-1,4.2h0s0,0,0,0Z"/>
              </g>
              <path class="st7" d="M35.9,55h0c-.3,0-18.7,3-34.8,24.2.1-1.4.3-2.8.4-4.2,7.6-8.9,19-18,34.4-20h0Z"/>
              <path class="st6" d="M26.5,83.5c-.8,0-1.6-.1-2.3-.2-1.3-6.6-4-14.1-4-14.2.2.3.5.7.7,1,.1.2.2.3.3.5,0,0,.1.2.1.2.1.2.2.3.3.5,0,0,.1.2.2.3,0,0,0,0,0,0,0,0,0,0,0,.1,0,.1.1.2.2.4.2.4.4.8.6,1.2,0,0,0,.1.1.2,0,0,0,.1.1.2,0,.1.1.3.2.4.1.2.2.4.3.7,0,0,0,.2.1.2,0,0,.1.2.1.3,0,0,0,.2.1.3.1.3.3.7.5,1.1.1.3.3.7.4,1,.2.4.3.9.5,1.4,0,.1,0,.3.1.4,0,.3.2.6.3.9,0,.1,0,.3.1.4h0c0,.2,0,.3.1.4,0,.2,0,.3.1.5,0,0,0,.2,0,.3.1.5.3,1.1.4,1.6h0Z"/>
              <path class="st13" d="M37.9,106.9h-8.9s6.1-16.5,6.9-51.8h0c1.8,9,2.6,17.9,2.9,25.8,0,1,0,2,0,2.9h0v.2c.2,13-.9,22.5-1,22.9h0Z"/>
              <path class="st43" d="M38.4,93.9c0-2.2,0-4.3,0-6.5,0-1.1,0-2.2,0-3.2v-3.2c-.2-4.3-.5-8.6-.9-12.9-.4-4.3-.9-8.6-1.5-12.9h0c0,0,0,0,0,0,1.8,8.9,2.6,17.9,2.9,25.8,0,1,0,2,0,2.9h0v.2c.2,13-.9,22.5-1,22.9.2-4.3.4-8.7.4-13,0,0,0,0,0,0Z"/>
              <g class="st48">
                <path class="st45" d="M29,106.9c.6-2.1,1.2-4.2,1.7-6.3l.2-.8.2-.8.3-1.6.6-3.2.5-3.2c.2-1.1.3-2.2.5-3.2v-.8c.1,0,.2-.8.2-.8l.2-1.6.2-1.6c0-.5.1-1.1.2-1.6l.4-3.3.3-3.3.2-1.6c0-.6,0-1.1.1-1.6l.3-3.3v-.8c0,0,.1-.8.1-.8v-1.6c0,0,.3-3.3.3-3.3.1-2.2.2-4.4.3-6.6h0c0,0,0,0,0,0h0v1.7s0,1.7,0,1.7c0,1.1,0,2.2,0,3.3v3.3c-.1,0-.2,1.7-.2,1.7v.8s0,.8,0,.8l-.2,3.3c0,.6,0,1.1-.1,1.6l-.2,1.6-.3,3.3-.4,3.3c0,.5-.1,1.1-.2,1.6l-.2,1.6-.2,1.6v.8c-.1,0-.2.8-.2.8-.2,1.1-.3,2.2-.5,3.2l-.6,3.2-.3,1.6c-.1.5-.2,1.1-.3,1.6l-.4,1.6-.2.8-.2.8c-.1.5-.3,1.1-.4,1.6l-.4,1.6c-.2.5-.3,1-.5,1.6l-.3.8c0,.2-.2.5-.3.8h0,0Z"/>
              </g>
              <path class="st5" d="M56.3,93.7c-1.7-2.5-3.8-4.5-6.4-6.1-4-6.8-8-13.4-9.1-19.6-2-11.3,2.4-16.9,2.7-17.3-.3.5-4.2,6.1-.3,17.3,3.5,10.3,11.3,22.8,13.1,25.7,0,0,0,0,0,0Z"/>
              <path class="st36" d="M56.3,93.7c-3.5-5.3-9.1-8.6-17.2-9.7,0,0,0,0-.1,0,1.7,0,3.3.1,5,.5s3.3.9,4.8,1.7c1.5.8,3,1.8,4.3,3.1.6.6,1.1,1.2,1.6,1.8.6.8,1.2,1.7,1.6,2.6h0Z"/>
              <path class="st21" d="M57,97.3c-5.8-9.2-18.1-13.4-18.1-13.4,0,0,0,0,.1,0,4.3.6,7.9,1.8,10.8,3.6,2.6,1.6,4.7,3.6,6.4,6.1h0s0,0,0,0c.1.2.2.3.3.5,0,0,0,0,0,0h0s0,0,0,0c0,0,.1.2.2.3,0,.9.1,1.8.2,2.7h0Z"/>
              <g class="st48">
                <path class="st57" d="M38.9,84c1.9.9,3.7,2.3,5.3,3.8,1.6,1.6,3.1,3.4,4.3,5.4l.2.4c0,.1.2.2.2.4l.4.8c.1.3.3.5.4.8,0,.1.1.3.2.4l.2.4c.5,1.1.9,2.2,1.3,3.4.2.6.4,1.2.5,1.8,0,.3.2.6.2.9l.2.9v.4c.1.2.1.3.2.4l.2.9c0,.6.2,1.2.2,1.8h0v-.9c-.1,0-.2-.4-.2-.4v-.2s0-.2,0-.2l-.2-.9c0-.2,0-.3,0-.4v-.4c0,0-.3-.9-.3-.9,0-.3-.2-.6-.2-.9-.2-.6-.3-1.2-.5-1.7-.4-1.1-.8-2.3-1.3-3.3l-.2-.4c0-.1-.1-.3-.2-.4-.1-.3-.3-.5-.4-.8l-.4-.8c-.1-.3-.3-.5-.5-.8-.6-1-1.3-1.9-2-2.8-.7-.9-1.5-1.7-2.3-2.5s-1.6-1.5-2.5-2.2c-.9-.7-1.8-1.3-2.7-1.8h0Z"/>
              </g>
              <path class="st11" d="M52.9,106.9h-4.5c0-8.8-6-18.2-9.5-22.9,0,0,12.1,5.4,14,22.9h0Z"/>
              <path class="st10" d="M68.6,106.9h-4.4c-.2-10.9-2-21.6-7.2-27.7-13.3-15.3-13.6-28.5-13.6-28.5h0c2.4,2.6,5.8,5.1,13.1,10.5h0s.5.4,1.1.9h0c2.5,2.1,4.4,5.3,5.9,9h0c5.7,14.1,5,35.8,5,35.8h0Z"/>
              <path class="st31" d="M58,61.6h0s0,0,0,0h0Z"/>
              <polygon class="st35" points="64.1 71.1 64.1 70.8 64.1 71 64.1 71.1"/>
              <path class="st32" d="M68.6,106.9c0-3.1-.2-6.1-.5-9.1-.1-1.5-.2-3-.4-4.5s-.3-3-.5-4.5c-.2-1.5-.4-3-.7-4.5-.3-1.5-.6-2.9-.9-4.4-.3-1.4-.7-2.9-1.1-4.3-.4-1.4-.9-2.8-1.4-4.2h0s0,0,0,0c-.3-.8-.7-1.7-1.1-2.5-.4-.8-.8-1.6-1.3-2.3-.9-1.5-2-2.9-3.3-4h0l-.5-.4-.3-.2h-.1c0-.1,0-.2,0-.2h0s0,0,0,0h0s0,0,0,0l-3.3-2.6c-1.1-.9-2.2-1.8-3.3-2.6-1.1-.9-2.2-1.8-3.2-2.7-.5-.5-1-1-1.5-1.5-.5-.5-1-1-1.5-1.6h0,0c2.4,2.6,5.8,5.1,13.1,10.6h0s.5.4,1.1.9h0c2.5,2.1,4.4,5.3,5.9,9h0c5.7,14.1,5,35.8,5,35.8h0s0,0,0,0Z"/>
              <g class="st48">
                <path class="st34" d="M64.3,106.9v-1s0-1,0-1c0-.7,0-1.3-.1-2,0-1.3-.2-2.6-.4-3.9-.3-2.6-.7-5.2-1.3-7.7-.6-2.5-1.4-5-2.5-7.2-.5-1.1-1.2-2.2-1.8-3.2,0-.1-.2-.2-.3-.4l-.3-.4c-.2-.2-.4-.5-.6-.7l-1.2-1.4c-3.1-3.8-5.9-7.9-8.1-12.5-.5-1.1-1-2.3-1.5-3.5-.5-1.2-.9-2.4-1.3-3.7-.4-1.2-.7-2.5-.9-3.8-.2-1.3-.4-2.6-.5-3.9h0,0c0,.7.1,1.3.2,2,0,.6.2,1.3.4,1.9.3,1.3.6,2.5,1,3.7.4,1.2.8,2.4,1.3,3.6.5,1.2,1,2.3,1.6,3.5,1.1,2.2,2.4,4.4,3.7,6.5s2.8,4,4.4,5.9l1.2,1.4c.2.2.4.5.6.7l.3.4c0,.1.2.3.3.4.7,1,1.3,2.1,1.9,3.3,1.1,2.3,1.9,4.8,2.4,7.4.6,2.6,1,5.2,1.2,7.8.1,1.3.2,2.6.3,3.9,0,.7,0,1.3,0,2v1s0,1,0,1h0Z"/>
              </g>
              <path class="st8" d="M43.5,50.7s0,0,0,0c-.5.3-3.5,2.3-7.3,5.4-4.5,3.7-10.1,9-14.4,15.2-2,3-3.8,6.3-4.8,9.7-.1,0-.2,0-.3-.2-.6-.3-1.2-.7-1.8-1.1.4-1,.8-2.1,1.2-3.2,1.1-2.8,2.5-5.3,4.2-7.7,4.3-6,10.1-10.5,15.7-14h0c2.7-1.7,5.3-3.1,7.6-4.4h0Z"/>
              <path class="st33" d="M70.9,57.5s0,.2.2.4c0-.1-.1-.2-.2-.4Z"/>
              <path class="st12" d="M75,52.4s-1.1.8-1.7,3-2.4,2.1-2.4,2.1c-1.3-3.7,4.1-5.1,4.1-5.1h0Z"/>
              <path class="st20" d="M63.6,71.1c-1.5-3.7-3.4-6.9-5.9-9,.8.6,2,1.5,3.4,2.3.7,1.5,1.7,3.8,2.5,6.7Z"/>
              <path class="st9" d="M68.9,71.2c-1.8.7-3.6.5-5.3,0h0c-.3-.8-.7-1.6-1.1-2.4,3.3,1.2,9.9,2.5,10.1-5.1h0c.3,3.1-.2,6.4-3.7,7.6Z"/>
              <g class="st48">
                <path class="st56" d="M62.5,68.7c1.1.3,2.2.6,3.2.7.6,0,1.1,0,1.6,0,.5,0,1.1,0,1.6-.2.5-.2,1-.4,1.5-.7.5-.3.8-.8,1.2-1.3.3-.5.5-1.1.7-1.7.2-.6.2-1.3.3-1.9,0,.7,0,1.3-.2,1.9-.1.6-.3,1.3-.6,1.8-.3.6-.7,1-1.2,1.4s-1,.6-1.6.8c-1.1.3-2.2.3-3.3.1s-2.2-.5-3.2-.9h0Z"/>
              </g>
            </g>
          </g>
        </g>
        <g>
          <g>
            <path class="st59" d="M25.3,99.2h4.3c0-3.8,5.7-7.9,9-10,0,0-11.4,2.4-13.3,9.9h0Z"/>
            <g class="st49">
              <path class="st17" d="M27,99.2h4.3c0-3.8,5.5-8.3,8.8-10.4,0,0-11.2,2.8-13.1,10.4h0Z"/>
            </g>
          </g>
          <g>
            <path class="st58" d="M28.7,99.2h-1.5c0-3.2-2-6.6-3.2-8.3,0,0,4.1,2,4.8,8.3h0Z"/>
            <g class="st51">
              <path class="st18" d="M28.1,99.2h-1.5c0-3.2-2-6.6-3.2-8.3,0,0,4.1,2,4.8,8.3h0Z"/>
            </g>
          </g>
          <g>
            <path class="st52" d="M28.3,99.2h-4.1c1.5-1.1,1.9-3.1-1.2-4.2,0,0,3.5,0,5.3,4.2h0Z"/>
            <g class="st50">
              <path class="st1" d="M26.7,99.2h-4.1c0-2.1,3.7-2.9.6-4,0,0,3.6.9,3.5,4h0Z"/>
            </g>
          </g>
        </g>
      </g>
    </g>
  </g>
</svg>