<?xml version="1.0" encoding="UTF-8"?>
<svg xmlns="http://www.w3.org/2000/svg" xmlns:xlink="http://www.w3.org/1999/xlink" viewBox="45.63 48.38 394.85 98.27">
  <defs>
    <style>
      .cls-1 {
        fill: none;
      }

      .cls-2 {
        fill: url(#linear-gradient-40);
      }

      .cls-2, .cls-3, .cls-4, .cls-5, .cls-6, .cls-7, .cls-8, .cls-9, .cls-10, .cls-11, .cls-12, .cls-13, .cls-14, .cls-15, .cls-16, .cls-17, .cls-18, .cls-19, .cls-20, .cls-21, .cls-22, .cls-23 {
        isolation: isolate;
      }

      .cls-2, .cls-3, .cls-4, .cls-5, .cls-6, .cls-7, .cls-8, .cls-9, .cls-22 {
        mix-blend-mode: multiply;
      }

      .cls-2, .cls-3, .cls-4, .cls-14, .cls-15, .cls-16, .cls-17, .cls-18, .cls-19, .cls-20, .cls-21, .cls-24, .cls-22, .cls-23 {
        opacity: .5;
      }

      .cls-3 {
        fill: url(#linear-gradient-19);
      }

      .cls-4 {
        fill: url(#linear-gradient-30);
      }

      .cls-5 {
        fill: url(#linear-gradient-23);
      }

      .cls-6 {
        fill: url(#linear-gradient-28);
      }

      .cls-7 {
        fill: url(#linear-gradient-24);
      }

      .cls-8 {
        fill: url(#linear-gradient-20);
      }

      .cls-9 {
        fill: url(#linear-gradient-37);
      }

      .cls-10 {
        fill: #549a5b;
      }

      .cls-25 {
        fill: url(#radial-gradient-6);
      }

      .cls-26 {
        fill: url(#radial-gradient-5);
      }

      .cls-27 {
        fill: url(#radial-gradient-4);
      }

      .cls-28 {
        fill: url(#radial-gradient-3);
      }

      .cls-29 {
        fill: #58575c;
      }

      .cls-30 {
        fill: url(#linear-gradient-8);
      }

      .cls-31 {
        fill: url(#linear-gradient-7);
      }

      .cls-32 {
        fill: url(#linear-gradient-5);
      }

      .cls-33 {
        fill: url(#linear-gradient-9);
      }

      .cls-34 {
        fill: url(#linear-gradient-4);
      }

      .cls-35 {
        fill: url(#linear-gradient-3);
      }

      .cls-36 {
        fill: url(#linear-gradient-2);
      }

      .cls-37 {
        fill: url(#radial-gradient);
      }

      .cls-38 {
        fill: url(#linear-gradient);
      }

      .cls-39 {
        clip-path: url(#clippath-3);
      }

      .cls-40 {
        clip-path: url(#clippath-4);
      }

      .cls-41 {
        clip-path: url(#clippath-5);
      }

      .cls-12 {
        fill: #54b65b;
      }

      .cls-13 {
        fill: #54a55b;
      }

      .cls-42 {
        fill: #a4ff74;
      }

      .cls-14 {
        fill: url(#linear-gradient-39);
      }

      .cls-14, .cls-15, .cls-16, .cls-17, .cls-18, .cls-19, .cls-20, .cls-21, .cls-24, .cls-23 {
        mix-blend-mode: overlay;
      }

      .cls-15 {
        fill: url(#linear-gradient-32);
      }

      .cls-16 {
        fill: url(#linear-gradient-21);
      }

      .cls-17 {
        fill: url(#linear-gradient-25);
      }

      .cls-18 {
        fill: url(#linear-gradient-31);
      }

      .cls-19 {
        fill: url(#linear-gradient-18);
      }

      .cls-20 {
        fill: url(#linear-gradient-13);
      }

      .cls-21 {
        fill: url(#linear-gradient-41);
      }

      .cls-43 {
        fill: url(#linear-gradient-10);
      }

      .cls-44 {
        fill: url(#linear-gradient-11);
      }

      .cls-45 {
        fill: url(#linear-gradient-12);
      }

      .cls-46 {
        fill: url(#linear-gradient-14);
      }

      .cls-47 {
        fill: url(#linear-gradient-22);
      }

      .cls-48 {
        fill: url(#linear-gradient-33);
      }

      .cls-49 {
        fill: url(#linear-gradient-15);
      }

      .cls-50 {
        fill: url(#linear-gradient-16);
      }

      .cls-51 {
        fill: url(#linear-gradient-17);
      }

      .cls-52 {
        fill: url(#linear-gradient-35);
      }

      .cls-53 {
        fill: url(#linear-gradient-34);
      }

      .cls-54 {
        fill: url(#linear-gradient-36);
      }

      .cls-55 {
        fill: url(#linear-gradient-38);
      }

      .cls-56 {
        fill: url(#linear-gradient-27);
      }

      .cls-57 {
        fill: url(#linear-gradient-26);
      }

      .cls-58 {
        fill: url(#linear-gradient-29);
      }

      .cls-59 {
        fill: #040303;
      }

      .cls-60 {
        fill: #3b165b;
      }

      .cls-61 {
        fill: #67de74;
      }

      .cls-22 {
        fill: url(#linear-gradient-6);
      }

      .cls-62 {
        fill: #86ec74;
      }

      .cls-63 {
        clip-path: url(#clippath);
      }

      .cls-23 {
        fill: url(#radial-gradient-2);
      }
    </style>
    <clipPath id="clippath">
      <rect class="cls-1" x="47.17" y="43.29" width="140.12" height="99.17"/>
    </clipPath>
    <linearGradient id="linear-gradient" x1="50.34" y1="-506.77" x2="184.25" y2="-506.77" gradientTransform="translate(0 -390.96) scale(1 -1)" gradientUnits="userSpaceOnUse">
      <stop offset="0" stop-color="#3b165b"/>
      <stop offset=".8" stop-color="#763089"/>
    </linearGradient>
    <radialGradient id="radial-gradient" cx="97.68" cy="-495.88" fx="97.68" fy="-495.88" r=".02" gradientTransform="translate(22.17 -390.96) scale(.85 -1)" gradientUnits="userSpaceOnUse">
      <stop offset="0" stop-color="#fff"/>
      <stop offset=".98" stop-color="#fff"/>
    </radialGradient>
    <linearGradient id="linear-gradient-2" x1="142.55" y1="-449.05" x2="134.28" y2="-466.15" gradientTransform="translate(2.17 -390.96) scale(.62 -1)" gradientUnits="userSpaceOnUse">
      <stop offset="0" stop-color="#ffed00"/>
      <stop offset="1" stop-color="#e73f14"/>
    </linearGradient>
    <linearGradient id="linear-gradient-3" x1="73.68" y1="-515.21" x2="130.81" y2="-515.21" gradientTransform="translate(2.17 -390.96) scale(.62 -1)" gradientUnits="userSpaceOnUse">
      <stop offset="0" stop-color="#7b509b"/>
      <stop offset="1" stop-color="#bb6ba9"/>
    </linearGradient>
    <linearGradient id="linear-gradient-4" x1="88.46" y1="-457.29" x2="157.77" y2="-457.29" xlink:href="#linear-gradient-2"/>
    <linearGradient id="linear-gradient-5" x1="126.06" y1="-473.57" x2="70.8" y2="-521.54" gradientTransform="translate(2.17 -390.96) scale(.62 -1)" gradientUnits="userSpaceOnUse">
      <stop offset="0" stop-color="#f7a80c"/>
      <stop offset="1" stop-color="#e52412"/>
    </linearGradient>
    <linearGradient id="linear-gradient-6" x1="71.39" y1="-466.88" x2="153.94" y2="-474.4" xlink:href="#linear-gradient-5"/>
    <linearGradient id="linear-gradient-7" x1="130.81" y1="-506.44" x2="163.6" y2="-506.44" gradientTransform="translate(2.17 -390.96) scale(.62 -1)" gradientUnits="userSpaceOnUse">
      <stop offset="0" stop-color="#d00010"/>
      <stop offset="1" stop-color="#5d2283"/>
    </linearGradient>
    <linearGradient id="linear-gradient-8" x1="96.99" y1="-510.55" x2="115.72" y2="-510.55" gradientTransform="translate(2.17 -390.96) scale(.62 -1)" gradientUnits="userSpaceOnUse">
      <stop offset="0" stop-color="#c0137d"/>
      <stop offset="1" stop-color="#5d2283"/>
    </linearGradient>
    <linearGradient id="linear-gradient-9" x1="124.31" y1="-495.94" x2="116.51" y2="-538.43" xlink:href="#linear-gradient-3"/>
    <linearGradient id="linear-gradient-10" x1="150.24" y1="-527.77" x2="151.74" y2="-542.34" gradientTransform="translate(2.17 -390.96) scale(.62 -1)" gradientUnits="userSpaceOnUse">
      <stop offset="0" stop-color="#7b509b"/>
      <stop offset="1" stop-color="#245eaa"/>
    </linearGradient>
    <linearGradient id="linear-gradient-11" x1="165.89" y1="-496.24" x2="193.74" y2="-496.24" gradientTransform="translate(2.17 -390.96) scale(.62 -1)" gradientUnits="userSpaceOnUse">
      <stop offset="0" stop-color="#3ab8eb"/>
      <stop offset="1" stop-color="#1566b1"/>
    </linearGradient>
    <linearGradient id="linear-gradient-12" x1="153.4" y1="-493.03" x2="179.69" y2="-546.3" xlink:href="#linear-gradient-10"/>
    <linearGradient id="linear-gradient-13" x1="148.9" y1="-458.57" x2="81.94" y2="-516.69" gradientTransform="translate(2.17 -390.96) scale(.62 -1)" gradientUnits="userSpaceOnUse">
      <stop offset="0" stop-color="#fff"/>
      <stop offset=".98" stop-color="#fff"/>
    </linearGradient>
    <radialGradient id="radial-gradient-2" cx="-13.36" cy="-473.48" fx="-13.36" fy="-473.48" r="18.47" gradientTransform="translate(0 -390.96) scale(1 -1)" xlink:href="#radial-gradient"/>
    <radialGradient id="radial-gradient-3" cx="-16.83" cy="-479.83" fx="-16.83" fy="-479.83" r="21.54" gradientTransform="translate(0 -390.96) scale(1 -1)" xlink:href="#radial-gradient"/>
    <linearGradient id="linear-gradient-14" x1="104.21" y1="-497.84" x2="63.61" y2="-522.12" xlink:href="#linear-gradient-5"/>
    <linearGradient id="linear-gradient-15" x1="118.73" y1="-456.17" x2="91.28" y2="-472.58" xlink:href="#linear-gradient-2"/>
    <linearGradient id="linear-gradient-16" x1="129.66" y1="-455.5" x2="29.21" y2="-432.82" xlink:href="#linear-gradient-5"/>
    <linearGradient id="linear-gradient-17" x1="143.11" y1="-450.97" x2="134.55" y2="-461.43" xlink:href="#linear-gradient-13"/>
    <linearGradient id="linear-gradient-18" x1="144.09" y1="-452.05" x2="135.71" y2="-462.28" xlink:href="#linear-gradient-13"/>
    <linearGradient id="linear-gradient-19" x1="130.9" y1="-461.45" x2="140.67" y2="-461.45" xlink:href="#linear-gradient-5"/>
    <linearGradient id="linear-gradient-20" x1="42.35" y1="-535.59" x2="129.8" y2="-482.68" xlink:href="#linear-gradient-3"/>
    <linearGradient id="linear-gradient-21" x1="127.79" y1="-484.74" x2="74.51" y2="-540.73" xlink:href="#linear-gradient-13"/>
    <linearGradient id="linear-gradient-22" x1="92.27" y1="-554.15" x2="105.56" y2="-519.74" xlink:href="#linear-gradient-3"/>
    <radialGradient id="radial-gradient-4" cx="-29.25" cy="-515.23" fx="-29.25" fy="-515.23" r="23.47" gradientTransform="translate(0 -390.96) scale(1 -1)" xlink:href="#radial-gradient"/>
    <linearGradient id="linear-gradient-23" x1="121.68" y1="-479.36" x2="82.56" y2="-520.46" xlink:href="#linear-gradient-3"/>
    <linearGradient id="linear-gradient-24" x1="105.76" y1="-516.43" x2="111.97" y2="-508.35" xlink:href="#linear-gradient-3"/>
    <linearGradient id="linear-gradient-25" x1="103.34" y1="-552.67" x2="143.84" y2="-499.95" xlink:href="#linear-gradient-13"/>
    <linearGradient id="linear-gradient-26" x1="130.04" y1="-547.63" x2="134.18" y2="-490.14" xlink:href="#linear-gradient-3"/>
    <linearGradient id="linear-gradient-27" x1="110.43" y1="-534.07" x2="140.04" y2="-495.54" xlink:href="#linear-gradient-13"/>
    <linearGradient id="linear-gradient-28" x1="148.32" y1="-508.8" x2="136.89" y2="-479.81" xlink:href="#linear-gradient-3"/>
    <linearGradient id="linear-gradient-29" x1="151.68" y1="-524.07" x2="166.21" y2="-533.49" xlink:href="#linear-gradient-8"/>
    <linearGradient id="linear-gradient-30" x1="150.5" y1="-530.49" x2="151.45" y2="-539.73" xlink:href="#linear-gradient-10"/>
    <radialGradient id="radial-gradient-5" cx="7.12" cy="-528.3" fx="7.12" fy="-528.3" r="22.92" gradientTransform="translate(0 -390.96) scale(1 -1)" xlink:href="#radial-gradient"/>
    <linearGradient id="linear-gradient-31" x1="150.26" y1="-540.16" x2="141.95" y2="-515.11" xlink:href="#linear-gradient-13"/>
    <linearGradient id="linear-gradient-32" x1="143.33" y1="-452.44" x2="190.66" y2="-580.7" xlink:href="#linear-gradient-13"/>
    <linearGradient id="linear-gradient-33" x1="176.35" y1="-558.41" x2="165.59" y2="-492.82" xlink:href="#linear-gradient-3"/>
    <linearGradient id="linear-gradient-34" x1="183.99" y1="-553.79" x2="173.84" y2="-491.95" xlink:href="#linear-gradient-3"/>
    <linearGradient id="linear-gradient-35" x1="170.78" y1="-555.99" x2="160.47" y2="-493.17" xlink:href="#linear-gradient-3"/>
    <linearGradient id="linear-gradient-36" x1="149.39" y1="-482.21" x2="171.8" y2="-542.95" xlink:href="#linear-gradient-13"/>
    <linearGradient id="linear-gradient-37" x1="91.48" y1="-535.74" x2="134.83" y2="-479.31" xlink:href="#linear-gradient-3"/>
    <linearGradient id="linear-gradient-38" x1="187.1" y1="-491.93" x2="187.21" y2="-491.78" xlink:href="#linear-gradient-3"/>
    <linearGradient id="linear-gradient-39" x1="185.42" y1="-494.44" x2="192.22" y2="-485.58" xlink:href="#linear-gradient-13"/>
    <linearGradient id="linear-gradient-40" x1="169.33" y1="-502.22" x2="171.8" y2="-499" xlink:href="#linear-gradient-11"/>
    <linearGradient id="linear-gradient-41" x1="174.09" y1="-511.9" x2="186.66" y2="-495.54" xlink:href="#linear-gradient-13"/>
    <radialGradient id="radial-gradient-6" cx="30.11" cy="-503.68" fx="30.11" fy="-503.68" r="6.06" gradientTransform="translate(0 -390.96) scale(1 -1)" xlink:href="#radial-gradient"/>
    <clipPath id="clippath-3">
      <path class="cls-62" d="M72.46,142.45h4.31c-.08-3.8,5.69-7.9,8.99-9.96,0,0-11.43,2.36-13.3,9.95h0Z"/>
    </clipPath>
    <clipPath id="clippath-4">
      <path class="cls-61" d="M75.89,142.45h-1.54c.03-3.17-2.04-6.58-3.22-8.3,0,0,4.09,1.97,4.77,8.29h0Z"/>
    </clipPath>
    <clipPath id="clippath-5">
      <path class="cls-42" d="M75.45,142.45h-4.07c1.52-1.09,1.86-3.05-1.25-4.19,0,0,3.55-.02,5.32,4.19h0Z"/>
    </clipPath>
  </defs>
  <g class="cls-11">
    <g id="Layer_2" data-name="Layer 2">
      <g id="Layer_1-2" data-name="Layer 1">
        <g>
          <g class="cls-63">
            <g>
              <path class="cls-38" d="M117.29,48.86c-36.92,0-66.95,30.03-66.95,66.95,0,22.24,10.91,41.97,27.65,54.15h.03c6.76,4.9,14.18,8.45,22.1,10.56,5.58,1.48,11.35,2.24,17.17,2.24,6.44,0,12.8-.92,18.91-2.73,7.18-2.13,14.18-5.61,20.29-10.06h.11c16.74-12.18,27.65-31.91,27.65-54.15,0-36.92-30.03-66.95-66.95-66.95h0ZM117.29,53.75c33.82,0,61.38,27.19,62.03,60.86-2.88.56-5.8.93-8.75,1.07-.39-9.73-2.97-19.11-7.61-27.49.34.39.67.79,1.01,1.21,3.48,4.42,5.69,8.03,5.71,8.06l4.18-2.54c-.09-.16-2.37-3.89-6.05-8.55-3.32-4.21-6.96-7.2-7.91-7.95-1.06-2.84-2.96-5.71-5.45-8.2-5.21-5.21-11.6-7.42-15.97-5.9-9.5-4.92-20.15-7.74-29.48-7.74-1.19,0-2.37.04-3.55.11-.03-.59-.03-1.19-.05-1.79,3.85-.75,7.82-1.15,11.88-1.15h.01ZM123.06,86.12l10.1-11.56-11.8-11.23-3.38,3.54,4.77,4.54c-1.29-.08-2.57-.13-3.86-.13-3.65,0-7.22.34-10.7.94-1.07-3.43-1.84-7-2.3-10.65,1.04-.06,2.07-.09,3.12-.09,8.02,0,17.14,2.28,25.51,6.32-.99,1.97-1.12,4.48-.34,7.29.58,2.06,1.62,4.16,3.04,6.16l-13.37,16.6c-5.99-5.91-10.77-13.03-13.97-20.95,2.94-.47,5.95-.72,9.01-.72,2.03,0,4.06.12,6.07.33l-5.59,6.4,3.68,3.22h.01ZM140.48,84.99c1.93,1.86,4.07,3.36,6.24,4.4,2.06,6.77,3.29,14.11,3.29,19.92,0,1.31-.05,2.61-.13,3.91-8.33-2.46-15.93-6.62-22.41-12.09l13.01-16.14h0ZM139.29,69.44c.49-.49,1.25-.73,2.19-.73,2.48,0,6.22,1.67,9.52,4.98,2.27,2.27,3.96,4.97,4.64,7.4.55,1.95.4,3.52-.39,4.32-.79.79-2.36.94-4.31.39-2.43-.68-5.13-2.37-7.4-4.64-2.27-2.27-3.96-4.96-4.64-7.4-.54-1.95-.4-3.52.39-4.32h0ZM124.41,104.94c7.2,6.05,15.68,10.61,24.97,13.22-1.22,8.61-4.21,16.78-8.62,23.99-10.43-4.04-20.55-9.66-29.86-16.68-.63-.48-1.23-.99-1.85-1.48l15.36-19.06h0ZM154.14,119.33c3.74.76,7.6,1.18,11.54,1.29-.39,9.49-3.07,18.55-7.87,26.63-4.13-.88-8.26-2.02-12.35-3.4,4.39-7.42,7.37-15.76,8.68-24.52h0ZM154.7,114.45c.13-1.7.21-3.41.21-5.14,0-5.41-.98-12.01-2.66-18.36.28.02.57.06.84.06,1.92,0,3.59-.56,4.92-1.59,4.66,7.95,7.27,16.94,7.67,26.3-3.75-.11-7.43-.53-10.99-1.28h.01ZM120.78,101.65l-15.54,19.29c-3.68-3.11-7.14-6.41-10.38-9.87l10.46.83.39-4.88-19.3-1.53.64,18.85,4.89-.17-.32-9.39c3.3,3.49,6.83,6.83,10.56,9.97l-19.06,23.65c-9.1-7.45-15.93-17.39-19.62-28.68,2.26-9.29,6.79-17.69,12.97-24.59,1.47,2.39,3.04,4.74,4.71,7.06l3.97-2.86c-1.85-2.56-3.55-5.17-5.14-7.81,6.95-6.49,15.51-11.27,25.02-13.66,3.51,9.04,8.92,17.13,15.75,23.77v.02ZM100.55,56.07c.01.37.01.73.03,1.1-2.54.35-5.04.85-7.5,1.51,2.41-1.03,4.91-1.89,7.47-2.61ZM101.03,62.04c.48,3.84,1.27,7.59,2.38,11.2-9.77,2.53-18.61,7.39-25.89,13.94-2.12-3.94-3.95-7.95-5.48-12.01,8.29-7.11,18.3-11.63,29-13.13h0ZM61.28,89.12c1.85-3.87,4.1-7.52,6.68-10.9,1.67,4.24,3.65,8.42,5.93,12.51-5.4,5.72-9.71,12.45-12.64,19.89-.55-3.34-.85-6.76-.85-10.24,0-3.78.34-7.56,1.01-11.24l-.14-.03h0ZM57.04,130.66c-1.17-4.76-1.81-9.73-1.81-14.84,0-2.96.22-5.88.63-8.73.44,4.42,1.3,8.73,2.56,12.87-.76,3.47-1.23,7.04-1.38,10.7h0ZM152.93,166.57c-.19.14-.39.27-.59.4-.19.13-.39.27-.58.4-.27.18-.54.36-.81.53-.12.08-.23.15-.35.23-.31.2-.62.39-.93.58-.07.05-.15.09-.22.14-.34.21-.69.41-1.03.62-.02,0-.05.03-.07.04-4.28,2.49-8.86,4.47-13.53,5.86-5.66,1.68-11.56,2.53-17.53,2.53-5.39,0-10.74-.7-15.91-2.07-7.93-2.11-15.32-5.78-21.99-10.91-9.29-7.19-15.75-16.92-20.58-27.9l-2.03-4.72h0c-.06-1,2.91-6.78,2.91-7.8,0-1.33,2.31,4.72,2.33,4.74,4.24,8.9,10.39,16.75,18.01,22.99l-2.75,3.42,3.81,3.07,2.84-3.52c6.61,4.64,14.13,8.14,22.34,10.18l1.18-4.75c-7.5-1.86-14.39-5.05-20.44-9.26l18.97-23.55c.66.52,1.3,1.07,1.98,1.58,9.36,7.06,19.53,12.75,30.02,16.92-4.55,6.23-10.22,11.58-16.82,15.59l.34-11.68-4.89-.14-.54,18.44,18.03.41.11-4.89-7.16-.16c6.11-4.28,11.4-9.65,15.68-15.78,4.04,1.41,8.12,2.6,12.2,3.54-.23.31-.43.64-.66.96l3.9,2.95c.7-.93,1.36-1.87,2-2.83,2.09.38,4.17.69,6.26.94-3.83,4.96-8.39,9.31-13.51,12.92v-.02ZM169.65,149.06c-2.23-.21-4.47-.49-6.72-.85,4.7-8.45,7.32-17.84,7.69-27.64,2.89-.14,5.77-.46,8.6-.97-.65,10.79-4.08,20.84-9.57,29.46Z"/>
              <path class="cls-59" d="M122.17,95.69s-1.11.85-1.71,3.01-2.37,2.08-2.37,2.08h0c.02.05.07.18.16.38h0c.37.89,1.25,3.21,1.52,5.71.34,3.05-.22,6.37-3.73,7.63-1.84.66-3.64.51-5.3-.07,5.66,14.1,5.05,35.75,5.05,35.75h-7.88c-.64-4.8-1.89-8.89-3.9-12.26.08.91.13,1.83.15,2.72.05,1.78,0,3.49-.08,4.95-.15,2.69-.42,4.58-.42,4.58h-8.11c.08-8.75-6.01-18.18-9.49-22.91,0,.41.01.82.02,1.23v5.83c0,.18,0,.35-.01.53v.02c0,.17,0,.34-.01.51v.02c0,.17,0,.34-.01.51v.02c0,.17,0,.34-.01.51h0c0,.18-.01.35-.02.51h0c0,.17-.01.34-.02.5h0c-.08,2.52-.21,4.74-.33,6.6h0c0,.13-.02.24-.02.36h0c0,.13-.02.24-.02.36h0c0,.11-.02.22-.02.32v.03c0,.1-.02.2-.02.3v.03c0,.1-.01.19-.02.28v.04c0,.08-.01.16-.02.24v.08c0,.06-.01.13-.02.19v.11c0,.05,0,.09-.01.13,0,.06,0,.11-.01.17v.05c-.18,2.16-.33,3.38-.33,3.38h-8.93c0-9.85-1.01-17.47-2.49-23.36-.8-.05-1.57-.13-2.3-.23-2.94-.41-5.33-1.21-7.28-2.19-.1-.05-.2-.1-.3-.15-.64-.34-1.22-.69-1.77-1.06-.08.22-.16.45-.24.67-.04.11-.07.21-.11.32-.04.12-.08.23-.12.35-.05.13-.09.26-.14.4-.03.09-.06.18-.09.26-.05.14-.09.29-.14.43-.03.08-.05.15-.08.23-.05.14-.09.29-.14.43-.02.07-.05.15-.07.22-.05.15-.09.29-.14.44-.02.07-.05.14-.07.21-.05.15-.1.3-.14.46-.02.06-.04.13-.06.19-.05.15-.1.31-.14.46-.02.06-.04.12-.06.18-.05.16-.1.32-.14.47-.02.05-.03.11-.05.16-.05.16-.1.32-.14.48l-.05.15c-.05.16-.1.33-.15.49,0,.04-.03.09-.04.13-.05.17-.1.34-.15.5,0,.04-.02.08-.04.12-.05.17-.1.34-.14.51,0,.04-.02.07-.03.11-.05.17-.1.34-.15.52,0,.03-.02.06-.03.09-.05.18-.1.35-.14.52,0,.03-.02.06-.02.08-.05.18-.1.35-.14.53,0,.02,0,.05-.02.07-.05.18-.1.35-.14.53,0,.02,0,.04-.02.06-.05.18-.1.36-.14.54,0,0,0,.03,0,.04-.05.18-.1.37-.14.55v.02c-.05.19-.1.37-.14.56h0c-2.07,8.19-2.83,14.07-2.88,14.48v.03h-7.41s-.91-10.03-.05-23.53c.06-1.01.14-2.04.22-3.08v-.04c.03-.33.05-.66.08-1h0c.12-1.4.26-2.81.43-4.24.67-5.91,1.73-12.17,3.33-18.35,1.99-7.65,4.82-15.18,8.84-21.77.84-1.37,1.73-2.7,2.67-3.98,0,0-3.46-2.91-5.43-7.24-2.17-4.78-2.52-11.29,5.55-17.58h0s-.06.11-.11.22c0,0,0,0,0,.02,0,0,0,.02-.02.03-.28.53-.9,1.78-1.39,3.38h0c-.02.08-.05.16-.07.24v.02c-.02.08-.04.16-.07.24v.03c-.02.08-.04.15-.06.23,0,0,0,.03,0,.04-.02.07-.04.15-.05.22,0,.02,0,.04,0,.05-.02.07-.03.15-.05.22,0,.02,0,.04,0,.06-.02.07-.03.14-.04.22,0,.02,0,.05,0,.07,0,.07-.03.14-.04.22,0,.02,0,.05,0,.08,0,.07-.02.14-.04.21,0,.03,0,.05,0,.08,0,.07-.02.14-.03.21,0,.03,0,.06,0,.09,0,.07-.02.14-.02.21,0,.03,0,.06,0,.09,0,.07,0,.14-.02.21v.1c0,.07,0,.13,0,.2v1.33c0,.06,0,.13,0,.19,0,.04,0,.08,0,.12,0,.06,0,.12.02.19,0,.04,0,.08,0,.12,0,.06.02.12.03.18,0,.04,0,.08.02.12,0,.06.02.12.03.18,0,.04.02.08.02.13,0,.06.02.12.04.18,0,.04.02.08.03.13,0,.06.03.12.04.18,0,.04.02.08.04.13.02.06.03.12.05.18,0,.04.03.08.04.13.02.06.04.11.06.17.02.04.03.09.05.13.02.06.04.11.07.17.02.04.04.08.05.13.02.06.05.11.07.17.02.04.04.08.06.13.03.06.05.11.08.16.02.04.04.08.07.13s.06.11.09.16c.02.04.05.08.07.13.03.05.06.1.09.16.03.04.05.08.08.12.03.05.07.1.1.15.03.04.06.08.09.12.04.05.07.1.11.15.03.04.06.08.1.12.04.05.08.1.12.15.03.04.07.08.11.12.04.05.08.1.13.14.04.04.08.08.11.12.04.05.09.09.14.14l.12.12s.09.09.14.13c.04.04.09.08.13.11.05.04.1.09.15.13.05.04.1.07.14.11.05.04.11.08.16.12.05.04.11.07.16.11s.11.08.17.12c.06.04.12.08.18.12.05.03.11.07.16.1.07.04.14.09.22.13.05.03.1.06.15.08.12.07.25.14.38.2,6.92,3.51,11.53-.62,17.16,3.96.38-.14.83-.33,1.31-.57,2.76-1.36,6.57-4.34,4.47-9.87.11.15,6.73,9.25.29,14.53-.33.27-.7.54-1.1.78,1.51,1.24,3.15,2.26,4.88,3,.66.28,1.33.53,2.01.73,1.49.44,3.12.77,4.83.88h0c.12.27,3.9,9.3-4.55,13.72-1.34.7-2.91,1.5-4.61,2.4l.02.02c2.4,2.61,5.8,5.07,13.08,10.56h0c.05.04.45.38,1.1.86h0c.83.62,2.05,1.5,3.42,2.3,2.39,1.4,5.21,2.59,7.15,1.92,3.37-1.17,2.62-5.46,1.56-8.36-.62-1.68-.13-3.67,1.17-4.68,1.72-1.35,4.02-.89,4.02-.89l-.13.06Z"/>
              <path class="cls-37" d="M105.15,104.92s-.02-.01-.03-.02h0l.02.02h.01Z"/>
              <path class="cls-36" d="M89.19,72.43c-.33.27-.7.54-1.1.78-.6-.49-1.18-1.02-1.73-1.58-.41-.41-.81-.85-1.2-1.29-.7-.81-1.37-1.46-2.03-2,.38-.14.83-.33,1.31-.57,2.76-1.36,6.57-4.34,4.47-9.87.11.15,6.73,9.25.29,14.53h-.01Z"/>
              <path class="cls-35" d="M83.06,98.32h0c-5.57,3.53-11.41,8.1-15.68,14.06-1.67,2.33-3.09,4.88-4.17,7.66-.41,1.06-.8,2.11-1.17,3.15-5.13,14.45-6.66,26.99-6.66,26.99h-7.41s-.91-10.03-.05-23.53c.17-2.67.41-5.47.74-8.36,7.61-8.91,18.95-18.03,34.39-19.96h0Z"/>
              <path class="cls-34" d="M99.82,77.83h0c-.16.15-15.09,14.36-36.3-3.65,0,0-3.46-2.91-5.43-7.24-2.17-4.78-2.52-11.29,5.55-17.58h0v.02c-.33.59-5.98,10.79,2.35,15.01,6.92,3.51,11.53-.62,17.16,3.96.66.54,1.34,1.2,2.03,2,.91,1.06,1.89,2.02,2.93,2.87,1.51,1.24,3.15,2.26,4.88,3,.66.28,1.33.53,2.01.73,1.49.44,3.12.77,4.83.88h0Z"/>
              <path class="cls-32" d="M95.26,91.55c-1.34.7-2.91,1.5-4.61,2.4h0c-.15.08-.29.16-.44.24-.25.13-.5.27-.76.41-.35.19-.7.38-1.06.58-.31.17-.62.34-.94.52-1.42.8-2.9,1.67-4.39,2.62-15.44,1.93-26.78,11.05-34.39,19.96.67-5.91,1.73-12.17,3.33-18.35,1.99-7.65,4.82-15.18,8.84-21.77.84-1.37,1.73-2.7,2.67-3.98,9.27,7.88,17.35,9.6,23.51,9.02.11,0,.22-.02.33-.03.81-.09,1.58-.21,2.32-.37.12-.03.25-.05.37-.08s.24-.06.36-.09.24-.06.35-.09c.26-.07.51-.14.76-.21.09-.03.18-.05.26-.08.15-.05.29-.09.43-.14.07-.02.15-.05.22-.07.11-.04.21-.07.32-.11.21-.07.42-.15.62-.23.1-.04.2-.08.3-.12.1-.04.2-.08.29-.12.29-.12.58-.25.85-.38.09-.04.17-.08.25-.12.09-.04.17-.08.26-.13.09-.04.17-.09.25-.13.91-.47,1.69-.94,2.32-1.37.06-.04.11-.08.17-.11.05-.04.11-.07.16-.11.11-.07.2-.14.3-.21.05-.03.09-.07.14-.1.13-.1.26-.19.37-.28.04-.03.07-.06.11-.09.4-.32.63-.53.67-.58h0c.12.27,3.9,9.3-4.55,13.72v-.02Z"/>
              <path class="cls-22" d="M99.81,77.84h0c-.22.33-8.8,13.16-26.2,7.58-5.24-1.68-9.44-4.34-12.76-7.26.84-1.37,1.73-2.7,2.67-3.98,9.27,7.88,17.35,9.6,23.51,9.02.11,0,.22-.02.33-.03.81-.09,1.58-.21,2.32-.37.12-.02.25-.05.37-.08s.24-.06.36-.09.24-.06.35-.09c.26-.07.51-.14.76-.21.09-.03.18-.05.26-.08.15-.05.29-.09.43-.14.07-.02.15-.05.22-.07.11-.04.21-.07.32-.11.21-.07.42-.15.62-.23.1-.04.2-.08.3-.12.1-.04.2-.08.29-.12.29-.12.58-.25.85-.38.09-.04.17-.08.25-.12.09-.04.17-.08.26-.13.09-.04.17-.08.25-.13.91-.47,1.69-.94,2.32-1.37.06-.04.11-.08.17-.11.05-.04.11-.07.16-.11.11-.07.2-.14.3-.21.05-.03.09-.07.14-.1.13-.1.26-.19.37-.28.04-.03.07-.06.11-.09.4-.32.63-.53.67-.58h0Z"/>
              <path class="cls-31" d="M103.44,136.99c-3.51-5.28-9.06-8.57-17.23-9.71-.05,0-.09-.01-.14-.02v-.17h0c-.02-.96-.04-1.93-.08-2.93-.03-.8-.06-1.62-.1-2.44-.02-.36-.03-.72-.05-1.08-.02-.44-.05-.89-.08-1.33-.04-.68-.09-1.36-.14-2.05v-.07c-.04-.5-.08-1.01-.12-1.52-.07-.81-.14-1.62-.22-2.44-.05-.48-.1-.96-.15-1.45-.21-1.96-.46-3.95-.75-5.95-.04-.28-.08-.55-.12-.83-.05-.3-.09-.59-.14-.89-.04-.26-.08-.52-.13-.78-.14-.83-.28-1.67-.44-2.51-.08-.45-.17-.91-.26-1.36h0c-.07-.36-.14-.72-.22-1.08,0-.02,0-.04-.01-.06,2.66-1.68,5.26-3.12,7.59-4.36,0,0-.02.03-.05.07-.49.69-4.06,6.3-.3,17.25,2.86,8.32,8.48,18.1,11.51,23.09.71,1.17,1.27,2.07,1.63,2.63h0Z"/>
              <path class="cls-30" d="M73.69,126.81c-.8-.05-1.57-.13-2.3-.23-2.94-.41-5.33-1.21-7.28-2.19-.1-.05-.2-.1-.3-.15-.64-.34-1.22-.69-1.77-1.06.37-1.04.76-2.09,1.17-3.15,1.07-2.78,2.5-5.32,4.17-7.66.23.31.47.65.71,1,.1.15.2.31.31.47.05.08.1.16.15.24.1.16.2.33.3.5.03.04.05.09.08.14s.06.09.09.14c0,.01.02.03.03.04.03.04.05.09.08.14.07.12.14.24.21.36.21.37.42.75.62,1.16.04.07.07.13.1.2.04.07.07.14.1.21.07.13.13.26.19.39.11.22.21.45.32.68.04.07.07.15.1.22.05.1.1.21.14.32.04.1.08.19.13.29.15.35.3.71.45,1.08.1.24.19.48.29.73.03.08.06.17.09.25.16.44.33.89.49,1.36.05.14.09.28.14.42.09.28.18.57.28.86.04.14.09.28.13.43h0c.04.15.08.28.12.42.05.16.09.32.14.48l.09.31c.14.52.29,1.05.42,1.6h.01Z"/>
              <path class="cls-33" d="M85.11,150.17h-8.93c0-9.85-1.01-17.47-2.49-23.36-.14-.55-.28-1.08-.42-1.6l-.09-.31c-.05-.16-.09-.32-.14-.48-.04-.14-.08-.28-.12-.41h0c-.04-.15-.09-.3-.13-.44-.09-.29-.18-.58-.28-.86-.05-.14-.09-.28-.14-.42-.16-.47-.32-.92-.49-1.36-.03-.08-.06-.17-.09-.25-.1-.25-.19-.49-.29-.73-.15-.37-.3-.73-.45-1.08-.04-.1-.08-.19-.13-.29-.05-.11-.09-.21-.14-.32-.03-.08-.07-.15-.1-.22-.11-.23-.21-.46-.32-.68-.06-.13-.13-.26-.19-.39-.03-.07-.07-.14-.1-.21s-.07-.14-.1-.2c-.21-.4-.41-.79-.62-1.16-.07-.12-.14-.24-.21-.36-.03-.05-.05-.09-.08-.14,0-.01-.02-.03-.03-.04-.03-.05-.06-.1-.09-.14-.03-.05-.05-.09-.08-.14-.1-.17-.2-.34-.3-.5-.05-.08-.1-.16-.15-.24-.1-.16-.21-.32-.31-.47-.24-.36-.47-.69-.71-1,4.26-5.95,10.1-10.52,15.66-14.05h.01s0,.04.01.06c.07.36.15.72.22,1.08h0c.09.46.18.91.26,1.36.15.84.3,1.67.44,2.51.04.26.09.52.13.78.05.3.09.59.14.89.04.28.08.56.12.83.29,2,.54,3.99.75,5.95.05.48.1.97.15,1.45.08.82.15,1.63.22,2.44.04.51.08,1.02.12,1.52v.07c.05.69.09,1.37.14,2.05.03.45.05.89.08,1.33.02.36.04.72.05,1.08.04.82.07,1.64.1,2.44.03.99.06,1.97.08,2.92h0v.17c.23,13.28-.96,22.91-.96,22.91h0Z"/>
              <path class="cls-43" d="M104.09,145.59c-.15,2.69-.42,4.58-.42,4.58h-8.11c.08-8.75-6.01-18.18-9.49-22.91.05,0,.09.01.14.02,4.32.6,7.9,1.8,10.84,3.58,2.63,1.59,4.74,3.64,6.39,6.13h0s.03.04.04.06c.12.17.23.35.34.52,0,0,.02.02.02.03v.02h.01c.06.09.11.18.16.27.08.91.13,1.83.15,2.72.05,1.78,0,3.49-.08,4.95v.03Z"/>
              <path class="cls-44" d="M122.17,95.69s-1.11.85-1.71,3.01-2.37,2.08-2.37,2.08h0c.02.05.07.18.16.38h0c.37.89,1.25,3.21,1.52,5.71.34,3.05-.22,6.37-3.73,7.63-1.84.66-3.64.51-5.3-.07h0c-.33-.83-.69-1.64-1.07-2.41-1.31-2.67-2.89-4.96-4.81-6.61.83.62,2.05,1.5,3.42,2.3,2.39,1.4,5.21,2.59,7.15,1.92,3.37-1.17,2.62-5.46,1.56-8.36-.62-1.68-.13-3.67,1.17-4.68,1.72-1.35,4.02-.89,4.02-.89h0Z"/>
              <path class="cls-45" d="M115.79,150.17h-7.88c-.64-4.8-1.89-8.89-3.9-12.26-.05-.09-.11-.18-.16-.27h0s0,0-.01-.02c0,0-.01-.02-.02-.03-.11-.18-.22-.35-.34-.52-.01-.02-.03-.04-.04-.06h0c-1.88-2.96-9.61-15.46-13.14-25.71-3.86-11.23,0-16.84.33-17.29h0s.01-.03.01-.03l.02.02c2.4,2.61,5.8,5.07,13.08,10.56h0c.05.04.45.38,1.1.86h0c2.48,2.13,4.4,5.32,5.88,9.02h0c5.66,14.1,5.05,35.75,5.05,35.75l.02-.02Z"/>
              <path class="cls-20" d="M95.26,91.55c-1.34.7-2.91,1.5-4.61,2.4h0c-.15.08-.29.16-.44.24-.25.13-.5.27-.76.41-.35.19-.7.38-1.06.58-.31.17-.62.34-.94.52-1.42.8-2.9,1.67-4.39,2.62-15.44,1.93-26.78,11.05-34.39,19.96.67-5.91,1.73-12.17,3.33-18.35,14.04-7.61,31.57-5.48,39.4-8.19,10.62-3.67,8.47-13.62,8.41-13.9.12.27,3.9,9.3-4.55,13.72h0Z"/>
              <path class="cls-23" d="M99.82,77.83c-.63.61-1.31,1.14-2.01,1.63-.7.49-1.43.93-2.17,1.34-1.49.79-3.04,1.43-4.63,1.88-1.59.46-3.22.72-4.85.83-1.64.1-3.28.01-4.9-.21l-1.21-.21c-.1-.02-.2-.03-.3-.06l-.3-.07-.6-.14-.6-.14c-.2-.05-.4-.12-.6-.18l-1.19-.37-1.17-.44-.58-.22-.57-.26-1.14-.51c-.38-.19-.75-.39-1.12-.59-.75-.37-1.47-.83-2.2-1.27-.37-.21-.72-.46-1.07-.7l-1.06-.72c-.18-.12-.35-.25-.52-.38l-.51-.39-1.02-.79c-.66-.56-1.32-1.12-1.98-1.69l1.02.78,1.02.79,1.05.73.52.37c.18.12.35.25.53.36l1.07.68c.36.23.71.46,1.08.65.73.4,1.45.84,2.21,1.19.37.18.74.37,1.12.55l1.14.49.57.25.58.21,1.16.42c1.56.49,3.14.9,4.74,1.13,3.2.46,6.46.33,9.62-.49,1.58-.41,3.12-.98,4.62-1.71,1.49-.73,2.94-1.61,4.27-2.73h-.02Z"/>
              <g class="cls-24">
                <path class="cls-28" d="M52.01,99.92l.8-.44c.27-.14.53-.29.8-.42.54-.27,1.08-.54,1.63-.78l.83-.37.83-.34c.55-.23,1.12-.43,1.68-.64,2.25-.79,4.55-1.39,6.87-1.89.58-.13,1.16-.23,1.74-.35.58-.1,1.16-.21,1.74-.3.58-.09,1.17-.18,1.75-.26.58-.09,1.17-.16,1.75-.23,2.34-.29,4.68-.49,7.02-.7,2.34-.2,4.68-.38,7-.68,1.16-.15,2.32-.33,3.46-.61.57-.14,1.13-.3,1.69-.5.28-.1.56-.2.83-.31.27-.12.55-.23.82-.36,1.08-.51,2.11-1.16,3.03-1.99l.34-.31.33-.34.16-.17.15-.18.31-.36c.39-.51.75-1.04,1.06-1.62.61-1.16,1.04-2.46,1.23-3.82.1-.68.14-1.37.14-2.06s-.05-1.38-.18-2.06c.15.67.22,1.36.25,2.06.03.69,0,1.39-.08,2.08-.16,1.38-.56,2.73-1.16,3.94-.3.6-.67,1.16-1.06,1.69l-.31.38-.16.19-.17.18-.33.35-.35.33c-.94.87-1.98,1.56-3.07,2.1s-2.23.96-3.39,1.25c-1.16.29-2.33.49-3.49.65-2.34.32-4.68.51-7.02.71-4.68.39-9.35.82-13.98,1.71-2.31.45-4.61,1-6.86,1.74-.56.19-1.13.36-1.69.58l-.84.31-.83.34c-1.11.45-2.2.96-3.28,1.5h0Z"/>
              </g>
              <path class="cls-46" d="M83.06,98.32c-15.44,1.93-26.78,11.05-34.39,19.96,2.14-2.91,4.55-5.56,7.15-7.93,2.6-2.37,5.39-4.45,8.33-6.19,2.94-1.74,6.03-3.13,9.21-4.13,3.18-.99,6.44-1.58,9.7-1.71Z"/>
              <path class="cls-49" d="M92.97,76.22c-7.39,3.17-19.78,2.24-28.1-5.22-10.86-9.74-1.44-21.42-1.25-21.65-.13.23-6.15,10.73,2.34,15.03,6.92,3.51,11.53-.62,17.16,3.96.66.54,1.34,1.2,2.03,2,.91,1.06,1.89,2.02,2.93,2.87,1.51,1.24,3.15,2.26,4.88,3h.01Z"/>
              <path class="cls-50" d="M99.82,77.83h-.17c-.48,0-.97-.02-1.45-.06-.54-.05-1.08-.12-1.62-.21s-1.08-.21-1.61-.34-1.07-.29-1.59-.48c-1.05-.38-2.07-.85-3.07-1.42-.99-.57-1.94-1.24-2.85-1.98-.91-.74-1.77-1.57-2.57-2.46-.77-.87-1.57-1.65-2.45-2.29-.11-.09-.22-.16-.33-.23s-.22-.15-.34-.22c-.23-.13-.46-.28-.69-.39-.23-.13-.47-.23-.71-.34-.24-.09-.48-.19-.73-.26-.99-.32-2.02-.44-3.07-.48s-2.13,0-3.23-.02c-1.09-.01-2.21-.07-3.31-.26-.55-.1-1.1-.23-1.64-.39-.54-.17-1.08-.36-1.6-.59-1.04-.45-2.07-1.04-2.98-1.85-.12-.09-.22-.21-.33-.32l-.33-.33-.3-.37-.15-.18c-.05-.06-.09-.13-.14-.2l-.27-.4c-.09-.14-.16-.29-.24-.43l-.12-.22c-.04-.07-.07-.15-.1-.23-.06-.15-.13-.3-.19-.46-.22-.63-.37-1.29-.45-1.95-.07-.67-.08-1.34-.03-1.99.12-1.32.42-2.58.85-3.77.43-1.18.96-2.3,1.6-3.32-.33.59-5.98,10.79,2.35,15.01,6.92,3.51,11.53-.62,17.16,3.96.66.54,1.34,1.2,2.03,2,.91,1.06,1.89,2.02,2.93,2.87,1.51,1.24,3.15,2.26,4.88,3,.66.28,1.33.53,2.01.73,1.49.44,3.12.77,4.83.88h.02Z"/>
              <g class="cls-24">
                <path class="cls-51" d="M86.35,71.64c.97-.7,1.87-1.53,2.58-2.55.34-.52.65-1.07.88-1.67.23-.6.39-1.23.47-1.87.19-1.29.09-2.63-.17-3.92-.13-.64-.3-1.28-.51-1.9-.2-.62-.44-1.23-.71-1.83.34.54.62,1.14.87,1.75s.46,1.25.61,1.9c.16.65.27,1.33.32,2.01.05.68.03,1.38-.07,2.06s-.27,1.35-.52,1.97c-.26.62-.59,1.19-.97,1.71-.78,1.01-1.75,1.79-2.79,2.34h0Z"/>
              </g>
              <path class="cls-19" d="M89.19,72.43c-.33.27-.7.54-1.1.78-.6-.49-1.18-1.02-1.73-1.58,7.55-4.68,2.64-13.58,2.55-13.73.11.15,6.73,9.25.29,14.53h-.01Z"/>
              <path class="cls-3" d="M89.19,72.43c-.33.27-.7.54-1.1.78-1.04-.86-2.02-1.82-2.93-2.87-.7-.81-1.37-1.46-2.03-2,.38-.14.83-.33,1.31-.57.51.47,1.03,1,1.54,1.59.87,1.01,1.81,1.92,2.78,2.73.14.12.29.23.44.35h-.01Z"/>
              <path class="cls-8" d="M83.06,98.32h0s-.02.01-.05.02c-1.2.5-21.56,9.08-35.07,28.3.09-1.34.19-2.72.31-4.13.12-1.39.26-2.8.43-4.23,7.61-8.91,18.95-18.02,34.38-19.96h0Z"/>
              <path class="cls-16" d="M83.06,98.32c-5.57,3.53-11.41,8.1-15.68,14.06-1.67,2.33-3.09,4.88-4.17,7.66-.41,1.06-.8,2.11-1.17,3.15-5.05,14.22-6.61,26.6-6.65,26.98h-7.41c9.44-46.97,35.08-51.85,35.08-51.85Z"/>
              <path class="cls-47" d="M83.06,98.32c-5.57,3.53-11.41,8.1-15.68,14.06-1.67,2.33-3.09,4.88-4.17,7.66-.41,1.06-.8,2.11-1.17,3.15-5.05,14.22-6.61,26.6-6.65,26.98.05-.66.12-1.32.2-1.98.08-.66.16-1.33.26-1.99.18-1.32.4-2.64.62-3.95.12-.66.25-1.31.37-1.96.13-.65.26-1.3.39-1.96.13-.65.28-1.3.43-1.95.14-.65.3-1.29.46-1.94.62-2.58,1.34-5.13,2.12-7.65.19-.63.39-1.26.6-1.88l.63-1.87c.22-.62.45-1.23.68-1.85l.34-.92.17-.46.18-.46c.5-1.23,1.06-2.43,1.69-3.57.63-1.14,1.31-2.24,2.05-3.28.37-.52.76-1.02,1.14-1.53.19-.25.4-.49.59-.74.2-.25.4-.49.6-.72.81-.96,1.68-1.84,2.55-2.71,1.77-1.71,3.64-3.26,5.57-4.66,1.94-1.4,3.94-2.67,5.99-3.8l.04-.02Z"/>
              <g class="cls-24">
                <path class="cls-27" d="M47.99,150.17l.87-4.24,1.02-4.19.58-2.07.29-1.04c.1-.35.19-.69.31-1.03l.65-2.04.33-1.02c.11-.34.24-.67.36-1.01l.72-2.01.18-.5.2-.49.4-.98.4-.98c.14-.33.26-.66.41-.98l.87-1.93.22-.48c.07-.16.15-.32.23-.48l.47-.94.47-.94c.16-.31.31-.63.48-.93l1.01-1.83.25-.46.27-.44.54-.89.54-.89c.09-.15.19-.29.28-.43l.29-.43.57-.86.29-.43.14-.21.15-.21,1.21-1.65c.1-.14.21-.27.31-.4l.32-.4.63-.8c1.72-2.09,3.56-4.05,5.54-5.78l.37-.33c.12-.11.25-.22.37-.32l.76-.62c.5-.42,1.03-.8,1.55-1.19.26-.2.53-.38.79-.56.27-.18.53-.37.8-.55l.82-.51c.14-.08.27-.17.41-.25l.42-.24c1.11-.65,2.24-1.21,3.4-1.7s2.34-.92,3.55-1.17c-1.2.3-2.37.76-3.52,1.27-1.15.52-2.27,1.11-3.36,1.78l-.41.25c-.14.08-.27.17-.4.26l-.81.52c-.27.18-.53.37-.79.56-.26.19-.53.37-.78.57-.51.4-1.04.78-1.53,1.21l-.75.63c-.13.1-.25.21-.37.32l-.36.33c-3.9,3.52-7.32,7.76-10.16,12.48-2.9,4.68-5.22,9.83-7.17,15.16-.12.33-.25.66-.37,1l-.34,1.01-.67,2.03c-.12.34-.22.68-.32,1.02l-.3,1.03-.61,2.06-1.09,4.16-.96,4.21.03-.03Z"/>
              </g>
              <path class="cls-5" d="M83.06,98.32h0c-.31.05-18.69,2.97-34.81,24.19.12-1.39.26-2.8.43-4.23,7.61-8.91,18.95-18.02,34.38-19.96h0Z"/>
              <path class="cls-7" d="M73.69,126.81c-.8-.05-1.57-.13-2.3-.23-1.3-6.6-3.95-14.05-4-14.2.23.31.47.65.71,1,.1.15.2.31.31.47.05.08.1.16.15.24.1.16.2.33.3.5.06.09.11.18.17.28,0,.01.02.03.03.04.03.04.05.09.08.14.07.12.14.24.21.36.21.37.42.75.62,1.16.04.07.07.13.1.2.04.07.07.14.1.21.06.13.13.26.19.39.11.22.21.45.32.68.03.07.07.15.1.22.05.1.1.21.14.32.04.1.08.19.13.29.15.35.3.71.45,1.08.13.32.26.65.38.98.16.44.33.89.49,1.36.05.14.09.28.14.42.09.28.18.57.28.86.04.14.09.28.13.43h0c.04.15.08.28.12.42.05.16.09.32.14.48.03.1.06.21.09.31.14.52.29,1.05.42,1.6h0Z"/>
              <path class="cls-17" d="M85.11,150.16h0s-8.93,0-8.93,0c0,0,6.1-16.52,6.87-51.84l.03.06c1.83,8.89,2.64,17.86,2.91,25.78.03.99.06,1.97.08,2.92h0v.17c.23,13-.91,22.5-.96,22.9h0Z"/>
              <path class="cls-57" d="M85.53,137.17c.02-2.17.03-4.33,0-6.49,0-1.08-.03-2.16-.05-3.24l-.09-3.24c-.15-4.32-.41-8.63-.78-12.94-.39-4.3-.91-8.59-1.54-12.87l-.02-.06.03.06c1.83,8.89,2.64,17.86,2.91,25.78.03.99.06,1.97.08,2.92h0v.17c.23,13-.91,22.5-.96,22.9.24-4.34.37-8.66.43-12.99h-.01Z"/>
              <g class="cls-24">
                <path class="cls-56" d="M76.18,150.17c.65-2.06,1.19-4.16,1.66-6.28l.18-.79.17-.8.34-1.6.62-3.21.55-3.22c.17-1.08.33-2.16.5-3.24l.12-.81.11-.81.22-1.62.22-1.62c.07-.54.13-1.09.19-1.63l.38-3.26.31-3.27.16-1.63c.05-.55.09-1.09.13-1.64l.26-3.28.07-.82.05-.82.1-1.64.21-3.28c.12-2.19.2-4.38.33-6.58h0l.03.06-.03-.06h0l-.02,1.65-.03,1.65c-.02,1.1-.03,2.2-.06,3.3l-.13,3.29-.07,1.65-.04.82-.05.82-.22,3.29c-.04.55-.07,1.1-.12,1.64l-.15,1.64-.3,3.28-.37,3.27c-.07.54-.12,1.09-.19,1.63l-.22,1.63-.22,1.63-.11.81-.13.81c-.18,1.08-.35,2.16-.53,3.24l-.6,3.22-.33,1.6c-.11.53-.22,1.07-.34,1.6l-.37,1.59-.19.79-.2.79c-.14.52-.27,1.05-.42,1.57l-.44,1.56c-.16.52-.31,1.04-.48,1.55l-.26.77c-.09.25-.18.51-.28.76h-.01Z"/>
              </g>
              <path class="cls-6" d="M103.44,136.99c-1.66-2.49-3.77-4.54-6.39-6.13-3.95-6.84-8.03-13.4-9.13-19.57-2.02-11.33,2.38-16.89,2.73-17.3-.33.45-4.19,6.06-.33,17.29,3.52,10.26,11.26,22.75,13.14,25.71h-.02Z"/>
              <path class="cls-58" d="M103.44,136.99c-3.51-5.28-9.06-8.57-17.23-9.71-.05,0-.09-.01-.14-.02,1.66-.05,3.33.12,4.97.48s3.26.91,4.81,1.7c1.55.79,3.02,1.81,4.32,3.08.58.57,1.14,1.19,1.64,1.85.62.81,1.17,1.69,1.63,2.63h0Z"/>
              <path class="cls-4" d="M104.17,140.64c-5.76-9.18-18.11-13.38-18.11-13.38.05,0,.09.01.14.02,4.32.6,7.9,1.8,10.84,3.58,2.63,1.59,4.74,3.64,6.39,6.13h0s.03.04.04.06c.12.17.23.35.34.52,0,0,.02.02.02.03v.02h.01c.06.09.11.18.16.27.08.91.13,1.83.15,2.72l.02.03Z"/>
              <g class="cls-24">
                <path class="cls-26" d="M86.06,127.26c1.94.91,3.72,2.26,5.35,3.81,1.63,1.56,3.07,3.37,4.3,5.38l.23.38c.08.13.15.25.22.38l.43.78c.14.26.27.53.4.8.07.13.13.27.2.4l.18.41c.5,1.09.92,2.22,1.3,3.38.17.58.36,1.16.5,1.76.07.3.15.59.22.89l.19.9.09.45c.03.15.05.3.08.45l.15.91c.09.61.15,1.22.22,1.83h0s0,0,0,0l-.14-.91-.07-.45-.03-.23-.04-.23-.17-.9c-.03-.15-.06-.3-.09-.45l-.1-.44-.2-.89c-.07-.29-.16-.59-.24-.88-.15-.59-.34-1.16-.52-1.73-.4-1.13-.81-2.26-1.31-3.33l-.18-.41c-.06-.13-.13-.26-.2-.4-.13-.26-.26-.53-.4-.79l-.43-.77c-.14-.26-.3-.5-.45-.75-.61-.99-1.26-1.95-1.97-2.85-.71-.9-1.47-1.74-2.26-2.53s-1.63-1.53-2.5-2.19c-.87-.67-1.78-1.28-2.73-1.78h-.03Z"/>
              </g>
              <path class="cls-18" d="M100.11,150.17h-4.55c.08-8.75-6.01-18.18-9.49-22.91,0,0,12.06,5.44,14.04,22.9h0Z"/>
              <path class="cls-15" d="M115.79,150.17h-4.37c-.22-10.86-1.99-21.64-7.23-27.66-13.33-15.29-13.56-28.53-13.56-28.53h.04c2.4,2.6,5.8,5.06,13.08,10.55h0c.05.04.45.38,1.1.86h0c2.48,2.13,4.4,5.32,5.88,9.02h0c5.66,14.1,5.05,35.75,5.05,35.75h.01Z"/>
              <path class="cls-48" d="M105.13,104.91h0s.02,0,.03.01h-.03Z"/>
              <polygon class="cls-53" points="111.32 114.42 111.27 114.13 111.32 114.27 111.32 114.42"/>
              <path class="cls-52" d="M115.79,150.17c-.08-3.05-.24-6.08-.48-9.1-.11-1.51-.25-3.02-.41-4.52s-.33-3-.54-4.5c-.21-1.49-.43-2.98-.69-4.46-.26-1.48-.57-2.94-.89-4.4-.34-1.45-.71-2.89-1.13-4.31-.43-1.41-.9-2.8-1.43-4.16h0s0-.02-.01-.03c-.34-.84-.7-1.66-1.09-2.46-.4-.81-.83-1.6-1.29-2.35-.93-1.51-2.01-2.88-3.26-3.99h-.01l-.52-.42-.28-.22-.14-.11-.07-.06-.03-.03h-.02v-.02h-.01s-3.28-2.59-3.28-2.59c-1.1-.87-2.19-1.75-3.28-2.63-1.09-.89-2.17-1.8-3.23-2.74-.53-.48-1.04-.97-1.55-1.47-.5-.51-.99-1.04-1.46-1.6h-.04.04c2.4,2.61,5.8,5.07,13.08,10.56h0c.05.04.45.38,1.1.86h0c2.48,2.13,4.4,5.32,5.88,9.02h0c5.66,14.1,5.05,35.75,5.05,35.75v-.02Z"/>
              <g class="cls-24">
                <path class="cls-54" d="M111.43,150.17l-.04-.98-.05-.98c-.04-.65-.07-1.31-.12-1.96-.09-1.31-.21-2.61-.36-3.91-.29-2.6-.71-5.17-1.31-7.69-.61-2.51-1.4-4.96-2.48-7.23-.54-1.13-1.15-2.21-1.85-3.21-.09-.12-.17-.25-.26-.37l-.28-.36c-.18-.24-.38-.47-.57-.7l-1.18-1.39c-3.12-3.76-5.91-7.94-8.1-12.53-.55-1.14-1.05-2.33-1.52-3.52-.47-1.2-.89-2.42-1.26-3.66-.37-1.24-.68-2.51-.92-3.79-.25-1.28-.43-2.59-.47-3.9h.04-.04c.04.65.12,1.3.23,1.95.1.64.22,1.28.36,1.92.28,1.27.62,2.51,1.02,3.74.39,1.23.83,2.43,1.31,3.6.49,1.17,1,2.33,1.57,3.46,1.12,2.25,2.38,4.41,3.74,6.47,1.36,2.06,2.83,4.02,4.38,5.89l1.17,1.39c.2.24.4.47.58.72l.28.37c.09.13.18.26.27.38.71,1.03,1.35,2.13,1.89,3.3,1.08,2.32,1.88,4.82,2.44,7.37.57,2.55.95,5.15,1.19,7.77.12,1.31.2,2.62.26,3.93.03.66.05,1.31.07,1.97l.02.98v.98h0Z"/>
              </g>
              <path class="cls-9" d="M90.66,93.95s-.02.03-.05.07c-.51.33-3.48,2.29-7.31,5.44-4.49,3.69-10.15,9.01-14.36,15.25-2.05,3.04-3.76,6.29-4.82,9.68-.1-.05-.2-.1-.3-.15-.64-.34-1.22-.69-1.77-1.06.37-1.04.76-2.09,1.17-3.15,1.07-2.78,2.5-5.32,4.17-7.66,4.26-5.95,10.1-10.52,15.66-14.05h.01c2.66-1.68,5.26-3.12,7.59-4.36h0Z"/>
              <path class="cls-55" d="M118.09,100.79s.07.17.16.37c-.06-.11-.11-.23-.16-.37Z"/>
              <path class="cls-14" d="M122.17,95.69s-1.11.85-1.71,3.01-2.37,2.08-2.37,2.08c-1.26-3.74,4.09-5.09,4.09-5.09h0Z"/>
              <path class="cls-2" d="M110.74,114.42c-1.49-3.7-3.41-6.89-5.88-9.02.83.62,2.05,1.5,3.42,2.3.74,1.51,1.7,3.8,2.46,6.72Z"/>
              <path class="cls-21" d="M116.04,114.49c-1.84.66-3.64.51-5.3-.07h0c-.33-.83-.69-1.64-1.07-2.41,3.31,1.18,9.88,2.54,10.1-5.14h0c.34,3.05-.22,6.36-3.73,7.62Z"/>
              <g class="cls-24">
                <path class="cls-25" d="M109.67,112.01c1.07.32,2.15.58,3.24.71.55.06,1.09.1,1.64.07.54-.02,1.09-.09,1.61-.25.53-.15,1.04-.38,1.49-.72.46-.34.85-.79,1.16-1.31.31-.52.53-1.12.68-1.74.15-.62.22-1.27.27-1.92,0,.65-.05,1.31-.16,1.95-.13.64-.33,1.27-.64,1.83-.3.56-.72,1.04-1.19,1.41s-1.01.61-1.55.77c-1.1.31-2.23.29-3.33.12s-2.18-.5-3.22-.92h0Z"/>
              </g>
            </g>
          </g>
          <path class="cls-60" d="M214.23,79.4c6.2,0,9.71,3.65,9.71,8.59,0,3.29-1.98,5.93-4.64,6.84,3.1.76,5.62,3.59,5.62,7.55,0,5.17-3.86,8.9-9.85,8.9h-12.32v-31.89h11.49ZM213.28,92.59c2.83,0,4.54-1.58,4.54-4.01s-1.58-3.95-4.58-3.95h-4.37v7.96h4.41ZM213.91,106.11c3.02,0,4.81-1.58,4.81-4.14s-1.62-4.27-4.73-4.27h-5.13v8.42h5.04Z"/>
          <path class="cls-60" d="M231.45,78.19c2.07,0,3.69,1.67,3.69,3.73s-1.62,3.65-3.69,3.65-3.69-1.67-3.69-3.65,1.67-3.73,3.69-3.73ZM228.49,111.29v-22.12h5.97v22.12h-5.97Z"/>
          <path class="cls-60" d="M253.08,95.1c-.68-.13-1.26-.17-1.8-.17-3.06,0-5.72,1.48-5.72,6.25v10.11h-5.97v-22.12h5.8v3.29c1.35-2.93,4.41-3.46,6.29-3.46.49,0,.95.04,1.39.09v6.03h0Z"/>
          <path class="cls-60" d="M256.06,111.29v-22.12h5.72v2.7c1.22-2.15,4.05-3.33,6.48-3.33,3.02,0,5.44,1.31,6.56,3.69,1.75-2.7,4.09-3.69,7.01-3.69,4.09,0,8,2.47,8,8.42v14.35h-5.8v-13.13c0-2.38-1.16-4.18-3.91-4.18-2.56,0-4.09,1.98-4.09,4.37v12.96h-5.93v-13.13c0-2.38-1.22-4.18-3.91-4.18s-4.14,1.94-4.14,4.37v12.96h-5.97v-.04Z"/>
          <path class="cls-60" d="M297.62,78.19c2.07,0,3.69,1.67,3.69,3.73s-1.62,3.65-3.69,3.65-3.69-1.67-3.69-3.65,1.67-3.73,3.69-3.73ZM294.65,111.29v-22.12h5.97v22.12s-5.97,0-5.97,0Z"/>
          <path class="cls-60" d="M311.74,111.29h-5.97v-22.12h5.8v2.74c1.35-2.3,4.01-3.33,6.39-3.33,5.49,0,8,3.91,8,8.78v13.95h-5.97v-12.91c0-2.47-1.22-4.41-4.09-4.41-2.61,0-4.14,2.03-4.14,4.58v12.73h-.01Z"/>
          <path class="cls-60" d="M334.59,111.06c.4,2.43,2.34,4.18,5.17,4.18,3.78,0,5.89-1.88,5.89-6.16v-1.62c-.9,1.44-2.97,2.83-6.16,2.83-5.89,0-10.3-4.54-10.3-10.74,0-5.85,4.22-10.79,10.3-10.79,3.5,0,5.53,1.52,6.29,3.02v-2.61h5.76v19.75c0,6.08-3.29,11.61-11.61,11.61-6.08,0-10.11-3.78-10.74-8l5.4-1.44h0ZM345.75,99.55c0-3.42-2.34-5.57-5.21-5.57s-5.3,2.15-5.3,5.57,2.2,5.62,5.3,5.62,5.21-2.2,5.21-5.62Z"/>
          <path class="cls-60" d="M362.35,111.29h-5.99v-32.56h5.99v12.28c1.44-1.71,3.86-2.43,5.97-2.43,5.62,0,8.23,3.91,8.23,8.78v13.95h-5.97v-12.91c0-2.47-1.22-4.41-4.09-4.41-2.51,0-4.01,1.9-4.14,4.32v13h0Z"/>
          <path class="cls-60" d="M386.64,98.56l5.44-.8c1.26-.17,1.67-.8,1.67-1.58,0-1.58-1.22-2.87-3.73-2.87s-4.05,1.67-4.22,3.59l-5.31-1.12c.36-3.46,3.55-7.28,9.49-7.28,7.01,0,9.62,3.96,9.62,8.42v10.89c0,1.16.13,2.74.27,3.5h-5.49c-.13-.59-.23-1.8-.23-2.66-1.12,1.75-3.23,3.29-6.52,3.29-4.73,0-7.6-3.19-7.6-6.65,0-3.96,2.93-6.16,6.61-6.71h0ZM393.74,102.34v-.99l-5,.76c-1.52.23-2.74,1.08-2.74,2.79,0,1.31.95,2.57,2.87,2.57,2.51,0,4.85-1.22,4.85-5.13h.01Z"/>
          <path class="cls-60" d="M404.37,111.29v-22.12h5.72v2.7c1.22-2.15,4.05-3.33,6.48-3.33,3.02,0,5.44,1.31,6.56,3.69,1.75-2.7,4.09-3.69,7.01-3.69,4.09,0,8,2.47,8,8.42v14.35h-5.8v-13.13c0-2.38-1.16-4.18-3.91-4.18-2.57,0-4.09,1.98-4.09,4.37v12.96h-5.93v-13.13c0-2.38-1.22-4.18-3.91-4.18s-4.14,1.94-4.14,4.37v12.96h-5.99v-.04Z"/>
          <g>
            <path class="cls-62" d="M72.46,142.45h4.31c-.08-3.8,5.69-7.9,8.99-9.96,0,0-11.43,2.36-13.3,9.95h0Z"/>
            <g class="cls-39">
              <path class="cls-12" d="M74.12,142.45h4.31c-.08-3.8,5.46-8.31,8.75-10.36,0,0-11.19,2.77-13.06,10.36h0Z"/>
            </g>
          </g>
          <g>
            <path class="cls-61" d="M75.89,142.45h-1.54c.03-3.17-2.04-6.58-3.22-8.3,0,0,4.09,1.97,4.77,8.29h0Z"/>
            <g class="cls-40">
              <path class="cls-13" d="M75.3,142.45h-1.54c.03-3.17-2.04-6.58-3.22-8.3,0,0,4.09,1.97,4.77,8.29h0Z"/>
            </g>
          </g>
          <g>
            <path class="cls-42" d="M75.45,142.45h-4.07c1.52-1.09,1.86-3.05-1.25-4.19,0,0,3.55-.02,5.32,4.19h0Z"/>
            <g class="cls-41">
              <path class="cls-10" d="M73.88,142.45h-4.07c.07-2.11,3.7-2.9.59-4.04,0,0,3.64.95,3.48,4.04h0Z"/>
            </g>
          </g>
          <path class="cls-29" d="M203.65,141.79v-14.53h2.86v14.53h-2.86Z"/>
          <path class="cls-29" d="M215.55,129.94v11.85h-2.85v-11.85h-4.59v-2.68h12.03v2.68h-4.59Z"/>
          <path class="cls-29" d="M228.96,131.5c-.14-.8-.8-2.05-2.64-2.05-1.38,0-2.27.88-2.27,1.84,0,.8.51,1.43,1.57,1.64l2.04.39c2.64.52,4.06,2.23,4.06,4.28,0,2.23-1.87,4.49-5.25,4.49-3.86,0-5.56-2.49-5.78-4.55l2.63-.7c.13,1.43,1.12,2.72,3.17,2.72,1.52,0,2.36-.76,2.36-1.78,0-.84-.63-1.5-1.77-1.73l-2.04-.41c-2.32-.48-3.82-1.97-3.82-4.16,0-2.58,2.32-4.55,5.07-4.55,3.52,0,4.89,2.13,5.21,3.78l-2.54.79h.01Z"/>
          <path class="cls-29" d="M254.6,127.26h2.89l-4.02,14.53h-2.91l-3.33-10.35-3.33,10.35h-2.95l-4.04-14.53h2.99l2.67,10.01,3.22-10.01h2.93l3.24,10.05s2.63-10.05,2.63-10.05Z"/>
          <path class="cls-29" d="M267.82,136.75c0,3.09-2.27,5.35-5.29,5.35s-5.29-2.26-5.29-5.35,2.27-5.35,5.29-5.35,5.29,2.23,5.29,5.35ZM265.1,136.75c0-1.91-1.24-2.86-2.57-2.86s-2.57.97-2.57,2.86,1.24,2.86,2.57,2.86,2.57-.97,2.57-2.86Z"/>
          <path class="cls-29" d="M275.71,134.42c-.31-.06-.58-.08-.81-.08-1.39,0-2.6.67-2.6,2.85v4.62h-2.72v-10.08h2.64v1.5c.62-1.33,2.01-1.57,2.86-1.57.22,0,.44.01.63.04v2.75-.03Z"/>
          <path class="cls-29" d="M277.23,141.79v-14.84h2.72v14.84h-2.72Z"/>
          <path class="cls-29" d="M292.07,139.96c0,.67.04,1.42.08,1.83h-2.6c-.04-.21-.1-.7-.1-1.17-.45.8-1.47,1.42-2.84,1.42-2.86,0-4.91-2.26-4.91-5.31s1.99-5.27,4.84-5.27c1.74,0,2.57.72,2.85,1.25v-5.76h2.68v13.02h-.01ZM286.95,139.6c1.39,0,2.49-1.07,2.49-2.89s-1.08-2.81-2.49-2.81-2.5,1.02-2.5,2.84,1.07,2.86,2.5,2.86Z"/>
          <path class="cls-29" d="M298.6,134.54c0-4.63,3.51-7.58,7.4-7.58s6.09,2.46,6.67,4.82l-2.67.84c-.35-1.39-1.47-2.93-4-2.93-2.18,0-4.47,1.56-4.47,4.86,0,3.1,2.18,4.8,4.51,4.8,2.49,0,3.69-1.61,4.09-2.98l2.64.8c-.55,2.23-2.64,4.94-6.73,4.94s-7.44-2.93-7.44-7.57h0Z"/>
          <path class="cls-29" d="M323.99,136.75c0,3.09-2.27,5.35-5.29,5.35s-5.29-2.26-5.29-5.35,2.27-5.35,5.29-5.35,5.29,2.23,5.29,5.35ZM321.26,136.75c0-1.91-1.24-2.86-2.56-2.86s-2.57.97-2.57,2.86,1.24,2.86,2.57,2.86,2.56-.97,2.56-2.86Z"/>
          <path class="cls-29" d="M328.45,141.79h-2.72v-10.08h2.64v1.25c.62-1.04,1.83-1.52,2.91-1.52,2.5,0,3.65,1.78,3.65,4v6.36h-2.72v-5.88c0-1.12-.55-2.01-1.87-2.01-1.19,0-1.88.93-1.88,2.09v5.8h0Z"/>
          <path class="cls-29" d="M339.04,141.69c.18,1.11,1.07,1.91,2.36,1.91,1.73,0,2.68-.86,2.68-2.81v-.74c-.41.66-1.35,1.29-2.81,1.29-2.68,0-4.69-2.06-4.69-4.9,0-2.67,1.92-4.91,4.69-4.91,1.6,0,2.53.7,2.86,1.38v-1.19h2.63v9c0,2.77-1.5,5.29-5.29,5.29-2.77,0-4.62-1.73-4.9-3.65l2.46-.66h.01ZM344.12,136.44c0-1.56-1.07-2.54-2.37-2.54s-2.42.98-2.42,2.54,1.01,2.57,2.42,2.57,2.37-1,2.37-2.57Z"/>
          <path class="cls-29" d="M355.27,134.42c-.31-.06-.58-.08-.81-.08-1.39,0-2.6.67-2.6,2.85v4.62h-2.72v-10.08h2.64v1.5c.62-1.33,2.01-1.57,2.86-1.57.22,0,.44.01.63.04v2.75-.03Z"/>
          <path class="cls-29" d="M365.73,138.91c-.52,1.74-2.11,3.2-4.59,3.2-2.77,0-5.21-1.99-5.21-5.39,0-3.22,2.37-5.31,4.96-5.31,3.12,0,4.98,1.99,4.98,5.22,0,.39-.04.8-.04.84h-7.22c.06,1.33,1.19,2.3,2.54,2.3,1.28,0,1.97-.63,2.3-1.54l2.27.67h0ZM363.19,135.6c-.04-1.01-.7-1.99-2.26-1.99-1.42,0-2.19,1.07-2.26,1.99h4.52Z"/>
          <path class="cls-29" d="M369.09,138.47c.06.8.66,1.53,1.84,1.53.9,0,1.33-.48,1.33-1.01,0-.45-.31-.81-1.08-.98l-1.33-.31c-1.95-.44-2.84-1.6-2.84-3.02,0-1.81,1.6-3.3,3.78-3.3,2.86,0,3.83,1.83,3.96,2.91l-2.27.52c-.08-.59-.52-1.35-1.66-1.35-.72,0-1.29.44-1.29,1.01,0,.49.37.8.93.9l1.43.31c1.99.41,2.99,1.61,2.99,3.1,0,1.64-1.28,3.33-3.92,3.33-3.03,0-4.09-1.97-4.2-3.12l2.33-.51h0Z"/>
          <path class="cls-29" d="M378.13,138.47c.06.8.66,1.53,1.84,1.53.9,0,1.33-.48,1.33-1.01,0-.45-.31-.81-1.08-.98l-1.33-.31c-1.95-.44-2.84-1.6-2.84-3.02,0-1.81,1.6-3.3,3.78-3.3,2.86,0,3.83,1.83,3.96,2.91l-2.27.52c-.08-.59-.52-1.35-1.66-1.35-.72,0-1.29.44-1.29,1.01,0,.49.37.8.93.9l1.43.31c1.99.41,2.99,1.61,2.99,3.1,0,1.64-1.28,3.33-3.92,3.33-3.03,0-4.09-1.97-4.2-3.12l2.33-.51h0Z"/>
          <g>
            <path class="cls-29" d="M389.5,132.65c-.04-.21-.08-.57-.08-.9,0-2.52,1.89-4.8,5.21-4.8s5.15,2.11,5.15,4.6c0,1.91-1.05,3.45-2.79,4.51l-2.83,1.74c-.61.41-1.17.84-1.37,1.52h7.08v2.48h-10.57c.02-2.52.88-4.51,3.45-6.07l2.38-1.48c1.25-.78,1.79-1.6,1.79-2.65,0-1.13-.76-2.15-2.34-2.15s-2.42,1.13-2.42,2.56c0,.27.04.53.08.78l-2.73-.14Z"/>
            <path class="cls-29" d="M403.11,129.35c.96-1.44,2.48-2.4,4.68-2.4,4.43,0,5.99,3.74,5.99,7.59s-1.56,7.57-5.99,7.57c-2.2,0-3.71-.96-4.68-2.4-.98-1.48-1.27-3.28-1.27-5.17s.29-3.71,1.27-5.19ZM407.79,139.61c2.69,0,3.16-2.96,3.16-5.07s-.47-5.07-3.16-5.07-3.12,2.98-3.12,5.07.43,5.07,3.12,5.07Z"/>
            <path class="cls-29" d="M415.78,132.65c-.04-.21-.08-.57-.08-.9,0-2.52,1.89-4.8,5.21-4.8s5.15,2.11,5.15,4.6c0,1.91-1.05,3.45-2.79,4.51l-2.83,1.74c-.62.41-1.17.84-1.38,1.52h7.08v2.48h-10.57c.02-2.52.88-4.51,3.45-6.07l2.38-1.48c1.25-.78,1.79-1.6,1.79-2.65,0-1.13-.76-2.15-2.34-2.15s-2.42,1.13-2.42,2.56c0,.27.04.53.08.78l-2.73-.14Z"/>
            <path class="cls-29" d="M438.52,129.7c-1.17.96-5.25,4.68-5.91,12.11h-2.93c.64-7.98,5.58-12.09,5.58-12.09h-7.65v-2.46h10.92v2.44Z"/>
          </g>
        </g>
      </g>
    </g>
  </g>
</svg>