<?xml version="1.0" encoding="UTF-8"?>
<svg xmlns="http://www.w3.org/2000/svg" xmlns:xlink="http://www.w3.org/1999/xlink" viewBox="-1.57 5.6 396.6 98.98">
  <defs>
    <style>
      .cls-1 {
        fill: none;
      }

      .cls-2 {
        fill: url(#linear-gradient-18);
      }

      .cls-2, .cls-3, .cls-4, .cls-5, .cls-6, .cls-7, .cls-8, .cls-9, .cls-10, .cls-11, .cls-12, .cls-13, .cls-14, .cls-15, .cls-16, .cls-17, .cls-18, .cls-19, .cls-20 {
        isolation: isolate;
      }

      .cls-2, .cls-3, .cls-4, .cls-5, .cls-6, .cls-7, .cls-8, .cls-19 {
        mix-blend-mode: multiply;
      }

      .cls-2, .cls-3, .cls-10, .cls-11, .cls-12, .cls-13, .cls-14, .cls-15, .cls-16, .cls-17, .cls-21, .cls-19, .cls-20 {
        opacity: .5;
      }

      .cls-3 {
        fill: url(#linear-gradient-39);
      }

      .cls-4 {
        fill: url(#linear-gradient-36);
      }

      .cls-5 {
        fill: url(#linear-gradient-23);
      }

      .cls-6 {
        fill: url(#linear-gradient-22);
      }

      .cls-7 {
        fill: url(#linear-gradient-27);
      }

      .cls-8 {
        fill: url(#linear-gradient-19);
      }

      .cls-22 {
        fill: url(#radial-gradient-6);
      }

      .cls-23 {
        fill: url(#radial-gradient-5);
      }

      .cls-24 {
        fill: url(#radial-gradient-4);
      }

      .cls-25 {
        fill: url(#radial-gradient-3);
      }

      .cls-26 {
        fill: url(#linear-gradient-8);
      }

      .cls-27 {
        fill: url(#linear-gradient-7);
      }

      .cls-28 {
        fill: url(#linear-gradient-6);
      }

      .cls-29 {
        fill: url(#linear-gradient-9);
      }

      .cls-30 {
        fill: url(#linear-gradient-4);
      }

      .cls-31 {
        fill: url(#linear-gradient-3);
      }

      .cls-32 {
        fill: url(#linear-gradient-2);
      }

      .cls-33 {
        fill: url(#radial-gradient);
      }

      .cls-34 {
        fill: url(#linear-gradient);
      }

      .cls-35 {
        fill: #fff;
      }

      .cls-10 {
        fill: url(#linear-gradient-38);
      }

      .cls-10, .cls-11, .cls-12, .cls-13, .cls-14, .cls-15, .cls-16, .cls-17, .cls-21, .cls-20 {
        mix-blend-mode: overlay;
      }

      .cls-11 {
        fill: url(#linear-gradient-20);
      }

      .cls-12 {
        fill: url(#linear-gradient-24);
      }

      .cls-13 {
        fill: url(#linear-gradient-31);
      }

      .cls-14 {
        fill: url(#linear-gradient-30);
      }

      .cls-15 {
        fill: url(#linear-gradient-17);
      }

      .cls-16 {
        fill: url(#linear-gradient-12);
      }

      .cls-17 {
        fill: url(#linear-gradient-40);
      }

      .cls-36 {
        fill: url(#linear-gradient-10);
      }

      .cls-37 {
        fill: url(#linear-gradient-11);
      }

      .cls-38 {
        fill: url(#linear-gradient-13);
      }

      .cls-39 {
        fill: url(#linear-gradient-14);
      }

      .cls-40 {
        fill: url(#linear-gradient-21);
      }

      .cls-41 {
        fill: url(#linear-gradient-28);
      }

      .cls-42 {
        fill: url(#linear-gradient-25);
      }

      .cls-43 {
        fill: url(#linear-gradient-32);
      }

      .cls-44 {
        fill: url(#linear-gradient-33);
      }

      .cls-45 {
        fill: url(#linear-gradient-15);
      }

      .cls-46 {
        fill: url(#linear-gradient-16);
      }

      .cls-47 {
        fill: url(#linear-gradient-35);
      }

      .cls-48 {
        fill: url(#linear-gradient-34);
      }

      .cls-49 {
        fill: url(#linear-gradient-26);
      }

      .cls-50 {
        fill: url(#linear-gradient-37);
      }

      .cls-51 {
        fill: #f2f2f2;
      }

      .cls-18 {
        fill: url(#linear-gradient-29);
        opacity: .33;
      }

      .cls-19 {
        fill: url(#linear-gradient-5);
      }

      .cls-52 {
        clip-path: url(#clippath);
      }

      .cls-20 {
        fill: url(#radial-gradient-2);
      }
    </style>
    <clipPath id="clippath">
      <rect class="cls-1" width="141.12" height="99.17"/>
    </clipPath>
    <linearGradient id="linear-gradient" x1="3.83" y1="-548.18" x2="137.43" y2="-548.18" gradientTransform="translate(0 -474.82) scale(1 -1)" gradientUnits="userSpaceOnUse">
      <stop offset=".02" stop-color="#ababab"/>
      <stop offset="1" stop-color="#e6e6e6"/>
    </linearGradient>
    <radialGradient id="radial-gradient" cx="136.69" cy="-537.6" fx="136.69" fy="-537.6" r=".02" gradientTransform="translate(-57.63 -474.82) scale(.85 -1)" gradientUnits="userSpaceOnUse">
      <stop offset="0" stop-color="#fff"/>
      <stop offset=".98" stop-color="#fff"/>
    </radialGradient>
    <linearGradient id="linear-gradient-2" x1="323.68" y1="-557.1" x2="381.32" y2="-557.1" gradientTransform="translate(-200 -474.82) scale(.62 -1)" gradientUnits="userSpaceOnUse">
      <stop offset="0" stop-color="#f7f7f7"/>
      <stop offset="1" stop-color="#fff"/>
    </linearGradient>
    <linearGradient id="linear-gradient-3" x1="338.59" y1="-498.66" x2="408.53" y2="-498.66" gradientTransform="translate(-200 -474.82) scale(.62 -1)" gradientUnits="userSpaceOnUse">
      <stop offset="0" stop-color="#fff"/>
      <stop offset="1" stop-color="#f7f7f7"/>
    </linearGradient>
    <linearGradient id="linear-gradient-4" x1="376.51" y1="-515.09" x2="320.75" y2="-563.5" gradientTransform="translate(-200 -474.82) scale(.62 -1)" gradientUnits="userSpaceOnUse">
      <stop offset="0" stop-color="#fff"/>
      <stop offset="1" stop-color="#fff"/>
    </linearGradient>
    <linearGradient id="linear-gradient-5" x1="321.36" y1="-508.35" x2="404.66" y2="-515.94" gradientTransform="translate(-200 -474.82) scale(.62 -1)" gradientUnits="userSpaceOnUse">
      <stop offset="0" stop-color="#fff"/>
      <stop offset="1" stop-color="#dedede"/>
    </linearGradient>
    <linearGradient id="linear-gradient-6" x1="381.32" y1="-548.25" x2="414.41" y2="-548.25" gradientTransform="translate(-200 -474.82) scale(.62 -1)" gradientUnits="userSpaceOnUse">
      <stop offset="0" stop-color="#fff"/>
      <stop offset="1" stop-color="#e8e8e8"/>
    </linearGradient>
    <linearGradient id="linear-gradient-7" x1="347.2" y1="-552.41" x2="366.1" y2="-552.41" gradientTransform="translate(-200 -474.82) scale(.62 -1)" gradientUnits="userSpaceOnUse">
      <stop offset="0" stop-color="#fff"/>
      <stop offset="1" stop-color="#c6c6c6"/>
    </linearGradient>
    <linearGradient id="linear-gradient-8" x1="374.79" y1="-537.67" x2="366.92" y2="-580.55" gradientTransform="translate(-200 -474.82) scale(.62 -1)" gradientUnits="userSpaceOnUse">
      <stop offset="0" stop-color="#e8e8e8"/>
      <stop offset="1" stop-color="#fff"/>
    </linearGradient>
    <linearGradient id="linear-gradient-9" x1="400.9" y1="-569.79" x2="402.4" y2="-584.49" gradientTransform="translate(-200 -474.82) scale(.62 -1)" gradientUnits="userSpaceOnUse">
      <stop offset="0" stop-color="#dedede"/>
      <stop offset="1" stop-color="#adadad"/>
    </linearGradient>
    <linearGradient id="linear-gradient-10" x1="416.72" y1="-537.96" x2="444.83" y2="-537.96" gradientTransform="translate(-200 -474.82) scale(.62 -1)" gradientUnits="userSpaceOnUse">
      <stop offset="0" stop-color="#ababab"/>
      <stop offset=".64" stop-color="#fff"/>
    </linearGradient>
    <linearGradient id="linear-gradient-11" x1="404.14" y1="-534.71" x2="430.67" y2="-588.47" gradientTransform="translate(-200 -474.82) scale(.62 -1)" gradientUnits="userSpaceOnUse">
      <stop offset="0" stop-color="#fff"/>
      <stop offset="1" stop-color="#dedede"/>
    </linearGradient>
    <linearGradient id="linear-gradient-12" x1="399.57" y1="-499.95" x2="332.01" y2="-558.6" gradientTransform="translate(-200 -474.82) scale(.62 -1)" gradientUnits="userSpaceOnUse">
      <stop offset="0" stop-color="#fff"/>
      <stop offset=".98" stop-color="#fff"/>
    </linearGradient>
    <radialGradient id="radial-gradient-2" cx="-60.19" cy="-515" fx="-60.19" fy="-515" r="18.64" gradientTransform="translate(0 -474.82) scale(1 -1)" xlink:href="#radial-gradient"/>
    <radialGradient id="radial-gradient-3" cx="-63.69" cy="-521.43" fx="-63.69" fy="-521.43" r="21.74" gradientTransform="translate(0 -474.82) scale(1 -1)" xlink:href="#radial-gradient"/>
    <linearGradient id="linear-gradient-13" x1="354.49" y1="-539.59" x2="313.52" y2="-564.09" xlink:href="#linear-gradient-7"/>
    <linearGradient id="linear-gradient-14" x1="369.13" y1="-497.54" x2="341.43" y2="-514.1" gradientTransform="translate(-200 -474.82) scale(.62 -1)" gradientUnits="userSpaceOnUse">
      <stop offset="0" stop-color="#fff"/>
      <stop offset="1" stop-color="#dbdbdb"/>
    </linearGradient>
    <linearGradient id="linear-gradient-15" x1="380.17" y1="-496.86" x2="278.8" y2="-473.98" xlink:href="#linear-gradient-7"/>
    <linearGradient id="linear-gradient-16" x1="393.75" y1="-492.31" x2="385.11" y2="-502.86" xlink:href="#linear-gradient-12"/>
    <linearGradient id="linear-gradient-17" x1="394.73" y1="-493.38" x2="386.27" y2="-503.7" gradientTransform="translate(-200 -474.82) scale(.62 -1)" gradientUnits="userSpaceOnUse">
      <stop offset="0" stop-color="#fff"/>
      <stop offset=".98" stop-color="#fff"/>
    </linearGradient>
    <linearGradient id="linear-gradient-18" x1="381.42" y1="-502.86" x2="391.27" y2="-502.86" gradientTransform="translate(-200 -474.82) scale(.62 -1)" gradientUnits="userSpaceOnUse">
      <stop offset=".42" stop-color="#fff"/>
      <stop offset="1" stop-color="#999"/>
    </linearGradient>
    <linearGradient id="linear-gradient-19" x1="292.06" y1="-577.68" x2="380.29" y2="-524.3" gradientTransform="translate(-200 -474.82) scale(.62 -1)" gradientUnits="userSpaceOnUse">
      <stop offset="0" stop-color="#f0f0f0"/>
      <stop offset="1" stop-color="#fff"/>
    </linearGradient>
    <linearGradient id="linear-gradient-20" x1="378.27" y1="-526.37" x2="324.51" y2="-582.86" xlink:href="#linear-gradient-12"/>
    <linearGradient id="linear-gradient-21" x1="342.42" y1="-596.4" x2="355.84" y2="-561.68" gradientTransform="translate(-200 -474.82) scale(.62 -1)" gradientUnits="userSpaceOnUse">
      <stop offset="0" stop-color="#c6c6c6"/>
      <stop offset="1" stop-color="#fff"/>
    </linearGradient>
    <radialGradient id="radial-gradient-4" cx="-76.23" cy="-557.1" fx="-76.23" fy="-557.1" r="23.68" gradientTransform="translate(0 -474.82) scale(1 -1)" xlink:href="#radial-gradient"/>
    <linearGradient id="linear-gradient-22" x1="372.1" y1="-520.95" x2="332.64" y2="-562.42" gradientTransform="translate(-200 -474.82) scale(.62 -1)" gradientUnits="userSpaceOnUse">
      <stop offset="0" stop-color="#d9d9d9"/>
      <stop offset="1" stop-color="#fff"/>
    </linearGradient>
    <linearGradient id="linear-gradient-23" x1="356.05" y1="-558.34" x2="362.31" y2="-550.18" xlink:href="#linear-gradient-4"/>
    <linearGradient id="linear-gradient-24" x1="353.61" y1="-594.93" x2="394.47" y2="-541.73" xlink:href="#linear-gradient-12"/>
    <linearGradient id="linear-gradient-25" x1="380.54" y1="-589.83" x2="384.71" y2="-531.82" xlink:href="#linear-gradient-21"/>
    <linearGradient id="linear-gradient-26" x1="360.73" y1="-576.12" x2="390.6" y2="-537.24" xlink:href="#linear-gradient-12"/>
    <linearGradient id="linear-gradient-27" x1="398.97" y1="-550.65" x2="387.45" y2="-521.4" gradientTransform="translate(-200 -474.82) scale(.62 -1)" gradientUnits="userSpaceOnUse">
      <stop offset="0" stop-color="#e0e0e0"/>
      <stop offset="1" stop-color="#fff"/>
    </linearGradient>
    <linearGradient id="linear-gradient-28" x1="402.38" y1="-566.05" x2="417.04" y2="-575.56" gradientTransform="translate(-200 -474.82) scale(.62 -1)" gradientUnits="userSpaceOnUse">
      <stop offset="0" stop-color="#fff"/>
      <stop offset="1" stop-color="#c6c6c6"/>
    </linearGradient>
    <linearGradient id="linear-gradient-29" x1="401.2" y1="-572.52" x2="402.15" y2="-581.85" gradientTransform="translate(-200 -474.82) scale(.62 -1)" gradientUnits="userSpaceOnUse">
      <stop offset=".09" stop-color="#9e9e9e"/>
      <stop offset="1" stop-color="#fff"/>
    </linearGradient>
    <radialGradient id="radial-gradient-5" cx="-39.53" cy="-570.32" fx="-39.53" fy="-570.32" r="23.12" gradientTransform="translate(0 -474.82) scale(1 -1)" xlink:href="#radial-gradient"/>
    <linearGradient id="linear-gradient-30" x1="400.94" y1="-582.29" x2="392.56" y2="-557.01" gradientTransform="translate(-200 -474.82) scale(.62 -1)" gradientUnits="userSpaceOnUse">
      <stop offset="0" stop-color="#fff"/>
      <stop offset="1" stop-color="#fff"/>
    </linearGradient>
    <linearGradient id="linear-gradient-31" x1="393.95" y1="-493.77" x2="441.71" y2="-623.19" gradientTransform="translate(-200 -474.82) scale(.62 -1)" gradientUnits="userSpaceOnUse">
      <stop offset="0" stop-color="#fff"/>
      <stop offset="1" stop-color="#fff"/>
    </linearGradient>
    <linearGradient id="linear-gradient-32" x1="427.28" y1="-600.7" x2="416.42" y2="-534.52" gradientTransform="translate(-200 -474.82) scale(.62 -1)" gradientUnits="userSpaceOnUse">
      <stop offset="0" stop-color="#7b509b"/>
      <stop offset="1" stop-color="#bb6ba9"/>
    </linearGradient>
    <linearGradient id="linear-gradient-33" x1="434.99" y1="-596.04" x2="424.74" y2="-533.63" xlink:href="#linear-gradient-32"/>
    <linearGradient id="linear-gradient-34" x1="421.65" y1="-598.26" x2="411.25" y2="-534.87" xlink:href="#linear-gradient-21"/>
    <linearGradient id="linear-gradient-35" x1="400.03" y1="-523.82" x2="422.65" y2="-585.11" xlink:href="#linear-gradient-12"/>
    <linearGradient id="linear-gradient-36" x1="341.65" y1="-577.85" x2="385.4" y2="-520.9" xlink:href="#linear-gradient-19"/>
    <linearGradient id="linear-gradient-37" x1="438.12" y1="-533.63" x2="438.24" y2="-533.47" xlink:href="#linear-gradient-32"/>
    <linearGradient id="linear-gradient-38" x1="436.41" y1="-536.15" x2="443.27" y2="-527.21" xlink:href="#linear-gradient-12"/>
    <linearGradient id="linear-gradient-39" x1="420.19" y1="-544.01" x2="422.68" y2="-540.76" xlink:href="#linear-gradient-7"/>
    <linearGradient id="linear-gradient-40" x1="425" y1="-553.78" x2="437.68" y2="-537.27" gradientTransform="translate(-200 -474.82) scale(.62 -1)" gradientUnits="userSpaceOnUse">
      <stop offset="0" stop-color="#b5b5b5"/>
      <stop offset=".98" stop-color="#fff"/>
    </linearGradient>
    <radialGradient id="radial-gradient-6" cx="-16.33" cy="-545.48" fx="-16.33" fy="-545.48" r="6.11" gradientTransform="translate(0 -474.82) scale(1 -1)" gradientUnits="userSpaceOnUse">
      <stop offset="0" stop-color="#969696"/>
      <stop offset=".98" stop-color="#fff"/>
    </radialGradient>
  </defs>
  <g class="cls-9">
    <g id="Layer_2" data-name="Layer 2">
      <g id="Layer_1-2" data-name="Layer 1">
        <g>
          <g class="cls-52">
            <g>
              <path class="cls-34" d="M70.62,6.24C33.79,6.24,3.83,36.35,3.83,73.36c0,22.3,10.89,42.08,27.59,54.29h.03c6.74,4.91,14.14,8.47,22.05,10.58,5.56,1.49,11.33,2.24,17.12,2.24,6.42,0,12.77-.92,18.87-2.74,7.16-2.14,14.15-5.62,20.24-10.08h.11c16.7-12.21,27.59-31.99,27.59-54.29,0-37.01-29.96-67.12-66.79-67.12h-.02ZM70.62,11.14c33.74,0,61.24,27.26,61.88,61.01-2.87.56-5.79.93-8.73,1.08-.39-9.76-2.96-19.16-7.59-27.55.34.39.67.79,1,1.21,3.47,4.43,5.68,8.05,5.7,8.08l4.17-2.55c-.09-.16-2.36-3.9-6.03-8.58-3.32-4.22-6.94-7.22-7.89-7.97-1.06-2.85-2.95-5.72-5.44-8.22-5.2-5.22-11.57-7.44-15.93-5.92-9.48-4.93-20.1-7.76-29.41-7.76-1.19,0-2.37.04-3.54.11-.03-.59-.03-1.19-.05-1.79,3.84-.75,7.8-1.16,11.85-1.16h.01ZM76.37,43.59l10.08-11.59-11.77-11.26-3.37,3.55,4.76,4.55c-1.28-.08-2.57-.13-3.85-.13-3.64,0-7.2.34-10.67.95-1.07-3.44-1.83-7.01-2.3-10.68,1.03-.06,2.07-.09,3.11-.09,8,0,17.1,2.29,25.45,6.33-.99,1.98-1.12,4.49-.34,7.31.57,2.06,1.62,4.17,3.03,6.18l-13.34,16.64c-5.97-5.93-10.74-13.06-13.94-21,2.93-.47,5.93-.72,8.99-.72,2.03,0,4.05.12,6.06.33l-5.58,6.42,3.67,3.23v-.02ZM93.75,42.46c1.93,1.86,4.06,3.37,6.23,4.41,2.06,6.79,3.29,14.15,3.29,19.97,0,1.31-.05,2.62-.13,3.92-8.31-2.47-15.89-6.64-22.35-12.12l12.98-16.18h-.02ZM92.56,26.87c.49-.49,1.24-.73,2.19-.73,2.47,0,6.2,1.67,9.5,4.99,2.26,2.28,3.95,4.98,4.63,7.42.55,1.95.4,3.53-.39,4.33s-2.36.94-4.3.39c-2.43-.68-5.12-2.38-7.38-4.65-2.26-2.27-3.95-4.98-4.63-7.41-.54-1.95-.4-3.53.39-4.33h0ZM77.71,62.46c7.18,6.07,15.64,10.64,24.91,13.26-1.22,8.63-4.2,16.82-8.6,24.05-10.4-4.05-20.5-9.68-29.79-16.72-.63-.48-1.23-.99-1.85-1.48l15.32-19.11h.01ZM107.38,76.88c3.73.76,7.58,1.19,11.51,1.29-.39,9.51-3.06,18.6-7.85,26.7-4.12-.88-8.24-2.02-12.32-3.41,4.38-7.44,7.35-15.8,8.66-24.58h0ZM107.93,71.99c.13-1.71.21-3.42.21-5.15,0-5.42-.98-12.04-2.65-18.41.28.02.57.06.84.06,1.92,0,3.58-.56,4.91-1.6,4.64,7.97,7.26,16.98,7.66,26.37-3.74-.11-7.41-.53-10.96-1.28h-.01ZM74.09,59.16l-15.51,19.34c-3.67-3.12-7.12-6.43-10.36-9.89l10.43.83.38-4.89-19.25-1.54.64,18.89,4.88-.17-.32-9.42c3.3,3.5,6.81,6.84,10.53,10l-19.01,23.71c-9.08-7.47-15.89-17.44-19.57-28.75,2.25-9.31,6.77-17.73,12.94-24.65,1.47,2.39,3.03,4.76,4.7,7.08l3.96-2.87c-1.84-2.57-3.54-5.18-5.12-7.83,6.93-6.51,15.48-11.3,24.96-13.69,3.5,9.06,8.9,17.17,15.72,23.83v.02ZM53.92,13.46c.01.37.01.74.03,1.1-2.53.35-5.03.86-7.48,1.51,2.41-1.03,4.9-1.89,7.45-2.61ZM54.39,19.45c.48,3.85,1.27,7.6,2.37,11.23-9.75,2.53-18.56,7.4-25.83,13.98-2.11-3.95-3.94-7.97-5.47-12.04,8.27-7.12,18.25-11.66,28.93-13.17ZM14.73,46.6c1.85-3.88,4.09-7.54,6.67-10.93,1.66,4.25,3.64,8.44,5.91,12.55-5.38,5.73-9.69,12.49-12.61,19.94-.55-3.35-.84-6.78-.84-10.27,0-3.79.34-7.58,1.01-11.27l-.14-.03h0ZM10.51,88.24c-1.17-4.77-1.8-9.75-1.8-14.88,0-2.97.22-5.89.62-8.75.44,4.43,1.29,8.75,2.55,12.9-.76,3.48-1.22,7.06-1.37,10.73ZM106.17,124.24c-.19.14-.39.27-.58.4-.19.13-.38.27-.58.4-.27.18-.54.36-.81.53-.12.08-.23.15-.35.23-.31.2-.61.39-.92.58-.07.05-.15.09-.22.14-.34.21-.69.42-1.03.62-.02,0-.05.03-.07.04-4.27,2.49-8.84,4.49-13.49,5.87-5.65,1.68-11.53,2.54-17.48,2.54-5.38,0-10.72-.7-15.88-2.08-7.91-2.11-15.28-5.79-21.94-10.93-9.27-7.21-16.46-17-20.49-28.29l-3.05-7.23,1.33,3.33c-.06-1,.98-12.59,1.33-11.64.89,2.44,3.55,7.87,3.54,8.07,4.23,8.92,10.37,16.79,17.97,23.05l-2.75,3.42,3.8,3.08,2.83-3.53c6.59,4.65,14.1,8.16,22.29,10.21l1.18-4.76c-7.49-1.87-14.35-5.06-20.4-9.28l18.93-23.61c.66.52,1.3,1.07,1.97,1.58,9.34,7.07,19.49,12.78,29.95,16.96-4.54,6.25-10.19,11.61-16.78,15.63l.34-11.7-4.88-.14-.54,18.49,17.99.41.11-4.9-7.14-.16c6.09-4.3,11.37-9.67,15.64-15.82,4.03,1.42,8.1,2.6,12.17,3.55-.23.32-.43.65-.66.96l3.9,2.96c.7-.93,1.36-1.88,2-2.83,2.08.38,4.16.69,6.24.94-3.82,4.97-8.37,9.34-13.48,12.95v-.04ZM122.85,106.69c-2.23-.21-4.46-.49-6.7-.85,4.69-8.47,7.31-17.88,7.67-27.7,2.89-.14,5.75-.47,8.58-.97-.65,10.82-4.07,20.89-9.55,29.53h0Z"/>
              <path class="cls-35" d="M75.67,53.47s-1.12.86-1.73,3.04-2.39,2.09-2.39,2.09h0c.02.05.08.18.16.38h0c.37.9,1.26,3.24,1.54,5.76.34,3.08-.22,6.43-3.76,7.7-1.85.67-3.67.52-5.35-.07,5.71,14.23,5.1,36.07,5.1,36.07h-7.95c-.65-4.84-1.91-8.97-3.93-12.37.08.92.13,1.84.16,2.75.05,1.79,0,3.52-.08,5-.15,2.72-.43,4.62-.43,4.62h-8.19c.08-8.83-6.07-18.34-9.58-23.12,0,.42.01.83.02,1.24v5.87c0,.18,0,.35-.01.53v.03c0,.17,0,.35-.01.52v.02c0,.17,0,.35-.01.52v.02c0,.17,0,.34-.01.51h0c0,.18-.01.35-.02.52h0c0,.17-.01.34-.02.51h0c-.08,2.54-.21,4.79-.34,6.66h0c0,.13-.02.24-.02.36h0c0,.13-.02.25-.02.36h0c0,.11-.02.22-.02.33v.03c0,.1-.02.21-.02.31v.03c0,.1-.01.19-.02.29v.04c0,.08-.01.16-.02.24v.08c0,.07-.01.13-.02.19v.12c0,.05,0,.09-.01.13,0,.06,0,.11-.01.17v.05c-.18,2.18-.34,3.41-.34,3.41h-9.01c0-9.94-1.02-17.63-2.51-23.57-.81-.05-1.58-.13-2.32-.23-2.97-.41-5.38-1.22-7.34-2.21-.1-.05-.2-.1-.3-.15-.64-.34-1.24-.7-1.78-1.07-.08.23-.16.45-.24.67-.04.11-.07.21-.11.32-.04.12-.08.24-.12.35-.05.13-.09.27-.14.4-.03.09-.06.18-.09.27-.05.14-.1.29-.14.43-.03.08-.05.15-.08.23-.05.14-.1.29-.14.43-.02.08-.05.15-.08.23-.05.15-.1.3-.14.44-.02.07-.05.14-.07.21-.05.15-.1.31-.15.46-.02.06-.04.13-.06.19-.05.16-.1.31-.14.46-.02.06-.04.12-.06.18-.05.16-.1.32-.15.48-.02.05-.03.11-.05.16-.05.16-.1.32-.15.48l-.05.15c-.05.17-.1.33-.15.49,0,.04-.03.09-.04.13-.05.17-.1.34-.15.51,0,.04-.02.08-.04.12-.05.17-.1.34-.15.51,0,.04-.02.07-.03.11-.05.17-.1.35-.15.52,0,.03-.02.06-.03.09-.05.18-.1.35-.15.53,0,.03-.02.06-.02.08-.05.18-.1.35-.14.53,0,.02,0,.05-.02.07-.05.18-.1.36-.14.54,0,.02,0,.04-.02.06-.05.18-.1.36-.14.55,0,0,0,.03,0,.04-.05.19-.1.37-.14.56v.02c-.05.19-.1.38-.14.56h0c-2.09,8.26-2.85,14.19-2.9,14.61v.03H.88s-.92-10.12-.05-23.74c.06-1.02.14-2.05.23-3.11v-.04c.03-.33.06-.67.08-1h0c.12-1.41.27-2.83.43-4.28.68-5.96,1.74-12.28,3.36-18.52,2-7.72,4.86-15.32,8.92-21.96.84-1.38,1.74-2.73,2.69-4.02,0,0-3.49-2.93-5.48-7.31-2.19-4.82-2.55-11.4,5.6-17.74h0s-.06.11-.11.22c0,0,0,0,0,.02,0,0,0,.02-.02.03-.28.53-.91,1.8-1.4,3.41h0c-.02.08-.05.16-.07.24v.02c-.02.08-.04.16-.07.24v.03c-.02.08-.04.15-.06.23,0,0,0,.03,0,.04-.02.08-.04.15-.06.23,0,.02,0,.04,0,.05-.02.08-.03.15-.05.22,0,.02,0,.04,0,.06-.02.07-.03.15-.04.22,0,.02,0,.05,0,.07,0,.07-.03.14-.04.22,0,.03,0,.05,0,.08,0,.07-.02.14-.04.21,0,.03,0,.05,0,.08,0,.07-.02.14-.03.21,0,.03,0,.06,0,.09,0,.07-.02.14-.02.21,0,.03,0,.06,0,.09,0,.07,0,.14-.02.21v.1c0,.07,0,.13,0,.2v1.35c0,.06,0,.13,0,.19,0,.04,0,.08,0,.12,0,.06,0,.13.02.19,0,.04,0,.08,0,.12,0,.06.02.12.03.19,0,.04,0,.08.02.12,0,.06.02.12.03.18,0,.04.02.08.02.13,0,.06.02.12.04.18,0,.04.02.08.03.13,0,.06.03.12.04.18,0,.04.02.08.04.13.02.06.03.12.05.18,0,.04.03.08.04.13.02.06.04.12.06.17.02.04.03.09.05.13.02.06.04.11.07.17.02.04.04.08.05.13.02.06.05.11.07.17.02.04.04.08.06.13.03.06.05.11.08.17.02.04.04.08.07.13s.06.11.09.16c.02.04.05.08.07.13.03.05.06.11.1.16.03.04.05.08.08.12.03.05.07.1.1.16.03.04.06.08.09.12.04.05.07.1.11.15.03.04.06.08.1.12.04.05.08.1.12.15.03.04.07.08.11.12.04.05.08.1.13.14l.12.12s.09.09.14.14l.12.12s.1.09.15.13c.04.04.09.08.13.12.05.04.1.09.15.13.05.04.1.08.15.11.05.04.11.08.16.12.05.04.11.08.16.11.06.04.11.08.17.12.06.04.12.08.18.12.06.03.11.07.17.11.07.04.15.09.22.13.05.03.1.06.15.08.12.07.25.14.39.21,6.99,3.54,11.63-.63,17.31,4,.38-.15.84-.34,1.33-.58,2.78-1.38,6.63-4.38,4.51-9.96.11.15,6.8,9.33.29,14.66-.33.28-.7.54-1.11.79,1.53,1.26,3.18,2.28,4.93,3.03.66.29,1.34.53,2.03.74,1.5.44,3.15.78,4.88.89h0c.12.27,3.93,9.39-4.6,13.84-1.36.71-2.93,1.51-4.65,2.42,0,0,.02.02.02.03,2.42,2.63,5.85,5.11,13.19,10.65h0c.05.04.46.38,1.11.87h0c.84.63,2.07,1.51,3.45,2.32,2.41,1.41,5.26,2.62,7.21,1.94,3.4-1.18,2.64-5.51,1.57-8.43-.62-1.7-.13-3.7,1.18-4.73,1.74-1.36,4.06-.9,4.06-.9l-.13.08Z"/>
              <path class="cls-33" d="M58.5,62.78s-.02-.01-.03-.02h0l.02.02h.01Z"/>
              <path class="cls-51" d="M42.4,30c-.33.28-.7.54-1.11.79-.6-.5-1.19-1.03-1.75-1.59-.42-.42-.82-.85-1.21-1.31-.7-.81-1.38-1.48-2.05-2.02.38-.15.84-.34,1.33-.58,2.78-1.38,6.63-4.38,4.51-9.96.11.15,6.8,9.33.29,14.66h-.01Z"/>
              <path class="cls-32" d="M36.22,56.12h0c-5.62,3.56-11.52,8.17-15.82,14.18-1.68,2.35-3.12,4.92-4.21,7.73-.41,1.07-.8,2.13-1.18,3.18-5.18,14.58-6.72,27.23-6.72,27.23H.81s-.92-10.12-.05-23.74c.17-2.69.41-5.52.75-8.44,7.68-8.99,19.12-18.19,34.7-20.14h0Z"/>
              <path class="cls-31" d="M53.12,35.45h0c-.16.15-15.23,14.49-36.63-3.69,0,0-3.49-2.93-5.48-7.31-2.19-4.82-2.55-11.4,5.6-17.74h0v.02c-.34.59-6.04,10.89,2.37,15.14,6.99,3.54,11.63-.63,17.31,4,.67.54,1.35,1.21,2.05,2.02.92,1.06,1.91,2.04,2.96,2.9,1.53,1.26,3.18,2.28,4.93,3.03.66.29,1.34.53,2.03.74,1.5.44,3.15.78,4.88.89h-.02Z"/>
              <path class="cls-30" d="M48.52,49.29c-1.36.71-2.93,1.51-4.65,2.42h0c-.15.08-.3.16-.45.24-.25.13-.51.27-.76.41-.35.19-.71.39-1.07.59-.31.17-.63.35-.95.53-1.43.81-2.92,1.69-4.43,2.64-15.58,1.95-27.02,11.15-34.7,20.14.68-5.96,1.74-12.28,3.36-18.52,2-7.72,4.86-15.32,8.92-21.96.84-1.38,1.74-2.73,2.69-4.02,9.36,7.95,17.5,9.68,23.72,9.1.11,0,.22-.02.34-.03.82-.09,1.6-.21,2.34-.37.12-.03.25-.05.37-.08s.24-.06.36-.09.24-.06.36-.09c.26-.07.52-.14.77-.22.09-.03.18-.05.27-.08.15-.05.29-.09.44-.14.07-.03.15-.05.22-.08.11-.04.21-.08.32-.11.21-.08.42-.15.62-.23.1-.04.2-.08.3-.12.1-.04.2-.08.29-.12.3-.12.58-.25.86-.38.09-.04.17-.08.25-.12.09-.04.18-.08.26-.13.09-.04.17-.09.25-.13.92-.47,1.7-.95,2.34-1.38.06-.04.11-.08.17-.12.05-.04.11-.08.16-.11.11-.07.21-.15.3-.22.05-.03.09-.07.14-.1.14-.1.26-.19.37-.28.04-.03.07-.06.11-.09.4-.32.63-.53.68-.58h0c.12.27,3.93,9.39-4.6,13.84h.03Z"/>
              <path class="cls-19" d="M53.11,35.46h0c-.22.33-8.88,13.28-26.44,7.65-5.29-1.7-9.53-4.38-12.88-7.32.84-1.38,1.74-2.73,2.69-4.02,9.36,7.95,17.5,9.68,23.72,9.1.11,0,.22-.02.34-.03.82-.09,1.6-.21,2.34-.37.12-.03.25-.05.37-.08s.24-.06.36-.09.24-.06.36-.09c.26-.07.52-.14.77-.22.09-.03.18-.05.27-.08.15-.05.29-.09.44-.14.07-.03.15-.05.22-.08.11-.04.21-.07.32-.11.21-.08.42-.15.62-.23.1-.04.2-.08.3-.12.1-.04.2-.08.29-.12.3-.12.58-.25.86-.38.09-.04.17-.08.25-.12.09-.04.18-.08.26-.13.09-.04.17-.08.25-.13.92-.47,1.7-.95,2.34-1.38.06-.04.11-.08.17-.12s.11-.08.16-.11c.11-.07.21-.15.3-.22.05-.03.09-.07.14-.1.14-.1.26-.19.37-.28.04-.03.07-.06.11-.09.4-.32.63-.53.68-.58h.02Z"/>
              <path class="cls-28" d="M56.77,95.14c-3.54-5.33-9.14-8.65-17.39-9.8-.05,0-.09-.01-.14-.02v-.17h0c-.02-.97-.04-1.95-.08-2.95-.03-.81-.06-1.63-.1-2.46-.02-.36-.03-.72-.05-1.09-.02-.45-.05-.89-.08-1.35-.04-.68-.09-1.37-.14-2.07v-.07c-.04-.51-.08-1.02-.12-1.53-.07-.81-.14-1.63-.22-2.46-.05-.49-.1-.97-.15-1.46-.21-1.98-.46-3.99-.76-6.01-.04-.28-.08-.56-.13-.84-.05-.3-.09-.6-.14-.9-.04-.26-.08-.52-.13-.78-.14-.84-.29-1.69-.44-2.53-.08-.46-.17-.92-.26-1.37h0c-.07-.36-.14-.73-.22-1.09,0-.02,0-.04-.01-.07,2.68-1.7,5.3-3.15,7.66-4.4,0,0-.02.03-.05.07-.49.7-4.1,6.36-.31,17.41,2.88,8.39,8.56,18.26,11.61,23.29.71,1.18,1.28,2.09,1.64,2.65h.01Z"/>
              <path class="cls-27" d="M26.75,84.87c-.81-.05-1.58-.13-2.32-.23-2.97-.41-5.38-1.22-7.34-2.21-.1-.05-.2-.1-.3-.15-.64-.34-1.24-.7-1.78-1.07.37-1.05.77-2.11,1.18-3.18,1.08-2.8,2.52-5.37,4.21-7.73.24.32.47.65.71,1.01.1.15.21.31.31.47.05.08.1.16.15.24.1.16.2.33.31.5.03.04.06.09.08.14.03.05.06.09.09.14,0,.01.02.03.03.04.03.04.05.09.08.14.07.12.14.24.21.37.21.37.42.76.63,1.17.04.07.07.13.1.2.04.07.07.14.1.21.07.13.13.26.2.4.11.22.22.45.32.69.04.08.07.15.1.23.05.11.1.21.14.32.04.1.08.19.13.29.15.35.3.71.45,1.09.1.24.19.49.29.74.03.08.06.17.1.25.17.44.33.9.49,1.37.05.14.09.28.14.42.09.28.19.57.28.87.04.14.09.29.13.43h0c.04.15.08.29.12.43.05.16.09.32.14.48l.09.31c.15.52.29,1.06.43,1.61h0Z"/>
              <path class="cls-26" d="M38.28,108.44h-9.01c0-9.94-1.02-17.63-2.51-23.57-.14-.55-.28-1.09-.43-1.61l-.09-.31c-.05-.16-.09-.32-.14-.48l-.12-.42h0c-.04-.15-.09-.3-.13-.44-.09-.29-.18-.58-.28-.87-.05-.14-.09-.28-.14-.42-.16-.47-.33-.93-.49-1.37-.03-.08-.06-.17-.1-.25-.1-.25-.19-.5-.29-.74-.15-.37-.3-.73-.45-1.09-.04-.1-.08-.19-.13-.29-.05-.11-.1-.22-.14-.32-.03-.08-.07-.15-.1-.23-.11-.23-.21-.46-.32-.69-.06-.13-.13-.27-.2-.4-.03-.07-.07-.14-.1-.21s-.07-.14-.1-.2c-.21-.41-.42-.8-.63-1.17-.07-.12-.14-.25-.21-.37-.03-.05-.05-.09-.08-.14,0-.01-.02-.03-.03-.04-.03-.05-.06-.1-.09-.14-.03-.05-.05-.09-.08-.14-.1-.17-.2-.34-.31-.5-.05-.08-.1-.16-.15-.24-.1-.16-.21-.32-.31-.47-.24-.36-.48-.7-.71-1.01,4.3-6.01,10.19-10.62,15.81-14.18h.01s0,.04.01.07c.08.36.15.73.22,1.09h0c.09.46.18.92.26,1.37.16.84.3,1.69.44,2.53.04.26.09.52.13.78.05.3.09.6.14.9.04.28.08.56.13.84.3,2.02.55,4.02.76,6.01.05.49.1.98.15,1.46.08.83.15,1.64.22,2.46.04.51.08,1.02.12,1.53v.07c.05.7.1,1.39.14,2.07.03.45.05.9.08,1.35.02.36.04.73.05,1.09.04.83.07,1.65.1,2.46.03,1,.06,1.98.08,2.95h0v.18c.24,13.4-.97,23.12-.97,23.12v-.02Z"/>
              <path class="cls-29" d="M57.43,103.82c-.15,2.72-.43,4.62-.43,4.62h-8.19c.08-8.83-6.07-18.34-9.58-23.12.05,0,.09.01.14.02,4.36.61,7.97,1.82,10.94,3.61,2.65,1.6,4.78,3.67,6.45,6.19h0s.03.04.04.06c.12.17.23.35.34.53,0,0,.02.03.02.03v.02h.01c.06.09.11.19.17.28.08.92.13,1.84.16,2.75.05,1.79,0,3.52-.08,5h.01Z"/>
              <path class="cls-36" d="M75.67,53.47s-1.12.86-1.73,3.04-2.39,2.09-2.39,2.09h0c.02.05.08.18.16.38h0c.37.9,1.26,3.24,1.54,5.76.34,3.08-.22,6.43-3.76,7.7-1.85.67-3.67.52-5.35-.07h0c-.34-.84-.7-1.65-1.08-2.43-1.32-2.69-2.92-5-4.86-6.67.84.63,2.07,1.51,3.45,2.32,2.41,1.41,5.26,2.62,7.21,1.94,3.4-1.18,2.64-5.51,1.57-8.43-.62-1.7-.13-3.7,1.18-4.73,1.74-1.36,4.06-.9,4.06-.9Z"/>
              <path class="cls-37" d="M69.24,108.44h-7.95c-.65-4.84-1.91-8.97-3.93-12.37-.05-.09-.11-.18-.17-.27h0s0,0-.01-.02c0,0-.01-.02-.02-.03-.11-.18-.22-.35-.34-.53-.01-.02-.03-.04-.04-.06h0c-1.9-2.99-9.7-15.6-13.25-25.95-3.89-11.33,0-17,.34-17.45h0s.01-.03.01-.03c0,0,.02.02.02.03,2.42,2.63,5.85,5.11,13.19,10.65h0c.05.04.46.38,1.11.87h0c2.5,2.15,4.43,5.36,5.94,9.1h0c5.71,14.23,5.1,36.07,5.1,36.07h0Z"/>
              <path class="cls-16" d="M48.52,49.29c-1.36.71-2.93,1.51-4.65,2.42h0c-.15.08-.3.16-.45.24-.25.13-.51.27-.76.41-.35.19-.71.39-1.07.59-.31.17-.63.35-.95.53-1.43.81-2.92,1.69-4.43,2.64-15.58,1.95-27.02,11.15-34.7,20.14.68-5.96,1.74-12.28,3.36-18.52,14.17-7.68,31.85-5.53,39.76-8.26,10.72-3.7,8.55-13.74,8.48-14.03.12.27,3.93,9.39-4.6,13.84h.01Z"/>
              <path class="cls-20" d="M53.12,35.45c-.63.62-1.32,1.15-2.03,1.65-.71.49-1.44.94-2.19,1.35-1.5.8-3.06,1.44-4.67,1.9-1.6.46-3.25.73-4.9.83s-3.31.01-4.95-.21l-1.23-.22c-.1-.02-.2-.03-.31-.06l-.3-.07-.61-.15-.61-.15c-.2-.05-.4-.12-.6-.18l-1.2-.37-1.18-.45-.59-.22-.58-.26-1.16-.52c-.38-.19-.75-.39-1.13-.59-.76-.38-1.49-.84-2.22-1.28-.37-.21-.72-.46-1.08-.7l-1.07-.73c-.18-.12-.35-.26-.52-.39l-.52-.4-1.03-.79c-.67-.56-1.33-1.13-1.99-1.7l1.03.79,1.03.79,1.06.74.53.37c.18.12.35.25.53.36l1.08.68c.36.23.72.46,1.09.66.74.41,1.47.85,2.23,1.2.38.18.75.38,1.13.56l1.15.49.57.25.58.21,1.17.42c1.57.5,3.17.9,4.78,1.14,3.23.46,6.52.33,9.7-.5,1.59-.41,3.15-.99,4.66-1.73,1.51-.74,2.97-1.63,4.31-2.75l.04.03Z"/>
              <g class="cls-21">
                <path class="cls-25" d="M4.88,57.74l.81-.44c.27-.15.54-.3.81-.43.55-.27,1.09-.54,1.65-.78l.83-.37.84-.34c.56-.24,1.13-.43,1.69-.64,2.27-.8,4.59-1.41,6.93-1.91.58-.13,1.17-.24,1.75-.35.59-.1,1.17-.21,1.76-.3.59-.09,1.18-.19,1.76-.26.59-.09,1.18-.16,1.77-.24,2.36-.29,4.72-.5,7.08-.71,2.36-.2,4.72-.38,7.07-.69,1.17-.15,2.34-.34,3.49-.61.57-.14,1.14-.3,1.7-.5.28-.11.56-.2.84-.31.27-.12.55-.23.82-.36,1.09-.52,2.13-1.17,3.06-2.01l.35-.31.33-.34.16-.17.16-.18.31-.37c.39-.51.76-1.05,1.07-1.64.62-1.17,1.05-2.49,1.24-3.86.1-.68.15-1.38.14-2.08,0-.7-.05-1.4-.18-2.08.15.68.22,1.38.25,2.08.03.7,0,1.41-.09,2.1-.16,1.4-.56,2.75-1.17,3.98-.31.61-.67,1.17-1.07,1.71l-.31.38-.16.19-.17.18-.33.36-.35.33c-.94.88-2,1.57-3.1,2.12s-2.25.97-3.42,1.26-2.35.49-3.53.66c-2.36.32-4.72.51-7.08.72-4.72.39-9.44.83-14.1,1.73-2.33.45-4.65,1.01-6.93,1.75-.57.19-1.14.36-1.7.58l-.85.31-.84.34c-1.12.45-2.22.97-3.31,1.51h.02Z"/>
              </g>
              <path class="cls-38" d="M36.22,56.12c-15.58,1.95-27.02,11.15-34.7,20.14,2.16-2.94,4.59-5.61,7.21-8s5.44-4.49,8.41-6.25c2.97-1.75,6.09-3.16,9.29-4.17,3.21-1,6.49-1.6,9.79-1.73h0Z"/>
              <path class="cls-39" d="M46.21,33.82c-7.45,3.2-19.96,2.26-28.35-5.27-10.96-9.83-1.45-21.61-1.26-21.84-.13.23-6.21,10.83,2.36,15.16,6.99,3.54,11.63-.63,17.31,4,.67.54,1.35,1.21,2.05,2.02.92,1.06,1.91,2.04,2.96,2.9,1.53,1.26,3.18,2.28,4.93,3.03Z"/>
              <path class="cls-45" d="M53.12,35.45h-.18c-.49,0-.98-.03-1.47-.06-.55-.05-1.09-.12-1.63-.21-.55-.09-1.08-.21-1.62-.34s-1.08-.3-1.61-.48c-1.06-.38-2.09-.86-3.09-1.43s-1.96-1.25-2.87-2-1.78-1.58-2.59-2.49c-.78-.88-1.58-1.67-2.48-2.31-.11-.09-.22-.16-.33-.24-.11-.07-.22-.15-.34-.23-.23-.13-.46-.28-.7-.4-.23-.13-.48-.23-.72-.34-.25-.09-.49-.19-.74-.26-1-.32-2.04-.44-3.1-.49-1.06-.04-2.15,0-3.25-.02-1.1-.01-2.23-.07-3.34-.27-.56-.1-1.11-.23-1.66-.39-.55-.17-1.09-.36-1.61-.6-1.05-.46-2.09-1.05-3.01-1.87-.12-.09-.23-.21-.34-.32l-.33-.34-.3-.37-.15-.19c-.05-.06-.09-.13-.14-.2l-.27-.41c-.09-.14-.16-.29-.24-.43l-.12-.22c-.04-.08-.07-.15-.1-.23-.06-.15-.13-.31-.19-.46-.22-.64-.37-1.3-.45-1.97-.07-.67-.08-1.35-.03-2.01.12-1.33.42-2.61.86-3.8.43-1.19.96-2.32,1.61-3.35-.34.59-6.04,10.89,2.37,15.14,6.99,3.54,11.63-.63,17.31,4,.67.54,1.35,1.21,2.05,2.02.92,1.06,1.91,2.04,2.96,2.9,1.53,1.26,3.18,2.28,4.93,3.03.66.29,1.34.53,2.03.74,1.5.44,3.15.78,4.88.89h0Z"/>
              <g class="cls-21">
                <path class="cls-46" d="M39.53,29.2c.98-.71,1.89-1.55,2.61-2.57.34-.53.65-1.08.88-1.68.23-.6.39-1.24.48-1.89.19-1.3.09-2.65-.17-3.95-.13-.65-.3-1.29-.51-1.92-.2-.63-.44-1.25-.71-1.84.34.55.62,1.15.87,1.76.25.62.46,1.26.62,1.92s.27,1.34.32,2.03.03,1.39-.07,2.07c-.1.68-.27,1.36-.52,1.99-.26.62-.59,1.2-.98,1.73-.79,1.02-1.77,1.81-2.82,2.36h0Z"/>
              </g>
              <path class="cls-15" d="M42.4,30c-.33.28-.7.54-1.11.79-.6-.5-1.19-1.03-1.75-1.59,7.62-4.72,2.66-13.7,2.57-13.86.11.15,6.8,9.33.29,14.66Z"/>
              <path class="cls-2" d="M42.4,30c-.33.28-.7.54-1.11.79-1.05-.86-2.04-1.84-2.96-2.9-.7-.81-1.38-1.48-2.05-2.02.38-.15.84-.34,1.33-.58.52.47,1.04,1.01,1.55,1.6.88,1.02,1.82,1.94,2.81,2.75.14.12.29.24.44.35h-.01Z"/>
              <path class="cls-8" d="M36.22,56.12h0s-.02.01-.05.02c-1.22.5-21.76,9.16-35.39,28.55.09-1.36.19-2.75.32-4.17.12-1.4.27-2.82.43-4.27,7.68-8.99,19.12-18.19,34.69-20.14h0Z"/>
              <path class="cls-11" d="M36.21,56.12c-5.62,3.56-11.52,8.17-15.82,14.18-1.68,2.35-3.12,4.92-4.21,7.73-.41,1.07-.8,2.13-1.18,3.18-5.1,14.35-6.67,26.84-6.71,27.22H.81c9.53-47.39,35.39-52.32,35.39-52.32h.01Z"/>
              <path class="cls-40" d="M36.21,56.12c-5.62,3.56-11.52,8.17-15.82,14.18-1.68,2.35-3.12,4.92-4.21,7.73-.41,1.07-.76,2.19-1.14,3.24-4.87,14.46-6.71,26.78-6.75,27.16.05-.67.13-1.33.2-2,.08-.67.16-1.34.26-2,.18-1.33.41-2.66.63-3.99.12-.66.25-1.32.37-1.98.13-.66.27-1.32.4-1.97.13-.66.29-1.31.43-1.97s.31-1.3.46-1.96c.63-2.61,1.35-5.18,2.14-7.72.19-.64.39-1.27.61-1.9l.64-1.89c.22-.62.46-1.24.68-1.87l.34-.93.17-.47.18-.47c.5-1.24,1.07-2.45,1.71-3.6s1.33-2.26,2.07-3.31c.37-.53.76-1.03,1.15-1.54.2-.25.4-.49.6-.74s.4-.49.61-.73c.82-.97,1.69-1.86,2.57-2.74,1.78-1.73,3.67-3.29,5.62-4.7,1.96-1.41,3.98-2.69,6.05-3.83h.03Z"/>
              <g class="cls-21">
                <path class="cls-24" d="M.82,108.44l.88-4.28,1.03-4.23.59-2.09.29-1.04c.1-.35.19-.7.31-1.04l.66-2.06.33-1.03c.11-.34.24-.68.36-1.02l.73-2.03.18-.51.2-.5.4-.99.4-.99c.14-.33.26-.67.41-.99l.88-1.94.22-.49c.07-.16.15-.32.23-.48l.48-.95.48-.95c.16-.31.31-.64.49-.94l1.02-1.85.25-.46.27-.45.54-.9.55-.89c.09-.15.19-.29.28-.44l.29-.43.58-.87.29-.43.15-.22.15-.21,1.22-1.67c.1-.14.21-.27.31-.41l.32-.4.64-.8c1.73-2.11,3.59-4.09,5.59-5.84l.37-.33c.12-.11.25-.22.38-.32l.77-.63c.51-.43,1.04-.8,1.57-1.2.26-.2.53-.38.8-.56.27-.18.54-.37.81-.55l.82-.52c.14-.09.27-.18.41-.26l.42-.24c1.12-.65,2.26-1.22,3.43-1.72s2.36-.93,3.59-1.18c-1.22.3-2.4.77-3.55,1.28-1.16.53-2.29,1.12-3.39,1.8l-.41.25c-.14.08-.27.17-.41.26l-.81.53c-.27.18-.53.37-.8.56-.26.19-.53.37-.79.57-.52.4-1.05.78-1.54,1.22l-.76.63c-.13.1-.25.21-.37.33l-.37.33c-3.93,3.55-7.38,7.83-10.25,12.59-2.93,4.72-5.26,9.92-7.23,15.29-.12.34-.26.67-.37,1.01l-.34,1.02-.68,2.04c-.12.34-.22.69-.32,1.03l-.31,1.04-.61,2.08-1.1,4.2-.97,4.25v.02Z"/>
              </g>
              <path class="cls-6" d="M36.21,56.12h0c-.32.05-18.85,2.99-35.12,24.41.12-1.4.27-2.82.43-4.27,7.68-8.99,19.12-18.19,34.69-20.14h0Z"/>
              <path class="cls-5" d="M26.75,84.87c-.81-.05-1.58-.13-2.32-.23-1.31-6.66-3.99-14.18-4.04-14.33.24.32.47.65.71,1.01.1.15.21.31.31.47.05.08.1.16.15.24.1.16.2.33.31.5.06.09.11.19.17.28,0,.01.02.03.03.04.03.04.05.09.08.14.07.12.14.24.21.37.21.37.42.76.63,1.17.04.07.07.13.1.2.04.07.07.14.1.21.06.13.13.26.2.4.11.22.22.45.32.69.03.08.07.15.1.23.05.11.1.21.14.32.04.1.08.19.13.29.15.35.3.71.45,1.09.13.32.26.65.39.99.17.44.33.9.49,1.37.05.14.09.28.14.42.09.28.19.57.28.87.04.14.09.29.13.43h0c.04.15.08.29.12.43.05.16.09.32.14.48.03.1.06.21.09.31.15.52.29,1.06.43,1.61h.01Z"/>
              <path class="cls-12" d="M38.28,108.43h0s-9.01,0-9.01,0c0,0,6.16-16.67,6.94-52.31l.03.06c1.85,8.97,2.66,18.02,2.93,26.01.03,1,.06,1.98.08,2.95h0v.18c.23,13.12-.92,22.7-.96,23.11h-.01Z"/>
              <path class="cls-42" d="M38.71,95.32c.02-2.18.03-4.37,0-6.55,0-1.09-.03-2.18-.05-3.27l-.09-3.27c-.15-4.36-.41-8.71-.79-13.05-.39-4.34-.92-8.67-1.56-12.99l-.02-.06.03.06c1.85,8.97,2.66,18.02,2.93,26.01.03,1,.06,1.98.08,2.95h0v.18c.23,13.12-.92,22.7-.96,23.11.24-4.38.37-8.74.43-13.11h0Z"/>
              <g class="cls-21">
                <path class="cls-49" d="M29.26,108.44c.66-2.08,1.2-4.2,1.67-6.34l.18-.8.17-.81.34-1.61.62-3.24.56-3.25c.18-1.09.33-2.18.5-3.26l.12-.82.11-.82.22-1.64.22-1.64c.07-.55.13-1.1.19-1.64l.38-3.29.32-3.3.16-1.65c.05-.55.09-1.1.13-1.65l.26-3.31.07-.83.05-.83.1-1.66.21-3.31c.12-2.21.2-4.42.33-6.63h0l.03.06-.03-.06h0l-.02,1.66-.03,1.66c-.02,1.11-.03,2.22-.06,3.32l-.14,3.32-.07,1.66-.04.83-.05.83-.22,3.32c-.04.55-.07,1.11-.12,1.66l-.15,1.65-.3,3.31-.37,3.3c-.07.55-.12,1.1-.2,1.65l-.23,1.64-.23,1.64-.11.82-.13.82c-.18,1.09-.35,2.18-.54,3.27l-.61,3.25-.34,1.62c-.11.54-.22,1.08-.35,1.61l-.38,1.6-.19.8-.21.8c-.14.53-.27,1.06-.42,1.59l-.45,1.58c-.16.52-.31,1.04-.48,1.56l-.26.77c-.09.25-.18.51-.28.76l.07.03Z"/>
              </g>
              <path class="cls-7" d="M56.77,95.14c-1.67-2.52-3.8-4.58-6.45-6.19-3.99-6.91-8.11-13.52-9.22-19.75-2.04-11.43,2.4-17.04,2.75-17.46-.33.46-4.23,6.12-.34,17.45,3.56,10.35,11.36,22.96,13.25,25.95h0Z"/>
              <path class="cls-41" d="M56.77,95.14c-3.54-5.33-9.14-8.65-17.39-9.8-.05,0-.09-.01-.14-.02,1.68-.05,3.36.12,5.01.48,1.66.36,3.29.92,4.86,1.72,1.56.79,3.05,1.83,4.36,3.1.59.57,1.15,1.2,1.65,1.86.63.82,1.18,1.7,1.64,2.65h0Z"/>
              <path class="cls-18" d="M57.51,98.82c-5.81-9.26-18.27-13.5-18.27-13.5.05,0,.09.01.14.02,4.36.61,7.97,1.82,10.94,3.61,2.65,1.6,4.78,3.67,6.45,6.19h0s.03.04.04.06c.12.17.23.35.34.53,0,0,.02.03.02.03v.02h.01c.06.09.11.19.17.28.08.92.13,1.84.16,2.75h0Z"/>
              <g class="cls-21">
                <path class="cls-23" d="M39.24,85.32c1.96.92,3.75,2.28,5.4,3.84,1.64,1.57,3.1,3.4,4.34,5.43l.23.38c.08.13.15.25.22.39l.43.79c.14.27.27.54.4.81.07.13.13.27.2.4l.18.41c.51,1.1.93,2.24,1.31,3.41.17.59.36,1.17.5,1.77.07.3.15.6.22.9l.19.91.09.45c.03.15.05.31.08.46l.15.92c.09.61.15,1.23.23,1.85h0s0,0,0,0l-.14-.92-.07-.46-.03-.23-.04-.23-.17-.91c-.03-.15-.06-.3-.09-.45l-.11-.45-.21-.9c-.07-.3-.16-.59-.24-.89-.15-.59-.35-1.17-.53-1.75-.4-1.14-.81-2.28-1.33-3.36l-.19-.41c-.06-.13-.13-.27-.2-.4-.14-.26-.27-.53-.4-.79l-.43-.78c-.14-.26-.3-.5-.45-.76-.61-1-1.27-1.97-1.98-2.87-.71-.91-1.48-1.75-2.28-2.55-.8-.8-1.64-1.54-2.53-2.21-.88-.68-1.79-1.29-2.76-1.8h0Z"/>
              </g>
              <path class="cls-14" d="M53.41,108.44h-4.59c.08-8.83-6.07-18.34-9.58-23.12,0,0,12.17,5.49,14.17,23.11h0Z"/>
              <path class="cls-13" d="M69.24,108.44h-4.41c-.22-10.96-2.01-21.84-7.3-27.91-13.45-15.43-13.68-28.79-13.68-28.79h.04c2.42,2.63,5.85,5.11,13.19,10.65h0c.05.04.46.38,1.11.87h0c2.5,2.15,4.43,5.36,5.94,9.1h0c5.71,14.23,5.1,36.07,5.1,36.07h.01Z"/>
              <path class="cls-43" d="M58.48,62.77h0s.02,0,.03.01h-.03Z"/>
              <polygon class="cls-44" points="64.73 72.37 64.67 72.07 64.73 72.21 64.73 72.37"/>
              <path class="cls-48" d="M69.24,108.44c-.08-3.07-.24-6.13-.48-9.18-.11-1.53-.25-3.05-.42-4.56-.16-1.52-.34-3.03-.54-4.54-.22-1.51-.44-3.01-.7-4.5-.27-1.49-.57-2.97-.9-4.44-.34-1.47-.71-2.92-1.14-4.35s-.91-2.83-1.45-4.2h0s0-.02-.01-.03c-.34-.85-.7-1.68-1.1-2.48-.4-.82-.84-1.61-1.3-2.37-.93-1.52-2.02-2.91-3.29-4.03h-.01l-.53-.42-.28-.23-.14-.11-.07-.06-.03-.03h-.02v-.02h-.01s-3.31-2.61-3.31-2.61c-1.11-.88-2.21-1.76-3.31-2.65-1.1-.9-2.19-1.81-3.25-2.77-.53-.48-1.05-.98-1.57-1.48-.51-.52-1-1.05-1.47-1.61h-.04.04c2.42,2.63,5.85,5.11,13.19,10.65h0c.05.04.46.38,1.11.87h0c2.5,2.15,4.43,5.36,5.94,9.1h0c5.71,14.23,5.1,36.07,5.1,36.07v-.02Z"/>
              <g class="cls-21">
                <path class="cls-47" d="M64.83,108.44l-.04-.99-.05-.99c-.04-.66-.08-1.32-.12-1.98-.09-1.32-.21-2.63-.37-3.94-.3-2.62-.71-5.22-1.32-7.76-.62-2.53-1.41-5.01-2.5-7.29-.54-1.14-1.16-2.23-1.87-3.24-.09-.13-.18-.25-.27-.38l-.28-.36c-.18-.25-.38-.47-.57-.7l-1.2-1.4c-3.15-3.8-5.96-8.01-8.17-12.65-.56-1.16-1.06-2.35-1.54-3.55-.47-1.21-.9-2.44-1.27-3.69-.37-1.26-.68-2.53-.93-3.83-.25-1.29-.44-2.61-.48-3.93h.04-.04c.04.66.13,1.31.23,1.96.1.65.22,1.3.37,1.93.28,1.28.63,2.54,1.03,3.77.39,1.24.84,2.45,1.32,3.64.49,1.19,1.01,2.35,1.58,3.49,1.13,2.27,2.4,4.45,3.77,6.53,1.37,2.08,2.85,4.06,4.42,5.94l1.19,1.4c.2.24.4.47.59.73l.28.37c.09.13.18.26.27.39.72,1.04,1.36,2.15,1.9,3.33,1.09,2.35,1.89,4.86,2.46,7.44.57,2.57.96,5.2,1.2,7.84.12,1.32.2,2.64.26,3.97.03.66.05,1.32.07,1.99l.02.99v.99l.02-.02Z"/>
              </g>
              <path class="cls-4" d="M43.88,51.72s-.02.03-.05.07c-.51.33-3.51,2.31-7.37,5.49-4.53,3.72-10.24,9.1-14.49,15.39-2.07,3.07-3.8,6.35-4.87,9.77-.1-.05-.2-.1-.3-.15-.64-.34-1.24-.7-1.78-1.07.37-1.05.77-2.11,1.18-3.18,1.08-2.8,2.52-5.37,4.21-7.73,4.3-6.01,10.19-10.62,15.81-14.18h.01c2.68-1.7,5.3-3.15,7.66-4.4h0Z"/>
              <path class="cls-50" d="M71.56,58.61s.08.17.16.37c-.06-.11-.11-.23-.16-.37Z"/>
              <path class="cls-10" d="M75.67,53.47s-1.12.86-1.73,3.04-2.39,2.09-2.39,2.09c-1.27-3.78,4.12-5.13,4.12-5.13Z"/>
              <path class="cls-3" d="M64.14,72.37c-1.5-3.74-3.44-6.95-5.94-9.1.84.63,2.07,1.51,3.45,2.32.74,1.52,1.71,3.83,2.48,6.78h.01Z"/>
              <path class="cls-17" d="M69.49,72.44c-1.85.67-3.67.52-5.35-.07h0c-.34-.84-.7-1.65-1.08-2.43,3.34,1.19,9.97,2.57,10.19-5.19h0c.34,3.08-.22,6.42-3.76,7.69Z"/>
              <g class="cls-21">
                <path class="cls-22" d="M63.07,69.94c1.08.33,2.17.58,3.27.72.55.06,1.1.1,1.65.07.55-.02,1.1-.09,1.63-.25.53-.15,1.05-.38,1.5-.73.46-.34.86-.79,1.17-1.32s.53-1.13.69-1.75c.15-.63.22-1.28.28-1.93,0,.66-.05,1.32-.17,1.97-.13.65-.34,1.28-.65,1.84-.31.57-.72,1.05-1.2,1.42-.48.37-1.02.62-1.57.78-1.11.31-2.25.29-3.36.12s-2.2-.5-3.25-.93h.01Z"/>
              </g>
            </g>
          </g>
          <path class="cls-35" d="M168.78,37.49c6.2,0,9.71,3.65,9.71,8.59,0,3.29-1.98,5.93-4.64,6.84,3.1.76,5.62,3.59,5.62,7.55,0,5.17-3.86,8.9-9.85,8.9h-12.32v-31.89h11.49ZM167.83,50.67c2.83,0,4.54-1.58,4.54-4.01s-1.58-3.95-4.58-3.95h-4.37v7.96h4.41ZM168.46,64.2c3.02,0,4.81-1.58,4.81-4.14s-1.62-4.27-4.73-4.27h-5.13v8.42h5.04Z"/>
          <path class="cls-35" d="M186,36.28c2.07,0,3.69,1.67,3.69,3.73s-1.62,3.65-3.69,3.65-3.69-1.67-3.69-3.65,1.67-3.73,3.69-3.73ZM183.04,69.37v-22.12h5.97v22.12h-5.97Z"/>
          <path class="cls-35" d="M207.63,53.19c-.68-.13-1.26-.17-1.8-.17-3.06,0-5.72,1.48-5.72,6.25v10.11h-5.97v-22.12h5.8v3.29c1.35-2.93,4.41-3.46,6.29-3.46.49,0,.95.04,1.39.09v6.03h0Z"/>
          <path class="cls-35" d="M210.6,69.37v-22.12h5.72v2.7c1.22-2.15,4.05-3.33,6.48-3.33,3.02,0,5.44,1.31,6.56,3.69,1.75-2.7,4.09-3.69,7.01-3.69,4.09,0,8,2.47,8,8.42v14.35h-5.8v-13.13c0-2.38-1.16-4.18-3.91-4.18-2.56,0-4.09,1.98-4.09,4.37v12.96h-5.93v-13.13c0-2.38-1.22-4.18-3.91-4.18s-4.14,1.94-4.14,4.37v12.96h-5.97v-.04Z"/>
          <path class="cls-35" d="M252.17,36.28c2.07,0,3.69,1.67,3.69,3.73s-1.62,3.65-3.69,3.65-3.69-1.67-3.69-3.65,1.67-3.73,3.69-3.73ZM249.2,69.37v-22.12h5.97v22.12s-5.97,0-5.97,0Z"/>
          <path class="cls-35" d="M266.29,69.37h-5.97v-22.12h5.8v2.74c1.35-2.3,4.01-3.33,6.39-3.33,5.49,0,8,3.91,8,8.78v13.95h-5.97v-12.91c0-2.47-1.22-4.41-4.09-4.41-2.61,0-4.14,2.03-4.14,4.58v12.73h-.01Z"/>
          <path class="cls-35" d="M289.14,69.14c.4,2.43,2.34,4.18,5.17,4.18,3.78,0,5.89-1.88,5.89-6.16v-1.62c-.9,1.44-2.97,2.83-6.16,2.83-5.89,0-10.3-4.54-10.3-10.74,0-5.85,4.22-10.79,10.3-10.79,3.5,0,5.53,1.52,6.29,3.02v-2.61h5.76v19.75c0,6.08-3.29,11.61-11.61,11.61-6.08,0-10.11-3.78-10.74-8l5.4-1.44h0ZM300.3,57.64c0-3.42-2.34-5.57-5.21-5.57s-5.3,2.15-5.3,5.57,2.2,5.62,5.3,5.62,5.21-2.2,5.21-5.62Z"/>
          <path class="cls-35" d="M316.9,69.37h-5.99v-32.56h5.99v12.28c1.44-1.71,3.86-2.43,5.97-2.43,5.62,0,8.23,3.91,8.23,8.78v13.95h-5.97v-12.91c0-2.47-1.22-4.41-4.09-4.41-2.51,0-4.01,1.9-4.14,4.32v13h0Z"/>
          <path class="cls-35" d="M341.19,56.65l5.44-.8c1.26-.17,1.67-.8,1.67-1.58,0-1.58-1.22-2.87-3.73-2.87s-4.05,1.67-4.22,3.59l-5.31-1.12c.36-3.46,3.55-7.28,9.49-7.28,7.01,0,9.62,3.96,9.62,8.42v10.89c0,1.16.13,2.74.27,3.5h-5.49c-.13-.59-.23-1.8-.23-2.66-1.12,1.75-3.23,3.29-6.52,3.29-4.73,0-7.6-3.19-7.6-6.65,0-3.96,2.93-6.16,6.61-6.71h0ZM348.29,60.43v-.99l-5,.76c-1.52.23-2.74,1.08-2.74,2.79,0,1.31.95,2.57,2.87,2.57,2.51,0,4.85-1.22,4.85-5.13h.01Z"/>
          <path class="cls-35" d="M358.91,69.37v-22.12h5.72v2.7c1.22-2.15,4.05-3.33,6.48-3.33,3.02,0,5.44,1.31,6.56,3.69,1.75-2.7,4.09-3.69,7.01-3.69,4.09,0,8,2.47,8,8.42v14.35h-5.8v-13.13c0-2.38-1.16-4.18-3.91-4.18-2.57,0-4.09,1.98-4.09,4.37v12.96h-5.93v-13.13c0-2.38-1.22-4.18-3.91-4.18s-4.14,1.94-4.14,4.37v12.96h-5.99v-.04Z"/>
          <path class="cls-35" d="M158.2,99.88v-14.53h2.86v14.53h-2.86Z"/>
          <path class="cls-35" d="M170.1,88.03v11.85h-2.85v-11.85h-4.59v-2.68h12.03v2.68h-4.59Z"/>
          <path class="cls-35" d="M183.51,89.59c-.14-.8-.8-2.05-2.64-2.05-1.38,0-2.27.88-2.27,1.84,0,.8.51,1.43,1.57,1.64l2.04.39c2.64.52,4.06,2.23,4.06,4.28,0,2.23-1.87,4.49-5.25,4.49-3.86,0-5.56-2.49-5.78-4.55l2.63-.7c.13,1.43,1.12,2.72,3.17,2.72,1.52,0,2.36-.76,2.36-1.78,0-.84-.63-1.5-1.77-1.73l-2.04-.41c-2.32-.48-3.82-1.97-3.82-4.16,0-2.58,2.32-4.55,5.07-4.55,3.52,0,4.89,2.13,5.21,3.78l-2.54.79h.01Z"/>
          <path class="cls-35" d="M209.14,85.35h2.89l-4.02,14.53h-2.91l-3.33-10.35-3.33,10.35h-2.95l-4.04-14.53h2.99l2.67,10.01,3.22-10.01h2.93l3.24,10.05s2.63-10.05,2.63-10.05Z"/>
          <path class="cls-35" d="M222.37,94.84c0,3.09-2.27,5.35-5.29,5.35s-5.29-2.26-5.29-5.35,2.27-5.35,5.29-5.35,5.29,2.23,5.29,5.35ZM219.65,94.84c0-1.91-1.24-2.86-2.57-2.86s-2.57.97-2.57,2.86,1.24,2.86,2.57,2.86,2.57-.97,2.57-2.86Z"/>
          <path class="cls-35" d="M230.26,92.51c-.31-.06-.58-.08-.81-.08-1.39,0-2.6.67-2.6,2.85v4.62h-2.72v-10.08h2.64v1.5c.62-1.33,2.01-1.57,2.86-1.57.22,0,.44.01.63.04v2.75-.03Z"/>
          <path class="cls-35" d="M231.78,99.88v-14.84h2.72v14.84h-2.72Z"/>
          <path class="cls-35" d="M246.62,98.05c0,.67.04,1.42.08,1.83h-2.6c-.04-.21-.1-.7-.1-1.17-.45.8-1.47,1.42-2.84,1.42-2.86,0-4.91-2.26-4.91-5.31s1.99-5.27,4.84-5.27c1.74,0,2.57.72,2.85,1.25v-5.76h2.68v13.02h-.01ZM241.49,97.69c1.39,0,2.49-1.07,2.49-2.89s-1.08-2.81-2.49-2.81-2.5,1.02-2.5,2.84,1.07,2.86,2.5,2.86Z"/>
          <path class="cls-35" d="M253.15,92.63c0-4.63,3.51-7.58,7.4-7.58s6.09,2.46,6.67,4.82l-2.67.84c-.35-1.39-1.47-2.93-4-2.93-2.18,0-4.47,1.56-4.47,4.86,0,3.1,2.18,4.8,4.51,4.8,2.49,0,3.69-1.61,4.09-2.98l2.64.8c-.55,2.23-2.64,4.94-6.73,4.94s-7.44-2.93-7.44-7.57h0Z"/>
          <path class="cls-35" d="M278.53,94.84c0,3.09-2.27,5.35-5.29,5.35s-5.29-2.26-5.29-5.35,2.27-5.35,5.29-5.35,5.29,2.23,5.29,5.35ZM275.81,94.84c0-1.91-1.24-2.86-2.56-2.86s-2.57.97-2.57,2.86,1.24,2.86,2.57,2.86,2.56-.97,2.56-2.86Z"/>
          <path class="cls-35" d="M283,99.88h-2.72v-10.08h2.64v1.25c.62-1.04,1.83-1.52,2.91-1.52,2.5,0,3.65,1.78,3.65,4v6.36h-2.72v-5.88c0-1.12-.55-2.01-1.87-2.01-1.19,0-1.88.93-1.88,2.09v5.8h0Z"/>
          <path class="cls-35" d="M293.59,99.78c.18,1.11,1.07,1.91,2.36,1.91,1.73,0,2.68-.86,2.68-2.81v-.74c-.41.66-1.35,1.29-2.81,1.29-2.68,0-4.69-2.06-4.69-4.9,0-2.67,1.92-4.91,4.69-4.91,1.6,0,2.53.7,2.86,1.38v-1.19h2.63v9c0,2.77-1.5,5.29-5.29,5.29-2.77,0-4.62-1.73-4.9-3.65l2.46-.66h.01ZM298.67,94.53c0-1.56-1.07-2.54-2.37-2.54s-2.42.98-2.42,2.54,1.01,2.57,2.42,2.57,2.37-1,2.37-2.57Z"/>
          <path class="cls-35" d="M309.82,92.51c-.31-.06-.58-.08-.81-.08-1.39,0-2.6.67-2.6,2.85v4.62h-2.72v-10.08h2.64v1.5c.62-1.33,2.01-1.57,2.86-1.57.22,0,.44.01.63.04v2.75-.03Z"/>
          <path class="cls-35" d="M320.28,97c-.52,1.74-2.11,3.2-4.59,3.2-2.77,0-5.21-1.99-5.21-5.39,0-3.22,2.37-5.31,4.96-5.31,3.12,0,4.98,1.99,4.98,5.22,0,.39-.04.8-.04.84h-7.22c.06,1.33,1.19,2.3,2.54,2.3,1.28,0,1.97-.63,2.3-1.54l2.27.67h0ZM317.74,93.69c-.04-1.01-.7-1.99-2.26-1.99-1.42,0-2.19,1.07-2.26,1.99h4.52Z"/>
          <path class="cls-35" d="M323.63,96.56c.06.8.66,1.53,1.84,1.53.9,0,1.33-.48,1.33-1.01,0-.45-.31-.81-1.08-.98l-1.33-.31c-1.95-.44-2.84-1.6-2.84-3.02,0-1.81,1.6-3.3,3.78-3.3,2.86,0,3.83,1.83,3.96,2.91l-2.27.52c-.08-.59-.52-1.35-1.66-1.35-.72,0-1.29.44-1.29,1.01,0,.49.37.8.93.9l1.43.31c1.99.41,2.99,1.61,2.99,3.1,0,1.64-1.28,3.33-3.92,3.33-3.03,0-4.09-1.97-4.2-3.12l2.33-.51h0Z"/>
          <path class="cls-35" d="M332.68,96.56c.06.8.66,1.53,1.84,1.53.9,0,1.33-.48,1.33-1.01,0-.45-.31-.81-1.08-.98l-1.33-.31c-1.95-.44-2.84-1.6-2.84-3.02,0-1.81,1.6-3.3,3.78-3.3,2.86,0,3.83,1.83,3.96,2.91l-2.27.52c-.08-.59-.52-1.35-1.66-1.35-.72,0-1.29.44-1.29,1.01,0,.49.37.8.93.9l1.43.31c1.99.41,2.99,1.61,2.99,3.1,0,1.64-1.28,3.33-3.92,3.33-3.03,0-4.09-1.97-4.2-3.12l2.33-.51h0Z"/>
          <g>
            <path class="cls-35" d="M344.05,90.74c-.04-.21-.08-.57-.08-.9,0-2.52,1.89-4.8,5.21-4.8s5.15,2.11,5.15,4.6c0,1.91-1.05,3.45-2.79,4.51l-2.83,1.74c-.61.41-1.17.84-1.37,1.52h7.08v2.48h-10.57c.02-2.52.88-4.51,3.45-6.07l2.38-1.48c1.25-.78,1.79-1.6,1.79-2.65,0-1.13-.76-2.15-2.34-2.15s-2.42,1.13-2.42,2.56c0,.27.04.53.08.78l-2.73-.14Z"/>
            <path class="cls-35" d="M357.66,87.44c.96-1.44,2.48-2.4,4.68-2.4,4.43,0,5.99,3.74,5.99,7.59s-1.56,7.57-5.99,7.57c-2.2,0-3.71-.96-4.68-2.4-.98-1.48-1.27-3.28-1.27-5.17s.29-3.71,1.27-5.19ZM362.34,97.7c2.69,0,3.16-2.96,3.16-5.07s-.47-5.07-3.16-5.07-3.12,2.98-3.12,5.07.43,5.07,3.12,5.07Z"/>
            <path class="cls-35" d="M370.33,90.74c-.04-.21-.08-.57-.08-.9,0-2.52,1.89-4.8,5.21-4.8s5.15,2.11,5.15,4.6c0,1.91-1.05,3.45-2.79,4.51l-2.83,1.74c-.62.41-1.17.84-1.38,1.52h7.08v2.48h-10.57c.02-2.52.88-4.51,3.45-6.07l2.38-1.48c1.25-.78,1.79-1.6,1.79-2.65,0-1.13-.76-2.15-2.34-2.15s-2.42,1.13-2.42,2.56c0,.27.04.53.08.78l-2.73-.14Z"/>
            <path class="cls-35" d="M393.07,87.79c-1.17.96-5.25,4.68-5.91,12.11h-2.93c.64-7.98,5.58-12.09,5.58-12.09h-7.65v-2.46h10.92v2.44Z"/>
          </g>
        </g>
      </g>
    </g>
  </g>
</svg>