<?xml version="1.0" encoding="UTF-8"?>
<svg id="Layer_2" data-name="Layer 2" xmlns="http://www.w3.org/2000/svg" xmlns:xlink="http://www.w3.org/1999/xlink" viewBox="-0.82 5.43 165.89 164.48">
  <defs>
    <style>
      .cls-1 {
        fill: none;
      }

      .cls-2 {
        fill: url(#linear-gradient-40);
      }

      .cls-2, .cls-3, .cls-4, .cls-5, .cls-6, .cls-7, .cls-8, .cls-9, .cls-10, .cls-11, .cls-12, .cls-13, .cls-14, .cls-15, .cls-16, .cls-17, .cls-18, .cls-19, .cls-20 {
        isolation: isolate;
      }

      .cls-2, .cls-3, .cls-4, .cls-5, .cls-6, .cls-7, .cls-8, .cls-9, .cls-19 {
        mix-blend-mode: multiply;
      }

      .cls-2, .cls-3, .cls-4, .cls-11, .cls-12, .cls-13, .cls-14, .cls-15, .cls-16, .cls-17, .cls-18, .cls-21, .cls-19, .cls-20 {
        opacity: .5;
      }

      .cls-3 {
        fill: url(#linear-gradient-19);
      }

      .cls-4 {
        fill: url(#linear-gradient-30);
      }

      .cls-5 {
        fill: url(#linear-gradient-23);
      }

      .cls-6 {
        fill: url(#linear-gradient-28);
      }

      .cls-7 {
        fill: url(#linear-gradient-24);
      }

      .cls-8 {
        fill: url(#linear-gradient-20);
      }

      .cls-9 {
        fill: url(#linear-gradient-37);
      }

      .cls-22 {
        fill: url(#radial-gradient-6);
      }

      .cls-23 {
        fill: url(#radial-gradient-5);
      }

      .cls-24 {
        fill: url(#radial-gradient-4);
      }

      .cls-25 {
        fill: url(#radial-gradient-3);
      }

      .cls-26 {
        fill: url(#linear-gradient-8);
      }

      .cls-27 {
        fill: url(#linear-gradient-7);
      }

      .cls-28 {
        fill: url(#linear-gradient-5);
      }

      .cls-29 {
        fill: url(#linear-gradient-9);
      }

      .cls-30 {
        fill: url(#linear-gradient-4);
      }

      .cls-31 {
        fill: url(#linear-gradient-3);
      }

      .cls-32 {
        fill: url(#linear-gradient-2);
      }

      .cls-33 {
        fill: url(#radial-gradient);
      }

      .cls-34 {
        fill: url(#linear-gradient);
      }

      .cls-35 {
        fill: #fff;
      }

      .cls-11 {
        fill: url(#linear-gradient-39);
      }

      .cls-11, .cls-12, .cls-13, .cls-14, .cls-15, .cls-16, .cls-17, .cls-18, .cls-21, .cls-20 {
        mix-blend-mode: overlay;
      }

      .cls-12 {
        fill: url(#linear-gradient-32);
      }

      .cls-13 {
        fill: url(#linear-gradient-21);
      }

      .cls-14 {
        fill: url(#linear-gradient-25);
      }

      .cls-15 {
        fill: url(#linear-gradient-31);
      }

      .cls-16 {
        fill: url(#linear-gradient-18);
      }

      .cls-17 {
        fill: url(#linear-gradient-13);
      }

      .cls-18 {
        fill: url(#linear-gradient-41);
      }

      .cls-36 {
        fill: url(#linear-gradient-10);
      }

      .cls-37 {
        fill: url(#linear-gradient-11);
      }

      .cls-38 {
        fill: url(#linear-gradient-12);
      }

      .cls-39 {
        fill: url(#linear-gradient-14);
      }

      .cls-40 {
        fill: url(#linear-gradient-22);
      }

      .cls-41 {
        fill: url(#linear-gradient-33);
      }

      .cls-42 {
        fill: url(#linear-gradient-15);
      }

      .cls-43 {
        fill: url(#linear-gradient-16);
      }

      .cls-44 {
        fill: url(#linear-gradient-17);
      }

      .cls-45 {
        fill: url(#linear-gradient-35);
      }

      .cls-46 {
        fill: url(#linear-gradient-34);
      }

      .cls-47 {
        fill: url(#linear-gradient-36);
      }

      .cls-48 {
        fill: url(#linear-gradient-38);
      }

      .cls-49 {
        fill: url(#linear-gradient-27);
      }

      .cls-50 {
        fill: url(#linear-gradient-26);
      }

      .cls-51 {
        fill: url(#linear-gradient-29);
      }

      .cls-52 {
        fill: #040303;
      }

      .cls-19 {
        fill: url(#linear-gradient-6);
      }

      .cls-53 {
        clip-path: url(#clippath);
      }

      .cls-20 {
        fill: url(#radial-gradient-2);
      }
    </style>
    <clipPath id="clippath">
      <rect class="cls-1" x=".17" width="141.12" height="99.17"/>
    </clipPath>
    <linearGradient id="linear-gradient" x1="4" y1="99.95" x2="137.6" y2="99.95" gradientTransform="translate(0 173.31) scale(1 -1)" gradientUnits="userSpaceOnUse">
      <stop offset="0" stop-color="#c6c6c6"/>
      <stop offset="1" stop-color="#fff"/>
    </linearGradient>
    <radialGradient id="radial-gradient" cx=".99" cy="110.53" fx=".99" fy="110.53" r=".02" gradientTransform="translate(57.88 173.31) scale(.85 -1)" gradientUnits="userSpaceOnUse">
      <stop offset="0" stop-color="#fff"/>
      <stop offset=".98" stop-color="#fff"/>
    </radialGradient>
    <linearGradient id="linear-gradient-2" x1="-78.53" y1="157.78" x2="-86.87" y2="140.53" gradientTransform="translate(92.63 173.31) scale(.62 -1)" gradientUnits="userSpaceOnUse">
      <stop offset="0" stop-color="#fff"/>
      <stop offset="1" stop-color="#c6c6c6"/>
    </linearGradient>
    <linearGradient id="linear-gradient-3" x1="-148.03" y1="91.03" x2="-90.39" y2="91.03" gradientTransform="translate(92.63 173.31) scale(.62 -1)" xlink:href="#linear-gradient"/>
    <linearGradient id="linear-gradient-4" x1="-133.12" y1="149.47" x2="-63.18" y2="149.47" xlink:href="#linear-gradient-2"/>
    <linearGradient id="linear-gradient-5" x1="-95.19" y1="133.05" x2="-150.95" y2="84.64" gradientTransform="translate(92.63 173.31) scale(.62 -1)" xlink:href="#linear-gradient"/>
    <linearGradient id="linear-gradient-6" x1="-150.34" y1="139.78" x2="-67.04" y2="132.19" xlink:href="#linear-gradient-2"/>
    <linearGradient id="linear-gradient-7" x1="-90.39" y1="99.88" x2="-57.3" y2="99.88" xlink:href="#linear-gradient-2"/>
    <linearGradient id="linear-gradient-8" x1="-124.51" y1="95.72" x2="-105.61" y2="95.72" xlink:href="#linear-gradient-2"/>
    <linearGradient id="linear-gradient-9" x1="-96.92" y1="110.47" x2="-104.79" y2="67.59" gradientTransform="translate(92.63 173.31) scale(.62 -1)" xlink:href="#linear-gradient"/>
    <linearGradient id="linear-gradient-10" x1="-70.8" y1="78.35" x2="-69.3" y2="63.65" gradientTransform="translate(92.63 173.31) scale(.62 -1)" xlink:href="#linear-gradient"/>
    <linearGradient id="linear-gradient-11" x1="-54.99" y1="110.17" x2="-26.88" y2="110.17" xlink:href="#linear-gradient-2"/>
    <linearGradient id="linear-gradient-12" x1="-67.56" y1="113.42" x2="-41.03" y2="59.66" xlink:href="#linear-gradient-2"/>
    <linearGradient id="linear-gradient-13" x1="-72.14" y1="148.18" x2="-139.7" y2="89.53" gradientTransform="translate(92.63 173.31) scale(.62 -1)" gradientUnits="userSpaceOnUse">
      <stop offset="0" stop-color="#fff"/>
      <stop offset=".98" stop-color="#fff"/>
    </linearGradient>
    <radialGradient id="radial-gradient-2" cx="-60.02" cy="133.13" fx="-60.02" fy="133.13" r="18.64" gradientTransform="translate(0 173.31) scale(1 -1)" xlink:href="#radial-gradient"/>
    <radialGradient id="radial-gradient-3" cx="-63.52" cy="126.7" fx="-63.52" fy="126.7" r="21.74" gradientTransform="translate(0 173.31) scale(1 -1)" xlink:href="#radial-gradient"/>
    <linearGradient id="linear-gradient-14" x1="-117.22" y1="108.54" x2="-158.19" y2="84.04" xlink:href="#linear-gradient-2"/>
    <linearGradient id="linear-gradient-15" x1="-102.57" y1="150.6" x2="-130.27" y2="134.04" xlink:href="#linear-gradient-2"/>
    <linearGradient id="linear-gradient-16" x1="-91.54" y1="151.27" x2="-192.91" y2="174.15" xlink:href="#linear-gradient-2"/>
    <linearGradient id="linear-gradient-17" x1="-77.95" y1="155.82" x2="-86.59" y2="145.27" xlink:href="#linear-gradient-13"/>
    <linearGradient id="linear-gradient-18" x1="-76.98" y1="154.75" x2="-85.44" y2="144.43" xlink:href="#linear-gradient-13"/>
    <linearGradient id="linear-gradient-19" x1="-90.29" y1="145.27" x2="-80.44" y2="145.27" gradientTransform="translate(92.63 173.31) scale(.62 -1)" gradientUnits="userSpaceOnUse">
      <stop offset="0" stop-color="#c6c6c6"/>
      <stop offset="1" stop-color="#575656"/>
    </linearGradient>
    <linearGradient id="linear-gradient-20" x1="-179.64" y1="70.46" x2="-91.41" y2="123.84" gradientTransform="translate(92.63 173.31) scale(.62 -1)" xlink:href="#linear-gradient"/>
    <linearGradient id="linear-gradient-21" x1="-93.43" y1="121.76" x2="-147.19" y2="65.27" xlink:href="#linear-gradient-13"/>
    <linearGradient id="linear-gradient-22" x1="-129.28" y1="51.73" x2="-115.86" y2="86.45" gradientTransform="translate(92.63 173.31) scale(.62 -1)" xlink:href="#linear-gradient"/>
    <radialGradient id="radial-gradient-4" cx="-76.06" cy="91.03" fx="-76.06" fy="91.03" r="23.68" gradientTransform="translate(0 173.31) scale(1 -1)" xlink:href="#radial-gradient"/>
    <linearGradient id="linear-gradient-23" x1="-99.61" y1="127.19" x2="-139.07" y2="85.72" gradientTransform="translate(92.63 173.31) scale(.62 -1)" xlink:href="#linear-gradient"/>
    <linearGradient id="linear-gradient-24" x1="-115.66" y1="89.79" x2="-109.4" y2="97.95" gradientTransform="translate(92.63 173.31) scale(.62 -1)" xlink:href="#linear-gradient"/>
    <linearGradient id="linear-gradient-25" x1="-118.09" y1="53.21" x2="-77.23" y2="106.41" xlink:href="#linear-gradient-13"/>
    <linearGradient id="linear-gradient-26" x1="-91.16" y1="58.3" x2="-86.99" y2="116.31" gradientTransform="translate(92.63 173.31) scale(.62 -1)" xlink:href="#linear-gradient"/>
    <linearGradient id="linear-gradient-27" x1="-110.98" y1="72.01" x2="-81.11" y2="110.89" xlink:href="#linear-gradient-13"/>
    <linearGradient id="linear-gradient-28" x1="-72.74" y1="97.48" x2="-84.26" y2="126.73" gradientTransform="translate(92.63 173.31) scale(.62 -1)" xlink:href="#linear-gradient"/>
    <linearGradient id="linear-gradient-29" x1="-69.33" y1="82.08" x2="-54.67" y2="72.57" xlink:href="#linear-gradient-19"/>
    <linearGradient id="linear-gradient-30" x1="-70.51" y1="75.61" x2="-69.56" y2="66.28" xlink:href="#linear-gradient-2"/>
    <radialGradient id="radial-gradient-5" cx="-39.36" cy="77.81" fx="-39.36" fy="77.81" r="23.12" gradientTransform="translate(0 173.31) scale(1 -1)" xlink:href="#radial-gradient"/>
    <linearGradient id="linear-gradient-31" x1="-70.77" y1="65.84" x2="-79.15" y2="91.12" xlink:href="#linear-gradient-13"/>
    <linearGradient id="linear-gradient-32" x1="-77.75" y1="154.36" x2="-29.99" y2="24.94" xlink:href="#linear-gradient-13"/>
    <linearGradient id="linear-gradient-33" x1="-44.43" y1="47.43" x2="-55.29" y2="113.61" gradientTransform="translate(92.63 173.31) scale(.62 -1)" gradientUnits="userSpaceOnUse">
      <stop offset="0" stop-color="#7b509b"/>
      <stop offset="1" stop-color="#bb6ba9"/>
    </linearGradient>
    <linearGradient id="linear-gradient-34" x1="-36.71" y1="52.09" x2="-46.96" y2="114.5" xlink:href="#linear-gradient-33"/>
    <linearGradient id="linear-gradient-35" x1="-50.05" y1="49.87" x2="-60.45" y2="113.26" gradientTransform="translate(92.63 173.31) scale(.62 -1)" xlink:href="#linear-gradient"/>
    <linearGradient id="linear-gradient-36" x1="-71.68" y1="124.32" x2="-49.06" y2="63.03" xlink:href="#linear-gradient-13"/>
    <linearGradient id="linear-gradient-37" x1="-130.05" y1="70.29" x2="-86.3" y2="127.24" gradientTransform="translate(92.63 173.31) scale(.62 -1)" xlink:href="#linear-gradient"/>
    <linearGradient id="linear-gradient-38" x1="-33.59" y1="114.51" x2="-33.47" y2="114.67" xlink:href="#linear-gradient-33"/>
    <linearGradient id="linear-gradient-39" x1="-35.29" y1="111.99" x2="-28.43" y2="120.93" xlink:href="#linear-gradient-13"/>
    <linearGradient id="linear-gradient-40" x1="-51.52" y1="104.12" x2="-49.03" y2="107.37" xlink:href="#linear-gradient-2"/>
    <linearGradient id="linear-gradient-41" x1="-46.71" y1="94.36" x2="-34.03" y2="110.87" xlink:href="#linear-gradient-13"/>
    <radialGradient id="radial-gradient-6" cx="-16.16" cy="102.65" fx="-16.16" fy="102.65" r="6.11" gradientTransform="translate(0 173.31) scale(1 -1)" xlink:href="#radial-gradient"/>
  </defs>
  <g id="Layer_1-2" data-name="Layer 1">
    <g class="cls-10">
      <g id="Layer_1-3" data-name="Layer 1">
        <path class="cls-35" d="M.78,152.9v-10.35h2.04v10.35H.78Z"/>
        <path class="cls-35" d="M9.25,144.45v8.44h-2.03v-8.44h-3.27v-1.91h8.57v1.91h-3.27Z"/>
        <path class="cls-35" d="M18.8,145.56c-.1-.57-.57-1.46-1.88-1.46-.98,0-1.62.63-1.62,1.31,0,.57.36,1.02,1.12,1.17l1.45.28c1.88.37,2.89,1.59,2.89,3.05,0,1.59-1.33,3.2-3.74,3.2-2.75,0-3.96-1.77-4.12-3.24l1.87-.5c.09,1.02.8,1.94,2.26,1.94,1.08,0,1.68-.54,1.68-1.27,0-.6-.45-1.07-1.26-1.23l-1.45-.29c-1.65-.34-2.72-1.4-2.72-2.96,0-1.84,1.65-3.24,3.61-3.24,2.51,0,3.48,1.52,3.71,2.69l-1.81.56h.01Z"/>
        <path class="cls-35" d="M37.06,142.54h2.06l-2.86,10.35h-2.07l-2.37-7.38-2.37,7.38h-2.1l-2.88-10.35h2.13l1.9,7.12,2.29-7.12h2.09l2.31,7.15s1.87-7.15,1.87-7.15Z"/>
        <path class="cls-35" d="M46.48,149.3c0,2.2-1.62,3.81-3.77,3.81s-3.77-1.61-3.77-3.81,1.62-3.81,3.77-3.81,3.77,1.59,3.77,3.81ZM44.54,149.3c0-1.36-.88-2.04-1.83-2.04s-1.83.69-1.83,2.04.88,2.04,1.83,2.04,1.83-.69,1.83-2.04Z"/>
        <path class="cls-35" d="M52.1,147.64c-.22-.04-.41-.06-.58-.06-.99,0-1.85.48-1.85,2.03v3.29h-1.94v-7.19h1.88v1.07c.44-.95,1.43-1.12,2.04-1.12.16,0,.31.02.45.03v1.96h0Z"/>
        <path class="cls-35" d="M53.18,152.9v-10.57h1.94v10.57h-1.94Z"/>
        <path class="cls-35" d="M63.75,151.59c0,.48.03,1.01.06,1.3h-1.85c-.03-.15-.07-.5-.07-.83-.32.57-1.05,1.01-2.02,1.01-2.04,0-3.5-1.61-3.5-3.78s1.42-3.75,3.45-3.75c1.24,0,1.83.51,2.03.89v-4.1h1.91v9.27h-.01ZM60.1,151.33c.99,0,1.77-.76,1.77-2.06s-.77-2-1.77-2-1.78.73-1.78,2.02.76,2.04,1.78,2.04Z"/>
        <path class="cls-35" d="M68.4,147.73c0-3.3,2.5-5.4,5.27-5.4s4.34,1.75,4.75,3.43l-1.9.6c-.25-.99-1.05-2.09-2.85-2.09-1.55,0-3.18,1.11-3.18,3.46,0,2.21,1.55,3.42,3.21,3.42,1.77,0,2.63-1.15,2.91-2.12l1.88.57c-.39,1.59-1.88,3.52-4.79,3.52s-5.3-2.09-5.3-5.39h0Z"/>
        <path class="cls-35" d="M86.48,149.3c0,2.2-1.62,3.81-3.77,3.81s-3.77-1.61-3.77-3.81,1.62-3.81,3.77-3.81,3.77,1.59,3.77,3.81ZM84.54,149.3c0-1.36-.88-2.04-1.82-2.04s-1.83.69-1.83,2.04.88,2.04,1.83,2.04,1.82-.69,1.82-2.04Z"/>
        <path class="cls-35" d="M89.66,152.9h-1.94v-7.19h1.88v.89c.44-.74,1.3-1.08,2.07-1.08,1.78,0,2.6,1.27,2.6,2.85v4.53h-1.94v-4.19c0-.8-.39-1.43-1.33-1.43-.85,0-1.34.66-1.34,1.49v4.13h0Z"/>
        <path class="cls-35" d="M97.2,152.82c.13.79.76,1.36,1.68,1.36,1.23,0,1.91-.61,1.91-2v-.53c-.29.47-.96.92-2,.92-1.91,0-3.34-1.47-3.34-3.49,0-1.9,1.37-3.5,3.34-3.5,1.14,0,1.8.5,2.04.98v-.85h1.87v6.41c0,1.97-1.07,3.77-3.77,3.77-1.97,0-3.29-1.23-3.49-2.6l1.75-.47h.01ZM100.82,149.08c0-1.11-.76-1.81-1.69-1.81s-1.72.7-1.72,1.81.72,1.83,1.72,1.83,1.69-.71,1.69-1.83Z"/>
        <path class="cls-35" d="M108.76,147.64c-.22-.04-.41-.06-.58-.06-.99,0-1.85.48-1.85,2.03v3.29h-1.94v-7.19h1.88v1.07c.44-.95,1.43-1.12,2.04-1.12.16,0,.31.02.45.03v1.96h0Z"/>
        <path class="cls-35" d="M116.21,150.84c-.37,1.24-1.5,2.28-3.27,2.28-1.97,0-3.71-1.42-3.71-3.84,0-2.29,1.69-3.78,3.53-3.78,2.22,0,3.55,1.42,3.55,3.72,0,.28-.03.57-.03.6h-5.14c.04.95.85,1.64,1.81,1.64.91,0,1.4-.45,1.64-1.1l1.62.48h0ZM114.4,148.48c-.03-.72-.5-1.42-1.61-1.42-1.01,0-1.56.76-1.61,1.42h3.22Z"/>
        <path class="cls-35" d="M118.6,150.53c.04.57.47,1.09,1.31,1.09.64,0,.95-.34.95-.71,0-.32-.22-.58-.77-.7l-.95-.22c-1.39-.31-2.02-1.14-2.02-2.15,0-1.29,1.14-2.35,2.69-2.35,2.04,0,2.73,1.3,2.82,2.07l-1.62.37c-.06-.42-.37-.96-1.18-.96-.51,0-.92.31-.92.72,0,.35.26.57.66.64l1.02.22c1.42.29,2.13,1.15,2.13,2.21,0,1.17-.91,2.37-2.79,2.37-2.16,0-2.91-1.4-2.99-2.22l1.66-.36v-.02Z"/>
        <path class="cls-35" d="M125.04,150.53c.04.57.47,1.09,1.31,1.09.64,0,.95-.34.95-.71,0-.32-.22-.58-.77-.7l-.95-.22c-1.39-.31-2.02-1.14-2.02-2.15,0-1.29,1.14-2.35,2.69-2.35,2.04,0,2.73,1.3,2.82,2.07l-1.62.37c-.06-.42-.37-.96-1.18-.96-.51,0-.92.31-.92.72,0,.35.26.57.66.64l1.02.22c1.42.29,2.13,1.15,2.13,2.21,0,1.17-.91,2.37-2.79,2.37-2.16,0-2.91-1.4-2.99-2.22l1.66-.36v-.02Z"/>
        <path class="cls-35" d="M133.32,147.02c-.03-.13-.07-.42-.07-.66,0-1.67,1.26-3.17,3.46-3.17s3.42,1.4,3.42,3.05c0,1.23-.67,2.22-1.84,2.94l-1.83,1.11c-.37.23-.67.5-.82.86h4.54v1.74h-7.01c0-1.67.54-3.02,2.23-4.04l1.56-.94c.8-.48,1.12-.98,1.12-1.63s-.48-1.3-1.43-1.3c-1.01,0-1.5.69-1.5,1.58,0,.18.03.37.07.53l-1.91-.06h.01Z"/>
        <path class="cls-35" d="M141.77,144.79c.63-.93,1.65-1.59,3.12-1.59s2.5.66,3.11,1.59c.64.98.85,2.16.85,3.37s-.21,2.4-.85,3.37c-.61.94-1.63,1.59-3.11,1.59s-2.5-.66-3.12-1.59c-.64-.98-.83-2.16-.83-3.37s.19-2.39.83-3.37ZM143.46,150.57c.29.47.75.77,1.43.77s1.12-.31,1.42-.77c.38-.57.53-1.42.53-2.41s-.15-1.84-.53-2.41c-.29-.47-.72-.78-1.42-.78s-1.14.31-1.43.78c-.37.57-.51,1.42-.51,2.41s.15,1.84.51,2.41Z"/>
        <path class="cls-35" d="M149.73,147.02c-.03-.13-.07-.42-.07-.66,0-1.67,1.26-3.17,3.46-3.17s3.42,1.4,3.42,3.05c0,1.23-.67,2.22-1.84,2.94l-1.83,1.11c-.37.23-.67.5-.82.86h4.54v1.74h-7.01c0-1.67.54-3.02,2.23-4.04l1.56-.94c.8-.48,1.12-.98,1.12-1.63s-.48-1.3-1.43-1.3c-1.01,0-1.5.69-1.5,1.58,0,.18.03.37.07.53l-1.91-.06h.01Z"/>
        <path class="cls-35" d="M164.02,145.1c-.72.61-3.37,3.02-3.8,7.8h-2.09c.39-5.1,3.56-7.74,3.56-7.74h-4.88v-1.74h7.2v1.68h.01Z"/>
        <path class="cls-35" d="M.11,163.8c0-.11,0-.21,0-.31,0-1.32.98-2.51,2.67-2.51s2.61,1.09,2.61,2.38c0,1.01-.57,1.83-1.46,2.39l-1.53.98c-.44.29-.84.61-.94,1.09h3.97v1.09H0c.02-1.27.53-2.23,1.84-3.08l1.29-.84c.73-.46,1.06-1.01,1.06-1.61,0-.7-.48-1.36-1.46-1.36s-1.49.7-1.49,1.59c0,.11,0,.23.02.35l-1.17-.14.02-.02Z"/>
        <path class="cls-35" d="M7.21,166.46c.07.96.78,1.6,1.74,1.6s1.66-.61,1.66-1.56c0-1.06-.78-1.6-1.67-1.6-.55,0-1.07.21-1.41.56-.41-.15-.75-.31-1.15-.45l1-3.84h4.08v1.07h-3.31l-.57,2.22c.35-.38.97-.57,1.58-.57,1.52,0,2.62.97,2.62,2.56,0,1.46-1.12,2.64-2.84,2.64s-2.76-1.07-2.86-2.29l1.12-.34h.01Z"/>
        <path class="cls-35" d="M12.5,165.96v-.98h3.23v.98h-3.23Z"/>
        <path class="cls-35" d="M16.55,163.8c0-.11,0-.21,0-.31,0-1.32.98-2.51,2.67-2.51s2.61,1.09,2.61,2.38c0,1.01-.57,1.83-1.46,2.39l-1.53.98c-.44.29-.84.61-.94,1.09h3.97v1.09h-5.42c.02-1.27.53-2.23,1.84-3.08l1.29-.84c.73-.46,1.06-1.01,1.06-1.61,0-.7-.48-1.36-1.46-1.36s-1.49.7-1.49,1.59c0,.11,0,.23.02.35l-1.17-.14.02-.02Z"/>
        <path class="cls-35" d="M23.17,167.65c.33.2.91.37,1.41.37,1.87,0,2.64-1.23,2.68-2.74-.27.51-.95.99-2,.99-1.34,0-2.67-.91-2.67-2.61,0-1.6,1.34-2.67,2.85-2.67s3.01,1.09,3.01,3.56c0,2.84-1.26,4.53-3.87,4.53-.6,0-1.41-.19-1.79-.45l.38-.97h0ZM25.44,162.01c-.86,0-1.67.61-1.67,1.62s.79,1.63,1.67,1.63,1.67-.61,1.67-1.63-.82-1.62-1.67-1.62Z"/>
        <path class="cls-35" d="M36.33,160.26c2.12,0,4.25,1.57,4.25,4.4s-2.12,4.41-4.25,4.41-4.25-1.59-4.25-4.41,2.12-4.4,4.25-4.4ZM36.33,168c1.58,0,3.05-1.13,3.05-3.34s-1.48-3.33-3.05-3.33-3.05,1.12-3.05,3.33,1.48,3.34,3.05,3.34Z"/>
        <path class="cls-35" d="M42.5,166.02c0,1.31.82,2.02,1.75,2.02,1.07,0,1.47-.73,1.6-1.18l.99.43c-.27.82-1.1,1.79-2.59,1.79-1.67,0-2.9-1.31-2.9-3.05s1.25-3.04,2.89-3.04c1.53,0,2.31.95,2.55,1.82l-1.01.43c-.14-.56-.56-1.22-1.54-1.22-.91,0-1.74.67-1.74,2Z"/>
        <path class="cls-35" d="M49.42,163.15h1.24v1.01h-1.24v2.98c0,.53.21.79.8.79.14,0,.35-.02.44-.05v.95c-.1.04-.38.11-.76.11-.98,0-1.6-.6-1.6-1.63v-3.15h-1.1v-1.01h.31c.62,0,.88-.38.88-.88v-.93h1.03v1.81h0Z"/>
        <path class="cls-35" d="M57.25,166.02c0,1.75-1.22,3.05-2.94,3.05s-2.94-1.3-2.94-3.05,1.22-3.04,2.94-3.04,2.94,1.3,2.94,3.04ZM56.1,166.02c0-1.32-.84-2.04-1.79-2.04s-1.79.71-1.79,2.04.84,2.05,1.79,2.05,1.79-.71,1.79-2.05Z"/>
        <path class="cls-35" d="M58.44,168.9v-8.64h1.11v3.71c.27-.51.94-.98,1.9-.98,1.74,0,2.64,1.34,2.64,3.01s-.97,3.05-2.67,3.05c-.85,0-1.5-.37-1.86-.99v.84h-1.12ZM61.24,163.98c-.99,0-1.71.78-1.71,2.02s.72,2.05,1.71,2.05,1.69-.81,1.69-2.05-.66-2.02-1.69-2.02Z"/>
        <path class="cls-35" d="M70.27,167.26c-.32,1.01-1.24,1.81-2.58,1.81-1.54,0-2.89-1.12-2.89-3.07,0-1.8,1.3-3.03,2.74-3.03,1.77,0,2.76,1.22,2.76,3.01,0,.14-.01.29-.02.36h-4.32c.02,1.03.76,1.74,1.73,1.74s1.4-.51,1.61-1.16l.97.33h0ZM69.14,165.43c-.02-.82-.56-1.47-1.58-1.47-.94,0-1.52.73-1.56,1.47h3.14Z"/>
        <path class="cls-35" d="M74.69,164.29c-.17-.03-.33-.04-.49-.04-.94,0-1.58.5-1.58,1.77v2.88h-1.12v-5.74h1.1v1c.42-.88,1.13-1.1,1.72-1.1.16,0,.31.02.37.04v1.19Z"/>
        <path class="cls-35" d="M77.94,163.8c-.01-.11-.01-.21-.01-.31,0-1.32.98-2.51,2.67-2.51s2.61,1.09,2.61,2.38c0,1.01-.57,1.83-1.46,2.39l-1.53.98c-.44.29-.84.61-.94,1.09h3.97v1.09h-5.42c.02-1.27.53-2.23,1.84-3.08l1.29-.84c.73-.46,1.06-1.01,1.06-1.61,0-.7-.48-1.36-1.46-1.36s-1.49.7-1.49,1.59c0,.11.01.23.02.35l-1.17-.14.02-.02Z"/>
        <path class="cls-35" d="M84.79,162.23c.5-.75,1.28-1.24,2.37-1.24s1.87.49,2.38,1.24c.51.76.69,1.74.69,2.8s-.18,2.04-.69,2.8c-.5.75-1.28,1.24-2.38,1.24s-1.87-.49-2.37-1.24c-.51-.76-.69-1.74-.69-2.8s.18-2.04.69-2.8ZM85.94,167.53c.3.31.68.5,1.23.5s.93-.19,1.23-.5c.46-.49.68-1.32.68-2.51s-.21-2.02-.68-2.51c-.3-.31-.68-.5-1.23-.5s-.93.19-1.23.5c-.47.49-.68,1.32-.68,2.51s.21,2.02.68,2.51Z"/>
        <path class="cls-35" d="M91.1,163.8c0-.11,0-.21,0-.31,0-1.32.98-2.51,2.67-2.51s2.61,1.09,2.61,2.38c0,1.01-.57,1.83-1.46,2.39l-1.53.98c-.44.29-.83.61-.94,1.09h3.97v1.09h-5.42c.02-1.27.52-2.23,1.84-3.08l1.29-.84c.73-.46,1.06-1.01,1.06-1.61,0-.7-.48-1.36-1.46-1.36s-1.49.7-1.49,1.59c0,.11,0,.23.02.35l-1.17-.14.02-.02Z"/>
        <path class="cls-35" d="M102.37,162.28c-.72.57-2.9,2.52-3.27,6.61h-1.21c.35-4.5,3.19-6.66,3.19-6.66h-4.36v-1.07h5.64v1.12h.01Z"/>
        <g class="cls-53">
          <g>
            <path class="cls-34" d="M70.79,6.24C33.96,6.24,4,36.35,4,73.36c0,22.3,10.89,42.08,27.59,54.29h.03c6.74,4.91,14.14,8.47,22.05,10.58,5.56,1.49,11.33,2.24,17.12,2.24,6.42,0,12.77-.92,18.87-2.74,7.16-2.14,14.15-5.62,20.24-10.08h.11c16.7-12.21,27.59-31.99,27.59-54.29,0-37.01-29.96-67.12-66.79-67.12h-.02ZM70.79,11.14c33.74,0,61.24,27.26,61.88,61.01-2.87.56-5.79.93-8.73,1.08-.39-9.76-2.96-19.16-7.59-27.55.34.39.67.79,1,1.21,3.47,4.43,5.68,8.05,5.7,8.08l4.17-2.55c-.09-.16-2.36-3.9-6.03-8.58-3.32-4.22-6.94-7.22-7.89-7.97-1.06-2.85-2.95-5.72-5.44-8.22-5.2-5.22-11.57-7.44-15.93-5.92-9.48-4.93-20.1-7.76-29.41-7.76-1.19,0-2.37.04-3.54.11-.03-.59-.03-1.19-.05-1.79,3.84-.75,7.8-1.16,11.85-1.16h.01ZM76.54,43.59l10.08-11.59-11.77-11.26-3.37,3.55,4.76,4.55c-1.28-.08-2.57-.13-3.85-.13-3.64,0-7.2.34-10.67.95-1.07-3.44-1.83-7.01-2.3-10.68,1.03-.06,2.07-.09,3.11-.09,8,0,17.1,2.29,25.45,6.33-.99,1.98-1.12,4.49-.34,7.31.57,2.06,1.62,4.17,3.03,6.18l-13.34,16.64c-5.97-5.93-10.74-13.06-13.94-21,2.93-.47,5.93-.72,8.99-.72,2.03,0,4.05.12,6.06.33l-5.58,6.42,3.67,3.23v-.02ZM93.92,42.46c1.93,1.86,4.06,3.37,6.23,4.41,2.06,6.79,3.29,14.15,3.29,19.97,0,1.31-.05,2.62-.13,3.92-8.31-2.47-15.89-6.64-22.35-12.12l12.98-16.18h-.02ZM92.73,26.87c.49-.49,1.24-.73,2.19-.73,2.47,0,6.2,1.67,9.5,4.99,2.26,2.28,3.95,4.98,4.63,7.42.55,1.95.4,3.53-.39,4.33s-2.36.94-4.3.39c-2.43-.68-5.12-2.38-7.38-4.65-2.26-2.27-3.95-4.98-4.63-7.41-.54-1.95-.4-3.53.39-4.33h0ZM77.88,62.46c7.18,6.07,15.64,10.64,24.91,13.26-1.22,8.63-4.2,16.82-8.6,24.05-10.4-4.05-20.5-9.68-29.79-16.72-.63-.48-1.23-.99-1.85-1.48l15.32-19.11h.01ZM107.55,76.88c3.73.76,7.58,1.19,11.51,1.29-.39,9.51-3.06,18.6-7.85,26.7-4.12-.88-8.24-2.02-12.32-3.41,4.38-7.44,7.35-15.8,8.66-24.58h0ZM108.1,71.99c.13-1.71.21-3.42.21-5.15,0-5.42-.98-12.04-2.65-18.41.28.02.57.06.84.06,1.92,0,3.58-.56,4.91-1.6,4.64,7.97,7.26,16.98,7.66,26.37-3.74-.11-7.41-.53-10.96-1.28h-.01ZM74.26,59.16l-15.51,19.34c-3.67-3.12-7.12-6.43-10.36-9.89l10.43.83.38-4.89-19.25-1.54.64,18.89,4.88-.17-.32-9.42c3.3,3.5,6.81,6.84,10.53,10l-19.01,23.71c-9.08-7.47-15.89-17.44-19.57-28.75,2.25-9.31,6.77-17.73,12.94-24.65,1.47,2.39,3.03,4.76,4.7,7.08l3.96-2.87c-1.84-2.57-3.54-5.18-5.12-7.83,6.93-6.51,15.48-11.3,24.96-13.69,3.5,9.06,8.9,17.17,15.72,23.83v.02ZM54.09,13.46c.01.37.01.74.03,1.1-2.53.35-5.03.86-7.48,1.51,2.41-1.03,4.9-1.89,7.45-2.61ZM54.56,19.45c.48,3.85,1.27,7.6,2.37,11.23-9.75,2.53-18.56,7.4-25.83,13.98-2.11-3.95-3.94-7.97-5.47-12.04,8.27-7.12,18.25-11.66,28.93-13.17ZM14.9,46.6c1.85-3.88,4.09-7.54,6.67-10.93,1.66,4.25,3.64,8.44,5.91,12.55-5.38,5.73-9.69,12.49-12.61,19.94-.55-3.35-.84-6.78-.84-10.27,0-3.79.34-7.58,1.01-11.27l-.14-.03h0ZM10.68,88.24c-1.17-4.77-1.8-9.75-1.8-14.88,0-2.97.22-5.89.62-8.75.44,4.43,1.29,8.75,2.55,12.9-.76,3.48-1.22,7.06-1.37,10.73ZM106.34,124.24c-.19.14-.39.27-.58.4-.19.13-.38.27-.58.4-.27.18-.54.36-.81.53-.12.08-.23.15-.35.23-.31.2-.61.39-.92.58-.07.05-.15.09-.22.14-.34.21-.69.42-1.03.62-.02,0-.05.03-.07.04-4.27,2.49-8.84,4.49-13.49,5.87-5.65,1.68-11.53,2.54-17.48,2.54-5.38,0-10.72-.7-15.88-2.08-7.91-2.11-15.28-5.79-21.94-10.93-9.27-7.21-16.46-17-20.49-28.29l-3.05-7.23,1.33,3.33c-.06-1,.98-12.59,1.33-11.64.89,2.44,3.55,7.87,3.54,8.07,4.23,8.92,10.37,16.79,17.97,23.05l-2.75,3.42,3.8,3.08,2.83-3.53c6.59,4.65,14.1,8.16,22.29,10.21l1.18-4.76c-7.49-1.87-14.35-5.06-20.4-9.28l18.93-23.61c.66.52,1.3,1.07,1.97,1.58,9.34,7.07,19.49,12.78,29.95,16.96-4.54,6.25-10.19,11.61-16.78,15.63l.34-11.7-4.88-.14-.54,18.49,17.99.41.11-4.9-7.14-.16c6.09-4.3,11.37-9.67,15.64-15.82,4.03,1.42,8.1,2.6,12.17,3.55-.23.32-.43.65-.66.96l3.9,2.96c.7-.93,1.36-1.88,2-2.83,2.08.38,4.16.69,6.24.94-3.82,4.97-8.37,9.34-13.48,12.95v-.04ZM123.02,106.69c-2.23-.21-4.46-.49-6.7-.85,4.69-8.47,7.31-17.88,7.67-27.7,2.89-.14,5.75-.47,8.58-.97-.65,10.82-4.07,20.89-9.55,29.53h0Z"/>
            <path class="cls-52" d="M75.84,53.47s-1.12.86-1.73,3.04-2.39,2.09-2.39,2.09h0c.02.05.08.18.16.38h0c.37.9,1.26,3.24,1.54,5.76.34,3.08-.22,6.43-3.76,7.7-1.85.67-3.67.52-5.35-.07,5.71,14.23,5.1,36.07,5.1,36.07h-7.95c-.65-4.84-1.91-8.97-3.93-12.37.08.92.13,1.84.16,2.75.05,1.79,0,3.52-.08,5-.15,2.72-.43,4.62-.43,4.62h-8.19c.08-8.83-6.07-18.34-9.58-23.12,0,.42.01.83.02,1.24v5.87c0,.18,0,.35-.01.53v.03c0,.17,0,.35-.01.52v.02c0,.17,0,.35-.01.52v.02c0,.17,0,.34-.01.51h0c0,.18-.01.35-.02.52h0c0,.17-.01.34-.02.51h0c-.08,2.54-.21,4.79-.34,6.66h0c0,.13-.02.24-.02.36h0c0,.13-.02.25-.02.36h0c0,.11-.02.22-.02.33v.03c0,.1-.02.21-.02.31v.03c0,.1-.01.19-.02.29v.04c0,.08-.01.16-.02.24v.08c0,.07-.01.13-.02.19v.12c0,.05,0,.09-.01.13,0,.06,0,.11-.01.17v.05c-.18,2.18-.34,3.41-.34,3.41h-9.01c0-9.94-1.02-17.63-2.51-23.57-.81-.05-1.58-.13-2.32-.23-2.97-.41-5.38-1.22-7.34-2.21-.1-.05-.2-.1-.3-.15-.64-.34-1.24-.7-1.78-1.07-.08.23-.16.45-.24.67-.04.11-.07.21-.11.32-.04.12-.08.24-.12.35-.05.13-.09.27-.14.4-.03.09-.06.18-.09.27-.05.14-.1.29-.14.43-.03.08-.05.15-.08.23-.05.14-.1.29-.14.43-.02.08-.05.15-.08.23-.05.15-.1.3-.14.44-.02.07-.05.14-.07.21-.05.15-.1.31-.15.46-.02.06-.04.13-.06.19-.05.16-.1.31-.14.46-.02.06-.04.12-.06.18-.05.16-.1.32-.15.48-.02.05-.03.11-.05.16-.05.16-.1.32-.15.48l-.05.15c-.05.17-.1.33-.15.49,0,.04-.03.09-.04.13-.05.17-.1.34-.15.51,0,.04-.02.08-.04.12-.05.17-.1.34-.15.51,0,.04-.02.07-.03.11-.05.17-.1.35-.15.52,0,.03-.02.06-.03.09-.05.18-.1.35-.15.53,0,.03-.02.06-.02.08-.05.18-.1.35-.14.53,0,.02,0,.05-.02.07-.05.18-.1.36-.14.54,0,.02,0,.04-.02.06-.05.18-.1.36-.14.55,0,0,0,.03,0,.04-.05.19-.1.37-.14.56v.02c-.05.19-.1.38-.14.56h0c-2.09,8.26-2.85,14.19-2.9,14.61v.03H1.05s-.92-10.12-.05-23.74c.06-1.02.14-2.05.23-3.11v-.04c.03-.33.06-.67.08-1h0c.12-1.41.27-2.83.43-4.28.68-5.96,1.74-12.28,3.36-18.52,2-7.72,4.86-15.32,8.92-21.96.84-1.38,1.74-2.73,2.69-4.02,0,0-3.49-2.93-5.48-7.31-2.19-4.82-2.55-11.4,5.6-17.74h0s-.06.11-.11.22c0,0,0,0,0,.02,0,0,0,.02-.02.03-.28.53-.91,1.8-1.4,3.41h0c-.02.08-.05.16-.07.24v.02c-.02.08-.04.16-.07.24v.03c-.02.08-.04.15-.06.23,0,0,0,.03,0,.04-.02.08-.04.15-.06.23,0,.02,0,.04,0,.05-.02.08-.03.15-.05.22,0,.02,0,.04,0,.06-.02.07-.03.15-.04.22,0,.02,0,.05,0,.07,0,.07-.03.14-.04.22,0,.03,0,.05,0,.08,0,.07-.02.14-.04.21,0,.03,0,.05,0,.08,0,.07-.02.14-.03.21,0,.03,0,.06,0,.09,0,.07-.02.14-.02.21,0,.03,0,.06,0,.09,0,.07,0,.14-.02.21v.1c0,.07,0,.13,0,.2v1.35c0,.06,0,.13,0,.19,0,.04,0,.08,0,.12,0,.06,0,.13.02.19,0,.04,0,.08,0,.12,0,.06.02.12.03.19,0,.04,0,.08.02.12,0,.06.02.12.03.18,0,.04.02.08.02.13,0,.06.02.12.04.18,0,.04.02.08.03.13,0,.06.03.12.04.18,0,.04.02.08.04.13.02.06.03.12.05.18,0,.04.03.08.04.13.02.06.04.12.06.17.02.04.03.09.05.13.02.06.04.11.07.17.02.04.04.08.05.13.02.06.05.11.07.17.02.04.04.08.06.13.03.06.05.11.08.17.02.04.04.08.07.13s.06.11.09.16c.02.04.05.08.07.13.03.05.06.11.1.16.03.04.05.08.08.12.03.05.07.1.1.16.03.04.06.08.09.12.04.05.07.1.11.15.03.04.06.08.1.12.04.05.08.1.12.15.03.04.07.08.11.12.04.05.08.1.13.14l.12.12s.09.09.14.14l.12.12s.1.09.15.13c.04.04.09.08.13.12.05.04.1.09.15.13.05.04.1.08.15.11.05.04.11.08.16.12.05.04.11.08.16.11.06.04.11.08.17.12.06.04.12.08.18.12.06.03.11.07.17.11.07.04.15.09.22.13.05.03.1.06.15.08.12.07.25.14.39.21,6.99,3.54,11.63-.63,17.31,4,.38-.15.84-.34,1.33-.58,2.78-1.38,6.63-4.38,4.51-9.96.11.15,6.8,9.33.29,14.66-.33.28-.7.54-1.11.79,1.53,1.26,3.18,2.28,4.93,3.03.66.29,1.34.53,2.03.74,1.5.44,3.15.78,4.88.89h0c.12.27,3.93,9.39-4.6,13.84-1.36.71-2.93,1.51-4.65,2.42,0,0,.02.02.02.03,2.42,2.63,5.85,5.11,13.19,10.65h0c.05.04.46.38,1.11.87h0c.84.63,2.07,1.51,3.45,2.32,2.41,1.41,5.26,2.62,7.21,1.94,3.4-1.18,2.64-5.51,1.57-8.43-.62-1.7-.13-3.7,1.18-4.73,1.74-1.36,4.06-.9,4.06-.9l-.13.08Z"/>
            <path class="cls-33" d="M58.67,62.78s-.02-.01-.03-.02h0l.02.02h.01Z"/>
            <path class="cls-32" d="M42.57,30c-.33.28-.7.54-1.11.79-.6-.5-1.19-1.03-1.75-1.59-.42-.42-.82-.85-1.21-1.31-.7-.81-1.38-1.48-2.05-2.02.38-.15.84-.34,1.33-.58,2.78-1.38,6.63-4.38,4.51-9.96.11.15,6.8,9.33.29,14.66h-.01Z"/>
            <path class="cls-31" d="M36.39,56.12h0c-5.62,3.56-11.52,8.17-15.82,14.18-1.68,2.35-3.12,4.92-4.21,7.73-.41,1.07-.8,2.13-1.18,3.18-5.18,14.58-6.72,27.23-6.72,27.23H.98s-.92-10.12-.05-23.74c.17-2.69.41-5.52.75-8.44,7.68-8.99,19.12-18.19,34.7-20.14h0Z"/>
            <path class="cls-30" d="M53.29,35.45h0c-.16.15-15.23,14.49-36.63-3.69,0,0-3.49-2.93-5.48-7.31-2.19-4.82-2.55-11.4,5.6-17.74h0v.02c-.34.59-6.04,10.89,2.37,15.14,6.99,3.54,11.63-.63,17.31,4,.67.54,1.35,1.21,2.05,2.02.92,1.06,1.91,2.04,2.96,2.9,1.53,1.26,3.18,2.28,4.93,3.03.66.29,1.34.53,2.03.74,1.5.44,3.15.78,4.88.89h-.02Z"/>
            <path class="cls-28" d="M48.69,49.29c-1.36.71-2.93,1.51-4.65,2.42h0c-.15.08-.3.16-.45.24-.25.13-.51.27-.76.41-.35.19-.71.39-1.07.59-.31.17-.63.35-.95.53-1.43.81-2.92,1.69-4.43,2.64-15.58,1.95-27.02,11.15-34.7,20.14.68-5.96,1.74-12.28,3.36-18.52,2-7.72,4.86-15.32,8.92-21.96.84-1.38,1.74-2.73,2.69-4.02,9.36,7.95,17.5,9.68,23.72,9.1.11,0,.22-.02.34-.03.82-.09,1.6-.21,2.34-.37.12-.03.25-.05.37-.08s.24-.06.36-.09.24-.06.36-.09c.26-.07.52-.14.77-.22.09-.03.18-.05.27-.08.15-.05.29-.09.44-.14.07-.03.15-.05.22-.08.11-.04.21-.08.32-.11.21-.08.42-.15.62-.23.1-.04.2-.08.3-.12.1-.04.2-.08.29-.12.3-.12.58-.25.86-.38.09-.04.17-.08.25-.12.09-.04.18-.08.26-.13.09-.04.17-.09.25-.13.92-.47,1.7-.95,2.34-1.38.06-.04.11-.08.17-.12.05-.04.11-.08.16-.11.11-.07.21-.15.3-.22.05-.03.09-.07.14-.1.14-.1.26-.19.37-.28.04-.03.07-.06.11-.09.4-.32.63-.53.68-.58h0c.12.27,3.93,9.39-4.6,13.84h.03Z"/>
            <path class="cls-19" d="M53.28,35.46h0c-.22.33-8.88,13.28-26.44,7.65-5.29-1.7-9.53-4.38-12.88-7.32.84-1.38,1.74-2.73,2.69-4.02,9.36,7.95,17.5,9.68,23.72,9.1.11,0,.22-.02.34-.03.82-.09,1.6-.21,2.34-.37.12-.03.25-.05.37-.08s.24-.06.36-.09.24-.06.36-.09c.26-.07.52-.14.77-.22.09-.03.18-.05.27-.08.15-.05.29-.09.44-.14.07-.03.15-.05.22-.08.11-.04.21-.07.32-.11.21-.08.42-.15.62-.23.1-.04.2-.08.3-.12.1-.04.2-.08.29-.12.3-.12.58-.25.86-.38.09-.04.17-.08.25-.12.09-.04.18-.08.26-.13.09-.04.17-.08.25-.13.92-.47,1.7-.95,2.34-1.38.06-.04.11-.08.17-.12s.11-.08.16-.11c.11-.07.21-.15.3-.22.05-.03.09-.07.14-.1.14-.1.26-.19.37-.28.04-.03.07-.06.11-.09.4-.32.63-.53.68-.58h.02Z"/>
            <path class="cls-27" d="M56.94,95.14c-3.54-5.33-9.14-8.65-17.39-9.8-.05,0-.09-.01-.14-.02v-.17h0c-.02-.97-.04-1.95-.08-2.95-.03-.81-.06-1.63-.1-2.46-.02-.36-.03-.72-.05-1.09-.02-.45-.05-.89-.08-1.35-.04-.68-.09-1.37-.14-2.07v-.07c-.04-.51-.08-1.02-.12-1.53-.07-.81-.14-1.63-.22-2.46-.05-.49-.1-.97-.15-1.46-.21-1.98-.46-3.99-.76-6.01-.04-.28-.08-.56-.13-.84-.05-.3-.09-.6-.14-.9-.04-.26-.08-.52-.13-.78-.14-.84-.29-1.69-.44-2.53-.08-.46-.17-.92-.26-1.37h0c-.07-.36-.14-.73-.22-1.09,0-.02,0-.04-.01-.07,2.68-1.7,5.3-3.15,7.66-4.4,0,0-.02.03-.05.07-.49.7-4.1,6.36-.31,17.41,2.88,8.39,8.56,18.26,11.61,23.29.71,1.18,1.28,2.09,1.64,2.65h.01Z"/>
            <path class="cls-26" d="M26.92,84.87c-.81-.05-1.58-.13-2.32-.23-2.97-.41-5.38-1.22-7.34-2.21-.1-.05-.2-.1-.3-.15-.64-.34-1.24-.7-1.78-1.07.37-1.05.77-2.11,1.18-3.18,1.08-2.8,2.52-5.37,4.21-7.73.24.32.47.65.71,1.01.1.15.21.31.31.47.05.08.1.16.15.24.1.16.2.33.31.5.03.04.06.09.08.14.03.05.06.09.09.14,0,.01.02.03.03.04.03.04.05.09.08.14.07.12.14.24.21.37.21.37.42.76.63,1.17.04.07.07.13.1.2.04.07.07.14.1.21.07.13.13.26.2.4.11.22.22.45.32.69.04.08.07.15.1.23.05.11.1.21.14.32.04.1.08.19.13.29.15.35.3.71.45,1.09.1.24.19.49.29.74.03.08.06.17.1.25.17.44.33.9.49,1.37.05.14.09.28.14.42.09.28.19.57.28.87.04.14.09.29.13.43h0c.04.15.08.29.12.43.05.16.09.32.14.48l.09.31c.15.52.29,1.06.43,1.61h0Z"/>
            <path class="cls-29" d="M38.45,108.44h-9.01c0-9.94-1.02-17.63-2.51-23.57-.14-.55-.28-1.09-.43-1.61l-.09-.31c-.05-.16-.09-.32-.14-.48l-.12-.42h0c-.04-.15-.09-.3-.13-.44-.09-.29-.18-.58-.28-.87-.05-.14-.09-.28-.14-.42-.16-.47-.33-.93-.49-1.37-.03-.08-.06-.17-.1-.25-.1-.25-.19-.5-.29-.74-.15-.37-.3-.73-.45-1.09-.04-.1-.08-.19-.13-.29-.05-.11-.1-.22-.14-.32-.03-.08-.07-.15-.1-.23-.11-.23-.21-.46-.32-.69-.06-.13-.13-.27-.2-.4-.03-.07-.07-.14-.1-.21s-.07-.14-.1-.2c-.21-.41-.42-.8-.63-1.17-.07-.12-.14-.25-.21-.37-.03-.05-.05-.09-.08-.14,0-.01-.02-.03-.03-.04-.03-.05-.06-.1-.09-.14-.03-.05-.05-.09-.08-.14-.1-.17-.2-.34-.31-.5-.05-.08-.1-.16-.15-.24-.1-.16-.21-.32-.31-.47-.24-.36-.48-.7-.71-1.01,4.3-6.01,10.19-10.62,15.81-14.18h.01s0,.04.01.07c.08.36.15.73.22,1.09h0c.09.46.18.92.26,1.37.16.84.3,1.69.44,2.53.04.26.09.52.13.78.05.3.09.6.14.9.04.28.08.56.13.84.3,2.02.55,4.02.76,6.01.05.49.1.98.15,1.46.08.83.15,1.64.22,2.46.04.51.08,1.02.12,1.53v.07c.05.7.1,1.39.14,2.07.03.45.05.9.08,1.35.02.36.04.73.05,1.09.04.83.07,1.65.1,2.46.03,1,.06,1.98.08,2.95h0v.18c.24,13.4-.97,23.12-.97,23.12v-.02Z"/>
            <path class="cls-36" d="M57.6,103.82c-.15,2.72-.43,4.62-.43,4.62h-8.19c.08-8.83-6.07-18.34-9.58-23.12.05,0,.09.01.14.02,4.36.61,7.97,1.82,10.94,3.61,2.65,1.6,4.78,3.67,6.45,6.19h0s.03.04.04.06c.12.17.23.35.34.53,0,0,.02.03.02.03v.02h.01c.06.09.11.19.17.28.08.92.13,1.84.16,2.75.05,1.79,0,3.52-.08,5h.01Z"/>
            <path class="cls-37" d="M75.84,53.47s-1.12.86-1.73,3.04-2.39,2.09-2.39,2.09h0c.02.05.08.18.16.38h0c.37.9,1.26,3.24,1.54,5.76.34,3.08-.22,6.43-3.76,7.7-1.85.67-3.67.52-5.35-.07h0c-.34-.84-.7-1.65-1.08-2.43-1.32-2.69-2.92-5-4.86-6.67.84.63,2.07,1.51,3.45,2.32,2.41,1.41,5.26,2.62,7.21,1.94,3.4-1.18,2.64-5.51,1.57-8.43-.62-1.7-.13-3.7,1.18-4.73,1.74-1.36,4.06-.9,4.06-.9Z"/>
            <path class="cls-38" d="M69.41,108.44h-7.95c-.65-4.84-1.91-8.97-3.93-12.37-.05-.09-.11-.18-.17-.27h0s0,0-.01-.02c0,0-.01-.02-.02-.03-.11-.18-.22-.35-.34-.53-.01-.02-.03-.04-.04-.06h0c-1.9-2.99-9.7-15.6-13.25-25.95-3.89-11.33,0-17,.34-17.45h0s.01-.03.01-.03c0,0,.02.02.02.03,2.42,2.63,5.85,5.11,13.19,10.65h0c.05.04.46.38,1.11.87h0c2.5,2.15,4.43,5.36,5.94,9.1h0c5.71,14.23,5.1,36.07,5.1,36.07h0Z"/>
            <path class="cls-17" d="M48.69,49.29c-1.36.71-2.93,1.51-4.65,2.42h0c-.15.08-.3.16-.45.24-.25.13-.51.27-.76.41-.35.19-.71.39-1.07.59-.31.17-.63.35-.95.53-1.43.81-2.92,1.69-4.43,2.64-15.58,1.95-27.02,11.15-34.7,20.14.68-5.96,1.74-12.28,3.36-18.52,14.17-7.68,31.85-5.53,39.76-8.26,10.72-3.7,8.55-13.74,8.48-14.03.12.27,3.93,9.39-4.6,13.84h.01Z"/>
            <path class="cls-20" d="M53.29,35.45c-.63.62-1.32,1.15-2.03,1.65-.71.49-1.44.94-2.19,1.35-1.5.8-3.06,1.44-4.67,1.9-1.6.46-3.25.73-4.9.83s-3.31.01-4.95-.21l-1.23-.22c-.1-.02-.2-.03-.31-.06l-.3-.07-.61-.15-.61-.15c-.2-.05-.4-.12-.6-.18l-1.2-.37-1.18-.45-.59-.22-.58-.26-1.16-.52c-.38-.19-.75-.39-1.13-.59-.76-.38-1.49-.84-2.22-1.28-.37-.21-.72-.46-1.08-.7l-1.07-.73c-.18-.12-.35-.26-.52-.39l-.52-.4-1.03-.79c-.67-.56-1.33-1.13-1.99-1.7l1.03.79,1.03.79,1.06.74.53.37c.18.12.35.25.53.36l1.08.68c.36.23.72.46,1.09.66.74.41,1.47.85,2.23,1.2.38.18.75.38,1.13.56l1.15.49.57.25.58.21,1.17.42c1.57.5,3.17.9,4.78,1.14,3.23.46,6.52.33,9.7-.5,1.59-.41,3.15-.99,4.66-1.73,1.51-.74,2.97-1.63,4.31-2.75l.04.03Z"/>
            <g class="cls-21">
              <path class="cls-25" d="M5.05,57.74l.81-.44c.27-.15.54-.3.81-.43.55-.27,1.09-.54,1.65-.78l.83-.37.84-.34c.56-.24,1.13-.43,1.69-.64,2.27-.8,4.59-1.41,6.93-1.91.58-.13,1.17-.24,1.75-.35.59-.1,1.17-.21,1.76-.3.59-.09,1.18-.19,1.76-.26.59-.09,1.18-.16,1.77-.24,2.36-.29,4.72-.5,7.08-.71,2.36-.2,4.72-.38,7.07-.69,1.17-.15,2.34-.34,3.49-.61.57-.14,1.14-.3,1.7-.5.28-.11.56-.2.84-.31.27-.12.55-.23.82-.36,1.09-.52,2.13-1.17,3.06-2.01l.35-.31.33-.34.16-.17.16-.18.31-.37c.39-.51.76-1.05,1.07-1.64.62-1.17,1.05-2.49,1.24-3.86.1-.68.15-1.38.14-2.08,0-.7-.05-1.4-.18-2.08.15.68.22,1.38.25,2.08.03.7,0,1.41-.09,2.1-.16,1.4-.56,2.75-1.17,3.98-.31.61-.67,1.17-1.07,1.71l-.31.38-.16.19-.17.18-.33.36-.35.33c-.94.88-2,1.57-3.1,2.12s-2.25.97-3.42,1.26-2.35.49-3.53.66c-2.36.32-4.72.51-7.08.72-4.72.39-9.44.83-14.1,1.73-2.33.45-4.65,1.01-6.93,1.75-.57.19-1.14.36-1.7.58l-.85.31-.84.34c-1.12.45-2.22.97-3.31,1.51h.02Z"/>
            </g>
            <path class="cls-39" d="M36.39,56.12c-15.58,1.95-27.02,11.15-34.7,20.14,2.16-2.94,4.59-5.61,7.21-8s5.44-4.49,8.41-6.25c2.97-1.75,6.09-3.16,9.29-4.17,3.21-1,6.49-1.6,9.79-1.73h0Z"/>
            <path class="cls-42" d="M46.38,33.82c-7.45,3.2-19.96,2.26-28.35-5.27-10.96-9.83-1.45-21.61-1.26-21.84-.13.23-6.21,10.83,2.36,15.16,6.99,3.54,11.63-.63,17.31,4,.67.54,1.35,1.21,2.05,2.02.92,1.06,1.91,2.04,2.96,2.9,1.53,1.26,3.18,2.28,4.93,3.03Z"/>
            <path class="cls-43" d="M53.29,35.45h-.18c-.49,0-.98-.03-1.47-.06-.55-.05-1.09-.12-1.63-.21-.55-.09-1.08-.21-1.62-.34s-1.08-.3-1.61-.48c-1.06-.38-2.09-.86-3.09-1.43s-1.96-1.25-2.87-2-1.78-1.58-2.59-2.49c-.78-.88-1.58-1.67-2.48-2.31-.11-.09-.22-.16-.33-.24-.11-.07-.22-.15-.34-.23-.23-.13-.46-.28-.7-.4-.23-.13-.48-.23-.72-.34-.25-.09-.49-.19-.74-.26-1-.32-2.04-.44-3.1-.49-1.06-.04-2.15,0-3.25-.02-1.1-.01-2.23-.07-3.34-.27-.56-.1-1.11-.23-1.66-.39-.55-.17-1.09-.36-1.61-.6-1.05-.46-2.09-1.05-3.01-1.87-.12-.09-.23-.21-.34-.32l-.33-.34-.3-.37-.15-.19c-.05-.06-.09-.13-.14-.2l-.27-.41c-.09-.14-.16-.29-.24-.43l-.12-.22c-.04-.08-.07-.15-.1-.23-.06-.15-.13-.31-.19-.46-.22-.64-.37-1.3-.45-1.97-.07-.67-.08-1.35-.03-2.01.12-1.33.42-2.61.86-3.8.43-1.19.96-2.32,1.61-3.35-.34.59-6.04,10.89,2.37,15.14,6.99,3.54,11.63-.63,17.31,4,.67.54,1.35,1.21,2.05,2.02.92,1.06,1.91,2.04,2.96,2.9,1.53,1.26,3.18,2.28,4.93,3.03.66.29,1.34.53,2.03.74,1.5.44,3.15.78,4.88.89h0Z"/>
            <g class="cls-21">
              <path class="cls-44" d="M39.7,29.2c.98-.71,1.89-1.55,2.61-2.57.34-.53.65-1.08.88-1.68.23-.6.39-1.24.48-1.89.19-1.3.09-2.65-.17-3.95-.13-.65-.3-1.29-.51-1.92-.2-.63-.44-1.25-.71-1.84.34.55.62,1.15.87,1.76.25.62.46,1.26.62,1.92s.27,1.34.32,2.03.03,1.39-.07,2.07c-.1.68-.27,1.36-.52,1.99-.26.62-.59,1.2-.98,1.73-.79,1.02-1.77,1.81-2.82,2.36h0Z"/>
            </g>
            <path class="cls-16" d="M42.57,30c-.33.28-.7.54-1.11.79-.6-.5-1.19-1.03-1.75-1.59,7.62-4.72,2.66-13.7,2.57-13.86.11.15,6.8,9.33.29,14.66Z"/>
            <path class="cls-3" d="M42.57,30c-.33.28-.7.54-1.11.79-1.05-.86-2.04-1.84-2.96-2.9-.7-.81-1.38-1.48-2.05-2.02.38-.15.84-.34,1.33-.58.52.47,1.04,1.01,1.55,1.6.88,1.02,1.82,1.94,2.81,2.75.14.12.29.24.44.35h-.01Z"/>
            <path class="cls-8" d="M36.39,56.12h0s-.02.01-.05.02c-1.22.5-21.76,9.16-35.39,28.55.09-1.36.19-2.75.32-4.17.12-1.4.27-2.82.43-4.27,7.68-8.99,19.12-18.19,34.69-20.14h0Z"/>
            <path class="cls-13" d="M36.38,56.12c-5.62,3.56-11.52,8.17-15.82,14.18-1.68,2.35-3.12,4.92-4.21,7.73-.41,1.07-.8,2.13-1.18,3.18-5.1,14.35-6.67,26.84-6.71,27.22H.98c9.53-47.39,35.39-52.32,35.39-52.32h.01Z"/>
            <path class="cls-40" d="M36.38,56.12c-5.62,3.56-11.52,8.17-15.82,14.18-1.68,2.35-3.12,4.92-4.21,7.73-.41,1.07-.8,2.13-1.18,3.18-5.1,14.35-6.67,26.84-6.71,27.22.05-.67.13-1.33.2-2,.08-.67.16-1.34.26-2,.18-1.33.41-2.66.63-3.99.12-.66.25-1.32.37-1.98.13-.66.27-1.32.4-1.97.13-.66.29-1.31.43-1.97s.31-1.3.46-1.96c.63-2.61,1.35-5.18,2.14-7.72.19-.64.39-1.27.61-1.9l.64-1.89c.22-.62.46-1.24.68-1.87l.34-.93.17-.47.18-.47c.5-1.24,1.07-2.45,1.71-3.6s1.33-2.26,2.07-3.31c.37-.53.76-1.03,1.15-1.54.2-.25.4-.49.6-.74s.4-.49.61-.73c.82-.97,1.69-1.86,2.57-2.74,1.78-1.73,3.67-3.29,5.62-4.7,1.96-1.41,3.98-2.69,6.05-3.83h.03Z"/>
            <g class="cls-21">
              <path class="cls-24" d="M.99,108.44l.88-4.28,1.03-4.23.59-2.09.29-1.04c.1-.35.19-.7.31-1.04l.66-2.06.33-1.03c.11-.34.24-.68.36-1.02l.73-2.03.18-.51.2-.5.4-.99.4-.99c.14-.33.26-.67.41-.99l.88-1.94.22-.49c.07-.16.15-.32.23-.48l.48-.95.48-.95c.16-.31.31-.64.49-.94l1.02-1.85.25-.46.27-.45.54-.9.55-.89c.09-.15.19-.29.28-.44l.29-.43.58-.87.29-.43.15-.22.15-.21,1.22-1.67c.1-.14.21-.27.31-.41l.32-.4.64-.8c1.73-2.11,3.59-4.09,5.59-5.84l.37-.33c.12-.11.25-.22.38-.32l.77-.63c.51-.43,1.04-.8,1.57-1.2.26-.2.53-.38.8-.56.27-.18.54-.37.81-.55l.82-.52c.14-.09.27-.18.41-.26l.42-.24c1.12-.65,2.26-1.22,3.43-1.72s2.36-.93,3.59-1.18c-1.22.3-2.4.77-3.55,1.28-1.16.53-2.29,1.12-3.39,1.8l-.41.25c-.14.08-.27.17-.41.26l-.81.53c-.27.18-.53.37-.8.56-.26.19-.53.37-.79.57-.52.4-1.05.78-1.54,1.22l-.76.63c-.13.1-.25.21-.37.33l-.37.33c-3.93,3.55-7.38,7.83-10.25,12.59-2.93,4.72-5.26,9.92-7.23,15.29-.12.34-.26.67-.37,1.01l-.34,1.02-.68,2.04c-.12.34-.22.69-.32,1.03l-.31,1.04-.61,2.08-1.1,4.2-.97,4.25v.02Z"/>
            </g>
            <path class="cls-5" d="M36.38,56.12h0c-.32.05-18.85,2.99-35.12,24.41.12-1.4.27-2.82.43-4.27,7.68-8.99,19.12-18.19,34.69-20.14h0Z"/>
            <path class="cls-7" d="M26.92,84.87c-.81-.05-1.58-.13-2.32-.23-1.31-6.66-3.99-14.18-4.04-14.33.24.32.47.65.71,1.01.1.15.21.31.31.47.05.08.1.16.15.24.1.16.2.33.31.5.06.09.11.19.17.28,0,.01.02.03.03.04.03.04.05.09.08.14.07.12.14.24.21.37.21.37.42.76.63,1.17.04.07.07.13.1.2.04.07.07.14.1.21.06.13.13.26.2.4.11.22.22.45.32.69.03.08.07.15.1.23.05.11.1.21.14.32.04.1.08.19.13.29.15.35.3.71.45,1.09.13.32.26.65.39.99.17.44.33.9.49,1.37.05.14.09.28.14.42.09.28.19.57.28.87.04.14.09.29.13.43h0c.04.15.08.29.12.43.05.16.09.32.14.48.03.1.06.21.09.31.15.52.29,1.06.43,1.61h.01Z"/>
            <path class="cls-14" d="M38.45,108.43h0s-9.01,0-9.01,0c0,0,6.16-16.67,6.94-52.31l.03.06c1.85,8.97,2.66,18.02,2.93,26.01.03,1,.06,1.98.08,2.95h0v.18c.23,13.12-.92,22.7-.96,23.11h-.01Z"/>
            <path class="cls-50" d="M38.88,95.32c.02-2.18.03-4.37,0-6.55,0-1.09-.03-2.18-.05-3.27l-.09-3.27c-.15-4.36-.41-8.71-.79-13.05-.39-4.34-.92-8.67-1.56-12.99l-.02-.06.03.06c1.85,8.97,2.66,18.02,2.93,26.01.03,1,.06,1.98.08,2.95h0v.18c.23,13.12-.92,22.7-.96,23.11.24-4.38.37-8.74.43-13.11h0Z"/>
            <g class="cls-21">
              <path class="cls-49" d="M29.43,108.44c.66-2.08,1.2-4.2,1.67-6.34l.18-.8.17-.81.34-1.61.62-3.24.56-3.25c.18-1.09.33-2.18.5-3.26l.12-.82.11-.82.22-1.64.22-1.64c.07-.55.13-1.1.19-1.64l.38-3.29.32-3.3.16-1.65c.05-.55.09-1.1.13-1.65l.26-3.31.07-.83.05-.83.1-1.66.21-3.31c.12-2.21.2-4.42.33-6.63h0l.03.06-.03-.06h0l-.02,1.66-.03,1.66c-.02,1.11-.03,2.22-.06,3.32l-.14,3.32-.07,1.66-.04.83-.05.83-.22,3.32c-.04.55-.07,1.11-.12,1.66l-.15,1.65-.3,3.31-.37,3.3c-.07.55-.12,1.1-.2,1.65l-.23,1.64-.23,1.64-.11.82-.13.82c-.18,1.09-.35,2.18-.54,3.27l-.61,3.25-.34,1.62c-.11.54-.22,1.08-.35,1.61l-.38,1.6-.19.8-.21.8c-.14.53-.27,1.06-.42,1.59l-.45,1.58c-.16.52-.31,1.04-.48,1.56l-.26.77c-.09.25-.18.51-.28.76l.07.03Z"/>
            </g>
            <path class="cls-6" d="M56.94,95.14c-1.67-2.52-3.8-4.58-6.45-6.19-3.99-6.91-8.11-13.52-9.22-19.75-2.04-11.43,2.4-17.04,2.75-17.46-.33.46-4.23,6.12-.34,17.45,3.56,10.35,11.36,22.96,13.25,25.95h0Z"/>
            <path class="cls-51" d="M56.94,95.14c-3.54-5.33-9.14-8.65-17.39-9.8-.05,0-.09-.01-.14-.02,1.68-.05,3.36.12,5.01.48,1.66.36,3.29.92,4.86,1.72,1.56.79,3.05,1.83,4.36,3.1.59.57,1.15,1.2,1.65,1.86.63.82,1.18,1.7,1.64,2.65h0Z"/>
            <path class="cls-4" d="M57.68,98.82c-5.81-9.26-18.27-13.5-18.27-13.5.05,0,.09.01.14.02,4.36.61,7.97,1.82,10.94,3.61,2.65,1.6,4.78,3.67,6.45,6.19h0s.03.04.04.06c.12.17.23.35.34.53,0,0,.02.03.02.03v.02h.01c.06.09.11.19.17.28.08.92.13,1.84.16,2.75h0Z"/>
            <g class="cls-21">
              <path class="cls-23" d="M39.41,85.32c1.96.92,3.75,2.28,5.4,3.84,1.64,1.57,3.1,3.4,4.34,5.43l.23.38c.08.13.15.25.22.39l.43.79c.14.27.27.54.4.81.07.13.13.27.2.4l.18.41c.51,1.1.93,2.24,1.31,3.41.17.59.36,1.17.5,1.77.07.3.15.6.22.9l.19.91.09.45c.03.15.05.31.08.46l.15.92c.09.61.15,1.23.23,1.85h0s0,0,0,0l-.14-.92-.07-.46-.03-.23-.04-.23-.17-.91c-.03-.15-.06-.3-.09-.45l-.11-.45-.21-.9c-.07-.3-.16-.59-.24-.89-.15-.59-.35-1.17-.53-1.75-.4-1.14-.81-2.28-1.33-3.36l-.19-.41c-.06-.13-.13-.27-.2-.4-.14-.26-.27-.53-.4-.79l-.43-.78c-.14-.26-.3-.5-.45-.76-.61-1-1.27-1.97-1.98-2.87-.71-.91-1.48-1.75-2.28-2.55-.8-.8-1.64-1.54-2.53-2.21-.88-.68-1.79-1.29-2.76-1.8h0Z"/>
            </g>
            <path class="cls-15" d="M53.58,108.44h-4.59c.08-8.83-6.07-18.34-9.58-23.12,0,0,12.17,5.49,14.17,23.11h0Z"/>
            <path class="cls-12" d="M69.41,108.44h-4.41c-.22-10.96-2.01-21.84-7.3-27.91-13.45-15.43-13.68-28.79-13.68-28.79h.04c2.42,2.63,5.85,5.11,13.19,10.65h0c.05.04.46.38,1.11.87h0c2.5,2.15,4.43,5.36,5.94,9.1h0c5.71,14.23,5.1,36.07,5.1,36.07h.01Z"/>
            <path class="cls-41" d="M58.65,62.77h0s.02,0,.03.01h-.03Z"/>
            <polygon class="cls-46" points="64.9 72.37 64.84 72.07 64.9 72.21 64.9 72.37"/>
            <path class="cls-45" d="M69.41,108.44c-.08-3.07-.24-6.13-.48-9.18-.11-1.53-.25-3.05-.42-4.56-.16-1.52-.34-3.03-.54-4.54-.22-1.51-.44-3.01-.7-4.5-.27-1.49-.57-2.97-.9-4.44-.34-1.47-.71-2.92-1.14-4.35s-.91-2.83-1.45-4.2h0s0-.02-.01-.03c-.34-.85-.7-1.68-1.1-2.48-.4-.82-.84-1.61-1.3-2.37-.93-1.52-2.02-2.91-3.29-4.03h-.01l-.53-.42-.28-.23-.14-.11-.07-.06-.03-.03h-.02v-.02h-.01s-3.31-2.61-3.31-2.61c-1.11-.88-2.21-1.76-3.31-2.65-1.1-.9-2.19-1.81-3.25-2.77-.53-.48-1.05-.98-1.57-1.48-.51-.52-1-1.05-1.47-1.61h-.04.04c2.42,2.63,5.85,5.11,13.19,10.65h0c.05.04.46.38,1.11.87h0c2.5,2.15,4.43,5.36,5.94,9.1h0c5.71,14.23,5.1,36.07,5.1,36.07v-.02Z"/>
            <g class="cls-21">
              <path class="cls-47" d="M65,108.44l-.04-.99-.05-.99c-.04-.66-.08-1.32-.12-1.98-.09-1.32-.21-2.63-.37-3.94-.3-2.62-.71-5.22-1.32-7.76-.62-2.53-1.41-5.01-2.5-7.29-.54-1.14-1.16-2.23-1.87-3.24-.09-.13-.18-.25-.27-.38l-.28-.36c-.18-.25-.38-.47-.57-.7l-1.2-1.4c-3.15-3.8-5.96-8.01-8.17-12.65-.56-1.16-1.06-2.35-1.54-3.55-.47-1.21-.9-2.44-1.27-3.69-.37-1.26-.68-2.53-.93-3.83-.25-1.29-.44-2.61-.48-3.93h.04-.04c.04.66.13,1.31.23,1.96.1.65.22,1.3.37,1.93.28,1.28.63,2.54,1.03,3.77.39,1.24.84,2.45,1.32,3.64.49,1.19,1.01,2.35,1.58,3.49,1.13,2.27,2.4,4.45,3.77,6.53,1.37,2.08,2.85,4.06,4.42,5.94l1.19,1.4c.2.24.4.47.59.73l.28.37c.09.13.18.26.27.39.72,1.04,1.36,2.15,1.9,3.33,1.09,2.35,1.89,4.86,2.46,7.44.57,2.57.96,5.2,1.2,7.84.12,1.32.2,2.64.26,3.97.03.66.05,1.32.07,1.99l.02.99v.99l.02-.02Z"/>
            </g>
            <path class="cls-9" d="M44.05,51.72s-.02.03-.05.07c-.51.33-3.51,2.31-7.37,5.49-4.53,3.72-10.24,9.1-14.49,15.39-2.07,3.07-3.8,6.35-4.87,9.77-.1-.05-.2-.1-.3-.15-.64-.34-1.24-.7-1.78-1.07.37-1.05.77-2.11,1.18-3.18,1.08-2.8,2.52-5.37,4.21-7.73,4.3-6.01,10.19-10.62,15.81-14.18h.01c2.68-1.7,5.3-3.15,7.66-4.4h0Z"/>
            <path class="cls-48" d="M71.73,58.61s.08.17.16.37c-.06-.11-.11-.23-.16-.37Z"/>
            <path class="cls-11" d="M75.84,53.47s-1.12.86-1.73,3.04-2.39,2.09-2.39,2.09c-1.27-3.78,4.12-5.13,4.12-5.13Z"/>
            <path class="cls-2" d="M64.31,72.37c-1.5-3.74-3.44-6.95-5.94-9.1.84.63,2.07,1.51,3.45,2.32.74,1.52,1.71,3.83,2.48,6.78h.01Z"/>
            <path class="cls-18" d="M69.66,72.44c-1.85.67-3.67.52-5.35-.07h0c-.34-.84-.7-1.65-1.08-2.43,3.34,1.19,9.97,2.57,10.19-5.19h0c.34,3.08-.22,6.42-3.76,7.69Z"/>
            <g class="cls-21">
              <path class="cls-22" d="M63.24,69.94c1.08.33,2.17.58,3.27.72.55.06,1.1.1,1.65.07.55-.02,1.1-.09,1.63-.25.53-.15,1.05-.38,1.5-.73.46-.34.86-.79,1.17-1.32s.53-1.13.69-1.75c.15-.63.22-1.28.28-1.93,0,.66-.05,1.32-.17,1.97-.13.65-.34,1.28-.65,1.84-.31.57-.72,1.05-1.2,1.42-.48.37-1.02.62-1.57.78-1.11.31-2.25.29-3.36.12s-2.2-.5-3.25-.93h.01Z"/>
            </g>
          </g>
        </g>
        <path class="cls-35" d="M8.36,109.11c4.32,0,6.76,2.54,6.76,5.98,0,2.29-1.38,4.13-3.23,4.76,2.16.53,3.91,2.5,3.91,5.26,0,3.6-2.69,6.2-6.86,6.2H.36v-22.2h8ZM7.7,118.29c1.97,0,3.16-1.1,3.16-2.79s-1.1-2.75-3.19-2.75h-3.04v5.54h3.07ZM8.14,127.71c2.1,0,3.35-1.1,3.35-2.88s-1.13-2.97-3.29-2.97h-3.57v5.86h3.51Z"/>
        <path class="cls-35" d="M20.35,108.27c1.44,0,2.57,1.16,2.57,2.6s-1.13,2.54-2.57,2.54-2.57-1.16-2.57-2.54,1.16-2.6,2.57-2.6ZM18.29,131.31v-15.4h4.16v15.4h-4.16Z"/>
        <path class="cls-35" d="M35.41,120.04c-.47-.09-.88-.12-1.25-.12-2.13,0-3.98,1.03-3.98,4.35v7.04h-4.16v-15.4h4.04v2.29c.94-2.04,3.07-2.41,4.38-2.41.34,0,.66.03.97.06v4.2h0Z"/>
        <path class="cls-35" d="M37.48,131.31v-15.4h3.98v1.88c.85-1.5,2.82-2.32,4.51-2.32,2.1,0,3.79.91,4.57,2.57,1.22-1.88,2.85-2.57,4.88-2.57,2.85,0,5.57,1.72,5.57,5.86v9.99h-4.04v-9.14c0-1.66-.81-2.91-2.72-2.91-1.78,0-2.85,1.38-2.85,3.04v9.02h-4.13v-9.14c0-1.66-.85-2.91-2.72-2.91s-2.88,1.35-2.88,3.04v9.02h-4.16v-.03Z"/>
        <path class="cls-35" d="M66.42,108.27c1.44,0,2.57,1.16,2.57,2.6s-1.13,2.54-2.57,2.54-2.57-1.16-2.57-2.54,1.16-2.6,2.57-2.6ZM64.35,131.31v-15.4h4.16v15.4s-4.16,0-4.16,0Z"/>
        <path class="cls-35" d="M76.25,131.31h-4.16v-15.4h4.04v1.91c.94-1.6,2.79-2.32,4.45-2.32,3.82,0,5.57,2.72,5.57,6.11v9.71h-4.16v-8.99c0-1.72-.85-3.07-2.85-3.07-1.82,0-2.88,1.41-2.88,3.19v8.86h0Z"/>
        <path class="cls-35" d="M92.16,131.15c.28,1.69,1.63,2.91,3.6,2.91,2.63,0,4.1-1.31,4.1-4.29v-1.13c-.63,1-2.07,1.97-4.29,1.97-4.1,0-7.17-3.16-7.17-7.48,0-4.07,2.94-7.51,7.17-7.51,2.44,0,3.85,1.06,4.38,2.1v-1.82h4.01v13.75c0,4.23-2.29,8.08-8.08,8.08-4.23,0-7.04-2.63-7.48-5.57l3.76-1h0ZM99.93,123.14c0-2.38-1.63-3.88-3.63-3.88s-3.69,1.5-3.69,3.88,1.53,3.91,3.69,3.91,3.63-1.53,3.63-3.91Z"/>
        <path class="cls-35" d="M111.49,131.31h-4.17v-22.67h4.17v8.55c1-1.19,2.69-1.69,4.16-1.69,3.91,0,5.73,2.72,5.73,6.11v9.71h-4.16v-8.99c0-1.72-.85-3.07-2.85-3.07-1.75,0-2.79,1.32-2.88,3.01v9.05h0Z"/>
        <path class="cls-35" d="M128.4,122.45l3.79-.56c.88-.12,1.16-.56,1.16-1.1,0-1.1-.85-2-2.6-2s-2.82,1.16-2.94,2.5l-3.7-.78c.25-2.41,2.47-5.07,6.61-5.07,4.88,0,6.7,2.76,6.7,5.86v7.58c0,.81.09,1.91.19,2.44h-3.82c-.09-.41-.16-1.25-.16-1.85-.78,1.22-2.25,2.29-4.54,2.29-3.29,0-5.29-2.22-5.29-4.63,0-2.76,2.04-4.29,4.6-4.67h0ZM133.34,125.08v-.69l-3.48.53c-1.06.16-1.91.75-1.91,1.94,0,.91.66,1.79,2,1.79,1.75,0,3.38-.85,3.38-3.57h0Z"/>
        <path class="cls-35" d="M140.74,131.31v-15.4h3.98v1.88c.85-1.5,2.82-2.32,4.51-2.32,2.1,0,3.79.91,4.57,2.57,1.22-1.88,2.85-2.57,4.88-2.57,2.85,0,5.57,1.72,5.57,5.86v9.99h-4.04v-9.14c0-1.66-.81-2.91-2.72-2.91-1.79,0-2.85,1.38-2.85,3.04v9.02h-4.13v-9.14c0-1.66-.85-2.91-2.72-2.91s-2.88,1.35-2.88,3.04v9.02h-4.17v-.03Z"/>
      </g>
    </g>
  </g>
</svg>